<svg width="200" height="200" viewBox="0 0 200 200" fill="none" xmlns="http://www.w3.org/2000/svg">
<rect width="200" height="200" rx="24" transform="matrix(-1 0 0 1 200 0)" fill="#ECEEF4"/>
<path d="M104 100.4H62" stroke="#3B72F2" stroke-width="1.2"/>
<path d="M58.5 50H66C74.8366 50 82 57.1634 82 66V84.5C82 93.3366 89.1634 100.5 98 100.5H103.5" stroke="#3B72F2" stroke-width="1.2"/>
<path d="M61 154H66.5C75.3366 154 82.5 146.837 82.5 138V116.5C82.5 107.663 89.6634 100.5 98.5 100.5H104" stroke="#3B72F2" stroke-width="1.2"/>
<path d="M171.375 73.8092H111.219V71.4263L164.156 67.2323V71.4263H171.375V64.2774C171.375 59.0349 167.087 55.3557 161.851 56.0944L113.529 62.9287C108.288 63.6722 104 68.5667 104 73.8092V121.468C104 123.996 105.014 126.421 106.819 128.208C108.624 129.996 111.072 131 113.625 131H171.375C173.928 131 176.376 129.996 178.181 128.208C179.986 126.421 181 123.996 181 121.468V83.341C181 80.813 179.986 78.3886 178.181 76.601C176.376 74.8135 173.928 73.8092 171.375 73.8092ZM164.156 107.199C163.208 107.199 162.269 107.014 161.393 106.654C160.517 106.294 159.721 105.767 159.051 105.103C158.381 104.439 157.849 103.65 157.486 102.782C157.124 101.915 156.937 100.985 156.938 100.045C156.938 99.1064 157.125 98.1765 157.488 97.309C157.851 96.4415 158.383 95.6533 159.054 94.9895C159.725 94.3257 160.521 93.7992 161.397 93.4401C162.274 93.081 163.213 92.8963 164.161 92.8966C166.076 92.8973 167.913 93.6513 169.266 94.9929C170.62 96.3344 171.38 98.1536 171.38 100.05C171.379 101.947 170.618 103.766 169.263 105.106C167.908 106.447 166.071 107.2 164.156 107.199Z" fill="#8F98AE"/>
<circle cx="131" cy="101" r="18" fill="black"/>
<path d="M134.357 108.247V112.352C132.197 111.629 129.859 111.629 127.699 112.352V92.0449H131.578C132.315 92.0449 133.023 92.3378 133.545 92.8592C134.066 93.3806 134.36 94.0879 134.36 94.8255V96.7304L134.357 108.247Z" fill="white"/>
<path d="M134.363 99.6934V112.35C132.203 111.626 129.866 111.626 127.705 112.35V109.397C127.705 107.296 128.341 105.245 129.528 103.512C130.715 101.779 132.399 100.446 134.357 99.6875L134.363 99.6934Z" fill="#4F82F6"/>
<path d="M138.672 92.0449C138.321 92.0443 137.973 92.1159 137.648 92.2554C137.323 92.3949 137.028 92.5997 136.779 92.858C136.53 93.1163 136.333 93.4231 136.199 93.7607C136.065 94.0983 135.996 94.4602 135.997 94.8255V112.934C137.883 112.176 139.504 110.843 140.647 109.11C141.791 107.377 142.403 105.325 142.402 103.223V92.0449H138.672Z" fill="white"/>
<path d="M126.066 96.7304V92.0449H119.667V104.712L126.066 112.932V108.247H126.062V96.7304H126.066Z" fill="white"/>
<g clip-path="url(#clip0_1801_10701)">
<g opacity="0.8">
<path d="M39.9354 45.834L30.7202 50.3017L39.9354 56.1055L49.1469 50.3017L39.9354 45.834Z" fill="#8F98AE"/>
</g>
<g opacity="0.65">
<path opacity="0.65" d="M30.7197 50.2993L39.9349 56.1031V34L30.7197 50.2993Z" fill="#8F98AE"/>
</g>
<g opacity="0.9">
<path d="M39.9351 34V56.1031L49.1466 50.2993L39.9351 34Z" fill="#8F98AE"/>
</g>
<g opacity="0.65">
<path opacity="0.65" d="M30.7202 52.1621L39.9354 66.0016V57.9659L30.7202 52.1621Z" fill="#8F98AE"/>
</g>
<g opacity="0.8">
<path d="M39.9355 57.9659V66.0016L49.1543 52.1621L39.9355 57.9659Z" fill="#8F98AE"/>
</g>
</g>
<path d="M29.199 160.662C29.3921 160.469 29.6576 160.356 29.9392 160.356H55.4754C55.9421 160.356 56.1754 160.919 55.8455 161.249L50.801 166.293C50.6079 166.487 50.3424 166.599 50.0608 166.599H24.5246C24.0579 166.599 23.8246 166.036 24.1545 165.706L29.199 160.662Z" fill="#8F98AE"/>
<path d="M29.199 141.827C29.4001 141.634 29.6656 141.521 29.9392 141.521H55.4754C55.9421 141.521 56.1754 142.085 55.8455 142.415L50.801 147.459C50.6079 147.652 50.3424 147.765 50.0608 147.765H24.5246C24.0579 147.765 23.8246 147.202 24.1545 146.872L29.199 141.827Z" fill="#8F98AE"/>
<path d="M50.801 151.184C50.6079 150.991 50.3424 150.878 50.0608 150.878H24.5246C24.0579 150.878 23.8246 151.442 24.1545 151.771L29.199 156.816C29.3921 157.009 29.6576 157.122 29.9392 157.122H55.4754C55.9421 157.122 56.1754 156.558 55.8455 156.229L50.801 151.184Z" fill="#8F98AE"/>
<path fill-rule="evenodd" clip-rule="evenodd" d="M40 118C48.8366 118 56 110.837 56 102C56 93.1634 48.8366 86 40 86C31.1634 86 24 93.1634 24 102C24 110.837 31.1634 118 40 118ZM40.0471 88.4581C39.9201 88.3413 39.8546 88.3391 39.8436 88.3391C39.8326 88.3391 39.7671 88.3413 39.6402 88.4581C39.5099 88.5781 39.3541 88.785 39.1863 89.1042C38.8513 89.7414 38.5307 90.7045 38.2544 91.9472C37.9436 93.3447 37.6981 95.0528 37.5432 96.9649C38.2914 97.3269 39.0608 97.7205 39.8434 98.1431C40.6262 97.7204 41.3957 97.3268 42.144 96.9647C41.9891 95.0527 41.7436 93.3446 41.4328 91.9472C41.1565 90.7045 40.8359 89.7414 40.5009 89.1042C40.3331 88.785 40.1774 88.5781 40.0471 88.4581ZM39.1886 98.5018C38.6138 98.1964 38.0476 97.9075 37.4931 97.6361C37.4511 98.2516 37.4184 98.8861 37.3956 99.5363C37.6889 99.3607 37.9864 99.1858 38.2879 99.0118C38.5895 98.8378 38.8898 98.6678 39.1886 98.5018ZM36.9396 96.6775C37.3886 91.4342 38.5195 87.7137 39.8436 87.7137C41.1677 87.7137 42.2986 91.4341 42.7476 96.6773C43.7913 96.1886 44.7881 95.7646 45.7154 95.4124C45.7148 95.3979 45.7145 95.3834 45.7145 95.3688C45.7145 94.8233 46.142 94.3811 46.6692 94.3811C46.9962 94.3811 47.2847 94.5511 47.4568 94.8103C49.8576 94.0715 51.5457 93.9797 51.967 94.709C52.6291 95.855 49.9706 98.694 45.6516 101.704C49.9706 104.714 52.6291 107.553 51.967 108.699C51.305 109.845 47.5157 108.964 42.7476 106.731C42.2986 111.974 41.1677 115.695 39.8436 115.695C39.0942 115.695 38.4067 114.503 37.8696 112.518C37.4525 112.412 37.1431 112.023 37.1431 111.559C37.1431 111.256 37.2742 110.986 37.4808 110.805C37.2522 109.606 37.068 108.231 36.9396 106.731C32.1714 108.964 28.3819 109.845 27.7198 108.699C27.0577 107.553 29.7162 104.714 34.0353 101.704C33.1427 101.082 32.3211 100.467 31.5851 99.8734C31.4382 99.9687 31.2645 100.024 31.0783 100.024C30.551 100.024 30.1235 99.5817 30.1235 99.0362C30.1235 98.9098 30.1465 98.7889 30.1884 98.6778C28.2643 96.9175 27.2889 95.4548 27.7198 94.709C28.3819 93.563 32.1714 94.4445 36.9396 96.6775ZM42.8004 97.3438C43.9075 96.8191 44.961 96.368 45.9337 95.9985C46.1088 96.2171 46.3733 96.3564 46.6692 96.3564C47.1821 96.3564 47.6004 95.9382 47.623 95.4135C48.7841 95.0552 49.7377 94.8634 50.4337 94.8356C50.7943 94.8213 51.0516 94.8526 51.2208 94.9055C51.3856 94.957 51.4201 95.0126 51.4255 95.0219C51.4309 95.0311 51.4617 95.0887 51.424 95.2569C51.3852 95.4295 51.2839 95.6677 51.0911 95.9726C50.7064 96.5811 50.0322 97.3402 49.0934 98.2007C48.0377 99.1685 46.6801 100.235 45.1005 101.325C44.4127 100.859 43.687 100.39 42.9295 99.9237C42.9044 99.035 42.8608 98.1724 42.8004 97.3438ZM39.1863 114.304C38.9467 113.849 38.7146 113.226 38.5006 112.454C38.8266 112.297 39.0526 111.955 39.0526 111.559C39.0526 111.013 38.6251 110.571 38.0978 110.571C38.0928 110.571 38.0878 110.571 38.0828 110.571C38.0796 110.571 38.0764 110.571 38.0731 110.571C37.8475 109.361 37.6666 107.967 37.5432 106.443C38.2914 106.081 39.0608 105.688 39.8434 105.265C40.6262 105.688 41.3957 106.082 42.144 106.444C41.9891 108.356 41.7436 110.064 41.4328 111.461C41.1565 112.704 40.8359 113.667 40.5009 114.304C40.3331 114.623 40.1774 114.83 40.0471 114.95C39.9201 115.067 39.8546 115.069 39.8436 115.069C39.8326 115.069 39.7671 115.067 39.6402 114.95C39.5099 114.83 39.3541 114.623 39.1863 114.304ZM34.5864 101.325C33.6273 100.663 32.7501 100.01 31.9727 99.3826C32.0117 99.2748 32.033 99.1581 32.033 99.0362C32.033 98.4907 31.6056 98.0485 31.0783 98.0485C30.8971 98.0485 30.7277 98.1008 30.5833 98.1915C29.6498 97.3347 28.979 96.5789 28.5957 95.9726C28.403 95.6677 28.3016 95.4295 28.2628 95.2569C28.2251 95.0887 28.2559 95.0312 28.2613 95.0219C28.2667 95.0125 28.3013 94.9569 28.4661 94.9055C28.6352 94.8526 28.8925 94.8213 29.2531 94.8356C29.9728 94.8643 30.9678 95.0684 32.1829 95.4506C33.5494 95.8804 35.1524 96.522 36.8868 97.344C36.8264 98.1724 36.7828 99.035 36.7577 99.9235C36.0001 100.39 35.2743 100.859 34.5864 101.325ZM34.5864 102.083C33.0067 103.173 31.6492 104.24 30.5934 105.208C29.6547 106.068 28.9804 106.827 28.5957 107.436C28.403 107.741 28.3016 107.979 28.2628 108.152C28.2251 108.32 28.2559 108.377 28.2613 108.387C28.2667 108.396 28.3012 108.451 28.4661 108.503C28.6352 108.556 28.8925 108.587 29.2531 108.573C29.9728 108.544 30.9678 108.34 32.1829 107.958C33.5494 107.528 35.1524 106.886 36.8868 106.064C36.8264 105.236 36.7828 104.373 36.7577 103.485C36.0001 103.019 35.2743 102.55 34.5864 102.083ZM36.7411 102.739C36.189 102.394 35.6554 102.048 35.1429 101.704C35.6554 101.36 36.189 101.014 36.7411 100.67C36.7356 101.011 36.7328 101.356 36.7328 101.704C36.7328 102.052 36.7356 102.397 36.7411 102.739ZM37.3742 103.129C37.3636 102.661 37.3582 102.186 37.3582 101.704C37.3582 101.223 37.3636 100.748 37.3742 100.28C37.7745 100.036 38.1835 99.794 38.6005 99.5535C39.0177 99.3127 39.4324 99.0798 39.8434 98.8549C40.2545 99.0798 40.6691 99.3127 41.0863 99.5535C41.5034 99.7941 41.9126 100.037 42.313 100.28C42.3236 100.748 42.3291 101.223 42.3291 101.704C42.3291 102.185 42.3236 102.661 42.313 103.129C41.9126 103.372 41.5034 103.614 41.0863 103.855C40.6691 104.096 40.2545 104.329 39.8434 104.554C39.4324 104.329 39.0177 104.096 38.6005 103.855C38.1835 103.614 37.7745 103.372 37.3742 103.129ZM37.3956 103.872C37.4184 104.522 37.4511 105.157 37.4931 105.772C38.0476 105.501 38.6138 105.212 39.1886 104.907C38.8898 104.741 38.5895 104.571 38.2879 104.397C37.9864 104.223 37.6889 104.048 37.3956 103.872ZM42.8004 106.065C44.5347 106.887 46.1375 107.528 47.5039 107.958C48.719 108.34 49.714 108.544 50.4337 108.573C50.7943 108.587 51.0516 108.556 51.2208 108.503C51.3856 108.451 51.4201 108.396 51.4255 108.387C51.4309 108.377 51.4617 108.32 51.424 108.152C51.3852 107.979 51.2839 107.741 51.0911 107.436C50.7064 106.827 50.0322 106.068 49.0934 105.208C48.0377 104.24 46.6801 103.173 45.1005 102.083C44.4127 102.55 43.687 103.019 42.9295 103.485C42.9044 104.373 42.8608 105.236 42.8004 106.065ZM42.9461 100.67C43.4981 101.014 44.0315 101.36 44.5439 101.704C44.0315 102.048 43.4981 102.394 42.9461 102.739C42.9516 102.397 42.9545 102.052 42.9545 101.704C42.9545 101.356 42.9516 101.011 42.9461 100.67ZM42.2916 99.5365C42.2689 98.8862 42.2361 98.2516 42.1941 97.6359C41.6395 97.9073 41.0731 98.1963 40.4982 98.5018C40.797 98.6678 41.0974 98.8378 41.3989 99.0118C41.7005 99.1858 41.9982 99.3608 42.2916 99.5365ZM42.1941 105.773C41.6395 105.501 41.0731 105.212 40.4982 104.907C40.797 104.741 41.0974 104.571 41.3989 104.397C41.7005 104.223 41.9982 104.048 42.2916 103.872C42.2689 104.522 42.2361 105.157 42.1941 105.773ZM41.6462 101.998C41.6462 102.907 40.9092 103.644 40.0001 103.644C39.091 103.644 38.354 102.907 38.354 101.998C38.354 101.089 39.091 100.352 40.0001 100.352C40.9092 100.352 41.6462 101.089 41.6462 101.998Z" fill="#8F98AE"/>
<defs>
<clipPath id="clip0_1801_10701">
<rect width="32" height="32" fill="white" transform="translate(24 34)"/>
</clipPath>
</defs>
</svg>
