<?xml version="1.0" encoding="utf-8"?>
<!-- Generator: Adobe Illustrator 26.3.1, SVG Export Plug-In . SVG Version: 6.00 Build 0)  -->
<svg version="1.1" id="레이어_1" xmlns="http://www.w3.org/2000/svg" xmlns:xlink="http://www.w3.org/1999/xlink" x="0px"
	 y="0px" viewBox="0 0 160 160" style="enable-background:new 0 0 160 160;" xml:space="preserve">
<style type="text/css">
	.st0{fill:#131417;}
	.st1{fill:none;stroke:#FFCC00;stroke-width:1.2;}
	.st2{fill:#C4C9D4;}
	.st3{fill:#FFFFFF;}
	.st4{fill:#4F82F6;}
	.st5{fill-rule:evenodd;clip-rule:evenodd;fill:#C4C9D4;}
	.st6{fill:none;}
</style>
<path class="st0" d="M8,0h144c4.4,0,8,3.6,8,8v144c0,4.4-3.6,8-8,8H8c-4.4,0-8-3.6-8-8V8C0,3.6,3.6,0,8,0z"/>
<path class="st1" d="M81.9,81.4V47.8"/>
<path class="st1" d="M122.2,45v6c0,7.1-5.7,12.8-12.8,12.8H94.6c-7.1,0-12.8,5.7-12.8,12.8V81"/>
<path class="st1" d="M39,47v4.4c0,7.1,5.7,12.8,12.8,12.8H69c7.1,0,12.8,5.7,12.8,12.8v4.4"/>
<path class="st2" d="M104.8,96.5H56.7v-1.9L99,91.2v3.4h5.8v-5.7c0-4.2-3.4-7.1-7.6-6.5l-38.7,5.5c-4.2,0.6-7.6,4.5-7.6,8.7v38.1
	c0,2,0.8,4,2.3,5.4c1.4,1.4,3.4,2.2,5.4,2.2h46.2c2,0,4-0.8,5.4-2.2c1.4-1.4,2.3-3.4,2.3-5.4v-30.5c0-2-0.8-4-2.3-5.4
	C108.8,97.3,106.8,96.5,104.8,96.5z M99,123.2c-0.8,0-1.5-0.1-2.2-0.4c-0.7-0.3-1.3-0.7-1.9-1.2c-0.5-0.5-1-1.2-1.3-1.9
	c-0.3-0.7-0.4-1.4-0.4-2.2c0-0.8,0.1-1.5,0.4-2.2c0.3-0.7,0.7-1.3,1.3-1.9c0.5-0.5,1.2-1,1.9-1.2c0.7-0.3,1.5-0.4,2.2-0.4
	c1.5,0,3,0.6,4.1,1.7c1.1,1.1,1.7,2.5,1.7,4c0,1.5-0.6,3-1.7,4C102,122.6,100.6,123.2,99,123.2z"/>
<path d="M72.5,133.6c8,0,14.4-6.4,14.4-14.4s-6.4-14.4-14.4-14.4c-8,0-14.4,6.4-14.4,14.4S64.6,133.6,72.5,133.6z"/>
<path class="st3" d="M75.2,125v3.3c-1.7-0.6-3.6-0.6-5.3,0v-16.2H73c0.6,0,1.2,0.2,1.6,0.7c0.4,0.4,0.7,1,0.7,1.6v1.5L75.2,125z"/>
<path class="st4" d="M75.2,118.2v10.1c-1.7-0.6-3.6-0.6-5.3,0V126c0-1.7,0.5-3.3,1.5-4.7C72.3,119.9,73.6,118.8,75.2,118.2
	L75.2,118.2z"/>
<path class="st3" d="M78.6,112.1c-0.3,0-0.6,0.1-0.8,0.2c-0.3,0.1-0.5,0.3-0.7,0.5c-0.2,0.2-0.4,0.5-0.5,0.7
	c-0.1,0.3-0.2,0.6-0.2,0.9v14.5c1.5-0.6,2.8-1.7,3.7-3.1c0.9-1.4,1.4-3,1.4-4.7v-8.9H78.6z"/>
<path class="st3" d="M68.6,115.8v-3.7h-5.1v10.1l5.1,6.6V125h0L68.6,115.8L68.6,115.8z"/>
<path class="st2" d="M113.6,35.5c0.2-0.2,0.4-0.2,0.6-0.2h20.4c0.4,0,0.6,0.4,0.3,0.7l-4,4c-0.2,0.2-0.4,0.2-0.6,0.2h-20.4
	c-0.4,0-0.6-0.5-0.3-0.7L113.6,35.5z"/>
<path class="st2" d="M113.6,20.5c0.2-0.2,0.4-0.2,0.6-0.2h20.4c0.4,0,0.6,0.5,0.3,0.7l-4,4c-0.2,0.2-0.4,0.2-0.6,0.2h-20.4
	c-0.4,0-0.6-0.4-0.3-0.7L113.6,20.5z"/>
<path class="st2" d="M130.9,27.9c-0.2-0.2-0.4-0.2-0.6-0.2h-20.4c-0.4,0-0.6,0.5-0.3,0.7l4,4c0.2,0.2,0.4,0.2,0.6,0.2h20.4
	c0.4,0,0.6-0.5,0.3-0.7L130.9,27.9z"/>
<path class="st5" d="M81.7,43c7.1,0,12.8-5.7,12.8-12.8c0-7.1-5.7-12.8-12.8-12.8c-7.1,0-12.8,5.7-12.8,12.8
	C68.9,37.3,74.6,43,81.7,43z M81.7,19.4c-0.1-0.1-0.2-0.1-0.2-0.1s-0.1,0-0.2,0.1c-0.1,0.1-0.2,0.3-0.4,0.5
	c-0.3,0.5-0.5,1.3-0.7,2.3c-0.2,1.1-0.4,2.5-0.6,4c0.6,0.3,1.2,0.6,1.8,0.9c0.6-0.3,1.2-0.7,1.8-0.9c-0.1-1.5-0.3-2.9-0.6-4
	c-0.2-1-0.5-1.8-0.7-2.3C82,19.7,81.8,19.5,81.7,19.4z M81.1,27.4c-0.5-0.2-0.9-0.5-1.4-0.7c0,0.5-0.1,1-0.1,1.5
	c0.2-0.1,0.5-0.3,0.7-0.4C80.6,27.7,80.8,27.6,81.1,27.4z M79.3,26c0.4-4.2,1.3-7.2,2.3-7.2s2,3,2.3,7.2c0.8-0.4,1.6-0.7,2.4-1
	c0,0,0,0,0,0c0-0.4,0.3-0.8,0.8-0.8c0.3,0,0.5,0.1,0.6,0.3c1.9-0.6,3.3-0.7,3.6-0.1c0.5,0.9-1.6,3.2-5.1,5.6
	c3.5,2.4,5.6,4.7,5.1,5.6c-0.5,0.9-3.6,0.2-7.4-1.6c-0.4,4.2-1.3,7.2-2.3,7.2c-0.6,0-1.1-1-1.6-2.5c-0.3-0.1-0.6-0.4-0.6-0.8
	c0-0.2,0.1-0.5,0.3-0.6c-0.2-1-0.3-2.1-0.4-3.3c-3.8,1.8-6.8,2.5-7.4,1.6c-0.5-0.9,1.6-3.2,5.1-5.6c-0.7-0.5-1.4-1-2-1.5
	c-0.1,0.1-0.3,0.1-0.4,0.1c-0.4,0-0.8-0.4-0.8-0.8c0-0.1,0-0.2,0.1-0.3c-1.5-1.4-2.3-2.6-2-3.2C72.4,23.5,75.4,24.2,79.3,26z
	 M83.9,26.5c0.9-0.4,1.7-0.8,2.5-1.1c0.1,0.2,0.4,0.3,0.6,0.3c0.4,0,0.7-0.3,0.8-0.8c0.9-0.3,1.7-0.4,2.2-0.5c0.3,0,0.5,0,0.6,0.1
	c0.1,0,0.2,0.1,0.2,0.1c0,0,0,0.1,0,0.2c0,0.1-0.1,0.3-0.3,0.6c-0.3,0.5-0.8,1.1-1.6,1.8c-0.8,0.8-1.9,1.6-3.2,2.5
	c-0.6-0.4-1.1-0.7-1.7-1.1C84,27.9,84,27.2,83.9,26.5z M81.1,40.1c-0.2-0.4-0.4-0.9-0.5-1.5c0.3-0.1,0.4-0.4,0.4-0.7
	c0-0.4-0.3-0.8-0.8-0.8c0,0,0,0,0,0c0,0,0,0,0,0c-0.2-1-0.3-2.1-0.4-3.3c0.6-0.3,1.2-0.6,1.8-0.9c0.6,0.3,1.2,0.7,1.8,0.9
	c-0.1,1.5-0.3,2.9-0.6,4c-0.2,1-0.5,1.8-0.7,2.3c-0.1,0.3-0.3,0.4-0.4,0.5c-0.1,0.1-0.2,0.1-0.2,0.1s-0.1,0-0.2-0.1
	C81.3,40.5,81.2,40.3,81.1,40.1z M77.4,29.7c-0.8-0.5-1.5-1.1-2.1-1.6c0-0.1,0-0.2,0-0.3c0-0.4-0.3-0.8-0.8-0.8
	c-0.1,0-0.3,0-0.4,0.1c-0.7-0.7-1.3-1.3-1.6-1.8c-0.2-0.2-0.2-0.4-0.3-0.6c0-0.1,0-0.2,0-0.2c0,0,0-0.1,0.2-0.1
	c0.1,0,0.3-0.1,0.6-0.1c0.6,0,1.4,0.2,2.3,0.5c1.1,0.3,2.4,0.9,3.8,1.5c0,0.7-0.1,1.4-0.1,2.1C78.5,29,77.9,29.3,77.4,29.7z
	 M77.4,30.3c-1.3,0.9-2.3,1.7-3.2,2.5c-0.8,0.7-1.3,1.3-1.6,1.8c-0.2,0.2-0.2,0.4-0.3,0.6c0,0.1,0,0.2,0,0.2c0,0,0,0.1,0.2,0.1
	c0.1,0,0.3,0.1,0.6,0.1c0.6,0,1.4-0.2,2.3-0.5c1.1-0.3,2.4-0.9,3.8-1.5c0-0.7-0.1-1.4-0.1-2.1C78.5,31.1,77.9,30.7,77.4,30.3z
	 M79.1,30.8c-0.4-0.3-0.9-0.6-1.3-0.8c0.4-0.3,0.8-0.6,1.3-0.8c0,0.3,0,0.5,0,0.8C79.1,30.3,79.1,30.6,79.1,30.8z M79.6,31.1
	c0-0.4,0-0.8,0-1.1c0-0.4,0-0.8,0-1.1c0.3-0.2,0.6-0.4,1-0.6c0.3-0.2,0.7-0.4,1-0.6c0.3,0.2,0.7,0.4,1,0.6c0.3,0.2,0.7,0.4,1,0.6
	c0,0.4,0,0.8,0,1.1c0,0.4,0,0.8,0,1.1c-0.3,0.2-0.6,0.4-1,0.6c-0.3,0.2-0.7,0.4-1,0.6c-0.3-0.2-0.7-0.4-1-0.6
	C80.3,31.5,79.9,31.3,79.6,31.1z M79.6,31.7c0,0.5,0,1,0.1,1.5c0.4-0.2,0.9-0.4,1.4-0.7c-0.2-0.1-0.5-0.3-0.7-0.4
	C80.1,32,79.9,31.9,79.6,31.7z M83.9,33.5c1.4,0.7,2.7,1.2,3.8,1.5c1,0.3,1.8,0.5,2.3,0.5c0.3,0,0.5,0,0.6-0.1
	c0.1,0,0.2-0.1,0.2-0.1c0,0,0-0.1,0-0.2c0-0.1-0.1-0.3-0.3-0.6c-0.3-0.5-0.8-1.1-1.6-1.8c-0.8-0.8-1.9-1.6-3.2-2.5
	c-0.6,0.4-1.1,0.7-1.7,1.1C84,32.1,84,32.8,83.9,33.5z M84.1,29.2c0.4,0.3,0.9,0.6,1.3,0.8c-0.4,0.3-0.8,0.6-1.3,0.8
	c0-0.3,0-0.5,0-0.8C84.1,29.7,84.1,29.4,84.1,29.2z M83.5,28.3c0-0.5,0-1-0.1-1.5c-0.4,0.2-0.9,0.4-1.4,0.7c0.2,0.1,0.5,0.3,0.7,0.4
	C83.1,28,83.3,28.1,83.5,28.3z M83.5,33.3c-0.4-0.2-0.9-0.4-1.4-0.7c0.2-0.1,0.5-0.3,0.7-0.4c0.2-0.1,0.5-0.3,0.7-0.4
	C83.5,32.3,83.5,32.8,83.5,33.3z M83,30.2c0,0.7-0.6,1.3-1.3,1.3c-0.7,0-1.3-0.6-1.3-1.3c0-0.7,0.6-1.3,1.3-1.3
	C82.4,28.9,83,29.5,83,30.2z"/>
<rect x="37.7" y="-33" class="st6" width="28" height="28"/>
<path class="st2" d="M46.8,18.7l-5.3,7.9c-0.4,0.5,0.3,1.2,0.9,0.7l5.3-4.6c0.1-0.1,0.3,0,0.3,0.2v14.3c0,0.2-0.3,0.3-0.4,0.1
	l-15.9-19c-0.5-0.6-1.3-1-2.1-1h-0.6c-1.5,0-2.7,1.2-2.7,2.7v20.1c0,1.5,1.2,2.7,2.7,2.7c0.9,0,1.8-0.5,2.3-1.3l5.3-7.9
	c0.4-0.5-0.3-1.2-0.9-0.7l-5.3,4.5c-0.1,0.1-0.3,0-0.3-0.2V23.2c0-0.2,0.3-0.3,0.4-0.1l15.9,19c0.5,0.6,1.3,1,2.1,1h0.6
	c1.5,0,2.7-1.2,2.7-2.7V20.2c0-1.5-1.2-2.7-2.7-2.7C48.1,17.4,47.3,17.9,46.8,18.7z"/>
</svg>