<svg width="160" height="160" viewBox="0 0 160 160" fill="none" xmlns="http://www.w3.org/2000/svg">
<rect width="160" height="160" rx="8" fill="#131417"/>
<path d="M121.782 36.6132C121.775 36.6142 121.767 36.6124 121.761 36.6083C121.755 36.6041 121.751 36.5979 121.75 36.5908C121.025 33.755 119.371 31.24 117.047 29.4436C114.723 27.6472 111.863 26.6719 108.919 26.6719C105.975 26.6719 103.115 27.6472 100.791 29.4436C98.4674 31.24 96.8131 33.755 96.0886 36.5908C96.087 36.5979 96.083 36.6041 96.0766 36.6083C96.0709 36.6124 96.0637 36.6142 96.0564 36.6132C95.1814 36.6132 92.4533 36.7256 92.4533 39.0292C92.4533 41.7758 92.7761 44.1629 94.3901 45.5491C95.088 46.1426 96.2657 46.287 97.3831 46.2613C98.0818 46.2392 98.7781 46.1663 99.4656 46.0432C99.4712 46.0428 99.4761 46.0408 99.4809 46.0376C99.4849 46.0344 99.4881 46.0301 99.4906 46.0251C99.4922 46.0201 99.493 46.0146 99.4922 46.0093C99.4914 46.004 99.4889 45.9991 99.4849 45.9951C98.2662 44.1643 97.6173 42.0171 97.6189 39.8218C97.6189 39.7897 97.6189 39.7544 97.6189 39.7223C97.6189 36.744 98.8095 33.8876 100.928 31.7816C103.048 29.6756 105.922 28.4924 108.919 28.4924C111.916 28.4924 114.79 29.6756 116.909 31.7816C119.029 33.8876 120.219 36.744 120.219 39.7223C120.219 39.7544 120.219 39.7897 120.219 39.8218C120.221 42.0171 119.572 44.1643 118.353 45.9951C118.349 45.9991 118.347 46.004 118.346 46.0093C118.345 46.0146 118.345 46.0201 118.348 46.0251C118.349 46.0301 118.353 46.0344 118.357 46.0376C118.362 46.0408 118.367 46.0428 118.373 46.0432C119.06 46.1663 119.756 46.2392 120.455 46.2613C121.572 46.287 122.75 46.1426 123.447 45.5491C125.062 44.179 125.385 41.7758 125.385 39.0292C125.385 36.7256 122.657 36.6132 121.782 36.6132Z" fill="#C4C9D4"/>
<path d="M108.919 49.1262L100.331 46.2802C100.324 46.2775 100.316 46.2774 100.308 46.2799C100.301 46.2823 100.296 46.2874 100.292 46.2939C100.288 46.3004 100.286 46.3081 100.288 46.3156C100.288 46.3231 100.292 46.3299 100.299 46.3347L108.896 54.8791C108.903 54.885 108.911 54.8883 108.919 54.8883C108.928 54.8883 108.936 54.885 108.941 54.8791L117.539 46.3347C117.545 46.3299 117.549 46.3231 117.55 46.3156C117.552 46.3081 117.55 46.3004 117.546 46.2939C117.543 46.2874 117.536 46.2823 117.529 46.2799C117.522 46.2774 117.514 46.2775 117.507 46.2802L108.919 49.1262Z" fill="#C4C9D4"/>
<path d="M116.565 40.4318L118.604 39.8222C118.612 39.8214 118.618 39.8179 118.623 39.8127C118.628 39.8073 118.631 39.8004 118.63 39.7933C118.625 39.0427 118.53 38.2953 118.35 37.5665C118.348 37.5599 118.344 37.5539 118.339 37.5494C118.334 37.5448 118.328 37.5419 118.32 37.5409L116.245 37.3547C116.238 37.3547 116.231 37.3527 116.226 37.3487C116.22 37.3447 116.216 37.3392 116.214 37.3328C116.212 37.3264 116.212 37.3195 116.214 37.3131C116.216 37.3067 116.22 37.3011 116.226 37.2971L117.769 35.9559C117.771 35.9499 117.774 35.9433 117.774 35.9366C117.774 35.9299 117.771 35.9233 117.769 35.9174C117.454 35.2244 117.059 34.5707 116.59 33.9698C116.585 33.9659 116.579 33.9637 116.573 33.9637C116.566 33.9637 116.56 33.9659 116.555 33.9698L114.646 34.6115C114.641 34.6134 114.634 34.6136 114.628 34.6118C114.621 34.6101 114.617 34.6066 114.612 34.6018C114.608 34.597 114.605 34.5911 114.604 34.5848C114.604 34.5786 114.605 34.5722 114.608 34.5665L115.438 32.7633C115.442 32.7576 115.443 32.7509 115.443 32.7441C115.443 32.7372 115.442 32.7306 115.438 32.7248C114.864 32.2096 114.232 31.7647 113.552 31.3997C113.547 31.3958 113.541 31.3937 113.535 31.3937C113.528 31.3937 113.522 31.3958 113.517 31.3997L112.074 32.7248C112.069 32.7292 112.063 32.7322 112.057 32.7334C112.051 32.7346 112.045 32.7339 112.038 32.7316C112.032 32.7292 112.028 32.7251 112.024 32.7199C112.02 32.7147 112.019 32.7087 112.019 32.7023L112.048 30.7772C112.048 30.7702 112.046 30.7631 112.041 30.7574C112.037 30.7515 112.032 30.7473 112.025 30.7451C111.293 30.5005 110.534 30.3422 109.765 30.2735C109.758 30.2731 109.751 30.2752 109.745 30.2792C109.739 30.2833 109.735 30.2892 109.733 30.2959L108.964 32.0735C108.961 32.0789 108.957 32.0835 108.953 32.0867C108.947 32.0899 108.941 32.0916 108.935 32.0916C108.929 32.0916 108.923 32.0899 108.918 32.0867C108.913 32.0835 108.909 32.0789 108.906 32.0735L108.141 30.2959C108.138 30.2895 108.132 30.2843 108.126 30.2808C108.12 30.2774 108.113 30.2759 108.106 30.2767C107.335 30.3448 106.577 30.5043 105.845 30.7515C105.839 30.7544 105.834 30.7589 105.83 30.7645C105.826 30.7702 105.824 30.7768 105.823 30.7836L105.848 32.7248C105.849 32.7311 105.848 32.7377 105.845 32.7434C105.842 32.7491 105.837 32.7535 105.832 32.7561C105.826 32.7587 105.819 32.7592 105.813 32.7576C105.807 32.756 105.801 32.7524 105.797 32.7473L104.334 31.4029C104.329 31.3991 104.322 31.3972 104.315 31.3972C104.308 31.3972 104.301 31.3991 104.296 31.4029C103.617 31.7679 102.985 32.2128 102.414 32.728C102.409 32.7338 102.408 32.7404 102.408 32.7473C102.408 32.7541 102.409 32.7608 102.414 32.7665L103.25 34.5633C103.252 34.5693 103.252 34.5756 103.25 34.5817C103.249 34.5877 103.246 34.5933 103.242 34.5979C103.237 34.6024 103.232 34.6058 103.226 34.6076C103.22 34.6095 103.214 34.6097 103.207 34.6083L101.303 33.9665C101.297 33.9628 101.291 33.9608 101.283 33.9608C101.276 33.9608 101.27 33.9628 101.264 33.9665C100.799 34.5691 100.407 35.2239 100.095 35.9174C100.091 35.9231 100.089 35.9298 100.089 35.9366C100.089 35.9435 100.091 35.9501 100.095 35.9559L101.642 37.3003C101.646 37.3045 101.649 37.3099 101.65 37.3158C101.652 37.3217 101.651 37.3279 101.65 37.3335C101.647 37.3392 101.644 37.3443 101.639 37.348C101.634 37.3518 101.629 37.3541 101.622 37.3547L99.5558 37.5473C99.5493 37.5476 99.5429 37.55 99.5381 37.554C99.5324 37.558 99.5292 37.5635 99.5268 37.5698C99.3416 38.298 99.2426 39.0454 99.233 39.7965C99.233 39.8035 99.2346 39.8106 99.2386 39.8163C99.2434 39.8222 99.2491 39.8264 99.2555 39.8286L101.299 40.4639C101.305 40.4665 101.31 40.4706 101.313 40.4757C101.316 40.4808 101.318 40.4867 101.318 40.4927C101.318 40.4987 101.316 40.5047 101.313 40.5098C101.31 40.5149 101.305 40.519 101.299 40.5216L99.4141 41.5676C99.4101 41.579 99.4101 41.5915 99.4141 41.6029C99.5534 42.3499 99.7812 43.0779 100.092 43.7719C100.195 43.9997 100.308 44.2211 100.415 44.4393C100.421 44.4412 100.428 44.4412 100.434 44.4393L108.919 47.2531L117.423 44.436C117.428 44.4348 117.431 44.4327 117.435 44.43C117.438 44.4272 117.44 44.4239 117.443 44.42C117.923 43.5276 118.262 42.5665 118.447 41.5708C118.448 41.564 118.448 41.5568 118.444 41.5505C118.442 41.5441 118.437 41.5388 118.431 41.5355L116.549 40.4895C116.543 40.4857 116.539 40.4803 116.536 40.4742C116.535 40.468 116.535 40.4614 116.536 40.4551C116.538 40.4489 116.541 40.4433 116.547 40.4391C116.552 40.435 116.558 40.4324 116.565 40.4318Z" fill="#C4C9D4"/>
<path d="M65.01 57.6L67.5512 60.0553C75.1902 67.4359 79.5 77.5736 79.5 88.1616V102.4" stroke="#FFCC00" stroke-width="1.4"/>
<path d="M79.8985 102.796C79.6787 103.014 79.3216 103.014 79.1015 102.796L75.5155 99.232C75.2954 99.0136 75.2954 98.6592 75.5155 98.44C75.7355 98.2216 76.0923 98.2216 76.3124 98.44L79.5 101.608L82.6878 98.44C82.9076 98.2216 83.2642 98.2216 83.4847 98.44C83.7045 98.6592 83.7045 99.0136 83.4847 99.232L79.8985 102.796ZM94.3828 58.0015L91.8415 60.4568L91.0558 59.6538L93.5972 57.1985L94.3828 58.0015ZM80.0635 88.1616V102.4H78.9365V88.1616H80.0635ZM91.8415 60.4568C84.3115 67.732 80.0635 77.7249 80.0635 88.1616H78.9365C78.9365 77.4223 83.3077 67.1398 91.0558 59.6538L91.8415 60.4568Z" fill="#FFCC00"/>
<path d="M53.9977 128.766V132C52.3761 131.43 50.6217 131.43 49 132V116H51.9118C52.4654 116 52.9964 116.23 53.388 116.642C53.7795 117.052 53.9997 117.61 54 118.191V119.692L53.9977 128.766Z" fill="white"/>
<path d="M54 122.004V132C52.3776 131.429 50.6224 131.429 49 132V129.668C49.0003 128.009 49.4774 126.389 50.369 125.021C51.2605 123.652 52.5247 122.599 53.9955 122L54 122.004Z" fill="#4F82F6"/>
<path d="M57.0885 116C56.8141 116 56.5424 116.054 56.2888 116.161C56.0352 116.268 55.8048 116.425 55.6107 116.623C55.4167 116.82 55.2629 117.056 55.1581 117.314C55.0532 117.573 54.9996 117.85 55 118.13V132C56.4721 131.419 57.7377 130.398 58.6301 129.071C59.5225 127.743 60.0001 126.171 60 124.562V116H57.0885Z" fill="white"/>
<path d="M48 119.589V116H43V125.702L48 132V128.411H47.9967V119.589H48Z" fill="white"/>
<path d="M75.6813 132.078C74.1604 132.078 72.8139 131.725 71.6418 131.018C70.4837 130.31 69.5837 129.354 68.9418 128.147C68.3139 126.941 68 125.617 68 124.174C68 122.732 68.3139 121.408 68.9418 120.202C69.5837 118.995 70.4837 118.038 71.6418 117.331C72.8139 116.624 74.1604 116.27 75.6813 116.27C76.7278 116.27 77.7115 116.478 78.6324 116.894C79.567 117.297 80.3906 117.858 81.1022 118.579L79.4487 120.451C79.0019 119.994 78.4304 119.633 77.7325 119.37C77.0488 119.092 76.3581 118.954 75.6604 118.954C74.6418 118.954 73.7418 119.182 72.9604 119.64C72.179 120.098 71.572 120.729 71.1395 121.533C70.7209 122.323 70.5116 123.204 70.5116 124.174C70.5116 125.145 70.7209 126.033 71.1395 126.837C71.572 127.627 72.179 128.258 72.9604 128.73C73.7418 129.187 74.6418 129.416 75.6604 129.416C76.3581 129.416 77.0488 129.284 77.7325 129.021C78.4304 128.743 79.0019 128.369 79.4487 127.898L81.1022 129.77C80.3906 130.49 79.567 131.059 78.6324 131.475C77.7115 131.878 76.7278 132.078 75.6813 132.078ZM87.84 129.624C88.4534 129.624 88.9839 129.486 89.4307 129.208C89.8767 128.93 90.2116 128.55 90.4354 128.064C90.672 127.578 90.7912 127.031 90.7912 126.421C90.7912 125.81 90.672 125.263 90.4354 124.778C90.2116 124.292 89.8767 123.918 89.4307 123.654C88.9839 123.377 88.4534 123.238 87.84 123.238C87.2258 123.238 86.6953 123.377 86.2493 123.654C85.8026 123.918 85.4605 124.292 85.2238 124.778C85 125.263 84.8889 125.81 84.8889 126.421C84.8889 127.031 85 127.578 85.2238 128.064C85.4605 128.55 85.8026 128.93 86.2493 129.208C86.6953 129.486 87.2258 129.624 87.84 129.624ZM87.84 120.867C88.8865 120.867 89.8075 121.117 90.6028 121.616C91.4118 122.115 92.026 122.788 92.4446 123.634C92.8769 124.479 93.0935 125.409 93.0935 126.421C93.0935 127.433 92.8769 128.362 92.4446 129.208C92.026 130.054 91.4118 130.726 90.6028 131.226C89.8075 131.725 88.8865 131.974 87.84 131.974C86.7935 131.974 85.8726 131.725 85.0773 131.226C84.2819 130.726 83.6677 130.054 83.2354 129.208C82.8023 128.362 82.5866 127.433 82.5866 126.421C82.5866 125.409 82.7959 124.479 83.2145 123.634C83.6468 122.788 84.261 122.115 85.0563 121.616C85.8654 121.117 86.7935 120.867 87.84 120.867ZM100.166 129.499C100.669 129.499 101.135 129.374 101.568 129.125C102.001 128.862 102.343 128.501 102.594 128.043C102.845 127.572 102.971 127.045 102.971 126.462C102.971 125.894 102.845 125.381 102.594 124.923C102.343 124.466 102.001 124.105 101.568 123.842C101.135 123.578 100.669 123.446 100.166 123.446C99.552 123.446 99.036 123.578 98.6174 123.842C98.1988 124.105 97.8848 124.466 97.6755 124.923C97.4799 125.367 97.3825 125.88 97.3825 126.462C97.3825 127.058 97.4799 127.586 97.6755 128.043C97.8848 128.487 98.1988 128.841 98.6174 129.104C99.036 129.367 99.552 129.499 100.166 129.499ZM105.65 131.683H103.117V130.165C102.741 130.775 102.259 131.212 101.673 131.475C101.087 131.725 100.508 131.85 99.936 131.85C98.8895 131.85 97.9822 131.607 97.2151 131.122C96.4471 130.636 95.8611 129.985 95.4569 129.166C95.0657 128.348 94.8709 127.447 94.8709 126.462C94.8709 125.492 95.0657 124.598 95.4569 123.779C95.8611 122.961 96.4471 122.31 97.2151 121.824C97.9822 121.338 98.8895 121.096 99.936 121.096C100.298 121.096 100.669 121.158 101.045 121.283C101.436 121.394 101.812 121.574 102.175 121.824C102.538 122.074 102.852 122.393 103.117 122.781V116H105.65V131.683ZM115.745 125.485C115.69 125.014 115.551 124.604 115.327 124.258C115.104 123.897 114.79 123.62 114.385 123.426C113.994 123.218 113.527 123.114 112.983 123.114C112.16 123.114 111.476 123.314 110.931 123.717C110.402 124.119 110.081 124.708 109.969 125.485H115.703H115.745ZM117.587 123.842C117.811 124.396 117.957 124.999 118.027 125.651C118.11 126.303 118.139 126.92 118.11 127.502H109.969C110.136 128.196 110.471 128.743 110.973 129.146C111.476 129.534 112.145 129.728 112.983 129.728C113.625 129.728 114.148 129.617 114.552 129.395C114.957 129.159 115.229 128.875 115.369 128.542L117.566 129.499C117.246 130.193 116.687 130.775 115.892 131.246C115.111 131.718 114.134 131.954 112.962 131.954C111.86 131.954 110.904 131.711 110.094 131.226C109.285 130.726 108.671 130.054 108.252 129.208C107.834 128.362 107.625 127.433 107.625 126.421C107.625 125.409 107.834 124.479 108.252 123.634C108.671 122.788 109.285 122.115 110.094 121.616C110.904 121.117 111.86 120.867 112.962 120.867C113.994 120.867 114.845 121.075 115.515 121.491C116.199 121.907 116.694 122.344 117.001 122.802C117.309 123.246 117.503 123.592 117.587 123.842Z" fill="white"/>
<g clip-path="url(#clip0_1985_12225)">
<path d="M35.2712 36.6953C35.2712 36.6953 34.5661 36.1948 35.4122 35.5266L37.3835 33.791C37.3835 33.791 37.9476 33.2066 38.5439 33.7157L56.7349 47.2769V53.7797C56.7349 53.7797 56.7261 54.8008 55.3952 54.688L35.2712 36.6953Z" fill="#C7CBD1"/>
<path d="M39.96 40.8868L35.2712 45.0842C35.2712 45.0842 34.7894 45.4371 35.2712 46.0677L37.4481 48.0174C37.4481 48.0174 37.9652 48.5641 38.729 47.9422L43.6998 44.2308L39.96 40.8868Z" fill="#B2B5BD"/>
<path d="M48.1917 40.9216L56.7907 34.4563L56.7349 27.9882C56.7349 27.9882 56.3677 26.5765 55.1426 27.3113L43.6998 37.566L48.1917 40.9216Z" fill="#B2B5BD"/>
<path d="M55.3952 54.6966C55.8947 55.2 56.4999 55.0351 56.4999 55.0351L63.201 51.7837C64.0589 51.208 63.9384 50.4935 63.9384 50.4935V31.0775C63.9384 30.2242 63.0512 29.9291 63.0512 29.9291L57.2431 27.1723C55.974 26.4 55.1426 27.3112 55.1426 27.3112C55.1426 27.3112 56.212 26.5533 56.7349 27.9881V53.661C56.7349 53.8375 56.6967 54.0111 56.6203 54.1673C56.4675 54.471 56.1356 54.7545 55.3394 54.6359L55.3952 54.6966Z" fill="#E8EBED"/>
</g>
<defs>
<clipPath id="clip0_1985_12225">
<rect width="29.785" height="28.8" fill="white" transform="translate(34.42 26.4)"/>
</clipPath>
</defs>
</svg>