<svg width="68" height="20" viewBox="0 0 68 20" fill="none" xmlns="http://www.w3.org/2000/svg">
<path d="M12.213 1.53722C10.859 0.781895 8.95771 0.365234 6.56241 0.365234H6.12842V4.68784H7.16107C9.9997 4.68784 11.7443 6.58915 11.7443 10.0264C11.7443 13.5417 9.97371 15.313 7.13508 15.313H6.12842V19.6356H6.90041C12.9163 19.6356 16.6663 16.3544 16.6663 10.0004C16.6663 6.06716 14.9476 3.0992 12.213 1.53722Z" fill="white"/>
<path d="M4.92527 0.365234H0V19.6356H4.92527V0.365234Z" fill="white"/>
<path d="M26.8481 8.20333L26.6367 8.11133L25.5034 12.0059C26.4974 12.5006 27.2687 13.1133 27.2687 14.0366C27.2699 14.2797 27.2228 14.5207 27.1303 14.7455C27.0377 14.9704 26.9016 15.1747 26.7296 15.3466C26.5576 15.5185 26.3533 15.6546 26.1284 15.747C25.9035 15.8395 25.6626 15.8865 25.4194 15.8852C24.1954 15.8852 23.4141 14.8439 23.3881 13.2553H18.4922V13.6719C18.4922 17.8125 21.2528 19.9998 25.4454 19.9998C29.612 19.9998 32.164 17.8125 32.164 14.0886C32.1607 11.5626 31.0933 10.026 26.8481 8.20333Z" fill="white"/>
<path d="M23.385 11.1201C23.713 11.2534 24.0517 11.3834 24.3943 11.5201L25.5357 7.61149C24.307 7.0115 23.6977 6.50151 23.6977 5.62552C23.6977 4.7662 24.479 4.11554 25.3903 4.11554C26.3537 4.11554 26.9236 4.6102 27.135 5.99018H32.0016C31.9756 3.41221 30.9856 1.87557 28.929 0.80825C27.8747 0.267508 26.7051 -0.0097316 25.5203 0.000260844C21.9817 0.000260844 18.8018 2.39623 18.8018 5.67752C18.8018 8.17748 20.2344 9.84413 23.385 11.1201Z" fill="white"/>
<path d="M44.1916 7.29181C44.1916 8.43246 43.7356 9.21578 42.925 9.64844L45.3616 12.7111C47.5829 11.7924 48.9022 9.59711 48.9022 7.00581C48.9022 4.27252 47.4436 2.00588 45.3603 1.06856C44.345 0.625231 42.8083 0.365234 40.803 0.365234H40.3257V4.68784H41.0897C42.9416 4.68784 44.1916 5.62516 44.1916 7.29181Z" fill="white"/>
<path d="M46.7569 16.3897L45.7502 15.123L44.1149 13.0731H44.1189L41.6869 10.0164C41.4729 10.0412 41.2577 10.0534 41.0423 10.0531H39.2196V10.0404H39.1243V0.365234H34.1997V19.6356H39.1203V13.4117H39.2716L43.7242 19.6356H49.3495L46.7595 16.3884L46.7569 16.3897Z" fill="white"/>
<path d="M62.8469 0.365234L57.2217 19.6356H61.4323L67.8902 0.365234H62.8469Z" fill="white"/>
<path d="M54.9738 0.365234H49.9219L56.1511 19.0276L58.2591 11.8071L54.9738 0.365234Z" fill="white"/>
</svg>
