<svg width="239" height="65" viewBox="0 0 239 65" fill="none" xmlns="http://www.w3.org/2000/svg">
<path d="M41.3174 46.504V58.0492C35.2414 56.0146 28.6679 56.0146 22.5919 58.0492V0.937744H33.5016C35.5759 0.937744 37.5654 1.76151 39.0327 3.22793C40.4999 4.69434 41.3248 6.68339 41.3259 8.75776V14.1151L41.3174 46.504Z" fill="black"/>
<path d="M41.3344 22.4536V58.0486C35.2585 56.0139 28.6849 56.0139 22.6087 58.0486V49.7427C22.6096 43.8354 24.3968 38.0665 27.7359 33.1932C31.0748 28.3201 35.8093 24.5706 41.3179 22.437L41.3344 22.4536Z" fill="#4F82F6"/>
<path d="M53.0412 0.937754C52.0138 0.936113 50.9963 1.13726 50.0468 1.52967C49.0972 1.92208 48.2346 2.49806 47.508 3.22454C46.7815 3.95103 46.2057 4.81376 45.8132 5.76325C45.4207 6.71277 45.2197 7.73038 45.2214 8.75778V59.6854C50.7335 57.5545 55.4718 53.8055 58.8133 48.9313C62.1548 44.0569 63.943 38.2854 63.9428 32.3756V0.937754H53.0412Z" fill="black"/>
<path d="M18.7215 14.1153V0.937988H0V36.562L18.7215 59.6816V46.5043H18.7092V14.1153H18.7215Z" fill="black"/>
<path d="M86.2374 23.0002H90.3488L94.192 7.3591L98.065 23.0002H102.057L108.016 0.953716H103.517L99.793 16.9523L95.92 0.953716H92.5236L88.6804 16.9225L84.9265 0.953716H80.3981L86.2374 23.0002Z" fill="black"/>
<path d="M110.876 23.0002H123.24V19.0973H115.315V13.7645H123.091V9.86167H115.315V4.85653H123.24V0.953716H110.876V23.0002Z" fill="black"/>
<path d="M127.149 23.0002H138.827V19.0973H131.588V0.953716H127.149V23.0002Z" fill="black"/>
<path d="M141.47 23.0002H153.149V19.0973H145.909V0.953716H141.47V23.0002Z" fill="black"/>
<path d="M155.702 23.0002H163.031C171.045 23.0002 174.322 18.1738 174.322 11.9471C174.322 9.23603 173.667 6.79304 172.058 4.76715C169.436 1.22185 165.444 0.953716 162.703 0.953716H155.702V23.0002ZM160.141 4.85653H163.299C165.98 4.85653 167.47 5.86947 168.394 7.06117C169.436 8.43163 169.883 10.2788 169.883 12.0067C169.883 15.9691 168.036 19.0973 163.269 19.0973H160.141V4.85653Z" fill="black"/>
<path d="M176.838 12.1855C176.838 18.0844 181.604 23.4172 188.367 23.4172C195.1 23.4172 199.986 18.2334 199.986 11.9769C199.986 5.72051 195.07 0.536621 188.397 0.536621C182.26 0.536621 176.838 5.09487 176.838 12.1557V12.1855ZM181.277 11.9471C181.277 8.07412 184.017 4.43944 188.427 4.43944C192.925 4.43944 195.547 8.31246 195.547 12.0067C195.547 15.6414 192.925 19.5144 188.457 19.5144C184.166 19.5144 181.277 15.9989 181.277 11.9769V11.9471Z" fill="black"/>
<path d="M207.422 0.953716H203.46V23.0002H207.72L207.631 7.7464L217.79 23.0002H221.722V0.953716H217.462L217.551 16.2373L207.422 0.953716Z" fill="black"/>
<path d="M226.218 23.0002H238.582V19.0973H230.657V13.7645H238.433V9.86167H230.657V4.85653H238.582V0.953716H226.218V23.0002Z" fill="black"/>
<path d="M82.0665 59.0002H89.1273C96.8733 59.0002 100.359 54.3823 100.359 47.9471C100.359 45.0573 99.6142 42.5249 97.9458 40.5288C95.5029 37.4006 91.8384 36.9537 88.8889 36.9537H82.0665V59.0002ZM85.582 40.0521H89.3358C92.1661 40.0521 93.9239 41.0353 95.0858 42.3759C96.3073 43.8656 96.8733 45.8915 96.8733 48.0067C96.8733 52.5948 94.4899 55.9017 89.306 55.9017H85.582V40.0521Z" fill="black"/>
<path d="M119.683 51.8797C119.952 49.1686 119.147 46.6363 117.24 44.6998C115.691 43.1803 113.576 42.3164 111.252 42.3164C106.336 42.3164 102.702 46.2788 102.702 50.9264C102.702 55.2165 105.979 59.4768 111.282 59.4768C112.921 59.4768 114.529 59.0299 115.9 58.1064C117.27 57.2126 118.402 55.8719 119.177 54.0844H115.959C115.066 55.7826 113.457 56.8253 111.282 56.8253C108.839 56.8253 105.979 55.1569 105.83 51.8797H119.683ZM105.889 49.4666C106.038 47.2619 108.094 44.9679 111.252 44.9679C114.321 44.9083 116.466 47.3215 116.615 49.4666H105.889Z" fill="black"/>
<path d="M136.08 42.793H132.833L128.334 55.1271L123.836 42.793H120.588L126.785 59.0002H129.884L136.08 42.793Z" fill="black"/>
<path d="M153.738 51.8797C154.006 49.1686 153.201 46.6363 151.295 44.6998C149.745 43.1803 147.63 42.3164 145.306 42.3164C140.391 42.3164 136.756 46.2788 136.756 50.9264C136.756 55.2165 140.033 59.4768 145.336 59.4768C146.975 59.4768 148.584 59.0299 149.954 58.1064C151.324 57.2126 152.457 55.8719 153.231 54.0844H150.014C149.12 55.7826 147.511 56.8253 145.336 56.8253C142.893 56.8253 140.033 55.1569 139.884 51.8797H153.738ZM139.944 49.4666C140.093 47.2619 142.148 44.9679 145.306 44.9679C148.375 44.9083 150.52 47.3215 150.669 49.4666H139.944Z" fill="black"/>
<path d="M157.068 59.0002H160.167V36.9537H157.068V59.0002Z" fill="black"/>
<path d="M163.6 50.8966C163.6 55.2463 166.787 59.447 172.239 59.447C177.691 59.447 180.879 55.2463 180.879 50.8966C180.879 46.5469 177.691 42.3164 172.239 42.3164C166.787 42.3164 163.6 46.5469 163.6 50.8668V50.8966ZM166.698 50.8966C166.698 47.6492 169.141 45.236 172.239 45.236C175.338 45.236 177.781 47.6492 177.781 50.8966C177.781 54.144 175.338 56.5572 172.239 56.5572C169.141 56.5572 166.698 54.144 166.698 50.9264V50.8966Z" fill="black"/>
<path d="M184.343 64.8991H187.442V59.0002V56.3188C188.157 57.6297 190.153 59.4768 193.519 59.4768C198.376 59.4768 201.683 55.574 201.683 50.986C201.683 46.964 199.061 42.3164 193.49 42.3164C190.6 42.3164 188.514 43.6868 187.293 45.6233V42.793H184.343V64.8991ZM198.554 50.8966C198.554 54.0546 196.201 56.587 192.924 56.587C191.345 56.587 189.915 55.9613 188.902 54.9484C187.889 53.9354 187.293 52.5352 187.293 50.9264C187.293 49.3176 187.889 47.8876 188.872 46.8746C189.885 45.8319 191.285 45.2062 192.894 45.2062C196.677 45.2062 198.554 48.2153 198.554 50.8668V50.8966Z" fill="black"/>
<path d="M221.002 51.8797C221.27 49.1686 220.466 46.6363 218.559 44.6998C217.01 43.1803 214.895 42.3164 212.571 42.3164C207.655 42.3164 204.021 46.2788 204.021 50.9264C204.021 55.2165 207.298 59.4768 212.601 59.4768C214.239 59.4768 215.848 59.0299 217.219 58.1064C218.589 57.2126 219.721 55.8719 220.496 54.0844H217.278C216.384 55.7826 214.776 56.8253 212.601 56.8253C210.158 56.8253 207.298 55.1569 207.149 51.8797H221.002ZM207.208 49.4666C207.357 47.2619 209.413 44.9679 212.571 44.9679C215.64 44.9083 217.785 47.3215 217.934 49.4666H207.208Z" fill="black"/>
<path d="M224.333 59.0002H227.431V50.2412C227.431 47.0236 228.951 45.4148 231.87 45.4148H232.079V42.3164C229.874 42.3462 228.176 43.2697 227.252 45.1764V42.793H224.333V59.0002Z" fill="black"/>
</svg>
