<svg width="239" height="65" viewBox="0 0 239 65" fill="none" xmlns="http://www.w3.org/2000/svg">
<path d="M41.317 46.504V58.0492C35.241 56.0146 28.6674 56.0146 22.5914 58.0492V0.937744H33.5011C35.5755 0.937744 37.565 1.76151 39.0322 3.22793C40.4994 4.69434 41.3243 6.68339 41.3254 8.75776V14.1151L41.317 46.504Z" fill="white"/>
<path d="M41.3349 22.4536V58.0486C35.2589 56.0139 28.6854 56.0139 22.6092 58.0486V49.7427C22.6101 43.8354 24.3973 38.0665 27.7364 33.1932C31.0752 28.3201 35.8097 24.5706 41.3183 22.437L41.3349 22.4536Z" fill="#4F82F6"/>
<path d="M53.0417 0.937754C52.0143 0.936113 50.9968 1.13726 50.0472 1.52967C49.0977 1.92208 48.235 2.49806 47.5084 3.22454C46.782 3.95103 46.2062 4.81376 45.8137 5.76325C45.4212 6.71277 45.2202 7.73038 45.2218 8.75778V59.6854C50.7339 57.5545 55.4723 53.8055 58.8137 48.9313C62.1552 44.0569 63.9435 38.2854 63.9433 32.3756V0.937754H53.0417Z" fill="white"/>
<path d="M18.7215 14.1153V0.937988H0V36.562L18.7215 59.6816V46.5043H18.7092V14.1153H18.7215Z" fill="white"/>
<path d="M86.2379 23.0002H90.3492L94.1925 7.3591L98.0655 23.0002H102.058L108.016 0.953716H103.518L99.7935 16.9523L95.9204 0.953716H92.5241L88.6809 16.9225L84.927 0.953716H80.3986L86.2379 23.0002Z" fill="white"/>
<path d="M110.876 23.0002H123.24V19.0973H115.316V13.7645H123.091V9.86167H115.316V4.85653H123.24V0.953716H110.876V23.0002Z" fill="white"/>
<path d="M127.149 23.0002H138.828V19.0973H131.588V0.953716H127.149V23.0002Z" fill="white"/>
<path d="M141.471 23.0002H153.149V19.0973H145.91V0.953716H141.471V23.0002Z" fill="white"/>
<path d="M155.703 23.0002H163.031C171.046 23.0002 174.323 18.1738 174.323 11.9471C174.323 9.23603 173.667 6.79304 172.059 4.76715C169.437 1.22185 165.445 0.953716 162.704 0.953716H155.703V23.0002ZM160.142 4.85653H163.3C165.981 4.85653 167.471 5.86947 168.394 7.06117C169.437 8.43163 169.884 10.2788 169.884 12.0067C169.884 15.9691 168.037 19.0973 163.27 19.0973H160.142V4.85653Z" fill="white"/>
<path d="M176.838 12.1855C176.838 18.0844 181.605 23.4172 188.368 23.4172C195.101 23.4172 199.987 18.2334 199.987 11.9769C199.987 5.72051 195.071 0.536621 188.397 0.536621C182.26 0.536621 176.838 5.09487 176.838 12.1557V12.1855ZM181.277 11.9471C181.277 8.07412 184.018 4.43944 188.427 4.43944C192.926 4.43944 195.548 8.31246 195.548 12.0067C195.548 15.6414 192.926 19.5144 188.457 19.5144C184.167 19.5144 181.277 15.9989 181.277 11.9769V11.9471Z" fill="white"/>
<path d="M207.423 0.953716H203.46V23.0002H207.72L207.631 7.7464L217.79 23.0002H221.723V0.953716H217.463L217.552 16.2373L207.423 0.953716Z" fill="white"/>
<path d="M226.219 23.0002H238.583V19.0973H230.658V13.7645H238.434V9.86167H230.658V4.85653H238.583V0.953716H226.219V23.0002Z" fill="white"/>
<path d="M82.0669 59.0002H89.1278C96.8738 59.0002 100.36 54.3823 100.36 47.9471C100.36 45.0573 99.6147 42.5249 97.9463 40.5288C95.5033 37.4006 91.8389 36.9537 88.8894 36.9537H82.0669V59.0002ZM85.5825 40.0521H89.3363C92.1666 40.0521 93.9243 41.0353 95.0863 42.3759C96.3077 43.8656 96.8738 45.8915 96.8738 48.0067C96.8738 52.5948 94.4904 55.9017 89.3065 55.9017H85.5825V40.0521Z" fill="white"/>
<path d="M119.684 51.8797C119.952 49.1686 119.148 46.6363 117.241 44.6998C115.692 43.1803 113.576 42.3164 111.253 42.3164C106.337 42.3164 102.702 46.2788 102.702 50.9264C102.702 55.2165 105.979 59.4768 111.282 59.4768C112.921 59.4768 114.53 59.0299 115.9 58.1064C117.271 57.2126 118.403 55.8719 119.177 54.0844H115.96C115.066 55.7826 113.457 56.8253 111.282 56.8253C108.839 56.8253 105.979 55.1569 105.83 51.8797H119.684ZM105.89 49.4666C106.039 47.2619 108.095 44.9679 111.253 44.9679C114.321 44.9083 116.466 47.3215 116.615 49.4666H105.89Z" fill="white"/>
<path d="M136.081 42.793H132.834L128.335 55.1271L123.836 42.793H120.589L126.786 59.0002H129.884L136.081 42.793Z" fill="white"/>
<path d="M153.738 51.8797C154.006 49.1686 153.202 46.6363 151.295 44.6998C149.746 43.1803 147.631 42.3164 145.307 42.3164C140.391 42.3164 136.756 46.2788 136.756 50.9264C136.756 55.2165 140.034 59.4768 145.337 59.4768C146.975 59.4768 148.584 59.0299 149.954 58.1064C151.325 57.2126 152.457 55.8719 153.232 54.0844H150.014C149.12 55.7826 147.511 56.8253 145.337 56.8253C142.894 56.8253 140.034 55.1569 139.885 51.8797H153.738ZM139.944 49.4666C140.093 47.2619 142.149 44.9679 145.307 44.9679C148.375 44.9083 150.521 47.3215 150.669 49.4666H139.944Z" fill="white"/>
<path d="M157.069 59.0002H160.167V36.9537H157.069V59.0002Z" fill="white"/>
<path d="M163.6 50.8966C163.6 55.2463 166.788 59.447 172.24 59.447C177.692 59.447 180.88 55.2463 180.88 50.8966C180.88 46.5469 177.692 42.3164 172.24 42.3164C166.788 42.3164 163.6 46.5469 163.6 50.8668V50.8966ZM166.699 50.8966C166.699 47.6492 169.142 45.236 172.24 45.236C175.338 45.236 177.781 47.6492 177.781 50.8966C177.781 54.144 175.338 56.5572 172.24 56.5572C169.142 56.5572 166.699 54.144 166.699 50.9264V50.8966Z" fill="white"/>
<path d="M184.344 64.8991H187.442V59.0002V56.3188C188.157 57.6297 190.153 59.4768 193.52 59.4768C198.376 59.4768 201.683 55.574 201.683 50.986C201.683 46.964 199.061 42.3164 193.49 42.3164C190.6 42.3164 188.515 43.6868 187.293 45.6233V42.793H184.344V64.8991ZM198.555 50.8966C198.555 54.0546 196.201 56.587 192.924 56.587C191.345 56.587 189.915 55.9613 188.902 54.9484C187.889 53.9354 187.293 52.5352 187.293 50.9264C187.293 49.3176 187.889 47.8876 188.872 46.8746C189.885 45.8319 191.285 45.2062 192.894 45.2062C196.678 45.2062 198.555 48.2153 198.555 50.8668V50.8966Z" fill="white"/>
<path d="M221.003 51.8797C221.271 49.1686 220.467 46.6363 218.56 44.6998C217.011 43.1803 214.895 42.3164 212.572 42.3164C207.656 42.3164 204.021 46.2788 204.021 50.9264C204.021 55.2165 207.298 59.4768 212.601 59.4768C214.24 59.4768 215.849 59.0299 217.219 58.1064C218.59 57.2126 219.722 55.8719 220.496 54.0844H217.279C216.385 55.7826 214.776 56.8253 212.601 56.8253C210.158 56.8253 207.298 55.1569 207.149 51.8797H221.003ZM207.209 49.4666C207.358 47.2619 209.414 44.9679 212.572 44.9679C215.64 44.9083 217.785 47.3215 217.934 49.4666H207.209Z" fill="white"/>
<path d="M224.333 59.0002H227.432V50.2412C227.432 47.0236 228.951 45.4148 231.871 45.4148H232.079V42.3164C229.875 42.3462 228.176 43.2697 227.253 45.1764V42.793H224.333V59.0002Z" fill="white"/>
</svg>