<svg width="260" height="160" viewBox="0 0 260 160" fill="none" xmlns="http://www.w3.org/2000/svg">
<rect width="260" height="160" rx="8" fill="#131417"/>
<path d="M181.3 49.2998H204.551V57.6021H200.759C199.428 54.5559 196.434 52.4133 192.941 52.4133C188.218 52.4133 184.393 56.263 184.393 60.9834C184.393 65.7039 188.218 69.5868 192.941 69.5868C196.368 69.5868 199.361 67.5114 200.692 64.5316H204.55V72.6998H181.3V49.2998Z" fill="#343844"/>
<path d="M52.4615 44.7638L52.4425 103.171C52.4425 103.815 51.8534 104.312 51.1965 104.217C45.9303 103.445 40.7456 102.431 35.6504 101.183C34.6813 100.946 34 100.103 34 99.1301V40.8237C34 39.4179 35.3817 38.4031 36.7688 38.7916L50.8844 42.729C51.8155 42.988 52.4588 43.8178 52.4588 44.7612L52.4615 44.7638Z" fill="url(#paint0_linear_4424_10175)"/>
<path d="M61.5482 38.3314L57.2878 44.1652C57.1506 44.3516 57.0771 44.5853 57.0771 44.8268V103.522C57.0771 104.06 57.4417 104.511 57.9245 104.569C59.3494 104.735 60.7789 104.876 62.2156 104.997C62.7647 105.042 63.231 104.559 63.231 103.947V38.9904C63.231 38.0006 62.1091 37.5595 61.5482 38.3288V38.3314Z" fill="url(#paint1_linear_4424_10175)"/>
<path d="M113.997 33.076C113.997 31.6965 112.7 30.7008 111.394 31.082L70.0915 43.1264C69.217 43.3805 68.6127 44.1947 68.6152 45.1204L68.628 103.888C68.628 104.448 69.064 104.909 69.6147 104.925C71.2236 104.974 72.8375 105 74.4591 105C87.5722 105 100.303 103.351 112.467 100.242C113.37 100.011 114 99.1788 114 98.2323V33.0734L113.997 33.076ZM99.7215 74.1436C96.2004 74.1436 93.3473 71.242 93.3473 67.6611C93.3473 64.0802 96.2004 61.1787 99.7215 61.1787C103.243 61.1787 106.096 64.0802 106.096 67.6611C106.096 71.242 103.243 74.1436 99.7215 74.1436Z" fill="url(#paint2_linear_4424_10175)"/>
<g clip-path="url(#clip0_4424_10175)">
<g opacity="0.8">
<path d="M154.688 19.6133L147.2 23.2433L154.688 27.9589L162.172 23.2433L154.688 19.6133Z" fill="#343844"/>
</g>
<g opacity="0.65">
<path opacity="0.65" d="M147.2 23.2432L154.687 27.9587V10L147.2 23.2432Z" fill="#343844"/>
</g>
<g opacity="0.9">
<path d="M154.688 10V27.9587L162.172 23.2432L154.688 10Z" fill="#343844"/>
</g>
<g opacity="0.65">
<path opacity="0.65" d="M147.2 24.7559L154.687 36.0005V29.4714L147.2 24.7559Z" fill="#343844"/>
</g>
<g opacity="0.8">
<path d="M154.688 29.4714V36.0005L162.178 24.7559L154.688 29.4714Z" fill="#343844"/>
</g>
</g>
<path d="M146.224 142.151C146.381 141.994 146.597 141.903 146.826 141.903H167.574C167.953 141.903 168.142 142.36 167.874 142.628L163.776 146.727C163.619 146.884 163.403 146.975 163.174 146.975H142.426C142.047 146.975 141.858 146.518 142.126 146.25L146.224 142.151Z" fill="#343844"/>
<path d="M146.224 126.848C146.388 126.691 146.603 126.6 146.826 126.6H167.574C167.953 126.6 168.142 127.057 167.874 127.325L163.776 131.424C163.619 131.581 163.403 131.672 163.174 131.672H142.426C142.047 131.672 141.858 131.215 142.126 130.947L146.224 126.848Z" fill="#343844"/>
<path d="M163.776 134.45C163.619 134.294 163.403 134.202 163.174 134.202H142.426C142.047 134.202 141.858 134.66 142.126 134.928L146.224 139.026C146.381 139.183 146.597 139.275 146.826 139.275H167.574C167.953 139.275 168.142 138.817 167.874 138.549L163.776 134.45Z" fill="#343844"/>
<path d="M154.805 62.8032C155.65 62.8032 156.334 62.1184 156.334 61.2737C156.334 60.4289 155.65 59.7441 154.805 59.7441C153.96 59.7441 153.275 60.4289 153.275 61.2737C153.275 62.1184 153.96 62.8032 154.805 62.8032Z" fill="#343844"/>
<path d="M161.001 56.0308C161.491 56.0308 161.889 55.6199 161.889 55.113C161.889 54.6062 161.491 54.1953 161.001 54.1953C160.511 54.1953 160.114 54.6062 160.114 55.113C160.114 55.6199 160.511 56.0308 161.001 56.0308Z" fill="#343844"/>
<path d="M146.514 59.438C147.004 59.438 147.401 59.0271 147.401 58.5203C147.401 58.0134 147.004 57.6025 146.514 57.6025C146.024 57.6025 145.627 58.0134 145.627 58.5203C145.627 59.0271 146.024 59.438 146.514 59.438Z" fill="#343844"/>
<path d="M153.037 71.0747C153.527 71.0747 153.924 70.6638 153.924 70.157C153.924 69.6501 153.527 69.2393 153.037 69.2393C152.547 69.2393 152.149 69.6501 152.149 70.157C152.149 70.6638 152.547 71.0747 153.037 71.0747Z" fill="#343844"/>
<path opacity="0.9" fill-rule="evenodd" clip-rule="evenodd" d="M154.848 48.6917C154.73 48.5832 154.669 48.5811 154.659 48.5811C154.649 48.5811 154.588 48.5832 154.47 48.6917C154.349 48.8031 154.204 48.9954 154.048 49.292C153.737 49.8841 153.439 50.779 153.182 51.9337C152.893 53.2323 152.665 54.8195 152.521 56.5962C153.217 56.9326 153.931 57.2983 154.659 57.691C155.386 57.2982 156.101 56.9325 156.796 56.596C156.652 54.8194 156.424 53.2323 156.136 51.9337C155.879 50.779 155.581 49.8841 155.27 49.292C155.114 48.9954 154.969 48.8031 154.848 48.6917ZM154.05 58.0243C153.516 57.7405 152.99 57.4721 152.475 57.2199C152.436 57.7918 152.405 58.3814 152.384 58.9856C152.657 58.8224 152.933 58.6599 153.213 58.4982C153.494 58.3365 153.773 58.1785 154.05 58.0243ZM151.96 56.3292C152.378 51.4571 153.429 48 154.659 48C155.889 48 156.94 51.457 157.357 56.329C161.788 54.2542 165.309 53.4352 165.924 54.5001C166.539 55.5649 164.069 58.2029 160.056 61C164.069 63.7971 166.539 66.4351 165.924 67.4999C165.309 68.5648 161.788 67.7458 157.357 65.671C156.94 70.543 155.889 74 154.659 74C153.429 74 152.378 70.5429 151.96 65.6708C147.53 67.7458 144.009 68.5648 143.393 67.4999C142.778 66.4351 145.248 63.7971 149.262 61C145.248 58.2029 142.778 55.565 143.393 54.5001C144.009 53.4352 147.53 54.2542 151.96 56.3292ZM149.774 60.648C148.306 59.6349 147.045 58.6438 146.064 57.7445C145.191 56.9449 144.565 56.2396 144.207 55.6742C144.028 55.3909 143.934 55.1695 143.898 55.0091C143.863 54.8529 143.892 54.7994 143.897 54.7908C143.902 54.7821 143.934 54.7304 144.087 54.6826C144.244 54.6335 144.483 54.6044 144.818 54.6177C145.487 54.6443 146.411 54.834 147.541 55.1891C148.81 55.5885 150.3 56.1847 151.911 56.9484C151.855 57.7182 151.815 58.5197 151.791 59.3453C151.087 59.7785 150.413 60.2144 149.774 60.648ZM149.774 61.352C148.306 62.3651 147.045 63.3562 146.064 64.2555C145.191 65.0551 144.565 65.7604 144.207 66.3258C144.028 66.6091 143.934 66.8305 143.898 66.9909C143.863 67.1471 143.892 67.2006 143.897 67.2092C143.902 67.2179 143.934 67.2695 144.087 67.3174C144.244 67.3665 144.483 67.3956 144.818 67.3823C145.487 67.3556 146.411 67.166 147.541 66.8108C148.81 66.4115 150.3 65.8153 151.911 65.0516C151.855 64.2817 151.815 63.4803 151.791 62.6546C151.087 62.2215 150.413 61.7856 149.774 61.352ZM151.776 61.9614C151.263 61.641 150.767 61.3198 150.291 61C150.767 60.6802 151.263 60.359 151.776 60.0386C151.771 60.356 151.768 60.6766 151.768 61C151.768 61.3234 151.771 61.644 151.776 61.9614ZM152.364 62.3238C152.354 61.8888 152.349 61.4472 152.349 61C152.349 60.5528 152.354 60.1112 152.364 59.6762C152.736 59.4502 153.116 59.2251 153.504 59.0015C153.891 58.7779 154.277 58.5614 154.659 58.3524C155.041 58.5614 155.426 58.7779 155.814 59.0015C156.201 59.2252 156.581 59.4504 156.953 59.6765C156.963 60.1113 156.968 60.5529 156.968 61C156.968 61.4471 156.963 61.8887 156.953 62.3235C156.581 62.5496 156.201 62.7748 155.814 62.9985C155.426 63.2221 155.041 63.4386 154.659 63.6476C154.277 63.4386 153.891 63.2221 153.504 62.9985C153.116 62.7749 152.736 62.5498 152.364 62.3238ZM152.384 63.0144C152.405 63.6186 152.436 64.2082 152.475 64.7801C152.99 64.5279 153.516 64.2595 154.05 63.9757C153.773 63.8215 153.494 63.6635 153.213 63.5018C152.933 63.3401 152.657 63.1776 152.384 63.0144ZM154.659 64.309C153.931 64.7017 153.217 65.0674 152.521 65.4038C152.665 67.1805 152.893 68.7677 153.182 70.0662C153.439 71.221 153.737 72.1159 154.048 72.708C154.204 73.0046 154.349 73.1969 154.47 73.3083C154.588 73.4168 154.649 73.4189 154.659 73.4189C154.669 73.4189 154.73 73.4168 154.848 73.3083C154.969 73.1969 155.114 73.0046 155.27 72.708C155.581 72.1159 155.879 71.221 156.136 70.0662C156.424 68.7677 156.652 67.1806 156.796 65.4039C156.101 65.0675 155.386 64.7018 154.659 64.309ZM157.406 65.0517C159.018 65.8154 160.507 66.4115 161.777 66.8108C162.906 67.166 163.83 67.3556 164.499 67.3823C164.834 67.3956 165.073 67.3665 165.231 67.3174C165.384 67.2695 165.416 67.2179 165.421 67.2092C165.426 67.2007 165.454 67.1472 165.419 66.9909C165.383 66.8305 165.289 66.6091 165.11 66.3258C164.753 65.7604 164.126 65.0551 163.254 64.2555C162.273 63.3562 161.011 62.3651 159.544 61.352C158.904 61.7855 158.23 62.2214 157.526 62.6544C157.503 63.4802 157.462 64.2818 157.406 65.0517ZM159.544 60.648C161.011 59.6349 162.273 58.6438 163.254 57.7445C164.126 56.9449 164.753 56.2396 165.11 55.6742C165.289 55.3909 165.383 55.1695 165.419 55.0091C165.454 54.8528 165.426 54.7993 165.421 54.7908C165.416 54.7821 165.384 54.7305 165.231 54.6826C165.073 54.6335 164.834 54.6044 164.499 54.6177C163.83 54.6443 162.906 54.834 161.777 55.1891C160.507 55.5885 159.018 56.1846 157.406 56.9483C157.462 57.7182 157.503 58.5198 157.526 59.3456C158.23 59.7786 158.904 60.2145 159.544 60.648ZM157.542 60.0388C158.055 60.3591 158.55 60.6802 159.026 61C158.55 61.3198 158.055 61.6409 157.542 61.9612C157.547 61.6438 157.55 61.3233 157.55 61C157.55 60.6767 157.547 60.3562 157.542 60.0388ZM156.934 58.9858C156.912 58.3815 156.882 57.7918 156.843 57.2197C156.328 57.4719 155.801 57.7404 155.267 58.0243C155.545 58.1785 155.824 58.3365 156.104 58.4982C156.384 58.6599 156.661 58.8225 156.934 58.9858ZM156.843 64.7803C156.328 64.5281 155.801 64.2596 155.267 63.9757C155.545 63.8215 155.824 63.6635 156.104 63.5018C156.384 63.3401 156.661 63.1775 156.934 63.0142C156.912 63.6185 156.882 64.2082 156.843 64.7803Z" fill="#343844"/>
<g clip-path="url(#clip1_4424_10175)">
<path d="M162.046 94.6937H159.756C159.624 94.6936 159.493 94.6653 159.373 94.6106C159.253 94.556 159.146 94.4763 159.058 94.377L158.13 93.3282C158.061 93.2514 157.977 93.1899 157.883 93.1478C157.789 93.1057 157.687 93.084 157.584 93.084C157.481 93.084 157.379 93.1057 157.285 93.1478C157.191 93.1899 157.107 93.2514 157.038 93.3282L156.242 94.2271C156.114 94.3734 155.956 94.4907 155.778 94.5711C155.601 94.6516 155.409 94.6934 155.214 94.6937H142.681C142.319 95.7294 142.091 96.8068 142 97.8999H153.832C153.934 97.8998 154.036 97.8789 154.13 97.8384C154.224 97.7979 154.309 97.7388 154.38 97.6645L155.484 96.513C155.552 96.4425 155.634 96.3864 155.725 96.3482C155.815 96.31 155.912 96.2903 156.011 96.2904H156.053C156.157 96.2909 156.259 96.3128 156.353 96.3548C156.447 96.3968 156.532 96.458 156.601 96.5344L157.53 97.5832C157.617 97.6828 157.724 97.7626 157.845 97.8172C157.965 97.8719 158.096 97.9001 158.228 97.8999H167.881C167.792 96.8065 167.564 95.7289 167.2 94.6937H162.063H162.046Z" fill="#343844"/>
<path d="M149.158 104.642C149.26 104.642 149.361 104.62 149.455 104.58C149.549 104.54 149.635 104.481 149.705 104.407L150.806 103.255C150.874 103.185 150.956 103.13 151.047 103.091C151.137 103.053 151.234 103.033 151.332 103.033H151.379C151.482 103.033 151.585 103.055 151.679 103.097C151.773 103.139 151.858 103.2 151.927 103.277L152.852 104.325C152.939 104.424 153.047 104.504 153.167 104.558C153.287 104.613 153.417 104.642 153.55 104.642H166.636C167.134 103.617 167.494 102.53 167.706 101.41H155.142C155.011 101.41 154.881 101.382 154.762 101.328C154.642 101.274 154.536 101.196 154.448 101.098L153.52 100.049C153.451 99.9712 153.367 99.9088 153.272 99.866C153.178 99.8232 153.075 99.801 152.972 99.8008C152.868 99.8005 152.766 99.8225 152.673 99.8654C152.579 99.9082 152.495 99.9709 152.428 100.049L151.632 100.948C151.502 101.094 151.343 101.21 151.166 101.29C150.988 101.369 150.795 101.411 150.6 101.41H142.176C142.385 102.533 142.744 103.623 143.242 104.651L149.158 104.642Z" fill="#343844"/>
<path d="M158.442 91.1882C158.545 91.1881 158.647 91.1672 158.742 91.1268C158.837 91.0863 158.923 91.0271 158.994 90.9527L160.094 89.8055C160.162 89.734 160.244 89.677 160.334 89.638C160.425 89.599 160.522 89.5788 160.621 89.5786H160.668C160.771 89.5784 160.873 89.6004 160.967 89.6432C161.061 89.6861 161.144 89.7488 161.212 89.8269L162.141 90.8757C162.229 90.9735 162.336 91.0517 162.457 91.1056C162.577 91.1594 162.707 91.1875 162.838 91.1882H165.325C164.116 89.5771 162.547 88.2697 160.745 87.3692C158.943 86.4688 156.955 86 154.941 86C152.926 86 150.939 86.4688 149.136 87.3692C147.334 88.2697 145.766 89.5771 144.556 91.1882H158.442Z" fill="#343844"/>
<path d="M153.443 107.852H150.039C149.908 107.852 149.778 107.824 149.658 107.769C149.539 107.714 149.432 107.635 149.346 107.535L148.421 106.487C148.352 106.41 148.268 106.348 148.173 106.306C148.079 106.264 147.977 106.242 147.873 106.242C147.77 106.242 147.668 106.264 147.573 106.306C147.479 106.348 147.395 106.41 147.326 106.487L146.525 107.403C146.397 107.549 146.239 107.667 146.062 107.747C145.885 107.828 145.692 107.869 145.498 107.869H145.446C146.661 109.172 148.131 110.212 149.765 110.922C151.399 111.633 153.161 111.999 154.943 111.999C156.725 111.999 158.487 111.633 160.121 110.922C161.755 110.212 163.225 109.172 164.44 107.869L153.443 107.852Z" fill="#343844"/>
</g>
<g clip-path="url(#clip2_4424_10175)">
<path d="M238.835 11.3274L233.41 19.3785C233.034 19.9267 233.756 20.5905 234.275 20.1287L239.614 15.4828C239.758 15.3674 239.96 15.4539 239.96 15.6559V30.1709C239.96 30.3729 239.7 30.4595 239.585 30.3152L223.425 10.9811C222.906 10.3463 222.155 10 221.319 10H220.741C219.241 10 218 11.2408 218 12.7703V33.2009C218 34.7303 219.241 35.9711 220.77 35.9711C221.723 35.9711 222.617 35.4806 223.137 34.6437L228.562 26.5927C228.937 26.0444 228.215 25.3807 227.696 25.8424L222.357 30.4595C222.213 30.5749 222.011 30.4883 222.011 30.2864V15.8002C222.011 15.5982 222.271 15.5117 222.386 15.6559L238.546 34.99C239.065 35.6249 239.845 35.9711 240.653 35.9711H241.23C242.759 35.9711 244 34.7303 244 33.2009V12.7703C244 11.2408 242.759 10 241.23 10C240.249 10 239.354 10.4906 238.835 11.3274Z" fill="#343844"/>
</g>
<g clip-path="url(#clip3_4424_10175)">
<path d="M193.616 22.7717L202.499 31.5893C207.167 26.6378 207.167 18.9056 202.499 13.9541" fill="#343844"/>
<path d="M192.967 23.3555L184.215 32.0431L192.967 35.6738L201.72 32.0431" fill="#343844"/>
<path d="M192.787 22.6105L201.864 13.5979L193.499 10.1621L185.2 30.197L192.787 22.6105Z" fill="#343844"/>
<path d="M180 22.7721C179.994 26.0519 181.247 29.2082 183.501 31.5897L192.188 10.6475" fill="#343844"/>
</g>
<g clip-path="url(#clip4_4424_10175)">
<path fill-rule="evenodd" clip-rule="evenodd" d="M204.919 99.3544C204.916 99.435 204.806 99.4563 204.775 99.382C204.761 99.35 204.747 99.3178 204.733 99.2857C204.707 99.2269 204.715 99.1585 204.753 99.107C204.761 99.0965 204.777 99.0752 204.797 99.0499C204.849 98.9817 204.924 98.9919 204.924 99.0675C204.924 99.1668 204.922 99.2527 204.919 99.3544ZM204.341 97.7784C204.253 97.9385 204.025 97.9458 203.926 97.7915C203.911 97.7677 203.895 97.7438 203.88 97.7198C203.524 97.1737 203.115 96.6377 202.658 96.1167C202.545 95.9888 202.637 95.788 202.807 95.7879H202.811C203.88 95.7879 204.44 96.0518 204.611 96.374C204.753 96.6435 204.71 97.1148 204.341 97.7784ZM204.103 103.365C204.045 103.511 203.985 103.656 203.922 103.799C203.913 103.819 203.903 103.839 203.893 103.858C203.5 104.615 202.84 105.211 201.959 105.626C201.761 105.719 201.544 105.538 201.603 105.327C201.896 104.279 202.118 103.143 202.261 101.952C202.288 101.73 202.397 101.526 202.567 101.38C202.929 101.066 203.268 100.753 203.579 100.442L203.583 100.438C203.736 100.285 203.997 100.351 204.06 100.558C204.368 101.581 204.385 102.534 204.103 103.365ZM201.706 107.148C201.616 107.244 201.525 107.338 201.432 107.432C201.269 107.594 201.103 107.751 200.933 107.903C200.826 107.998 200.663 107.879 200.724 107.748C200.741 107.711 200.759 107.674 200.776 107.636C200.847 107.479 200.916 107.317 200.983 107.152C200.999 107.114 201.032 107.085 201.073 107.074C201.242 107.031 201.407 106.984 201.568 106.932C201.698 106.89 201.8 107.048 201.706 107.148ZM199.946 106.202C199.59 106.253 199.216 106.287 198.825 106.301C197.869 106.334 196.859 106.252 195.821 106.061C195.695 106.037 195.671 105.866 195.785 105.808C196.012 105.694 196.238 105.577 196.464 105.457C198.052 104.615 199.534 103.695 200.83 102.752C200.928 102.681 201.062 102.765 201.042 102.883C200.862 103.964 200.613 104.982 200.3 105.905C200.247 106.063 200.111 106.178 199.946 106.202ZM199.579 107.642C198.728 109.316 197.68 110.256 196.663 110.237C195.559 110.218 194.458 109.067 193.642 107.082L193.641 107.08C193.589 106.954 193.649 106.809 193.774 106.755C193.782 106.751 193.791 106.747 193.8 106.744C193.853 106.72 193.913 106.716 193.97 106.732C195.495 107.16 196.998 107.384 198.407 107.384C198.56 107.384 198.712 107.381 198.862 107.376C199.039 107.369 199.212 107.36 199.383 107.346C199.541 107.333 199.651 107.501 199.579 107.642ZM194.538 110.826C194.032 110.891 193.519 110.924 193 110.924C190.682 110.924 188.465 110.267 186.562 109.042C186.431 108.957 186.487 108.754 186.642 108.747C186.675 108.745 186.705 108.744 186.731 108.742C187.215 108.711 187.745 108.64 188.32 108.529C189.542 108.294 190.901 107.891 192.324 107.347C192.451 107.299 192.594 107.362 192.646 107.488L192.647 107.491C193.198 108.833 193.877 109.847 194.639 110.493C194.765 110.599 194.702 110.805 194.538 110.826ZM187.643 102.471C188.693 101.615 189.925 100.762 191.275 99.9535C191.304 101.681 191.493 103.339 191.829 104.837C191.328 104.623 190.828 104.388 190.333 104.131C189.375 103.633 188.473 103.075 187.643 102.471ZM184.375 107.099C184.124 106.626 184.448 105.531 186.094 103.866L186.095 103.865C186.267 103.691 186.25 103.406 186.059 103.255C185.993 103.204 185.927 103.151 185.862 103.099C185.698 102.966 185.461 102.978 185.312 103.128C185.28 103.16 185.255 103.185 185.248 103.192C184.425 104.037 183.85 104.818 183.527 105.521C183.436 105.721 183.159 105.742 183.039 105.559C181.762 103.629 181.076 101.367 181.076 98.9999C181.076 98.1536 181.164 97.3207 181.335 96.5116C181.361 96.3892 181.533 96.3814 181.57 96.5011C181.817 97.3179 182.22 98.1627 182.776 99.017C183.525 100.167 184.513 101.273 185.683 102.287C186.083 102.633 186.505 102.968 186.945 103.291C187.837 103.946 188.806 104.55 189.837 105.086C190.295 105.323 190.74 105.55 191.196 105.755C191.45 105.87 191.738 105.878 191.998 105.777C192.213 105.693 192.429 105.605 192.647 105.514C192.884 105.415 193.012 105.157 192.949 104.908C192.942 104.877 192.935 104.852 192.932 104.837C192.573 103.326 192.373 101.625 192.35 99.8434C192.35 99.8222 192.349 99.801 192.349 99.7796C192.348 99.6823 192.348 99.5842 192.347 99.487C192.346 99.456 192.347 99.4035 192.347 99.3724C192.347 99.36 192.347 99.3478 192.347 99.3355C192.348 99.224 192.349 99.1124 192.351 99.0005C192.357 98.6949 192.368 98.3915 192.383 98.0906C192.494 95.9406 192.858 93.9208 193.438 92.2214C193.492 92.0642 193.408 91.8935 193.251 91.8398C193.097 91.7874 192.944 91.7374 192.791 91.6895C192.637 91.6409 192.471 91.7244 192.419 91.8779C191.79 93.7234 191.402 95.9129 191.299 98.2298C191.286 98.5237 191.126 98.7912 190.873 98.9412C189.5 99.7545 188.24 100.617 187.151 101.486C186.925 101.667 186.601 101.66 186.381 101.47C185.29 100.524 184.372 99.496 183.678 98.4299C182.313 96.335 181.989 94.3614 182.765 92.8738C182.767 92.8703 182.769 92.8667 182.771 92.8633C182.87 92.6991 182.973 92.5372 183.08 92.3775C183.971 91.1975 185.631 90.5136 187.831 90.4364C187.97 90.4314 188.111 90.429 188.252 90.429C189.602 90.429 191.05 90.6517 192.524 91.0768C192.556 91.0862 192.589 91.0955 192.621 91.105C192.646 91.1124 192.671 91.1193 192.695 91.1267C193.036 91.2285 193.377 91.3413 193.719 91.4643C193.727 91.4671 193.735 91.47 193.743 91.4728C193.832 91.505 193.921 91.5379 194.01 91.5715C194.038 91.582 194.066 91.5926 194.094 91.6034C194.121 91.6137 194.147 91.6236 194.174 91.634C194.894 91.9125 195.612 92.2369 196.322 92.6058C197.696 93.3197 198.954 94.1566 200.049 95.0747C197.96 95.5533 195.532 96.4764 193.09 97.7211C192.978 97.7786 192.904 97.8918 192.896 98.0181C192.888 98.1694 192.877 98.4736 192.869 98.7154C192.864 98.8671 193.024 98.9677 193.159 98.8971L193.16 98.8962C195.577 97.627 197.989 96.6784 200.061 96.177C200.448 96.0834 200.699 95.7115 200.645 95.3169C200.606 95.0412 200.564 94.7698 200.516 94.5033C200.456 94.1684 200.273 93.869 200.003 93.663C199.032 92.9238 197.963 92.2459 196.818 91.651C196.047 91.2502 195.264 90.899 194.48 90.5995C194.312 90.5354 194.24 90.3371 194.328 90.1803C195.136 88.7347 196.097 87.925 197.033 87.925C197.043 87.925 197.053 87.925 197.062 87.9252C198.167 87.945 199.268 89.0951 200.084 91.0807C200.497 92.0858 200.817 93.2449 201.035 94.5045L201.032 94.5015C201.125 95.0391 201.2 95.5947 201.256 96.1646C201.251 96.1677 201.246 96.1704 201.241 96.1734C201.248 96.1801 201.255 96.1867 201.261 96.1935C201.354 97.1499 201.393 98.1458 201.375 99.162C201.363 99.8048 201.329 100.439 201.274 101.059C199.796 102.253 197.969 103.442 195.961 104.506C195.301 104.856 194.641 105.181 193.987 105.481C193.977 105.486 193.967 105.49 193.957 105.495C193.907 105.518 193.857 105.541 193.807 105.563L193.806 105.563C193.264 105.808 192.728 106.035 192.201 106.242C192.171 106.253 192.142 106.265 192.112 106.277C192.075 106.291 192.038 106.305 192.001 106.32C191.912 106.353 191.824 106.387 191.736 106.42C191.712 106.429 191.688 106.438 191.663 106.447C191.557 106.487 191.451 106.525 191.345 106.563C191.332 106.568 191.318 106.573 191.305 106.577C190.175 106.98 189.098 107.284 188.117 107.473C185.746 107.929 184.629 107.579 184.375 107.099ZM186.078 89.2882C188.085 87.8512 190.483 87.0759 193 87.0759C193.664 87.0759 194.32 87.1302 194.963 87.2363C195.135 87.2647 195.193 87.4844 195.056 87.592C194.433 88.0803 193.854 88.8027 193.342 89.7395C193.217 89.9681 192.952 90.0799 192.701 90.0093C191.005 89.5317 189.336 89.307 187.793 89.3611C187.224 89.3811 186.686 89.4387 186.18 89.532C186.037 89.5582 185.96 89.3723 186.078 89.2882ZM202.446 97.9786C202.442 97.8419 202.618 97.7836 202.697 97.8949C202.794 98.0315 202.888 98.1689 202.978 98.307C203.098 98.4905 203.209 98.673 203.312 98.8544C203.377 98.9674 203.361 99.1093 203.274 99.2054C203.134 99.3583 202.983 99.5164 202.819 99.6803C202.759 99.74 202.698 99.7999 202.636 99.8599C202.559 99.9344 202.43 99.8776 202.434 99.7703C202.441 99.5747 202.447 99.3784 202.45 99.1812C202.458 98.7771 202.456 98.376 202.446 97.9786ZM201.209 90.3517C201.284 90.4228 201.358 90.495 201.432 90.5684C202.581 91.7174 203.466 93.0601 204.058 94.5223C204.117 94.6697 203.992 94.8241 203.836 94.7959C203.493 94.7344 203.108 94.7069 202.681 94.7141C202.385 94.719 202.128 94.5118 202.077 94.2207C201.845 92.9207 201.51 91.7199 201.079 90.6718C201.054 90.6121 201.03 90.553 201.005 90.4946C200.95 90.367 201.109 90.2561 201.209 90.3517ZM205.719 96.2962C205.205 93.8553 203.997 91.6126 202.192 89.8075C199.737 87.3521 196.472 86 193 86C189.528 86 186.263 87.3521 183.808 89.8075C183.21 90.4047 182.679 91.0499 182.216 91.7341C182.078 91.9174 181.955 92.1111 181.845 92.3137C180.642 94.3126 180 96.6069 180 98.9999C180 102.472 181.352 105.737 183.808 108.192C186.263 110.648 189.528 112 193 112C196.472 112 199.737 110.648 202.192 108.192C203.351 107.034 204.264 105.694 204.905 104.238C204.983 104.077 205.052 103.912 205.111 103.743C205.694 102.252 206 100.65 206 98.9999C206 98.092 205.907 97.1986 205.726 96.3298C205.724 96.3186 205.722 96.3074 205.719 96.2962Z" fill="#343844"/>
</g>
<path fill-rule="evenodd" clip-rule="evenodd" d="M201.234 131.484L195.695 131.258L199.457 127.248L197.943 125.758L193.865 129.453L193.644 124H191.503L191.274 129.452L187.2 125.749L185.687 127.239L189.441 131.253L183.9 131.471V133.578L189.439 133.804L185.678 137.813L187.191 139.303L191.207 135.665L191.381 144.497L188.178 144.727V146.689L191.43 146.932L191.49 150H193.631L193.694 146.937L196.979 146.692V144.729L193.744 144.496L193.925 135.669L197.934 139.312L199.448 137.822L195.693 133.808L201.234 133.591V131.484Z" fill="#343844"/>
<path fill-rule="evenodd" clip-rule="evenodd" d="M237.062 58.8437L237.062 58.8447C238.123 60.1748 238.757 61.8593 238.757 63.6915C238.757 65.551 238.104 67.2584 237.014 68.5975L236.921 68.7127L236.896 68.5662C236.874 68.4416 236.85 68.3158 236.821 68.189C236.276 65.7937 234.499 63.7397 231.576 62.0766C229.602 60.9566 228.472 59.608 228.175 58.0758C227.983 57.085 228.126 56.0897 228.401 55.2373C228.676 54.3852 229.086 53.6712 229.434 53.2414L230.571 51.8505C230.771 51.6067 231.144 51.6067 231.343 51.8505L237.062 58.8437ZM238.861 57.4543L231.239 48.1335C231.093 47.9555 230.821 47.9555 230.675 48.1335L223.053 57.4539L223.028 57.4852C221.626 59.2257 220.786 61.4377 220.786 63.8457C220.786 69.4536 225.34 74 230.957 74C236.575 74 241.128 69.4536 241.128 63.8457C241.128 61.4377 240.289 59.2257 238.886 57.4852L238.861 57.4543ZM224.877 58.8136L225.559 57.9795L225.579 58.1334C225.596 58.2554 225.615 58.3779 225.639 58.501C226.08 60.8155 227.656 62.7455 230.291 64.2402C232.581 65.5436 233.914 67.0425 234.298 68.6864C234.459 69.3724 234.487 70.0474 234.418 70.6375L234.414 70.674L234.381 70.6902C233.347 71.1951 232.185 71.4785 230.957 71.4785C226.649 71.4785 223.157 67.9923 223.157 63.6915C223.157 61.845 223.801 60.1484 224.877 58.8136Z" fill="#343844"/>
<path fill-rule="evenodd" clip-rule="evenodd" d="M231.496 98.4827L220.521 87.5082C220.424 87.4095 220.299 87.342 220.163 87.3141C220.027 87.2862 219.886 87.2993 219.758 87.3516C219.629 87.4039 219.519 87.4931 219.441 87.6079C219.363 87.7228 219.321 87.8581 219.32 87.9969V98.9766C219.32 99.0689 219.337 99.1605 219.372 99.246C219.407 99.3314 219.459 99.4091 219.524 99.4743C219.59 99.5397 219.667 99.5914 219.753 99.6264C219.838 99.6614 219.93 99.6791 220.022 99.6784H230.976C231.072 99.6822 231.168 99.6657 231.258 99.6298C231.348 99.594 231.429 99.5398 231.496 99.4705C231.626 99.339 231.699 99.1616 231.699 98.9766C231.699 98.7916 231.626 98.6142 231.496 98.4827ZM220.72 89.6919L229.314 98.2801H220.72V89.6919Z" fill="#343844"/>
<path fill-rule="evenodd" clip-rule="evenodd" d="M230.503 99.4711L241.477 110.446H241.483C241.55 110.515 241.631 110.569 241.721 110.606C241.81 110.642 241.906 110.66 242.002 110.659C242.094 110.659 242.185 110.641 242.27 110.605C242.355 110.57 242.432 110.518 242.497 110.453C242.562 110.388 242.613 110.31 242.648 110.225C242.682 110.14 242.7 110.049 242.699 109.957V98.9772C242.699 98.7925 242.626 98.6153 242.495 98.4847C242.364 98.354 242.187 98.2806 242.002 98.2806H231.023C230.927 98.2777 230.832 98.2941 230.742 98.329C230.653 98.3638 230.571 98.4163 230.503 98.4834C230.373 98.6148 230.3 98.7922 230.3 98.9772C230.3 99.1622 230.373 99.3397 230.503 99.4711ZM241.281 108.267L232.692 99.6789H241.281V108.267Z" fill="#343844"/>
<path fill-rule="evenodd" clip-rule="evenodd" d="M220.522 110.444L231.496 99.4694H231.522C231.622 99.3705 231.689 99.2436 231.716 99.1057C231.742 98.9676 231.726 98.8249 231.67 98.6961C231.613 98.5674 231.52 98.4586 231.401 98.3842C231.281 98.3097 231.143 98.273 231.002 98.2789H220.002C219.91 98.2782 219.819 98.2958 219.733 98.3304C219.648 98.3651 219.571 98.4164 219.506 98.4811C219.44 98.5458 219.389 98.6229 219.353 98.7077C219.318 98.7926 219.3 98.8836 219.3 98.9755V109.955C219.299 110.048 219.317 110.139 219.352 110.225C219.387 110.31 219.439 110.388 219.504 110.453C219.569 110.518 219.647 110.57 219.732 110.605C219.818 110.64 219.909 110.658 220.002 110.657C220.098 110.659 220.194 110.641 220.284 110.604C220.373 110.568 220.454 110.513 220.522 110.444ZM229.314 99.6774L220.721 108.266V99.6774H229.314Z" fill="#343844"/>
<path fill-rule="evenodd" clip-rule="evenodd" d="M230.502 98.4888L219.528 109.463C219.462 109.528 219.41 109.604 219.374 109.689C219.339 109.774 219.32 109.865 219.32 109.957C219.32 110.049 219.339 110.14 219.374 110.225C219.41 110.31 219.462 110.387 219.528 110.451C219.592 110.518 219.668 110.57 219.753 110.606C219.838 110.642 219.93 110.66 220.022 110.659H231.022C231.114 110.659 231.205 110.641 231.29 110.605C231.375 110.57 231.452 110.518 231.517 110.453C231.581 110.388 231.633 110.31 231.667 110.225C231.702 110.14 231.72 110.049 231.719 109.957V98.9774C231.719 98.7927 231.645 98.6155 231.515 98.4849C231.384 98.3542 231.207 98.2808 231.022 98.2808C230.926 98.277 230.83 98.2935 230.74 98.3294C230.651 98.3652 230.57 98.4195 230.502 98.4888ZM221.713 109.26L230.301 100.672V109.26H221.713Z" fill="#343844"/>
<path fill-rule="evenodd" clip-rule="evenodd" d="M241.478 87.508L230.504 98.4825H230.483C230.384 98.5822 230.317 98.7092 230.291 98.8472C230.265 98.9852 230.282 99.1278 230.338 99.2566C230.394 99.3853 230.487 99.4943 230.605 99.5695C230.724 99.6446 230.862 99.6825 231.003 99.6782H241.998C242.09 99.6782 242.181 99.66 242.266 99.6247C242.351 99.5893 242.428 99.5376 242.492 99.4723C242.557 99.4071 242.608 99.3297 242.643 99.2446C242.678 99.1595 242.695 99.0683 242.695 98.9764V87.9967C242.695 87.9052 242.677 87.8146 242.642 87.7301C242.607 87.6456 242.555 87.5688 242.491 87.5041C242.426 87.4394 242.349 87.3881 242.265 87.3531C242.18 87.3181 242.089 87.3001 241.998 87.3001C241.902 87.2975 241.806 87.3146 241.717 87.3504C241.627 87.3861 241.546 87.4398 241.478 87.508ZM232.693 98.2797L241.282 89.6915V98.2797H232.693Z" fill="#343844"/>
<path fill-rule="evenodd" clip-rule="evenodd" d="M231.501 99.4705L242.476 88.496H242.481C242.611 88.3637 242.684 88.1853 242.684 87.9995C242.684 87.8137 242.611 87.6353 242.481 87.503C242.413 87.4355 242.331 87.3826 242.242 87.3478C242.152 87.3129 242.057 87.2967 241.961 87.3003H230.981C230.889 87.2996 230.798 87.3171 230.713 87.3518C230.628 87.3865 230.55 87.4377 230.485 87.5025C230.42 87.5672 230.368 87.6443 230.333 87.7291C230.298 87.814 230.279 87.905 230.279 87.9969V98.9766C230.279 99.069 230.296 99.1605 230.331 99.246C230.366 99.3314 230.418 99.4091 230.483 99.4744C230.549 99.5397 230.626 99.5914 230.712 99.6264C230.797 99.6615 230.889 99.6791 230.981 99.6784C231.077 99.6799 231.173 99.6622 231.262 99.6264C231.351 99.5908 231.432 99.5378 231.501 99.4705ZM240.294 88.6989L231.7 97.2871V88.6989H240.294Z" fill="#343844"/>
<path d="M170.208 91.392H161.864V59.36L155.424 61.6L152.68 53.536L161.864 50.176H170.208V91.392ZM179.091 82.432C180.323 81.2747 181.667 80.0987 183.123 78.904C184.616 77.672 186.053 76.5333 187.435 75.488C189.787 73.6587 191.597 72.184 192.867 71.064C194.136 69.944 195.181 68.768 196.003 67.536C196.861 66.304 197.291 65.0347 197.291 63.728C197.291 62.608 197.029 61.656 196.507 60.872C195.984 60.0507 195.293 59.4347 194.435 59.024C193.576 58.6133 192.624 58.408 191.579 58.408C190.309 58.408 189.096 58.7253 187.939 59.36C186.819 59.9947 185.885 61.1147 185.139 62.72L177.411 59.248C178.456 56.9333 179.837 55.0853 181.555 53.704C183.272 52.2853 185.008 51.296 186.763 50.736C188.555 50.176 190.16 49.896 191.579 49.896C193.781 49.896 195.984 50.4933 198.187 51.688C200.427 52.8827 202.256 54.544 203.675 56.672C205.093 58.7627 205.803 61.1147 205.803 63.728C205.803 66.416 205.131 68.8987 203.787 71.176C202.443 73.4533 200.819 75.4693 198.915 77.224C197.011 78.9413 194.528 80.9573 191.467 83.272C188.331 85.6613 186.147 87.4347 184.915 88.592L179.091 82.432ZM179.091 82.376H206.363V90.888H179.091V82.376ZM229.176 70.024H240.457V76.552H229.176V87.784H222.696V76.552H211.416V70.024H222.696V58.744H229.176V70.024Z" fill="white"/>
<path d="M163.06 110.88H166.24C165.1 113.54 162.28 115.3 159.4 115.3C155.28 115.3 151.68 111.86 151.68 107.54C151.68 103.42 155.12 99.9 159.34 99.9C162.28 99.9 165.1 101.6 166.32 104.42H163.2C162.14 103.2 160.9 102.46 159.24 102.46C156.56 102.46 154.42 104.96 154.42 107.58C154.42 110.24 156.62 112.74 159.34 112.74C160.72 112.74 161.84 112.24 163.06 110.88ZM177.365 115H174.705V109.22C174.705 106.92 173.945 105.96 172.425 105.96C170.905 105.96 170.185 107.04 170.185 109.26V115H167.525V100.2H170.185V104.68C171.005 103.9 171.925 103.52 173.065 103.52C174.405 103.52 177.365 104.46 177.365 108.22V115ZM190.538 115H188.098V113.62C187.218 114.66 185.578 115.36 184.198 115.36C181.078 115.36 178.818 112.74 178.818 109.38C178.818 106.16 181.158 103.52 184.378 103.52C185.938 103.52 187.478 104.44 188.058 105.3H188.098V103.9H190.538V115ZM184.778 112.92C186.718 112.92 188.018 111.32 188.018 109.42C188.018 107.48 186.678 105.96 184.758 105.96C182.898 105.96 181.478 107.52 181.478 109.5C181.478 111.36 182.898 112.92 184.778 112.92ZM195.041 102.64H192.381V100.2H195.041V102.64ZM195.041 115H192.381V103.9H195.041V115ZM206.905 115H204.245V109.42C204.245 107.16 203.505 105.96 202.005 105.96C201.185 105.96 199.705 106.5 199.705 108.94V115H197.045V103.9H199.505V104.86C200.385 104 201.285 103.52 202.565 103.52C204.005 103.52 206.905 104.42 206.905 108.44V115ZM215.918 106.92H213.318C213.178 106.34 212.878 105.96 212.258 105.96C211.698 105.96 211.238 106.36 211.238 106.92C211.238 107.44 211.458 107.68 213.058 108.14C215.658 108.9 216.218 110.06 216.218 111.48C216.218 113.7 214.518 115.36 212.338 115.36C210.258 115.36 208.338 114.16 208.178 111.5H210.898C211.118 112.52 211.598 112.92 212.358 112.92C213.058 112.92 213.558 112.44 213.558 111.8C213.558 111.02 212.978 110.78 211.458 110.28C209.238 109.58 208.578 108.34 208.578 106.96C208.578 105 210.298 103.52 212.298 103.52C214.158 103.52 215.818 104.88 215.918 106.92Z" fill="#ECEEF4"/>
<path d="M60.5689 130H57.9129L56.1369 122.336H56.1049L54.3289 130H51.5929L48.5369 118.16H51.6089L53.1929 125.856H53.2249L54.9689 118.16H57.2889L59.0009 125.888H59.0329L60.6489 118.16H63.7049L60.5689 130ZM74.1441 130H71.4881V129.04H71.4561C71.0721 129.824 70.0161 130.304 68.8481 130.304C66.2241 130.304 64.4001 128.24 64.4001 125.552C64.4001 122.928 66.3041 120.816 68.8481 120.816C69.9361 120.816 70.9441 121.248 71.4561 122.064H71.4881V121.12H74.1441V130ZM69.2641 127.824C70.5121 127.824 71.4881 126.832 71.4881 125.552C71.4881 124.304 70.4801 123.296 69.2321 123.296C68.0161 123.296 67.0561 124.304 67.0561 125.584C67.0561 126.816 68.0321 127.824 69.2641 127.824ZM78.6097 130H75.9537V118.16H78.6097V130ZM83.0598 130H80.4038V118.16H83.0598V130ZM93.6539 126.368H86.9979C87.1419 127.376 87.9899 128.048 89.0779 128.048C89.7979 128.048 90.2619 127.776 90.6939 127.216H93.4139C92.5659 129.152 90.9499 130.288 89.0779 130.288C86.5179 130.288 84.3739 128.224 84.3739 125.584C84.3739 123.024 86.4219 120.816 89.0299 120.816C91.6859 120.816 93.7179 122.912 93.7179 125.664C93.7179 125.92 93.7019 126.128 93.6539 126.368ZM87.0299 124.576H91.0619C90.8539 123.664 90.0539 123.056 89.0299 123.056C88.0699 123.056 87.2379 123.632 87.0299 124.576ZM98.2537 130H95.5977V123.136H94.2857V121.12H95.5977V118.16H98.2537V121.12H99.5337V123.136H98.2537V130Z" fill="white"/>
<path fill-rule="evenodd" clip-rule="evenodd" d="M244 124H219.842L226.719 132.109C227.863 131.107 229.361 130.5 231 130.5C234.59 130.5 237.5 133.41 237.5 137C237.5 138.619 236.908 140.1 235.928 141.238L244 148.183V124ZM240.818 150L234.426 142.525C233.431 143.143 232.257 143.5 231 143.5C227.41 143.5 224.5 140.59 224.5 137C224.5 135.754 224.85 134.59 225.458 133.601L218 127.107V150H240.818Z" fill="#343844"/>
<defs>
<linearGradient id="paint0_linear_4424_10175" x1="43.2308" y1="38.7107" x2="43.2308" y2="104.231" gradientUnits="userSpaceOnUse">
<stop offset="0.24" stop-color="#33FFFF"/>
<stop offset="0.78" stop-color="#2D6CFF"/>
<stop offset="1" stop-color="#6AB8FF"/>
</linearGradient>
<linearGradient id="paint1_linear_4424_10175" x1="60.1541" y1="37.9402" x2="60.1541" y2="105.002" gradientUnits="userSpaceOnUse">
<stop offset="0.24" stop-color="#33FFFF"/>
<stop offset="0.78" stop-color="#2D6CFF"/>
<stop offset="1" stop-color="#6AB8FF"/>
</linearGradient>
<linearGradient id="paint2_linear_4424_10175" x1="91.3075" y1="31.003" x2="91.3075" y2="105.003" gradientUnits="userSpaceOnUse">
<stop offset="0.24" stop-color="#33FFFF"/>
<stop offset="0.78" stop-color="#2D6CFF"/>
<stop offset="1" stop-color="#6AB8FF"/>
</linearGradient>
<clipPath id="clip0_4424_10175">
<rect width="26" height="26" fill="white" transform="translate(142 10)"/>
</clipPath>
<clipPath id="clip1_4424_10175">
<rect width="26" height="26" fill="white" transform="translate(142 86)"/>
</clipPath>
<clipPath id="clip2_4424_10175">
<rect width="26" height="26" fill="white" transform="translate(218 10)"/>
</clipPath>
<clipPath id="clip3_4424_10175">
<rect width="26" height="26" fill="white" transform="translate(180 10)"/>
</clipPath>
<clipPath id="clip4_4424_10175">
<rect width="26" height="26" fill="white" transform="translate(180 86)"/>
</clipPath>
</defs>
</svg>
