<svg width="197" height="300" viewBox="0 0 197 300" fill="none" xmlns="http://www.w3.org/2000/svg">
<rect width="196" height="300" transform="translate(0.5)" fill="url(#paint0_radial_2377_18009)"/>
<path d="M80.1273 18.4618C78.8374 17.9384 78.2508 17.2541 78.2508 16.2276C78.2508 14.8804 79.5515 13.8971 81.0014 13.8971C81.4871 13.8928 81.9666 14.0068 82.3984 14.2294C83.2409 14.6677 83.6447 15.2987 83.6564 16.3568H81.6623C81.5792 15.7902 81.3424 15.5875 80.9478 15.5875C80.5739 15.5875 80.2548 15.8546 80.2548 16.2073C80.2548 16.6011 80.5535 16.815 81.1571 17.0934L80.6923 18.6899C80.5049 18.6109 80.3105 18.5374 80.1269 18.463L80.1273 18.4618ZM87.9722 17.9284C88.4001 17.7734 88.6464 17.4299 88.6464 16.8898C88.6464 16.2052 88.1346 15.8205 87.3773 15.8205H86.8983V14.0466H87.2602C88.0811 14.0466 88.71 14.1534 89.1258 14.3354C89.9791 14.7201 90.5761 15.6502 90.5761 16.7727C90.5761 17.8952 89.9708 18.8423 88.963 19.1747L87.9722 17.9284ZM70.553 21.958V14.0466H72.5695V21.958H70.553ZM72.8964 21.958V20.1833H73.4743C74.6374 20.1833 75.3615 19.4563 75.3615 18.0131C75.3615 16.6007 74.647 15.8213 73.4851 15.8213H72.8964V14.0466H73.2395C74.2204 14.0466 74.9989 14.2178 75.553 14.5277C76.6747 15.1691 77.3764 16.388 77.3764 18.0023C77.3764 20.6112 75.8393 21.958 73.3783 21.958H72.8964ZM88.4537 21.958L86.6304 19.4027H86.5701V21.958L84.5462 21.9609L84.5524 14.0466H86.5701V18.0181H86.6088V18.0235C86.6088 18.0235 87.5352 18.0185 87.6191 18.0086L88.6161 19.2636L89.2937 20.1156L89.6979 20.6249L90.7576 21.958H88.4537ZM93.6249 21.958L90.9919 14.0466H93.0604L94.4886 19.0363L93.6382 21.958H93.6249ZM93.9801 21.958L96.2828 14.0466H98.3475L95.7045 21.958H93.9801ZM78.1229 19.5099V19.3408H80.1273C80.1381 19.9931 80.4596 20.4209 80.9582 20.4209C81.1582 20.4216 81.3503 20.3428 81.4922 20.2019C81.6341 20.061 81.7143 19.8694 81.7151 19.6694V19.6615C81.7151 19.2827 81.3993 19.0313 80.9922 18.8282L81.4575 17.2292L81.5439 17.267C83.282 18.0148 83.7191 18.6462 83.7191 19.6831C83.7191 21.2119 82.6743 22.1101 80.9681 22.1101C79.2532 22.1076 78.1229 21.2103 78.1229 19.5099Z" fill="#F2F5F7"/>
<path d="M100.899 14.0398H99.851V21.9719H100.899V14.0398Z" fill="#F2F5F7"/>
<path d="M102.419 14.0618H103.272L103.72 16.1971L104.204 14.0618H104.847L105.331 16.2062L105.78 14.0618H106.628L105.755 17.347H105.019L104.517 15.2204L104.026 17.347H103.267L102.419 14.0618Z" fill="#F2F5F7"/>
<path d="M107 14.0618H108.861V14.7987H107.84V15.3114H108.83V16.0483H107.84V16.6121H108.861V17.347H107V14.0618Z" fill="#F2F5F7"/>
<path d="M109.367 14.0618H110.206V16.61H111.178V17.347H109.366L109.367 14.0618Z" fill="#F2F5F7"/>
<path d="M111.529 14.0618H112.368V16.61H113.34V17.347H111.529V14.0618Z" fill="#F2F5F7"/>
<path d="M113.67 14.0618H114.758C115.126 14.0618 115.783 14.0618 116.21 14.6745C116.436 14.9853 116.512 15.3359 116.512 15.6956C116.512 16.5921 116.068 17.347 114.82 17.347H113.67V14.0618ZM114.509 16.61H114.869C115.495 16.61 115.672 16.175 115.672 15.7089C115.672 15.5224 115.631 15.2873 115.513 15.1007C115.415 14.9541 115.246 14.7987 114.873 14.7987H114.509V16.61Z" fill="#F2F5F7"/>
<path d="M116.821 15.7397C116.821 14.6654 117.646 13.9995 118.552 13.9995C119.564 13.9995 120.288 14.7888 120.288 15.7028C120.288 16.6167 119.568 17.406 118.548 17.406C117.513 17.406 116.821 16.5847 116.821 15.741V15.7397ZM117.66 15.6982C117.66 16.2 118.001 16.6707 118.565 16.6707C119.16 16.6707 119.449 16.1306 119.449 15.7073C119.449 15.284 119.16 14.7348 118.556 14.7348C117.975 14.7348 117.66 15.2333 117.66 15.694V15.6982Z" fill="#F2F5F7"/>
<path d="M122.726 16.0641L122.709 14.0618H123.512V17.347H122.784L121.528 15.367L121.545 17.347H120.741V14.0618H121.464L122.726 16.0641Z" fill="#F2F5F7"/>
<path d="M124.11 14.0618H125.97V14.7987H124.949V15.3114H125.939V16.0483H124.949V16.6121H125.97V17.347H124.11V14.0618Z" fill="#F2F5F7"/>
<path d="M102.419 18.6119H102.959L103.618 21.2233L104.272 18.6119H104.673L105.338 21.2291L105.987 18.6119H106.527L105.607 21.9495H105.115L104.47 19.4195L103.825 21.9495H103.319L102.419 18.6119Z" fill="#F2F5F7"/>
<path d="M109.121 21.9496H108.652V21.5209C108.481 21.8503 108.129 22.0219 107.741 22.0219C106.952 22.0219 106.482 21.4083 106.482 20.7229C106.482 19.9751 107.028 19.4238 107.741 19.4238C108.228 19.4238 108.539 19.6947 108.652 19.929V19.4961H109.121V21.9496ZM106.952 20.732C106.956 21.0972 107.213 21.584 107.809 21.584C108.182 21.584 108.449 21.3763 108.571 21.0972C108.624 20.9826 108.653 20.8583 108.656 20.732C108.662 20.6061 108.637 20.4806 108.584 20.3664C108.467 20.0823 108.192 19.8617 107.799 19.8617C107.286 19.8617 106.952 20.2671 106.952 20.7274V20.732Z" fill="#F2F5F7"/>
<path d="M109.738 18.6119H110.208V21.9495H109.738V18.6119Z" fill="#F2F5F7"/>
<path d="M110.821 18.6119H111.29V21.9495H110.821V18.6119Z" fill="#F2F5F7"/>
<path d="M112.206 20.8714C112.228 21.3674 112.663 21.6192 113.031 21.6192C113.36 21.6192 113.604 21.4613 113.739 21.2038H114.226C114.125 21.4513 113.952 21.6631 113.73 21.8124C113.523 21.9499 113.279 22.0223 113.031 22.0201C112.228 22.0201 111.732 21.3749 111.732 20.7256C111.731 20.4703 111.806 20.2204 111.946 20.0071C112.086 19.7937 112.286 19.6264 112.521 19.5259C112.756 19.4254 113.015 19.3962 113.266 19.4419C113.517 19.4876 113.75 19.6063 113.934 19.783C114.225 20.0763 114.344 20.4593 114.304 20.8698L112.206 20.8714ZM113.838 20.5063C113.815 20.1814 113.491 19.8162 113.026 19.8254C112.548 19.8254 112.237 20.1727 112.214 20.5063H113.838Z" fill="#F2F5F7"/>
<path d="M114.938 19.8615H114.496V19.496H114.938V18.6119H115.407V19.496H115.881V19.8615H115.407V21.9495H114.938V19.8615Z" fill="#F2F5F7"/>
<path d="M104.346 148.004V155.226C100.545 153.954 96.433 153.954 92.6322 155.226V119.5H99.4568C100.754 119.5 101.999 120.015 102.917 120.933C103.835 121.85 104.351 123.094 104.351 124.392V127.743L104.346 148.004Z" fill="#FAFBFC"/>
<path d="M104.357 132.959V155.226C100.556 153.953 96.4441 153.953 92.6432 155.226V150.03C92.6437 146.335 93.7617 142.726 95.8505 139.678C97.9391 136.629 100.901 134.284 104.347 132.949L104.357 132.959Z" fill="#4F82F6"/>
<path d="M90.2113 127.743V119.5H78.5V141.785L90.2113 156.247V148.004H90.2036V127.743H90.2113Z" fill="#FAFBFC"/>
<path d="M109.807 119.87C110.401 119.625 111.038 119.499 111.68 119.5H118.5V139.166C118.5 142.863 117.381 146.473 115.291 149.523C113.201 152.572 110.237 154.917 106.789 156.25V124.392C106.788 123.749 106.913 123.113 107.159 122.519C107.404 121.925 107.765 121.385 108.219 120.931C108.674 120.476 109.213 120.116 109.807 119.87Z" fill="white"/>
<path d="M75.036 276.032V281.553H74.256V276.032H75.036ZM81.3049 279.31C81.3049 279.165 81.2649 279.025 81.1849 278.89C81.1099 278.75 81.0074 278.637 80.8774 278.552C80.7474 278.467 80.6074 278.425 80.4574 278.425C80.2874 278.425 80.1324 278.46 79.9924 278.53C79.8574 278.6 79.7474 278.702 79.6624 278.837C79.5824 278.967 79.5424 279.125 79.5424 279.31V281.553H78.7774V279.31C78.7774 279.065 78.7049 278.857 78.5599 278.687C78.4149 278.517 78.2099 278.432 77.9449 278.432C77.7699 278.432 77.6124 278.475 77.4724 278.56C77.3324 278.64 77.2224 278.75 77.1424 278.89C77.0624 279.03 77.0224 279.182 77.0224 279.347V281.553H76.2424V277.637H77.0224V278.267C77.1224 278.072 77.2574 277.92 77.4274 277.81C77.6024 277.695 77.7974 277.637 78.0124 277.637C78.3024 277.637 78.5424 277.705 78.7324 277.84C78.9224 277.97 79.0874 278.165 79.2274 278.425C79.3974 278.19 79.5824 278 79.7824 277.855C79.9824 277.71 80.2224 277.637 80.5024 277.637C80.7874 277.637 81.0499 277.705 81.2899 277.84C81.5299 277.97 81.7224 278.157 81.8674 278.402C82.0124 278.647 82.0849 278.932 82.0849 279.257V281.553H81.3049V279.31ZM85.1742 280.862C85.4092 280.862 85.6117 280.807 85.7817 280.697C85.9567 280.587 86.0892 280.437 86.1792 280.247C86.2742 280.057 86.3217 279.842 86.3217 279.602C86.3217 279.367 86.2742 279.155 86.1792 278.965C86.0892 278.77 85.9567 278.62 85.7817 278.515C85.6117 278.405 85.4092 278.35 85.1742 278.35C84.9692 278.35 84.7792 278.407 84.6042 278.522C84.4292 278.632 84.2867 278.782 84.1767 278.972C84.0717 279.162 84.0192 279.372 84.0192 279.602C84.0192 279.832 84.0717 280.045 84.1767 280.24C84.2867 280.435 84.4292 280.587 84.6042 280.697C84.7792 280.807 84.9692 280.862 85.1742 280.862ZM85.2192 277.63C85.5942 277.63 85.9242 277.72 86.2092 277.9C86.4942 278.075 86.7117 278.312 86.8617 278.612C87.0117 278.912 87.0867 279.242 87.0867 279.602C87.0867 279.962 87.0117 280.295 86.8617 280.6C86.7117 280.9 86.4942 281.14 86.2092 281.32C85.9242 281.5 85.5942 281.59 85.2192 281.59C85.0042 281.59 84.7767 281.532 84.5367 281.417C84.3017 281.302 84.1217 281.13 83.9967 280.9V283.45H83.2167V277.63H83.9967V278.305C84.1167 278.08 84.2967 277.912 84.5367 277.802C84.7817 277.687 85.0092 277.63 85.2192 277.63ZM89.681 280.832C89.916 280.832 90.1185 280.78 90.2885 280.675C90.4635 280.57 90.5935 280.425 90.6785 280.24C90.7685 280.05 90.8135 279.837 90.8135 279.602C90.8135 279.362 90.7685 279.15 90.6785 278.965C90.5935 278.78 90.466 278.635 90.296 278.53C90.126 278.42 89.921 278.365 89.681 278.365C89.441 278.365 89.2335 278.42 89.0585 278.53C88.8885 278.635 88.7585 278.78 88.6685 278.965C88.5835 279.15 88.541 279.362 88.541 279.602C88.541 279.837 88.586 280.05 88.676 280.24C88.766 280.425 88.896 280.57 89.066 280.675C89.236 280.78 89.441 280.832 89.681 280.832ZM89.681 277.615C90.056 277.615 90.386 277.705 90.671 277.885C90.956 278.065 91.1735 278.305 91.3235 278.605C91.4735 278.905 91.5485 279.237 91.5485 279.602C91.5485 279.962 91.471 280.292 91.316 280.592C91.166 280.892 90.951 281.132 90.671 281.312C90.391 281.493 90.061 281.583 89.681 281.583C89.306 281.583 88.976 281.493 88.691 281.312C88.411 281.132 88.196 280.892 88.046 280.592C87.896 280.292 87.821 279.962 87.821 279.602C87.821 279.242 87.896 278.912 88.046 278.612C88.196 278.307 88.411 278.065 88.691 277.885C88.976 277.705 89.306 277.615 89.681 277.615ZM93.0949 278.372C93.2099 278.137 93.3824 277.952 93.6124 277.817C93.8474 277.677 94.0774 277.607 94.3024 277.607V278.365C94.0774 278.365 93.8724 278.43 93.6874 278.56C93.5024 278.685 93.3574 278.845 93.2524 279.04C93.1474 279.235 93.0949 279.425 93.0949 279.61V281.553H92.3149V277.63H93.0949V278.372ZM97.5522 281.207C97.4372 281.307 97.3097 281.39 97.1697 281.455C97.0347 281.515 96.8872 281.545 96.7272 281.545C96.5222 281.545 96.3297 281.49 96.1497 281.38C95.9697 281.27 95.8247 281.125 95.7147 280.945C95.6097 280.76 95.5572 280.562 95.5572 280.352V276.272H96.3597V280.352C96.3597 280.477 96.3922 280.575 96.4572 280.645C96.5222 280.71 96.6122 280.742 96.7272 280.742C96.7822 280.742 96.8272 280.735 96.8622 280.72C96.8972 280.705 96.9422 280.675 96.9972 280.63L97.0047 280.622L97.5522 281.207ZM94.8972 277.615H97.3572V278.342H94.8972V277.615ZM106.215 281.553H105.435L104.145 277.345L102.758 281.553H101.993L100.26 276.032H101.063L102.405 280.307L103.725 276.032H104.55L105.848 280.307L107.13 276.032H107.925L106.215 281.553ZM110.023 280.855C110.223 280.855 110.408 280.805 110.578 280.705C110.753 280.6 110.893 280.455 110.998 280.27C111.108 280.08 111.163 279.867 111.163 279.632C111.163 279.397 111.108 279.187 110.998 279.002C110.893 278.817 110.753 278.672 110.578 278.567C110.408 278.462 110.223 278.41 110.023 278.41C109.778 278.41 109.571 278.462 109.401 278.567C109.231 278.672 109.103 278.817 109.018 279.002C108.938 279.187 108.898 279.397 108.898 279.632C108.898 279.872 108.938 280.085 109.018 280.27C109.103 280.45 109.231 280.592 109.401 280.697C109.571 280.802 109.778 280.855 110.023 280.855ZM111.958 281.545L111.178 281.553V280.93C111.073 281.085 110.956 281.212 110.826 281.312C110.696 281.412 110.556 281.487 110.406 281.538C110.261 281.588 110.116 281.613 109.971 281.613C109.586 281.613 109.253 281.522 108.973 281.342C108.693 281.162 108.478 280.922 108.328 280.622C108.183 280.322 108.111 279.992 108.111 279.632C108.111 279.272 108.183 278.942 108.328 278.642C108.478 278.342 108.693 278.105 108.973 277.93C109.253 277.75 109.586 277.66 109.971 277.66C110.196 277.66 110.413 277.717 110.623 277.832C110.838 277.947 111.023 278.117 111.178 278.342V277.645H111.958V281.545ZM113.706 275.875V281.568H112.934V275.875H113.706ZM115.458 275.875V281.568H114.686V275.875H115.458ZM119.134 279.28C119.119 279.1 119.069 278.94 118.984 278.8C118.904 278.66 118.789 278.55 118.639 278.47C118.489 278.385 118.309 278.342 118.099 278.342C117.779 278.342 117.517 278.422 117.312 278.582C117.112 278.737 116.994 278.97 116.959 279.28H119.112H119.134ZM119.712 278.687C119.787 278.882 119.837 279.095 119.862 279.325C119.887 279.55 119.892 279.757 119.877 279.947H116.959C117.004 280.237 117.122 280.462 117.312 280.622C117.502 280.782 117.762 280.862 118.092 280.862C118.342 280.862 118.544 280.817 118.699 280.727C118.859 280.632 118.967 280.52 119.022 280.39L119.697 280.697C119.582 280.942 119.387 281.15 119.112 281.32C118.842 281.49 118.499 281.575 118.084 281.575C117.699 281.575 117.364 281.488 117.079 281.312C116.794 281.132 116.577 280.892 116.427 280.592C116.282 280.292 116.209 279.962 116.209 279.602C116.209 279.237 116.282 278.905 116.427 278.605C116.577 278.305 116.794 278.067 117.079 277.892C117.364 277.712 117.699 277.622 118.084 277.622C118.449 277.622 118.749 277.695 118.984 277.84C119.224 277.985 119.397 278.137 119.502 278.297C119.607 278.452 119.674 278.58 119.704 278.68L119.712 278.687ZM122.972 281.207C122.857 281.307 122.73 281.39 122.59 281.455C122.455 281.515 122.307 281.545 122.147 281.545C121.942 281.545 121.75 281.49 121.57 281.38C121.39 281.27 121.245 281.125 121.135 280.945C121.03 280.76 120.977 280.562 120.977 280.352V276.272H121.78V280.352C121.78 280.477 121.812 280.575 121.877 280.645C121.942 280.71 122.032 280.742 122.147 280.742C122.202 280.742 122.247 280.735 122.282 280.72C122.317 280.705 122.362 280.675 122.417 280.63L122.425 280.622L122.972 281.207ZM120.317 277.615H122.777V278.342H120.317V277.615Z" fill="#B5BFC9"/>
<path d="M73.686 282.438H123.317V282.812H73.686V282.438Z" fill="#B5BFC9"/>
<g filter="url(#filter0_d_2377_18009)">
<rect x="20.5" y="234" width="156" height="30" rx="15" fill="#3B72F2"/>
<path d="M62.21 251.665C61.66 251.665 61.175 251.538 60.755 251.282C60.335 251.022 60.01 250.675 59.78 250.24C59.55 249.8 59.435 249.317 59.435 248.792C59.435 248.267 59.55 247.785 59.78 247.345C60.01 246.905 60.335 246.557 60.755 246.302C61.175 246.047 61.66 245.92 62.21 245.92C62.59 245.92 62.9475 245.995 63.2825 246.145C63.6225 246.29 63.92 246.495 64.175 246.76L63.5225 247.525C63.3675 247.375 63.1675 247.255 62.9225 247.165C62.6825 247.07 62.445 247.022 62.21 247.022C61.86 247.022 61.55 247.1 61.28 247.255C61.015 247.41 60.81 247.622 60.665 247.892C60.525 248.162 60.455 248.462 60.455 248.792C60.455 249.122 60.525 249.422 60.665 249.692C60.81 249.962 61.015 250.177 61.28 250.337C61.55 250.492 61.86 250.57 62.21 250.57C62.445 250.57 62.6825 250.525 62.9225 250.435C63.1675 250.34 63.3675 250.215 63.5225 250.06L64.175 250.825C63.92 251.09 63.6225 251.297 63.2825 251.447C62.9475 251.593 62.59 251.665 62.21 251.665ZM66.0314 248.26C66.1564 248.035 66.3314 247.865 66.5564 247.75C66.7864 247.63 66.9914 247.57 67.1714 247.57V248.53C66.9414 248.53 66.7389 248.585 66.5639 248.695C66.3939 248.805 66.2614 248.942 66.1664 249.107C66.0764 249.272 66.0314 249.44 66.0314 249.61V251.605H65.0189V247.577H66.0314V248.26ZM70.4484 249.242C70.4234 249.082 70.3684 248.945 70.2834 248.83C70.2034 248.715 70.0959 248.627 69.9609 248.567C69.8259 248.502 69.6734 248.47 69.5034 248.47C69.2334 248.47 69.0059 248.537 68.8209 248.672C68.6359 248.802 68.5234 248.992 68.4834 249.242H70.4409H70.4484ZM71.1909 248.665C71.2659 248.86 71.3184 249.082 71.3484 249.332C71.3834 249.577 71.3959 249.812 71.3859 250.037H68.4834C68.5584 250.252 68.6784 250.422 68.8434 250.547C69.0134 250.667 69.2334 250.727 69.5034 250.727C69.7184 250.727 69.8909 250.69 70.0209 250.615C70.1559 250.54 70.2459 250.45 70.2909 250.345L71.1909 250.727C71.0659 250.977 70.8584 251.19 70.5684 251.365C70.2834 251.54 69.9259 251.628 69.4959 251.628C69.0959 251.628 68.7484 251.538 68.4534 251.357C68.1584 251.172 67.9334 250.927 67.7784 250.622C67.6234 250.312 67.5459 249.975 67.5459 249.61C67.5459 249.235 67.6234 248.895 67.7784 248.59C67.9334 248.28 68.1584 248.035 68.4534 247.855C68.7484 247.67 69.0959 247.577 69.4959 247.577C69.8709 247.577 70.1834 247.655 70.4334 247.81C70.6834 247.96 70.8634 248.12 70.9734 248.29C71.0884 248.455 71.1584 248.58 71.1834 248.665H71.1909ZM74.1433 250.697C74.3183 250.697 74.4783 250.652 74.6233 250.562C74.7733 250.472 74.8933 250.347 74.9833 250.187C75.0783 250.022 75.1258 249.84 75.1258 249.64C75.1258 249.44 75.0783 249.26 74.9833 249.1C74.8933 248.935 74.7733 248.807 74.6233 248.717C74.4783 248.627 74.3183 248.582 74.1433 248.582C73.9233 248.582 73.7408 248.627 73.5958 248.717C73.4508 248.807 73.3408 248.932 73.2658 249.092C73.1958 249.252 73.1608 249.435 73.1608 249.64C73.1608 249.85 73.1958 250.035 73.2658 250.195C73.3408 250.35 73.4508 250.472 73.5958 250.562C73.7408 250.652 73.9233 250.697 74.1433 250.697ZM76.2058 251.598L75.1858 251.605V251.102C75.0858 251.227 74.9733 251.332 74.8483 251.417C74.7283 251.497 74.5983 251.558 74.4583 251.598C74.3233 251.643 74.1858 251.665 74.0458 251.665C73.6558 251.665 73.3158 251.575 73.0258 251.395C72.7358 251.21 72.5158 250.965 72.3658 250.66C72.2158 250.35 72.1408 250.01 72.1408 249.64C72.1408 249.27 72.2158 248.932 72.3658 248.627C72.5158 248.322 72.7358 248.08 73.0258 247.9C73.3158 247.715 73.6558 247.622 74.0458 247.622C74.2608 247.622 74.4683 247.67 74.6683 247.765C74.8683 247.86 75.0408 248 75.1858 248.185V247.607H76.2058V251.598ZM79.9378 251.185C79.7978 251.315 79.6503 251.417 79.4953 251.492C79.3403 251.568 79.1678 251.605 78.9778 251.605C78.7528 251.605 78.5378 251.542 78.3328 251.417C78.1328 251.287 77.9703 251.117 77.8453 250.907C77.7203 250.697 77.6578 250.475 77.6578 250.24V246.07H78.7153V250.24C78.7153 250.345 78.7378 250.422 78.7828 250.472C78.8278 250.522 78.8928 250.547 78.9778 250.547C79.0178 250.547 79.0503 250.542 79.0753 250.532C79.1003 250.517 79.1428 250.482 79.2028 250.427L79.2103 250.42L79.9378 251.185ZM76.9603 247.577H79.8178V248.515H76.9603V247.577ZM83.0979 249.242C83.0729 249.082 83.0179 248.945 82.9329 248.83C82.8529 248.715 82.7454 248.627 82.6104 248.567C82.4754 248.502 82.3229 248.47 82.1529 248.47C81.8829 248.47 81.6554 248.537 81.4704 248.672C81.2854 248.802 81.1729 248.992 81.1329 249.242H83.0904H83.0979ZM83.8404 248.665C83.9154 248.86 83.9679 249.082 83.9979 249.332C84.0329 249.577 84.0454 249.812 84.0354 250.037H81.1329C81.2079 250.252 81.3279 250.422 81.4929 250.547C81.6629 250.667 81.8829 250.727 82.1529 250.727C82.3679 250.727 82.5404 250.69 82.6704 250.615C82.8054 250.54 82.8954 250.45 82.9404 250.345L83.8404 250.727C83.7154 250.977 83.5079 251.19 83.2179 251.365C82.9329 251.54 82.5754 251.628 82.1454 251.628C81.7454 251.628 81.3979 251.538 81.1029 251.357C80.8079 251.172 80.5829 250.927 80.4279 250.622C80.2729 250.312 80.1954 249.975 80.1954 249.61C80.1954 249.235 80.2729 248.895 80.4279 248.59C80.5829 248.28 80.8079 248.035 81.1029 247.855C81.3979 247.67 81.7454 247.577 82.1454 247.577C82.5204 247.577 82.8329 247.655 83.0829 247.81C83.3329 247.96 83.5129 248.12 83.6229 248.29C83.7379 248.455 83.8079 248.58 83.8329 248.665H83.8404ZM88.7071 250.697C88.8821 250.697 89.0421 250.652 89.1871 250.562C89.3371 250.472 89.4571 250.347 89.5471 250.187C89.6421 250.022 89.6896 249.84 89.6896 249.64C89.6896 249.44 89.6421 249.26 89.5471 249.1C89.4571 248.935 89.3371 248.807 89.1871 248.717C89.0421 248.627 88.8821 248.582 88.7071 248.582C88.4871 248.582 88.3046 248.627 88.1596 248.717C88.0146 248.807 87.9046 248.932 87.8296 249.092C87.7596 249.252 87.7246 249.435 87.7246 249.64C87.7246 249.85 87.7596 250.035 87.8296 250.195C87.9046 250.35 88.0146 250.472 88.1596 250.562C88.3046 250.652 88.4871 250.697 88.7071 250.697ZM90.7696 251.598L89.7496 251.605V251.102C89.6496 251.227 89.5371 251.332 89.4121 251.417C89.2921 251.497 89.1621 251.558 89.0221 251.598C88.8871 251.643 88.7496 251.665 88.6096 251.665C88.2196 251.665 87.8796 251.575 87.5896 251.395C87.2996 251.21 87.0796 250.965 86.9296 250.66C86.7796 250.35 86.7046 250.01 86.7046 249.64C86.7046 249.27 86.7796 248.932 86.9296 248.627C87.0796 248.322 87.2996 248.08 87.5896 247.9C87.8796 247.715 88.2196 247.622 88.6096 247.622C88.8246 247.622 89.0321 247.67 89.2321 247.765C89.4321 247.86 89.6046 248 89.7496 248.185V247.607H90.7696V251.598ZM99.1009 251.605H97.7134L94.7284 247.322V251.605H93.6934V245.98H95.0284L98.0734 250.255V245.98H99.1009V251.605ZM102.938 249.242C102.913 249.082 102.858 248.945 102.773 248.83C102.693 248.715 102.585 248.627 102.45 248.567C102.315 248.502 102.163 248.47 101.993 248.47C101.723 248.47 101.495 248.537 101.31 248.672C101.125 248.802 101.013 248.992 100.973 249.242H102.93H102.938ZM103.68 248.665C103.755 248.86 103.808 249.082 103.838 249.332C103.873 249.577 103.885 249.812 103.875 250.037H100.973C101.048 250.252 101.168 250.422 101.333 250.547C101.503 250.667 101.723 250.727 101.993 250.727C102.208 250.727 102.38 250.69 102.51 250.615C102.645 250.54 102.735 250.45 102.78 250.345L103.68 250.727C103.555 250.977 103.348 251.19 103.058 251.365C102.773 251.54 102.415 251.628 101.985 251.628C101.585 251.628 101.238 251.538 100.943 251.357C100.648 251.172 100.423 250.927 100.268 250.622C100.113 250.312 100.035 249.975 100.035 249.61C100.035 249.235 100.113 248.895 100.268 248.59C100.423 248.28 100.648 248.035 100.943 247.855C101.238 247.67 101.585 247.577 101.985 247.577C102.36 247.577 102.673 247.655 102.923 247.81C103.173 247.96 103.353 248.12 103.463 248.29C103.578 248.455 103.648 248.58 103.673 248.665H103.68ZM108.862 251.605H107.894L107.137 249.01L106.387 251.605H105.412L104.219 247.6H105.277L105.922 250.045L106.612 247.6H107.647L108.352 250.045L108.989 247.6H110.047L108.862 251.605ZM119.106 251.605H118.116L116.909 247.697L115.484 251.605H114.524L112.709 245.98H113.759L115.056 250.045L116.346 245.98H117.441L118.649 250.045L119.849 245.98H120.891L119.106 251.605ZM123.025 250.697C123.2 250.697 123.36 250.652 123.505 250.562C123.655 250.472 123.775 250.347 123.865 250.187C123.96 250.022 124.007 249.84 124.007 249.64C124.007 249.44 123.96 249.26 123.865 249.1C123.775 248.935 123.655 248.807 123.505 248.717C123.36 248.627 123.2 248.582 123.025 248.582C122.805 248.582 122.622 248.627 122.477 248.717C122.332 248.807 122.222 248.932 122.147 249.092C122.077 249.252 122.042 249.435 122.042 249.64C122.042 249.85 122.077 250.035 122.147 250.195C122.222 250.35 122.332 250.472 122.477 250.562C122.622 250.652 122.805 250.697 123.025 250.697ZM125.087 251.598L124.067 251.605V251.102C123.967 251.227 123.855 251.332 123.73 251.417C123.61 251.497 123.48 251.558 123.34 251.598C123.205 251.643 123.067 251.665 122.927 251.665C122.537 251.665 122.197 251.575 121.907 251.395C121.617 251.21 121.397 250.965 121.247 250.66C121.097 250.35 121.022 250.01 121.022 249.64C121.022 249.27 121.097 248.932 121.247 248.627C121.397 248.322 121.617 248.08 121.907 247.9C122.197 247.715 122.537 247.622 122.927 247.622C123.142 247.622 123.35 247.67 123.55 247.765C123.75 247.86 123.922 248 124.067 248.185V247.607H125.087V251.598ZM127.034 245.815V251.635H126.029V245.815H127.034ZM128.993 245.815V251.635H127.988V245.815H128.993ZM132.619 249.242C132.594 249.082 132.539 248.945 132.454 248.83C132.374 248.715 132.267 248.627 132.132 248.567C131.997 248.502 131.844 248.47 131.674 248.47C131.404 248.47 131.177 248.537 130.992 248.672C130.807 248.802 130.694 248.992 130.654 249.242H132.612H132.619ZM133.362 248.665C133.437 248.86 133.489 249.082 133.519 249.332C133.554 249.577 133.567 249.812 133.557 250.037H130.654C130.729 250.252 130.849 250.422 131.014 250.547C131.184 250.667 131.404 250.727 131.674 250.727C131.889 250.727 132.062 250.69 132.192 250.615C132.327 250.54 132.417 250.45 132.462 250.345L133.362 250.727C133.237 250.977 133.029 251.19 132.739 251.365C132.454 251.54 132.097 251.628 131.667 251.628C131.267 251.628 130.919 251.538 130.624 251.357C130.329 251.172 130.104 250.927 129.949 250.622C129.794 250.312 129.717 249.975 129.717 249.61C129.717 249.235 129.794 248.895 129.949 248.59C130.104 248.28 130.329 248.035 130.624 247.855C130.919 247.67 131.267 247.577 131.667 247.577C132.042 247.577 132.354 247.655 132.604 247.81C132.854 247.96 133.034 248.12 133.144 248.29C133.259 248.455 133.329 248.58 133.354 248.665H133.362ZM136.957 251.185C136.817 251.315 136.67 251.417 136.515 251.492C136.36 251.568 136.187 251.605 135.997 251.605C135.772 251.605 135.557 251.542 135.352 251.417C135.152 251.287 134.99 251.117 134.865 250.907C134.74 250.697 134.677 250.475 134.677 250.24V246.07H135.735V250.24C135.735 250.345 135.757 250.422 135.802 250.472C135.847 250.522 135.912 250.547 135.997 250.547C136.037 250.547 136.07 250.542 136.095 250.532C136.12 250.517 136.162 250.482 136.222 250.427L136.23 250.42L136.957 251.185ZM133.98 247.577H136.837V248.515H133.98V247.577Z" fill="white"/>
<rect x="20.5" y="234" width="156" height="30" rx="15" stroke="#FF483A"/>
</g>
<rect x="59.5" y="270" width="78" height="18" rx="4" stroke="#FF483A"/>
<defs>
<filter id="filter0_d_2377_18009" x="12" y="229.5" width="173" height="47" filterUnits="userSpaceOnUse" color-interpolation-filters="sRGB">
<feFlood flood-opacity="0" result="BackgroundImageFix"/>
<feColorMatrix in="SourceAlpha" type="matrix" values="0 0 0 0 0 0 0 0 0 0 0 0 0 0 0 0 0 0 127 0" result="hardAlpha"/>
<feOffset dy="4"/>
<feGaussianBlur stdDeviation="4"/>
<feColorMatrix type="matrix" values="0 0 0 0 0.2 0 0 0 0 0.4 0 0 0 0 1 0 0 0 0.24 0"/>
<feBlend mode="normal" in2="BackgroundImageFix" result="effect1_dropShadow_2377_18009"/>
<feBlend mode="normal" in="SourceGraphic" in2="effect1_dropShadow_2377_18009" result="shape"/>
</filter>
<radialGradient id="paint0_radial_2377_18009" cx="0" cy="0" r="1" gradientUnits="userSpaceOnUse" gradientTransform="translate(97.7626) rotate(90) scale(432.979 599.127)">
<stop offset="0.0161547"/>
<stop offset="0.56914"/>
<stop offset="0.822917" stop-color="#0F1D39"/>
<stop offset="1" stop-color="#D7E5FF"/>
</radialGradient>
</defs>
</svg>
