<svg width="40" height="41" viewBox="0 0 40 41" fill="none" xmlns="http://www.w3.org/2000/svg">
<path d="M13.6474 32.9177C25.2169 32.9177 31.5467 23.3301 31.5467 15.0183C31.5467 14.7488 31.5408 14.4733 31.5288 14.2037C32.7601 13.3133 33.8228 12.2103 34.6667 10.9466C33.5199 11.4568 32.3024 11.79 31.0556 11.9349C32.3684 11.148 33.3513 9.91182 33.8222 8.45553C32.5872 9.18743 31.2366 9.70372 29.8283 9.98227C28.8795 8.97404 27.6248 8.30647 26.2585 8.08278C24.8922 7.85908 23.4902 8.09172 22.2694 8.74473C21.0485 9.39773 20.0768 10.4347 19.5044 11.6954C18.932 12.9561 18.7909 14.3702 19.1027 15.7191C16.6021 15.5936 14.1557 14.944 11.9222 13.8124C9.68871 12.6808 7.71795 11.0924 6.13768 9.15032C5.33451 10.5351 5.08874 12.1737 5.45032 13.7332C5.8119 15.2926 6.75369 16.6559 8.0843 17.546C7.08536 17.5142 6.1083 17.2453 5.23386 16.7613V16.8392C5.23296 18.2924 5.73535 19.7011 6.65562 20.8257C7.57589 21.9504 8.85726 22.7216 10.2819 23.0085C9.35652 23.2617 8.38531 23.2985 7.44341 23.1163C7.84542 24.3661 8.62757 25.4591 9.68071 26.2429C10.7339 27.0268 12.0054 27.4622 13.318 27.4887C11.0897 29.2391 8.337 30.1885 5.50339 30.184C5.00087 30.1832 4.49884 30.1524 4 30.0917C6.87866 31.9385 10.2273 32.9194 13.6474 32.9177Z" fill="white"/>
</svg>
