<svg width="40" height="41" viewBox="0 0 40 41" fill="none" xmlns="http://www.w3.org/2000/svg">
<path d="M21.8852 20.6667C21.8852 25.4496 18.1887 29.3333 13.6094 29.3333C9.03005 29.3333 5.3335 25.4496 5.3335 20.6667C5.3335 15.8837 9.03005 12 13.6094 12C18.1887 12 21.8852 15.8837 21.8852 20.6667ZM30.9519 20.6667C30.9519 25.1626 29.0944 28.8168 26.814 28.8168C24.5335 28.8168 22.676 25.1626 22.676 20.6667C22.676 16.1707 24.5335 12.5166 26.814 12.5166C29.0944 12.5166 30.9519 16.1516 30.9519 20.6667ZM34.6668 20.6667C34.6668 24.7035 34.0232 27.975 33.214 27.975C32.4048 27.975 31.7611 24.7035 31.7611 20.6667C31.7611 16.6299 32.4048 13.3583 33.214 13.3583C34.0232 13.3583 34.6668 16.6299 34.6668 20.6667Z" fill="white"/>
</svg>
