<svg width="260" height="160" viewBox="0 0 260 160" fill="none" xmlns="http://www.w3.org/2000/svg">
<rect width="260" height="160" rx="8" fill="#131417"/>
<path fill-rule="evenodd" clip-rule="evenodd" d="M232 144C240.837 144 248 136.837 248 128C248 119.163 240.837 112 232 112C223.163 112 216 119.163 216 128C216 136.837 223.163 144 232 144ZM232.047 114.458C231.92 114.341 231.855 114.339 231.844 114.339C231.833 114.339 231.767 114.341 231.64 114.458C231.51 114.578 231.354 114.785 231.186 115.104C230.851 115.741 230.531 116.704 230.254 117.947C229.944 119.345 229.698 121.053 229.543 122.965C230.291 123.327 231.061 123.72 231.843 124.143C232.626 123.72 233.396 123.327 234.144 122.965C233.989 121.053 233.744 119.345 233.433 117.947C233.157 116.704 232.836 115.741 232.501 115.104C232.333 114.785 232.177 114.578 232.047 114.458ZM231.189 124.502C230.614 124.196 230.048 123.908 229.493 123.636C229.451 124.252 229.418 124.886 229.396 125.536C229.689 125.361 229.986 125.186 230.288 125.012C230.589 124.838 230.89 124.668 231.189 124.502ZM228.94 122.677C229.389 117.434 230.519 113.714 231.844 113.714C233.168 113.714 234.299 117.434 234.748 122.677C235.791 122.189 236.788 121.765 237.715 121.412C237.715 121.398 237.714 121.383 237.714 121.369C237.714 120.823 238.142 120.381 238.669 120.381C238.996 120.381 239.285 120.551 239.457 120.81C241.858 120.072 243.546 119.98 243.967 120.709C244.629 121.855 241.971 124.694 237.652 127.704C241.971 130.714 244.629 133.553 243.967 134.699C243.305 135.845 239.516 134.964 234.748 132.731C234.299 137.974 233.168 141.695 231.844 141.695C231.094 141.695 230.407 140.503 229.87 138.518C229.453 138.412 229.143 138.023 229.143 137.559C229.143 137.256 229.274 136.986 229.481 136.805C229.252 135.606 229.068 134.231 228.94 132.731C224.171 134.964 220.382 135.845 219.72 134.699C219.058 133.553 221.716 130.714 226.035 127.704C225.143 127.082 224.321 126.467 223.585 125.873C223.438 125.969 223.264 126.024 223.078 126.024C222.551 126.024 222.124 125.582 222.124 125.036C222.124 124.91 222.147 124.789 222.188 124.678C220.264 122.918 219.289 121.455 219.72 120.709C220.382 119.563 224.171 120.444 228.94 122.677ZM234.8 123.344C235.907 122.819 236.961 122.368 237.934 121.998C238.109 122.217 238.373 122.356 238.669 122.356C239.182 122.356 239.6 121.938 239.623 121.413C240.784 121.055 241.738 120.863 242.434 120.836C242.794 120.821 243.052 120.853 243.221 120.906C243.386 120.957 243.42 121.013 243.426 121.022C243.431 121.031 243.462 121.089 243.424 121.257C243.385 121.429 243.284 121.668 243.091 121.973C242.706 122.581 242.032 123.34 241.093 124.201C240.038 125.168 238.68 126.235 237.1 127.325C236.413 126.859 235.687 126.39 234.93 125.924C234.904 125.035 234.861 124.172 234.8 123.344ZM231.186 140.304C230.947 139.849 230.715 139.226 230.501 138.454C230.827 138.297 231.053 137.955 231.053 137.559C231.053 137.013 230.625 136.571 230.098 136.571C230.093 136.571 230.088 136.571 230.083 136.571C230.08 136.571 230.076 136.571 230.073 136.571C229.848 135.361 229.667 133.967 229.543 132.443C230.291 132.081 231.061 131.688 231.843 131.265C232.626 131.688 233.396 132.082 234.144 132.444C233.989 134.356 233.744 136.064 233.433 137.461C233.157 138.704 232.836 139.667 232.501 140.304C232.333 140.623 232.177 140.83 232.047 140.95C231.92 141.067 231.855 141.069 231.844 141.069C231.833 141.069 231.767 141.067 231.64 140.95C231.51 140.83 231.354 140.623 231.186 140.304ZM226.586 127.325C225.627 126.663 224.75 126.01 223.973 125.383C224.012 125.275 224.033 125.158 224.033 125.036C224.033 124.491 223.606 124.049 223.078 124.049C222.897 124.049 222.728 124.101 222.583 124.191C221.65 123.335 220.979 122.579 220.596 121.973C220.403 121.668 220.302 121.429 220.263 121.257C220.225 121.089 220.256 121.031 220.261 121.022C220.267 121.012 220.301 120.957 220.466 120.906C220.635 120.853 220.892 120.821 221.253 120.836C221.973 120.864 222.968 121.068 224.183 121.451C225.549 121.88 227.152 122.522 228.887 123.344C228.826 124.172 228.783 125.035 228.758 125.924C228 126.39 227.274 126.859 226.586 127.325ZM226.586 128.083C225.007 129.173 223.649 130.24 222.593 131.208C221.655 132.068 220.98 132.827 220.596 133.436C220.403 133.741 220.302 133.979 220.263 134.152C220.225 134.32 220.256 134.377 220.261 134.387C220.267 134.396 220.301 134.451 220.466 134.503C220.635 134.556 220.892 134.587 221.253 134.573C221.973 134.544 222.968 134.34 224.183 133.958C225.549 133.528 227.152 132.886 228.887 132.064C228.826 131.236 228.783 130.373 228.758 129.485C228 129.019 227.274 128.55 226.586 128.083ZM228.741 128.739C228.189 128.394 227.655 128.048 227.143 127.704C227.655 127.36 228.189 127.014 228.741 126.67C228.736 127.011 228.733 127.356 228.733 127.704C228.733 128.052 228.736 128.397 228.741 128.739ZM229.374 129.129C229.364 128.661 229.358 128.186 229.358 127.704C229.358 127.223 229.364 126.748 229.374 126.28C229.774 126.036 230.184 125.794 230.6 125.553C231.018 125.313 231.432 125.08 231.843 124.855C232.254 125.08 232.669 125.313 233.086 125.553C233.503 125.794 233.913 126.037 234.313 126.28C234.324 126.748 234.329 127.223 234.329 127.704C234.329 128.185 234.324 128.661 234.313 129.129C233.913 129.372 233.503 129.614 233.086 129.855C232.669 130.096 232.254 130.329 231.843 130.554C231.432 130.329 231.018 130.096 230.601 129.855C230.184 129.614 229.774 129.372 229.374 129.129ZM229.396 129.872C229.418 130.522 229.451 131.157 229.493 131.772C230.048 131.501 230.614 131.212 231.189 130.907C230.89 130.741 230.589 130.571 230.288 130.397C229.986 130.223 229.689 130.048 229.396 129.872ZM234.8 132.065C236.535 132.887 238.138 133.528 239.504 133.958C240.719 134.34 241.714 134.544 242.434 134.573C242.794 134.587 243.052 134.556 243.221 134.503C243.386 134.451 243.42 134.396 243.426 134.387C243.431 134.377 243.462 134.32 243.424 134.152C243.385 133.979 243.284 133.741 243.091 133.436C242.706 132.827 242.032 132.068 241.093 131.208C240.038 130.24 238.68 129.173 237.1 128.083C236.413 128.55 235.687 129.019 234.93 129.485C234.904 130.373 234.861 131.236 234.8 132.065ZM234.946 126.67C235.498 127.014 236.032 127.36 236.544 127.704C236.032 128.048 235.498 128.394 234.946 128.739C234.952 128.397 234.954 128.052 234.954 127.704C234.954 127.356 234.952 127.011 234.946 126.67ZM234.292 125.536C234.269 124.886 234.236 124.252 234.194 123.636C233.639 123.907 233.073 124.196 232.498 124.502C232.797 124.668 233.097 124.838 233.399 125.012C233.701 125.186 233.998 125.361 234.292 125.536ZM234.194 131.773C233.639 131.501 233.073 131.212 232.498 130.907C232.797 130.741 233.097 130.571 233.399 130.397C233.701 130.223 233.998 130.048 234.292 129.872C234.269 130.522 234.236 131.157 234.194 131.773ZM233.646 127.998C233.646 128.907 232.909 129.644 232 129.644C231.091 129.644 230.354 128.907 230.354 127.998C230.354 127.089 231.091 126.352 232 126.352C232.909 126.352 233.646 127.089 233.646 127.998Z" fill="#454B5C"/>
<path d="M62.1329 100.725C60.3637 100.841 58.6004 100.98 56.846 101.14C56.1478 101.206 55.5383 100.723 55.5383 100.097V44.8303C55.5383 44.5886 55.63 44.3548 55.8016 44.1682L61.1271 38.3296C61.8282 37.5597 63.2306 38.0012 63.2306 38.9918V99.6794C63.2306 100.231 62.7513 100.686 62.1329 100.725Z" fill="url(#paint0_linear_1504_8508)"/>
<path d="M34 53.1541L34.0149 102.918C34.0149 104.27 35.2269 105.26 36.4837 104.939C40.9385 103.801 45.4704 102.869 50.072 102.155C50.5597 102.079 50.9231 101.642 50.9231 101.126V49.2729C50.9231 47.8872 49.6563 46.887 48.3846 47.2699L35.4435 51.151C34.5898 51.4062 34 52.2242 34 53.1541Z" fill="white"/>
<path d="M112.499 43.2239L70.4937 31.0827C69.1686 30.6984 67.8488 31.7021 67.8462 33.0927V99.4266C67.8462 100.017 68.3285 100.488 68.9146 100.47C70.5326 100.42 72.1585 100.396 73.7869 100.396C86.7548 100.396 99.3596 101.97 111.42 104.939C112.727 105.261 113.987 104.267 113.987 102.911L114 45.2339C114 44.3008 113.388 43.4801 112.499 43.2239ZM101.367 69.0617C101.224 70.4313 100.008 71.4246 98.6491 71.2808L93.3956 70.7241V76.0484C93.3956 77.4259 92.2884 78.542 90.9218 78.542C89.5553 78.542 88.4481 77.4259 88.4481 76.0484V70.1987L82.6785 69.587C81.3198 69.4433 80.3344 68.2174 80.477 66.8478C80.6196 65.4781 81.8358 64.4848 83.1946 64.6286L88.4481 65.1854V59.861C88.4481 58.4835 89.5553 57.3674 90.9218 57.3674C92.2884 57.3674 93.3956 58.4835 93.3956 59.861V65.7107L99.1652 66.3224C100.524 66.4661 101.509 67.692 101.367 69.0617Z" fill="white"/>
<g clip-path="url(#clip0_1504_8508)">
<g opacity="0.8">
<path d="M143.615 27.8311L134.4 32.2988L143.615 38.1026L152.827 32.2988L143.615 27.8311Z" fill="#8F98AE"/>
</g>
<g opacity="0.65">
<path opacity="0.65" d="M134.4 32.2993L143.615 38.1031V16L134.4 32.2993Z" fill="#8F98AE"/>
</g>
<g opacity="0.9">
<path d="M143.615 16V38.1031L152.826 32.2993L143.615 16Z" fill="#8F98AE"/>
</g>
<g opacity="0.65">
<path opacity="0.65" d="M134.4 34.1611L143.615 48.0007V39.9649L134.4 34.1611Z" fill="#8F98AE"/>
</g>
<g opacity="0.8">
<path d="M143.615 39.9649V48.0007L152.834 34.1611L143.615 39.9649Z" fill="#8F98AE"/>
</g>
</g>
<path d="M177.199 86.3403C177.392 86.1472 177.658 86.0346 177.939 86.0346H203.475C203.942 86.0346 204.175 86.5978 203.846 86.9276L198.801 91.9721C198.608 92.1652 198.342 92.2779 198.061 92.2779H172.525C172.058 92.2779 171.825 91.7147 172.154 91.3848L177.199 86.3403Z" fill="#454B5C"/>
<path d="M177.199 67.5059C177.4 67.3128 177.666 67.2002 177.939 67.2002H203.475C203.942 67.2002 204.175 67.7634 203.846 68.0932L198.801 73.1377C198.608 73.3308 198.342 73.4435 198.061 73.4435H172.525C172.058 73.4435 171.825 72.8803 172.154 72.5504L177.199 67.5059Z" fill="#454B5C"/>
<path d="M198.801 76.8628C198.608 76.6697 198.342 76.5571 198.061 76.5571H172.525C172.058 76.5571 171.825 77.1202 172.154 77.4501L177.199 82.4946C177.392 82.6877 177.658 82.8003 177.939 82.8003H203.475C203.942 82.8003 204.175 82.2371 203.846 81.9073L198.801 76.8628Z" fill="#454B5C"/>
<path d="M184.032 70.056C186.011 71.176 187.616 72.576 188.848 74.256C190.117 75.936 190.752 77.7653 190.752 79.744C190.752 82.0587 190.173 84.1307 189.016 85.96C187.859 87.752 186.16 89.152 183.92 90.16C181.717 91.168 179.048 91.672 175.912 91.672C172.739 91.672 170.032 91.1493 167.792 90.104C165.589 89.0587 163.909 87.584 162.752 85.68C161.632 83.7387 161.072 81.48 161.072 78.904H169.416C169.416 79.8373 169.603 80.6773 169.976 81.424C170.387 82.1707 171.077 82.7867 172.048 83.272C173.019 83.72 174.307 83.944 175.912 83.944C177.555 83.944 178.899 83.72 179.944 83.272C181.027 82.7867 181.811 82.1707 182.296 81.424C182.819 80.64 183.08 79.8 183.08 78.904C183.08 77.448 182.501 76.2347 181.344 75.264C180.187 74.256 178.413 73.752 176.024 73.752H173.224V66.472H176.136C178.077 66.472 179.608 66.0053 180.728 65.072C181.848 64.1387 182.408 63.0747 182.408 61.88C182.408 61.1333 182.184 60.4427 181.736 59.808C181.325 59.136 180.672 58.6133 179.776 58.24C178.88 57.8293 177.723 57.624 176.304 57.624C174.885 57.624 173.765 57.8293 172.944 58.24C172.123 58.6133 171.544 59.1173 171.208 59.752C170.909 60.3867 170.76 61.096 170.76 61.88H162.416C162.416 59.4533 162.957 57.344 164.04 55.552C165.123 53.7227 166.709 52.3227 168.8 51.352C170.891 50.3813 173.392 49.896 176.304 49.896C179.104 49.896 181.549 50.3813 183.64 51.352C185.731 52.2853 187.317 53.592 188.4 55.272C189.52 56.952 190.08 58.8747 190.08 61.04C190.08 62.8693 189.52 64.568 188.4 66.136C187.317 67.6667 185.861 68.9733 184.032 70.056Z" fill="white"/>
<path d="M167.58 118.38C166.127 118.38 164.84 118.04 163.72 117.36C162.613 116.68 161.753 115.76 161.14 114.6C160.54 113.44 160.24 112.167 160.24 110.78C160.24 109.393 160.54 108.12 161.14 106.96C161.753 105.8 162.613 104.88 163.72 104.2C164.84 103.52 166.127 103.18 167.58 103.18C168.58 103.18 169.52 103.38 170.4 103.78C171.293 104.167 172.08 104.707 172.76 105.4L171.18 107.2C170.753 106.76 170.207 106.413 169.54 106.16C168.887 105.893 168.227 105.76 167.56 105.76C166.587 105.76 165.727 105.98 164.98 106.42C164.233 106.86 163.653 107.467 163.24 108.24C162.84 109 162.64 109.847 162.64 110.78C162.64 111.713 162.84 112.567 163.24 113.34C163.653 114.1 164.233 114.707 164.98 115.16C165.727 115.6 166.587 115.82 167.56 115.82C168.227 115.82 168.887 115.693 169.54 115.44C170.207 115.173 170.753 114.813 171.18 114.36L172.76 116.16C172.08 116.853 171.293 117.4 170.4 117.8C169.52 118.187 168.58 118.38 167.58 118.38ZM182.054 112.72C182.054 111.947 181.867 111.333 181.494 110.88C181.12 110.413 180.54 110.18 179.754 110.18C179.274 110.18 178.827 110.307 178.414 110.56C178.014 110.813 177.694 111.147 177.454 111.56C177.227 111.973 177.114 112.413 177.114 112.88V118.26H174.714V102.92H177.114V109.16C177.434 108.707 177.854 108.367 178.374 108.14C178.894 107.9 179.374 107.78 179.814 107.78C180.76 107.78 181.574 107.987 182.254 108.4C182.947 108.813 183.474 109.373 183.834 110.08C184.194 110.787 184.374 111.56 184.374 112.4V118.26H182.054V112.72ZM191.617 116.08C192.111 116.08 192.571 115.953 192.997 115.7C193.437 115.433 193.784 115.067 194.037 114.6C194.304 114.133 194.437 113.613 194.437 113.04C194.437 112.453 194.304 111.927 194.037 111.46C193.784 110.993 193.437 110.633 192.997 110.38C192.571 110.113 192.111 109.98 191.617 109.98C191.004 109.98 190.484 110.113 190.057 110.38C189.644 110.633 189.331 110.993 189.117 111.46C188.904 111.913 188.797 112.44 188.797 113.04C188.797 113.627 188.904 114.153 189.117 114.62C189.331 115.073 189.644 115.433 190.057 115.7C190.484 115.953 191.004 116.08 191.617 116.08ZM196.957 118.2H194.557V116.7C194.277 117.073 193.964 117.387 193.617 117.64C193.284 117.88 192.931 118.06 192.557 118.18C192.184 118.3 191.804 118.36 191.417 118.36C190.391 118.36 189.491 118.12 188.717 117.64C187.957 117.16 187.377 116.52 186.977 115.72C186.591 114.907 186.397 114.013 186.397 113.04C186.397 112.053 186.591 111.16 186.977 110.36C187.377 109.56 187.957 108.92 188.717 108.44C189.491 107.96 190.391 107.72 191.417 107.72C192.004 107.72 192.571 107.86 193.117 108.14C193.677 108.407 194.157 108.813 194.557 109.36V107.66H196.957V118.2ZM202.009 107.58V118.26H199.669V107.58H202.009ZM200.829 102.48C201.243 102.48 201.563 102.607 201.789 102.86C202.029 103.1 202.149 103.407 202.149 103.78C202.149 104.167 202.029 104.487 201.789 104.74C201.563 104.98 201.243 105.1 200.829 105.1C200.429 105.1 200.109 104.98 199.869 104.74C199.643 104.487 199.529 104.167 199.529 103.78C199.529 103.407 199.643 103.1 199.869 102.86C200.109 102.607 200.429 102.48 200.829 102.48ZM212.022 112.5C212.022 111.753 211.809 111.153 211.382 110.7C210.969 110.233 210.342 110 209.502 110C209.022 110 208.589 110.12 208.202 110.36C207.816 110.587 207.509 110.9 207.282 111.3C207.069 111.7 206.962 112.127 206.962 112.58V118.2H204.582V107.66H206.962V109.22C207.149 108.873 207.396 108.587 207.702 108.36C208.022 108.12 208.356 107.947 208.702 107.84C209.062 107.72 209.409 107.66 209.742 107.66C210.596 107.66 211.376 107.827 212.082 108.16C212.789 108.48 213.349 108.98 213.762 109.66C214.189 110.327 214.402 111.153 214.402 112.14V118.2H212.022V112.5ZM222.568 110.98C222.408 110.74 222.201 110.527 221.948 110.34C221.641 110.14 221.321 110.007 220.988 109.94C220.655 109.873 220.328 109.847 220.008 109.86C219.781 109.887 219.581 109.933 219.408 110C219.235 110.067 219.095 110.173 218.988 110.32C218.935 110.44 218.908 110.553 218.908 110.66C218.908 110.767 218.948 110.873 219.028 110.98C219.081 111.073 219.215 111.18 219.428 111.3C219.708 111.46 219.988 111.587 220.268 111.68L220.988 111.9C221.868 112.14 222.521 112.373 222.948 112.6C223.388 112.813 223.721 113.047 223.948 113.3C224.295 113.687 224.521 114.167 224.628 114.74C224.748 115.313 224.655 115.893 224.348 116.48C224.161 116.8 223.941 117.067 223.688 117.28C223.448 117.48 223.155 117.68 222.808 117.88C222.301 118.133 221.761 118.293 221.188 118.36C220.601 118.413 220.041 118.373 219.508 118.24C218.988 118.107 218.468 117.88 217.948 117.56C217.575 117.333 217.228 117.013 216.908 116.6C216.588 116.187 216.381 115.86 216.288 115.62L218.248 114.46L218.268 114.52C218.388 114.747 218.508 114.94 218.628 115.1C218.748 115.247 218.908 115.387 219.108 115.52C219.481 115.747 219.801 115.893 220.068 115.96C220.348 116.027 220.675 116.053 221.048 116.04C221.301 116.013 221.548 115.94 221.788 115.82C221.908 115.767 222.001 115.713 222.068 115.66C222.148 115.607 222.208 115.54 222.248 115.46C222.328 115.34 222.355 115.22 222.328 115.1C222.315 114.98 222.261 114.873 222.168 114.78C222.048 114.7 221.875 114.62 221.648 114.54C221.235 114.407 220.775 114.26 220.268 114.1L219.508 113.88C219.215 113.787 218.981 113.7 218.808 113.62C218.648 113.54 218.468 113.44 218.268 113.32C217.895 113.107 217.588 112.853 217.348 112.56C217.001 112.173 216.775 111.687 216.668 111.1C216.575 110.513 216.648 109.933 216.888 109.36C217.155 108.787 217.568 108.36 218.128 108.08C218.688 107.787 219.268 107.613 219.868 107.56C220.375 107.507 220.921 107.54 221.508 107.66C222.095 107.78 222.648 108.007 223.168 108.34C223.728 108.727 224.155 109.167 224.448 109.66L222.568 110.98Z" fill="#ECEEF4"/>
<path d="M169.888 38.112H168.32L166.56 32.256L164.8 38.112H163.216L160.704 29.76H162.432L164.032 35.472L165.696 29.76H167.392L169.088 35.472L170.64 29.76H172.384L169.888 38.112ZM175.736 29.728V38.144H174.088V29.728H175.736ZM174.904 25.776C175.203 25.776 175.432 25.8667 175.592 26.048C175.763 26.2187 175.848 26.4427 175.848 26.72C175.848 26.9867 175.763 27.2107 175.592 27.392C175.432 27.5733 175.203 27.664 174.904 27.664C174.616 27.664 174.387 27.5733 174.216 27.392C174.045 27.2107 173.96 26.9867 173.96 26.72C173.96 26.4427 174.045 26.2187 174.216 26.048C174.387 25.8667 174.616 25.776 174.904 25.776ZM182.937 37.376C182.691 37.5893 182.419 37.7653 182.121 37.904C181.833 38.032 181.518 38.096 181.177 38.096C180.739 38.096 180.329 37.9787 179.945 37.744C179.561 37.5093 179.251 37.2 179.017 36.816C178.793 36.4213 178.681 36 178.681 35.552V26.848H180.393V35.552C180.393 35.8187 180.462 36.0267 180.601 36.176C180.739 36.3147 180.931 36.384 181.177 36.384C181.294 36.384 181.39 36.368 181.465 36.336C181.539 36.304 181.635 36.24 181.753 36.144L181.769 36.128L182.937 37.376ZM177.273 29.712H182.521V31.264H177.273V29.712ZM190.498 33.648C190.498 32.9973 190.338 32.4853 190.018 32.112C189.698 31.728 189.223 31.536 188.594 31.536C188.189 31.536 187.815 31.6427 187.474 31.856C187.143 32.0587 186.877 32.336 186.674 32.688C186.482 33.04 186.386 33.424 186.386 33.84V38.144H184.722V26H186.386V31.072C186.631 30.688 186.962 30.3893 187.378 30.176C187.805 29.952 188.221 29.84 188.626 29.84C189.319 29.84 189.927 30.0053 190.45 30.336C190.983 30.656 191.394 31.0933 191.682 31.648C191.97 32.192 192.114 32.7947 192.114 33.456V38.144H190.498V33.648Z" fill="#8F98AE"/>
<path d="M46.4476 130L41.7436 118.16H39.3596L34.6076 130H37.8556L38.4796 128.288H42.5916L43.1676 130H46.4476ZM41.7916 125.888H39.3116L40.5276 121.84L40.5756 121.856L41.7916 125.888ZM56.6686 130V118.16H54.0126V121.872C53.2606 121.12 52.4286 120.816 51.4046 120.816C48.8126 120.816 47.0046 122.88 47.0046 125.536C47.0046 128.224 48.7646 130.288 51.4526 130.288C52.7166 130.288 53.6126 129.856 54.1086 129.04H54.1406V130H56.6686ZM51.8846 127.808C50.6046 127.808 49.6606 126.864 49.6606 125.52C49.6606 124.224 50.6526 123.296 51.9006 123.296C53.2126 123.296 54.1566 124.288 54.1566 125.52C54.1566 126.832 53.1806 127.808 51.8846 127.808ZM67.7125 130V118.16H65.0565V121.872C64.3045 121.12 63.4725 120.816 62.4485 120.816C59.8565 120.816 58.0485 122.88 58.0485 125.536C58.0485 128.224 59.8085 130.288 62.4965 130.288C63.7605 130.288 64.6565 129.856 65.1525 129.04H65.1845V130H67.7125ZM62.9285 127.808C61.6485 127.808 60.7045 126.864 60.7045 125.52C60.7045 124.224 61.6965 123.296 62.9445 123.296C64.2565 123.296 65.2005 124.288 65.2005 125.52C65.2005 126.832 64.2245 127.808 62.9285 127.808ZM78.4684 124.544C77.9724 122.288 76.0684 120.816 73.7324 120.816C71.1724 120.816 69.0764 122.88 69.0764 125.536C69.0764 128.16 71.1564 130.288 73.7804 130.288C76.0524 130.288 77.9564 128.848 78.4844 126.624H75.7804C75.3804 127.392 74.7564 127.808 73.8604 127.808C72.6284 127.808 71.7484 126.848 71.7484 125.552C71.7484 124.304 72.5804 123.296 73.7964 123.296C74.7084 123.296 75.3964 123.712 75.7804 124.544H78.4684ZM88.0419 130V124.416C88.0419 122.096 86.8099 120.816 84.7779 120.816C83.7219 120.816 82.8579 121.248 82.4739 121.968V118.16H79.8179V130H82.4739V125.008C82.4739 123.904 82.9539 123.312 83.9619 123.312C84.9379 123.312 85.3859 123.968 85.3859 125.12V130H88.0419ZM99.1273 130V121.12H96.4713V122.064H96.4393C95.9273 121.248 94.9193 120.816 93.8313 120.816C91.2873 120.816 89.3833 122.928 89.3833 125.552C89.3833 128.24 91.2073 130.304 93.8313 130.304C94.9993 130.304 96.0553 129.824 96.4393 129.04H96.4713V130H99.1273ZM94.2473 127.824C93.0153 127.824 92.0393 126.816 92.0393 125.584C92.0393 124.304 92.9993 123.296 94.2153 123.296C95.4633 123.296 96.4713 124.304 96.4713 125.552C96.4713 126.832 95.4953 127.824 94.2473 127.824ZM103.593 120.176V118.16H100.937V120.176H103.593ZM103.593 130V121.12H100.937V130H103.593ZM113.611 130V124.336C113.611 121.712 111.915 120.816 110.315 120.816C109.243 120.816 108.459 121.152 107.899 122.064H107.867V121.12H105.387V130H108.043V125.104C108.043 123.904 108.491 123.312 109.563 123.312C110.539 123.312 110.955 123.872 110.955 125.072V130H113.611Z" fill="white"/>
<defs>
<linearGradient id="paint0_linear_1504_8508" x1="79.5028" y1="50.1907" x2="47.4397" y2="94.7742" gradientUnits="userSpaceOnUse">
<stop offset="0.24" stop-color="#E90038"/>
<stop offset="0.78" stop-color="#2D6CFF"/>
<stop offset="1" stop-color="#6AB8FF"/>
</linearGradient>
<clipPath id="clip0_1504_8508">
<rect width="32" height="32" fill="white" transform="translate(128 16)"/>
</clipPath>
</defs>
</svg>
