<svg width="260" height="160" viewBox="0 0 260 160" fill="none" xmlns="http://www.w3.org/2000/svg">
<rect width="260" height="160" rx="8" fill="#131417"/>
<g clip-path="url(#clip0_4424_10121)">
<path d="M170.835 119.327L165.41 127.378C165.034 127.927 165.756 128.59 166.275 128.129L171.614 123.483C171.758 123.367 171.96 123.454 171.96 123.656V138.171C171.96 138.373 171.7 138.459 171.585 138.315L155.425 118.981C154.906 118.346 154.155 118 153.319 118H152.741C151.241 118 150 119.241 150 120.77V141.201C150 142.73 151.241 143.971 152.77 143.971C153.723 143.971 154.617 143.481 155.137 142.644L160.562 134.593C160.937 134.044 160.215 133.381 159.696 133.842L154.357 138.459C154.213 138.575 154.011 138.488 154.011 138.286V123.8C154.011 123.598 154.271 123.512 154.386 123.656L170.546 142.99C171.065 143.625 171.845 143.971 172.653 143.971H173.23C174.759 143.971 176 142.73 176 141.201V120.77C176 119.241 174.759 118 173.23 118C172.249 118 171.354 118.491 170.835 119.327Z" fill="#343844"/>
</g>
<g clip-path="url(#clip1_4424_10121)">
<path d="M97.6162 130.772L106.499 139.589C111.167 134.638 111.167 126.906 106.499 121.954" fill="#343844"/>
<path d="M96.9674 131.355L88.2148 140.043L96.9674 143.674L105.72 140.043" fill="#343844"/>
<path d="M96.7867 130.61L105.864 121.598L97.4991 118.162L89.2002 138.197L96.7867 130.61Z" fill="#343844"/>
<path d="M84 130.772C83.9935 134.052 85.2467 137.208 87.5008 139.59L96.1884 118.647" fill="#343844"/>
</g>
<path fill-rule="evenodd" clip-rule="evenodd" d="M39.2332 125.484L33.6947 125.258L37.4561 121.248L35.9427 119.758L31.8643 123.453L31.6434 118H29.5028L29.2736 123.452L25.2 119.749L23.6862 121.239L27.4403 125.253L21.8999 125.471V127.578L27.4384 127.804L23.677 131.813L25.1906 133.303L29.2062 129.665L29.3809 138.497L26.1776 138.727V140.689L29.4292 140.932L29.4899 144H31.6304L31.6933 140.937L34.9789 140.692V138.729L31.7435 138.496L31.9247 129.669L35.9333 133.312L37.4472 131.822L33.6929 127.808L39.2332 127.591V125.484Z" fill="#343844"/>
<path fill-rule="evenodd" clip-rule="evenodd" d="M242 118H217.842L224.719 126.109C225.863 125.107 227.361 124.5 229 124.5C232.59 124.5 235.5 127.41 235.5 131C235.5 132.619 234.908 134.1 233.928 135.238L242 142.183V118ZM238.818 144L232.426 136.525C231.431 137.143 230.257 137.5 229 137.5C225.41 137.5 222.5 134.59 222.5 131C222.5 129.754 222.85 128.59 223.458 127.601L216 121.107V144H238.818Z" fill="#343844"/>
<path d="M118.3 17.2998H141.551V25.6021H137.759C136.428 22.5559 133.434 20.4133 129.941 20.4133C125.218 20.4133 121.393 24.263 121.393 28.9834C121.393 33.7039 125.218 37.5868 129.941 37.5868C133.368 37.5868 136.361 35.5114 137.692 32.5316H141.55V40.6998H118.3V17.2998Z" fill="#343844"/>
<g clip-path="url(#clip2_4424_10121)">
<path d="M71.0464 24.6937H68.7562C68.6241 24.6936 68.4935 24.6653 68.3732 24.6106C68.2528 24.556 68.1456 24.4763 68.0585 24.377L67.1296 23.3282C67.0609 23.2514 66.9768 23.1899 66.8827 23.1478C66.7887 23.1057 66.6868 23.084 66.5838 23.084C66.4807 23.084 66.3789 23.1057 66.2848 23.1478C66.1908 23.1899 66.1067 23.2514 66.038 23.3282L65.2418 24.2271C65.1135 24.3734 64.9555 24.4907 64.7784 24.5711C64.6012 24.6516 64.409 24.6934 64.2144 24.6937H51.6806C51.3193 25.7294 51.0906 26.8068 51 27.8999H62.8318C62.9343 27.8998 63.0357 27.8789 63.1299 27.8384C63.2241 27.7979 63.309 27.7388 63.3797 27.6645L64.4841 26.513C64.5525 26.4425 64.6343 26.3864 64.7247 26.3482C64.8152 26.31 64.9124 26.2903 65.0106 26.2904H65.0534C65.1567 26.2909 65.2587 26.3128 65.353 26.3548C65.4474 26.3968 65.5319 26.458 65.6014 26.5344L66.5303 27.5832C66.6172 27.6828 66.7244 27.7626 66.8448 27.8172C66.9651 27.8719 67.0958 27.9001 67.228 27.8999H76.8809C76.7924 26.8065 76.5637 25.7289 76.2003 24.6937H71.0635H71.0464Z" fill="#343844"/>
<path d="M58.1576 34.6422C58.26 34.6416 58.3613 34.6204 58.4554 34.58C58.5495 34.5396 58.6345 34.4807 58.7055 34.4068L59.8056 33.2553C59.8744 33.1853 59.9563 33.1297 60.0467 33.0915C60.137 33.0533 60.234 33.0333 60.3321 33.0327H60.3792C60.4825 33.0332 60.5845 33.0551 60.6788 33.0971C60.7732 33.1391 60.8577 33.2003 60.9271 33.2767L61.8518 34.3255C61.9392 34.4244 62.0466 34.5038 62.1668 34.5584C62.287 34.613 62.4175 34.6415 62.5495 34.6422H75.6355C76.1341 33.6172 76.494 32.5303 76.7057 31.4103H64.1419C64.0109 31.4098 63.8814 31.3818 63.7619 31.3279C63.6424 31.2741 63.5356 31.1957 63.4485 31.0978L62.5196 30.0491C62.451 29.9712 62.3667 29.9088 62.2723 29.866C62.1778 29.8232 62.0753 29.801 61.9716 29.8008C61.8685 29.8005 61.7665 29.8225 61.6726 29.8654C61.5788 29.9082 61.4953 29.9709 61.428 30.0491L60.6318 30.948C60.5023 31.0936 60.3434 31.2101 60.1655 31.2898C59.9877 31.3695 59.795 31.4106 59.6001 31.4103H51.1758C51.3854 32.5331 51.7438 33.6228 52.2417 34.6508L58.1576 34.6422Z" fill="#343844"/>
<path d="M67.4422 21.1882C67.5453 21.1881 67.6474 21.1672 67.7423 21.1268C67.8372 21.0863 67.9229 21.0271 67.9944 20.9527L69.0945 19.8055C69.1623 19.734 69.244 19.677 69.3345 19.638C69.425 19.599 69.5225 19.5788 69.621 19.5786H69.6681C69.7713 19.5784 69.8733 19.6004 69.9671 19.6432C70.061 19.6861 70.1444 19.7488 70.2118 19.8269L71.1407 20.8757C71.2288 20.9735 71.3364 21.0517 71.4566 21.1056C71.5767 21.1594 71.7068 21.1875 71.8384 21.1882H74.3255C73.1155 19.5771 71.5473 18.2697 69.745 17.3692C67.9426 16.4688 65.9554 16 63.9406 16C61.9258 16 59.9386 16.4688 58.1362 17.3692C56.3338 18.2697 54.7656 19.5771 53.5557 21.1882H67.4422Z" fill="#343844"/>
<path d="M62.4426 37.8522H59.0394C58.9079 37.852 58.778 37.8236 58.6584 37.769C58.5387 37.7143 58.4322 37.6347 58.346 37.5354L57.4214 36.4867C57.3523 36.4097 57.2678 36.3482 57.1734 36.3061C57.079 36.264 56.9768 36.2422 56.8734 36.2422C56.7701 36.2422 56.6678 36.264 56.5734 36.3061C56.479 36.3482 56.3946 36.4097 56.3255 36.4867L55.525 37.4027C55.3969 37.5492 55.239 37.6666 55.0618 37.7471C54.8846 37.8276 54.6923 37.8692 54.4977 37.8693H54.4463C55.6612 39.1725 57.1312 40.2117 58.765 40.9222C60.3988 41.6327 62.1613 41.9994 63.943 41.9994C65.7246 41.9994 67.4871 41.6327 69.1209 40.9222C70.7547 40.2117 72.2248 39.1725 73.4396 37.8693L62.4426 37.8522Z" fill="#343844"/>
</g>
<path fill-rule="evenodd" clip-rule="evenodd" d="M202.062 26.8437L202.061 26.8447C203.122 28.1748 203.756 29.8593 203.756 31.6915C203.756 33.551 203.103 35.2584 202.014 36.5975L201.92 36.7127L201.895 36.5662C201.874 36.4416 201.849 36.3158 201.82 36.189C201.275 33.7937 199.499 31.7397 196.575 30.0766C194.601 28.9566 193.471 27.608 193.175 26.0758C192.983 25.085 193.125 24.0897 193.401 23.2373C193.676 22.3852 194.085 21.6712 194.433 21.2414L195.571 19.8505C195.77 19.6067 196.143 19.6067 196.343 19.8505L202.062 26.8437ZM203.861 25.4543L196.238 16.1335C196.093 15.9555 195.82 15.9555 195.675 16.1335L188.052 25.4539L188.028 25.4852C186.625 27.2257 185.786 29.4377 185.786 31.8457C185.786 37.4536 190.339 42 195.957 42C201.574 42 206.128 37.4536 206.128 31.8457C206.128 29.4377 205.288 27.2257 203.886 25.4852L203.861 25.4543ZM189.876 26.8136L190.558 25.9795L190.579 26.1334C190.595 26.2554 190.615 26.3779 190.638 26.501C191.08 28.8155 192.655 30.7455 195.29 32.2402C197.58 33.5436 198.914 35.0425 199.298 36.6864C199.458 37.3724 199.487 38.0474 199.417 38.6375L199.413 38.674L199.38 38.6902C198.346 39.1951 197.185 39.4785 195.956 39.4785C191.649 39.4785 188.157 35.9923 188.157 31.6915C188.157 29.845 188.801 28.1484 189.876 26.8136Z" fill="#343844"/>
<path d="M35.497 38.8903L48.8956 35.0808C50.2123 34.705 51.5238 35.6868 51.5238 37.0469V101.693C51.5238 102.317 50.9647 102.8 50.3411 102.706C45.3398 101.959 40.4185 100.977 35.5821 99.7704C34.6622 99.5403 34.0155 98.7247 34.0155 97.7839L34 40.8564C34 39.9437 34.6081 39.1409 35.4945 38.8903H35.497Z" fill="url(#paint0_linear_4424_10121)"/>
<path d="M96.4761 37.0487V101.694C96.4761 102.317 97.0352 102.8 97.6587 102.706C102.66 101.959 107.581 100.978 112.418 99.772C113.338 99.542 113.984 98.7269 113.984 97.7865L114 40.6798C114 39.7573 113.379 38.9498 112.482 38.7071L99.0836 35.0734C97.7721 34.7182 96.4786 35.6969 96.4786 37.0461L96.4761 37.0487Z" fill="url(#paint1_linear_4424_10121)"/>
<path d="M91.1403 40.1063C91.1403 38.6688 89.7047 37.6719 88.3594 38.1768C83.772 39.8976 78.8057 40.8379 73.6177 40.8379C68.4298 40.8379 63.4635 39.8951 58.876 38.1768C57.5307 37.6719 56.0952 38.6688 56.0952 40.1063V103.107C56.0952 103.635 56.4895 104.078 57.0152 104.135C62.4712 104.709 68.0123 105 73.6203 105C79.2283 105 84.7668 104.707 90.2202 104.135C90.7459 104.081 91.1428 103.635 91.1428 103.107V40.1063H91.1403ZM81.1174 54.0481L71.0662 89.0828C70.94 89.5259 70.5354 89.8299 70.0766 89.8299H67.1077C66.4221 89.8299 65.9273 89.173 66.1154 88.5161L76.1666 53.4813C76.2929 53.0383 76.6975 52.7343 77.1563 52.7343H80.1252C80.8108 52.7343 81.3055 53.3912 81.1148 54.0481H81.1174Z" fill="url(#paint2_linear_4424_10121)"/>
<path d="M164.096 91.784L179.608 59.36H189.016L173.504 91.784H164.096ZM189.016 59.416H162.248V50.904H189.016V59.416ZM211.908 70.024H223.188V76.552H211.908V87.784H205.428V76.552H194.148V70.024H205.428V58.744H211.908V70.024Z" fill="white"/>
<path d="M167.58 118.38C166.127 118.38 164.84 118.04 163.72 117.36C162.613 116.68 161.753 115.76 161.14 114.6C160.54 113.44 160.24 112.167 160.24 110.78C160.24 109.393 160.54 108.12 161.14 106.96C161.753 105.8 162.613 104.88 163.72 104.2C164.84 103.52 166.127 103.18 167.58 103.18C168.58 103.18 169.52 103.38 170.4 103.78C171.293 104.167 172.08 104.707 172.76 105.4L171.18 107.2C170.753 106.76 170.207 106.413 169.54 106.16C168.887 105.893 168.227 105.76 167.56 105.76C166.587 105.76 165.727 105.98 164.98 106.42C164.233 106.86 163.653 107.467 163.24 108.24C162.84 109 162.64 109.847 162.64 110.78C162.64 111.713 162.84 112.567 163.24 113.34C163.653 114.1 164.233 114.707 164.98 115.16C165.727 115.6 166.587 115.82 167.56 115.82C168.227 115.82 168.887 115.693 169.54 115.44C170.207 115.173 170.753 114.813 171.18 114.36L172.76 116.16C172.08 116.853 171.293 117.4 170.4 117.8C169.52 118.187 168.58 118.38 167.58 118.38ZM182.054 112.72C182.054 111.947 181.867 111.333 181.494 110.88C181.12 110.413 180.54 110.18 179.754 110.18C179.274 110.18 178.827 110.307 178.414 110.56C178.014 110.813 177.694 111.147 177.454 111.56C177.227 111.973 177.114 112.413 177.114 112.88V118.26H174.714V102.92H177.114V109.16C177.434 108.707 177.854 108.367 178.374 108.14C178.894 107.9 179.374 107.78 179.814 107.78C180.76 107.78 181.574 107.987 182.254 108.4C182.947 108.813 183.474 109.373 183.834 110.08C184.194 110.787 184.374 111.56 184.374 112.4V118.26H182.054V112.72ZM191.617 116.08C192.111 116.08 192.571 115.953 192.997 115.7C193.437 115.433 193.784 115.067 194.037 114.6C194.304 114.133 194.437 113.613 194.437 113.04C194.437 112.453 194.304 111.927 194.037 111.46C193.784 110.993 193.437 110.633 192.997 110.38C192.571 110.113 192.111 109.98 191.617 109.98C191.004 109.98 190.484 110.113 190.057 110.38C189.644 110.633 189.331 110.993 189.117 111.46C188.904 111.913 188.797 112.44 188.797 113.04C188.797 113.627 188.904 114.153 189.117 114.62C189.331 115.073 189.644 115.433 190.057 115.7C190.484 115.953 191.004 116.08 191.617 116.08ZM196.957 118.2H194.557V116.7C194.277 117.073 193.964 117.387 193.617 117.64C193.284 117.88 192.931 118.06 192.557 118.18C192.184 118.3 191.804 118.36 191.417 118.36C190.391 118.36 189.491 118.12 188.717 117.64C187.957 117.16 187.377 116.52 186.977 115.72C186.591 114.907 186.397 114.013 186.397 113.04C186.397 112.053 186.591 111.16 186.977 110.36C187.377 109.56 187.957 108.92 188.717 108.44C189.491 107.96 190.391 107.72 191.417 107.72C192.004 107.72 192.571 107.86 193.117 108.14C193.677 108.407 194.157 108.813 194.557 109.36V107.66H196.957V118.2ZM202.009 107.58V118.26H199.669V107.58H202.009ZM200.829 102.48C201.243 102.48 201.563 102.607 201.789 102.86C202.029 103.1 202.149 103.407 202.149 103.78C202.149 104.167 202.029 104.487 201.789 104.74C201.563 104.98 201.243 105.1 200.829 105.1C200.429 105.1 200.109 104.98 199.869 104.74C199.643 104.487 199.529 104.167 199.529 103.78C199.529 103.407 199.643 103.1 199.869 102.86C200.109 102.607 200.429 102.48 200.829 102.48ZM212.022 112.5C212.022 111.753 211.809 111.153 211.382 110.7C210.969 110.233 210.342 110 209.502 110C209.022 110 208.589 110.12 208.202 110.36C207.816 110.587 207.509 110.9 207.282 111.3C207.069 111.7 206.962 112.127 206.962 112.58V118.2H204.582V107.66H206.962V109.22C207.149 108.873 207.396 108.587 207.702 108.36C208.022 108.12 208.356 107.947 208.702 107.84C209.062 107.72 209.409 107.66 209.742 107.66C210.596 107.66 211.376 107.827 212.082 108.16C212.789 108.48 213.349 108.98 213.762 109.66C214.189 110.327 214.402 111.153 214.402 112.14V118.2H212.022V112.5ZM222.568 110.98C222.408 110.74 222.201 110.527 221.948 110.34C221.641 110.14 221.321 110.007 220.988 109.94C220.655 109.873 220.328 109.847 220.008 109.86C219.781 109.887 219.581 109.933 219.408 110C219.235 110.067 219.095 110.173 218.988 110.32C218.935 110.44 218.908 110.553 218.908 110.66C218.908 110.767 218.948 110.873 219.028 110.98C219.081 111.073 219.215 111.18 219.428 111.3C219.708 111.46 219.988 111.587 220.268 111.68L220.988 111.9C221.868 112.14 222.521 112.373 222.948 112.6C223.388 112.813 223.721 113.047 223.948 113.3C224.295 113.687 224.521 114.167 224.628 114.74C224.748 115.313 224.655 115.893 224.348 116.48C224.161 116.8 223.941 117.067 223.688 117.28C223.448 117.48 223.155 117.68 222.808 117.88C222.301 118.133 221.761 118.293 221.188 118.36C220.601 118.413 220.041 118.373 219.508 118.24C218.988 118.107 218.468 117.88 217.948 117.56C217.575 117.333 217.228 117.013 216.908 116.6C216.588 116.187 216.381 115.86 216.288 115.62L218.248 114.46L218.268 114.52C218.388 114.747 218.508 114.94 218.628 115.1C218.748 115.247 218.908 115.387 219.108 115.52C219.481 115.747 219.801 115.893 220.068 115.96C220.348 116.027 220.675 116.053 221.048 116.04C221.301 116.013 221.548 115.94 221.788 115.82C221.908 115.767 222.001 115.713 222.068 115.66C222.148 115.607 222.208 115.54 222.248 115.46C222.328 115.34 222.355 115.22 222.328 115.1C222.315 114.98 222.261 114.873 222.168 114.78C222.048 114.7 221.875 114.62 221.648 114.54C221.235 114.407 220.775 114.26 220.268 114.1L219.508 113.88C219.215 113.787 218.981 113.7 218.808 113.62C218.648 113.54 218.468 113.44 218.268 113.32C217.895 113.107 217.588 112.853 217.348 112.56C217.001 112.173 216.775 111.687 216.668 111.1C216.575 110.513 216.648 109.933 216.888 109.36C217.155 108.787 217.568 108.36 218.128 108.08C218.688 107.787 219.268 107.613 219.868 107.56C220.375 107.507 220.921 107.54 221.508 107.66C222.095 107.78 222.648 108.007 223.168 108.34C223.728 108.727 224.155 109.167 224.448 109.66L222.568 110.98Z" fill="#ECEEF4"/>
<path d="M64.2658 122.656H61.0978C60.5858 121.36 59.4658 120.592 58.2338 120.592C56.3458 120.592 55.0658 122.208 55.0658 124.048C55.0658 125.968 56.3778 127.568 58.2498 127.568C59.4498 127.568 60.4738 126.896 61.0978 125.568H64.2658C63.5298 128.416 61.0818 130.224 58.2818 130.224C56.6338 130.224 55.0818 129.648 53.8658 128.448C52.5858 127.2 52.0418 125.696 52.0418 123.904C52.0418 120.768 54.7458 117.936 58.1378 117.936C59.7698 117.936 61.0818 118.384 62.2658 119.392C63.3858 120.352 64.0578 121.44 64.2658 122.656ZM74.7463 125.52C74.7463 128.304 72.6343 130.272 69.9623 130.272C67.2583 130.272 65.1783 128.272 65.1783 125.552C65.1783 122.8 67.3063 120.832 69.9623 120.832C72.6343 120.832 74.7463 122.832 74.7463 125.52ZM69.9623 127.792C71.2103 127.792 72.0903 126.736 72.0903 125.552C72.0903 124.368 71.1943 123.312 69.9463 123.312C68.7783 123.312 67.8343 124.336 67.8343 125.552C67.8343 126.768 68.7623 127.792 69.9623 127.792ZM85.3706 130H82.8426V129.04H82.8106C82.3146 129.856 81.4186 130.288 80.1546 130.288C77.4666 130.288 75.7066 128.224 75.7066 125.536C75.7066 122.88 77.5146 120.816 80.1066 120.816C81.1306 120.816 81.9626 121.12 82.7146 121.872V118.16H85.3706V130ZM80.5866 127.808C81.8826 127.808 82.8586 126.832 82.8586 125.52C82.8586 124.288 81.9146 123.296 80.6026 123.296C79.3546 123.296 78.3626 124.224 78.3626 125.52C78.3626 126.864 79.3066 127.808 80.5866 127.808ZM95.9664 126.368H89.3104C89.4544 127.376 90.3024 128.048 91.3904 128.048C92.1104 128.048 92.5744 127.776 93.0064 127.216H95.7264C94.8784 129.152 93.2624 130.288 91.3904 130.288C88.8304 130.288 86.6864 128.224 86.6864 125.584C86.6864 123.024 88.7344 120.816 91.3424 120.816C93.9984 120.816 96.0304 122.912 96.0304 125.664C96.0304 125.92 96.0144 126.128 95.9664 126.368ZM89.3424 124.576H93.3744C93.1664 123.664 92.3664 123.056 91.3424 123.056C90.3824 123.056 89.5504 123.632 89.3424 124.576Z" fill="white"/>
<defs>
<linearGradient id="paint0_linear_4424_10121" x1="42.7613" y1="35.0015" x2="42.7613" y2="102.72" gradientUnits="userSpaceOnUse">
<stop offset="0.24" stop-color="#C285FF"/>
<stop offset="0.78" stop-color="#2D6CFF"/>
<stop offset="1" stop-color="#6AB8FF"/>
</linearGradient>
<linearGradient id="paint1_linear_4424_10121" x1="105.237" y1="35.0015" x2="105.237" y2="102.72" gradientUnits="userSpaceOnUse">
<stop offset="0.24" stop-color="#C285FF"/>
<stop offset="0.78" stop-color="#2D6CFF"/>
<stop offset="1" stop-color="#6AB8FF"/>
</linearGradient>
<linearGradient id="paint2_linear_4424_10121" x1="73.6177" y1="38.0454" x2="73.6177" y2="105.003" gradientUnits="userSpaceOnUse">
<stop offset="0.24" stop-color="#C285FF"/>
<stop offset="0.78" stop-color="#2D6CFF"/>
<stop offset="1" stop-color="#6AB8FF"/>
</linearGradient>
<clipPath id="clip0_4424_10121">
<rect width="26" height="26" fill="white" transform="translate(150 118)"/>
</clipPath>
<clipPath id="clip1_4424_10121">
<rect width="26" height="26" fill="white" transform="translate(84 118)"/>
</clipPath>
<clipPath id="clip2_4424_10121">
<rect width="26" height="26" fill="white" transform="translate(51 16)"/>
</clipPath>
</defs>
</svg>
