<svg width="200" height="200" viewBox="0 0 200 200" fill="none" xmlns="http://www.w3.org/2000/svg">
<g clip-path="url(#clip0_729_7518)">
<path d="M24 0H176C189.255 0 200 10.7452 200 24V176C200 189.255 189.255 200 176 200H24C10.7452 200 0 189.255 0 176V24C0 10.7452 10.7452 0 24 0Z" fill="#ECEEF4"/>
<path d="M152.524 45.7665C152.515 45.7677 152.506 45.7655 152.498 45.7603C152.491 45.7551 152.486 45.7473 152.484 45.7384C151.584 42.1937 149.529 39.05 146.642 36.8045C143.755 34.559 140.203 33.3398 136.545 33.3398C132.888 33.3398 129.335 34.559 126.449 36.8045C123.562 39.05 121.507 42.1937 120.607 45.7384C120.605 45.7473 120.6 45.7551 120.592 45.7603C120.585 45.7655 120.576 45.7677 120.567 45.7665C119.48 45.7665 116.091 45.9069 116.091 48.7865C116.091 52.2197 116.492 55.2036 118.497 56.9363C119.364 57.6782 120.827 57.8587 122.215 57.8266C123.083 57.7989 123.948 57.7078 124.802 57.5539C124.809 57.5534 124.815 57.551 124.821 57.547C124.826 57.543 124.83 57.5376 124.833 57.5313C124.835 57.5251 124.836 57.5182 124.835 57.5116C124.834 57.5049 124.831 57.4988 124.826 57.4938C123.312 55.2053 122.506 52.5213 122.508 49.7772C122.508 49.7371 122.508 49.693 122.508 49.6528C122.508 45.9299 123.987 42.3594 126.619 39.7269C129.252 37.0944 132.822 35.6154 136.545 35.6154C140.268 35.6154 143.839 37.0944 146.471 39.7269C149.104 42.3594 150.583 45.9299 150.583 49.6528C150.583 49.693 150.583 49.7371 150.583 49.7772C150.585 52.5213 149.779 55.2053 148.265 57.4938C148.26 57.4988 148.257 57.5049 148.256 57.5116C148.255 57.5182 148.255 57.5251 148.258 57.5313C148.26 57.5376 148.265 57.543 148.27 57.547C148.276 57.551 148.282 57.5534 148.289 57.5539C149.143 57.7078 150.008 57.7989 150.876 57.8266C152.263 57.8587 153.727 57.6782 154.593 56.9363C156.599 55.2237 157 52.2197 157 48.7865C157 45.9069 153.611 45.7665 152.524 45.7665Z" fill="#8F98AE"/>
<path d="M136.545 61.4078L125.877 57.8503C125.868 57.8469 125.858 57.8468 125.849 57.8499C125.84 57.853 125.833 57.8593 125.828 57.8674C125.823 57.8756 125.821 57.8852 125.823 57.8946C125.824 57.9039 125.829 57.9124 125.837 57.9185L136.517 68.599C136.525 68.6063 136.535 68.6104 136.545 68.6104C136.556 68.6104 136.566 68.6063 136.573 68.599L147.254 57.9185C147.261 57.9124 147.266 57.9039 147.267 57.8946C147.269 57.8852 147.267 57.8756 147.262 57.8674C147.258 57.8593 147.25 57.853 147.241 57.8499C147.232 57.8468 147.222 57.8469 147.214 57.8503L136.545 61.4078Z" fill="#8F98AE"/>
<path d="M146.043 50.5397L148.577 49.7777C148.586 49.7767 148.594 49.7724 148.6 49.7658C148.606 49.7591 148.61 49.7505 148.609 49.7416C148.602 48.8033 148.485 47.8691 148.261 46.9581C148.258 46.9499 148.254 46.9424 148.247 46.9367C148.241 46.931 148.233 46.9273 148.224 46.9261L145.646 46.6934C145.637 46.6934 145.629 46.6908 145.622 46.6859C145.615 46.6809 145.61 46.674 145.608 46.666C145.605 46.658 145.605 46.6494 145.607 46.6414C145.61 46.6333 145.615 46.6263 145.622 46.6213L147.539 44.9448C147.542 44.9373 147.545 44.9291 147.545 44.9207C147.545 44.9123 147.542 44.9041 147.539 44.8967C147.148 44.0305 146.657 43.2134 146.075 42.4622C146.068 42.4573 146.061 42.4546 146.053 42.4546C146.045 42.4546 146.037 42.4573 146.031 42.4622L143.66 43.2643C143.653 43.2667 143.645 43.2669 143.637 43.2647C143.629 43.2626 143.623 43.2582 143.618 43.2522C143.612 43.2462 143.609 43.2388 143.608 43.231C143.607 43.2232 143.609 43.2152 143.612 43.2081L144.643 40.9541C144.648 40.947 144.65 40.9386 144.65 40.9301C144.65 40.9215 144.648 40.9132 144.643 40.906C143.931 40.262 143.145 39.7059 142.301 39.2496C142.294 39.2447 142.287 39.2421 142.279 39.2421C142.271 39.2421 142.263 39.2447 142.257 39.2496L140.464 40.906C140.458 40.9115 140.451 40.9152 140.443 40.9167C140.436 40.9182 140.428 40.9174 140.42 40.9145C140.413 40.9115 140.407 40.9064 140.403 40.8999C140.398 40.8934 140.396 40.8858 140.396 40.8779L140.432 38.4715C140.432 38.4627 140.43 38.4539 140.424 38.4467C140.419 38.4394 140.412 38.4341 140.404 38.4314C139.494 38.1256 138.552 37.9277 137.596 37.8418C137.587 37.8414 137.579 37.844 137.571 37.849C137.564 37.8541 137.559 37.8615 137.556 37.8699L136.601 40.0918C136.598 40.0986 136.593 40.1043 136.587 40.1083C136.58 40.1123 136.573 40.1145 136.565 40.1145C136.558 40.1145 136.55 40.1123 136.544 40.1083C136.538 40.1043 136.533 40.0986 136.529 40.0918L135.579 37.8699C135.575 37.8619 135.568 37.8553 135.56 37.851C135.553 37.8467 135.544 37.8449 135.535 37.8458C134.578 37.931 133.636 38.1303 132.727 38.4394C132.719 38.443 132.713 38.4486 132.708 38.4556C132.703 38.4627 132.7 38.471 132.699 38.4795L132.731 40.906C132.732 40.9139 132.731 40.9221 132.727 40.9292C132.723 40.9363 132.717 40.9419 132.71 40.9451C132.703 40.9483 132.694 40.949 132.687 40.947C132.679 40.945 132.672 40.9405 132.667 40.9341L130.85 39.2536C130.843 39.2489 130.835 39.2465 130.826 39.2465C130.818 39.2465 130.809 39.2489 130.802 39.2536C129.959 39.7098 129.174 40.266 128.464 40.91C128.459 40.9172 128.457 40.9255 128.457 40.9341C128.457 40.9426 128.459 40.951 128.464 40.9581L129.503 43.2041C129.505 43.2116 129.505 43.2195 129.503 43.2271C129.502 43.2346 129.498 43.2416 129.493 43.2473C129.487 43.253 129.481 43.2572 129.473 43.2595C129.466 43.2618 129.458 43.2621 129.45 43.2603L127.084 42.4581C127.077 42.4535 127.069 42.451 127.06 42.451C127.051 42.451 127.043 42.4535 127.036 42.4581C126.458 43.2113 125.971 44.0298 125.584 44.8967C125.579 44.9038 125.577 44.9122 125.577 44.9207C125.577 44.9293 125.579 44.9376 125.584 44.9448L127.505 46.6253C127.511 46.6306 127.514 46.6374 127.516 46.6447C127.518 46.6521 127.517 46.6598 127.515 46.6669C127.512 46.674 127.508 46.6803 127.502 46.685C127.496 46.6897 127.489 46.6926 127.481 46.6934L124.914 46.9341C124.906 46.9345 124.898 46.9375 124.892 46.9425C124.885 46.9475 124.881 46.9544 124.878 46.9622C124.648 47.8725 124.525 48.8067 124.513 49.7456C124.513 49.7544 124.515 49.7632 124.52 49.7704C124.526 49.7777 124.533 49.783 124.541 49.7857L127.08 50.5798C127.087 50.5831 127.093 50.5882 127.097 50.5946C127.101 50.601 127.103 50.6084 127.103 50.6159C127.103 50.6234 127.101 50.6308 127.097 50.6372C127.093 50.6436 127.087 50.6487 127.08 50.652L124.738 51.9595C124.733 51.9737 124.733 51.9894 124.738 52.0036C124.911 52.9373 125.194 53.8473 125.58 54.7148C125.708 54.9996 125.849 55.2763 125.981 55.5491C125.989 55.5515 125.997 55.5515 126.005 55.5491L136.545 59.0664L147.109 55.545C147.115 55.5435 147.119 55.5409 147.124 55.5375C147.128 55.534 147.131 55.5298 147.134 55.525C147.731 54.4095 148.152 53.2081 148.381 51.9635C148.383 51.955 148.382 51.946 148.378 51.9381C148.375 51.9301 148.369 51.9235 148.361 51.9194L146.023 50.6119C146.016 50.6071 146.011 50.6004 146.008 50.5927C146.006 50.585 146.006 50.5767 146.008 50.5689C146.01 50.5611 146.014 50.5541 146.021 50.5489C146.027 50.5437 146.035 50.5405 146.043 50.5397Z" fill="#8F98AE"/>
<path d="M82 72L85.1568 75.0692C94.6462 84.2949 100 96.967 100 110.202V128" stroke="#FFCC00" stroke-width="1.4"/>
<path d="M100.495 128.495C100.222 128.768 99.7784 128.768 99.505 128.495L95.0503 124.04C94.7769 123.767 94.7769 123.324 95.0503 123.05C95.3236 122.777 95.7668 122.777 96.0402 123.05L100 127.01L103.96 123.05C104.233 122.777 104.676 122.777 104.95 123.05C105.223 123.324 105.223 123.767 104.95 124.04L100.495 128.495ZM118.488 72.5018L115.331 75.5709L114.355 74.5672L117.512 71.498L118.488 72.5018ZM100.7 110.202V128H99.3V110.202H100.7ZM115.331 75.5709C105.977 84.6649 100.7 97.156 100.7 110.202H99.3C99.3 96.7779 104.73 83.9247 114.355 74.5672L115.331 75.5709Z" fill="#FFCC00"/>
<path d="M64 171C72.8366 171 80 163.837 80 155C80 146.163 72.8366 139 64 139C55.1634 139 48 146.163 48 155C48 163.837 55.1634 171 64 171Z" fill="black"/>
<path d="M66.9838 161.443V165.092C65.0635 164.449 62.9858 164.449 61.0654 165.092V147.041H64.5136C65.1692 147.041 65.798 147.301 66.2617 147.765C66.7254 148.228 66.9862 148.857 66.9865 149.513V151.206L66.9838 161.443Z" fill="white"/>
<path d="M66.9898 153.839V165.089C65.0694 164.446 62.9917 164.446 61.0713 165.089V162.464C61.0716 160.597 61.6364 158.774 62.6918 157.234C63.7471 155.693 65.2435 154.508 66.9845 153.834L66.9898 153.839Z" fill="#4F82F6"/>
<path d="M70.8198 147.041C70.5073 147.041 70.1979 147.104 69.9091 147.228C69.6203 147.352 69.3579 147.534 69.1369 147.764C68.9159 147.993 68.7408 148.266 68.6214 148.566C68.502 148.866 68.4409 149.188 68.4414 149.513V165.609C70.1179 164.935 71.5591 163.75 72.5754 162.21C73.5917 160.669 74.1356 158.845 74.1355 156.977V147.041H70.8198Z" fill="white"/>
<path d="M59.6141 151.206V147.041H53.9258V158.3L59.6141 165.608V161.443H59.6103V151.206H59.6141Z" fill="white"/>
<path d="M97.1541 165.494C95.2648 165.494 93.5921 165.052 92.1361 164.168C90.6974 163.284 89.5794 162.088 88.7821 160.58C88.0021 159.072 87.6121 157.417 87.6121 155.614C87.6121 153.811 88.0021 152.156 88.7821 150.648C89.5794 149.14 90.6974 147.944 92.1361 147.06C93.5921 146.176 95.2648 145.734 97.1541 145.734C98.4541 145.734 99.6761 145.994 100.82 146.514C101.981 147.017 103.004 147.719 103.888 148.62L101.834 150.96C101.279 150.388 100.569 149.937 99.7021 149.608C98.8528 149.261 97.9948 149.088 97.1281 149.088C95.8628 149.088 94.7448 149.374 93.7741 149.946C92.8034 150.518 92.0494 151.307 91.5121 152.312C90.9921 153.3 90.7321 154.401 90.7321 155.614C90.7321 156.827 90.9921 157.937 91.5121 158.942C92.0494 159.93 92.8034 160.719 93.7741 161.308C94.7448 161.88 95.8628 162.166 97.1281 162.166C97.9948 162.166 98.8528 162.001 99.7021 161.672C100.569 161.325 101.279 160.857 101.834 160.268L103.888 162.608C103.004 163.509 101.981 164.22 100.82 164.74C99.6761 165.243 98.4541 165.494 97.1541 165.494ZM112.258 162.426C113.02 162.426 113.679 162.253 114.234 161.906C114.788 161.559 115.204 161.083 115.482 160.476C115.776 159.869 115.924 159.185 115.924 158.422C115.924 157.659 115.776 156.975 115.482 156.368C115.204 155.761 114.788 155.293 114.234 154.964C113.679 154.617 113.02 154.444 112.258 154.444C111.495 154.444 110.836 154.617 110.282 154.964C109.727 155.293 109.302 155.761 109.008 156.368C108.73 156.975 108.592 157.659 108.592 158.422C108.592 159.185 108.73 159.869 109.008 160.476C109.302 161.083 109.727 161.559 110.282 161.906C110.836 162.253 111.495 162.426 112.258 162.426ZM112.258 151.48C113.558 151.48 114.702 151.792 115.69 152.416C116.695 153.04 117.458 153.881 117.978 154.938C118.515 155.995 118.784 157.157 118.784 158.422C118.784 159.687 118.515 160.849 117.978 161.906C117.458 162.963 116.695 163.804 115.69 164.428C114.702 165.052 113.558 165.364 112.258 165.364C110.958 165.364 109.814 165.052 108.826 164.428C107.838 163.804 107.075 162.963 106.538 161.906C106 160.849 105.732 159.687 105.732 158.422C105.732 157.157 105.992 155.995 106.512 154.938C107.049 153.881 107.812 153.04 108.8 152.416C109.805 151.792 110.958 151.48 112.258 151.48ZM127.57 162.27C128.194 162.27 128.774 162.114 129.312 161.802C129.849 161.473 130.274 161.022 130.586 160.45C130.898 159.861 131.054 159.202 131.054 158.474C131.054 157.763 130.898 157.122 130.586 156.55C130.274 155.978 129.849 155.527 129.312 155.198C128.774 154.869 128.194 154.704 127.57 154.704C126.807 154.704 126.166 154.869 125.646 155.198C125.126 155.527 124.736 155.978 124.476 156.55C124.233 157.105 124.112 157.746 124.112 158.474C124.112 159.219 124.233 159.878 124.476 160.45C124.736 161.005 125.126 161.447 125.646 161.776C126.166 162.105 126.807 162.27 127.57 162.27ZM134.382 165H131.236V163.102C130.768 163.865 130.17 164.411 129.442 164.74C128.714 165.052 127.994 165.208 127.284 165.208C125.984 165.208 124.857 164.905 123.904 164.298C122.95 163.691 122.222 162.877 121.72 161.854C121.234 160.831 120.992 159.705 120.992 158.474C120.992 157.261 121.234 156.143 121.72 155.12C122.222 154.097 122.95 153.283 123.904 152.676C124.857 152.069 125.984 151.766 127.284 151.766C127.734 151.766 128.194 151.844 128.662 152C129.147 152.139 129.615 152.364 130.066 152.676C130.516 152.988 130.906 153.387 131.236 153.872V145.396H134.382V165ZM146.923 157.252C146.854 156.663 146.681 156.151 146.403 155.718C146.126 155.267 145.736 154.921 145.233 154.678C144.748 154.418 144.167 154.288 143.491 154.288C142.469 154.288 141.619 154.539 140.943 155.042C140.285 155.545 139.886 156.281 139.747 157.252H146.871H146.923ZM149.211 155.198C149.489 155.891 149.671 156.645 149.757 157.46C149.861 158.275 149.896 159.046 149.861 159.774H139.747C139.955 160.641 140.371 161.325 140.995 161.828C141.619 162.313 142.451 162.556 143.491 162.556C144.289 162.556 144.939 162.417 145.441 162.14C145.944 161.845 146.282 161.49 146.455 161.074L149.185 162.27C148.787 163.137 148.093 163.865 147.105 164.454C146.135 165.043 144.921 165.338 143.465 165.338C142.096 165.338 140.909 165.035 139.903 164.428C138.898 163.804 138.135 162.963 137.615 161.906C137.095 160.849 136.835 159.687 136.835 158.422C136.835 157.157 137.095 155.995 137.615 154.938C138.135 153.881 138.898 153.04 139.903 152.416C140.909 151.792 142.096 151.48 143.465 151.48C144.748 151.48 145.805 151.74 146.637 152.26C147.487 152.78 148.102 153.326 148.483 153.898C148.865 154.453 149.107 154.886 149.211 155.198Z" fill="#454B5C"/>
<g clip-path="url(#clip1_729_7518)">
<path d="M45.0575 45.869C45.0575 45.869 44.1816 45.2435 45.2326 44.4082L47.6814 42.2387C47.6814 42.2387 48.3821 41.5082 49.123 42.1446L71.7204 59.096V67.2246C71.7204 67.2246 71.7095 68.501 70.0563 68.36L45.0575 45.869Z" fill="#959DA8"/>
<path d="M50.882 51.1084L45.0575 56.3551C45.0575 56.3551 44.459 56.7962 45.0575 57.5845L47.7618 60.0216C47.7618 60.0216 48.4041 60.705 49.3529 59.9276L55.5278 55.2884L50.882 51.1084Z" fill="#808593"/>
<path d="M61.1079 51.1518L71.7898 43.0702L71.7205 34.9851C71.7205 34.9851 71.2643 33.2205 69.7425 34.1389L55.5278 46.9573L61.1079 51.1518Z" fill="#808593"/>
<path d="M70.0563 68.3708C70.6767 69 71.4285 68.7939 71.4285 68.7939L79.7529 64.7296C80.8185 64.01 80.6689 63.1169 80.6689 63.1169V38.8469C80.6689 37.7802 79.5668 37.4114 79.5668 37.4114L72.3518 33.9654C70.7752 33 69.7424 34.139 69.7424 34.139C69.7424 34.139 71.0708 33.1916 71.7204 34.9851V67.0763C71.7204 67.2969 71.673 67.5139 71.5781 67.7091C71.3883 68.0888 70.9759 68.4431 69.9869 68.2949L70.0563 68.3708Z" fill="#B5BEC4"/>
</g>
</g>
<defs>
<clipPath id="clip0_729_7518">
<rect width="200" height="200" fill="white"/>
</clipPath>
<clipPath id="clip1_729_7518">
<rect width="37" height="36" fill="white" transform="translate(44 33)"/>
</clipPath>
</defs>
</svg>