<?xml version="1.0" encoding="utf-8"?>
<!-- Generator: Adobe Illustrator 26.3.1, SVG Export Plug-In . SVG Version: 6.00 Build 0)  -->
<svg version="1.1" id="레이어_1" xmlns="http://www.w3.org/2000/svg" xmlns:xlink="http://www.w3.org/1999/xlink" x="0px"
	 y="0px" viewBox="0 0 160 160" style="enable-background:new 0 0 160 160;" xml:space="preserve">
<style type="text/css">
	.st0{fill:#131417;}
	.st1{fill:none;stroke:#FFCC00;stroke-width:1.2;}
	.st2{fill:#C4C9D4;}
	.st3{fill-rule:evenodd;clip-rule:evenodd;fill:#C4C9D4;}
	.st4{fill:none;}
	.st5{fill:#FFFFFF;}
	.st6{fill:#4F82F6;}
</style>
<path class="st0" d="M8,0h144c4.4,0,8,3.6,8,8v144c0,4.4-3.6,8-8,8H8c-4.4,0-8-3.6-8-8V8C0,3.6,3.6,0,8,0z"/>
<path class="st1" d="M81.9,104.1V70.5"/>
<path class="st1" d="M122.2,67.7v6c0,7.1-5.7,12.8-12.8,12.8H94.6c-7.1,0-12.8,5.7-12.8,12.8v4.4"/>
<path class="st1" d="M39,69.7v4.4c0,7.1,5.7,12.8,12.8,12.8H69c7.1,0,12.8,5.7,12.8,12.8v4.4"/>
<path class="st2" d="M113.6,50.9c0.2-0.2,0.4-0.2,0.6-0.2h20.4c0.4,0,0.6,0.4,0.3,0.7l-4,4c-0.2,0.2-0.4,0.2-0.6,0.2h-20.4
	c-0.4,0-0.6-0.5-0.3-0.7L113.6,50.9z"/>
<path class="st2" d="M113.6,35.8c0.2-0.2,0.4-0.2,0.6-0.2h20.4c0.4,0,0.6,0.5,0.3,0.7l-4,4c-0.2,0.2-0.4,0.2-0.6,0.2h-20.4
	c-0.4,0-0.6-0.4-0.3-0.7L113.6,35.8z"/>
<path class="st2" d="M130.9,43.3c-0.2-0.2-0.4-0.2-0.6-0.2h-20.4c-0.4,0-0.6,0.5-0.3,0.7l4,4c0.2,0.2,0.4,0.2,0.6,0.2h20.4
	c0.4,0,0.6-0.5,0.3-0.7L130.9,43.3z"/>
<path class="st3" d="M81.7,58.4c7.1,0,12.8-5.7,12.8-12.8c0-7.1-5.7-12.8-12.8-12.8c-7.1,0-12.8,5.7-12.8,12.8
	C68.9,52.6,74.6,58.4,81.7,58.4z M81.7,34.7c-0.1-0.1-0.2-0.1-0.2-0.1s-0.1,0-0.2,0.1c-0.1,0.1-0.2,0.3-0.4,0.5
	c-0.3,0.5-0.5,1.3-0.7,2.3c-0.2,1.1-0.4,2.5-0.6,4c0.6,0.3,1.2,0.6,1.8,0.9c0.6-0.3,1.2-0.7,1.8-0.9c-0.1-1.5-0.3-2.9-0.6-4
	c-0.2-1-0.5-1.8-0.7-2.3C82,35,81.8,34.8,81.7,34.7z M81.1,42.8c-0.5-0.2-0.9-0.5-1.4-0.7c0,0.5-0.1,1-0.1,1.5
	c0.2-0.1,0.5-0.3,0.7-0.4C80.6,43,80.8,42.9,81.1,42.8z M79.3,41.3c0.4-4.2,1.3-7.2,2.3-7.2s2,3,2.3,7.2c0.8-0.4,1.6-0.7,2.4-1
	c0,0,0,0,0,0c0-0.4,0.3-0.8,0.8-0.8c0.3,0,0.5,0.1,0.6,0.3c1.9-0.6,3.3-0.7,3.6-0.1c0.5,0.9-1.6,3.2-5.1,5.6
	c3.5,2.4,5.6,4.7,5.1,5.6c-0.5,0.9-3.6,0.2-7.4-1.6c-0.4,4.2-1.3,7.2-2.3,7.2c-0.6,0-1.1-1-1.6-2.5c-0.3-0.1-0.6-0.4-0.6-0.8
	c0-0.2,0.1-0.5,0.3-0.6c-0.2-1-0.3-2.1-0.4-3.3c-3.8,1.8-6.8,2.5-7.4,1.6c-0.5-0.9,1.6-3.2,5.1-5.6c-0.7-0.5-1.4-1-2-1.5
	c-0.1,0.1-0.3,0.1-0.4,0.1c-0.4,0-0.8-0.4-0.8-0.8c0-0.1,0-0.2,0.1-0.3c-1.5-1.4-2.3-2.6-2-3.2C72.4,38.8,75.4,39.5,79.3,41.3z
	 M83.9,41.8c0.9-0.4,1.7-0.8,2.5-1.1c0.1,0.2,0.4,0.3,0.6,0.3c0.4,0,0.7-0.3,0.8-0.8c0.9-0.3,1.7-0.4,2.2-0.5c0.3,0,0.5,0,0.6,0.1
	c0.1,0,0.2,0.1,0.2,0.1c0,0,0,0.1,0,0.2c0,0.1-0.1,0.3-0.3,0.6c-0.3,0.5-0.8,1.1-1.6,1.8c-0.8,0.8-1.9,1.6-3.2,2.5
	c-0.6-0.4-1.1-0.7-1.7-1.1C84,43.2,84,42.5,83.9,41.8z M81.1,55.4c-0.2-0.4-0.4-0.9-0.5-1.5c0.3-0.1,0.4-0.4,0.4-0.7
	c0-0.4-0.3-0.8-0.8-0.8c0,0,0,0,0,0c0,0,0,0,0,0c-0.2-1-0.3-2.1-0.4-3.3c0.6-0.3,1.2-0.6,1.8-0.9c0.6,0.3,1.2,0.7,1.8,0.9
	c-0.1,1.5-0.3,2.9-0.6,4c-0.2,1-0.5,1.8-0.7,2.3c-0.1,0.3-0.3,0.4-0.4,0.5C81.6,56,81.6,56,81.6,56s-0.1,0-0.2-0.1
	C81.3,55.8,81.2,55.7,81.1,55.4z M77.4,45c-0.8-0.5-1.5-1.1-2.1-1.6c0-0.1,0-0.2,0-0.3c0-0.4-0.3-0.8-0.8-0.8c-0.1,0-0.3,0-0.4,0.1
	c-0.7-0.7-1.3-1.3-1.6-1.8c-0.2-0.2-0.2-0.4-0.3-0.6c0-0.1,0-0.2,0-0.2c0,0,0-0.1,0.2-0.1c0.1,0,0.3-0.1,0.6-0.1
	c0.6,0,1.4,0.2,2.3,0.5c1.1,0.3,2.4,0.9,3.8,1.5c0,0.7-0.1,1.4-0.1,2.1C78.5,44.3,77.9,44.7,77.4,45z M77.4,45.6
	c-1.3,0.9-2.3,1.7-3.2,2.5c-0.8,0.7-1.3,1.3-1.6,1.8c-0.2,0.2-0.2,0.4-0.3,0.6c0,0.1,0,0.2,0,0.2c0,0,0,0.1,0.2,0.1
	c0.1,0,0.3,0.1,0.6,0.1c0.6,0,1.4-0.2,2.3-0.5c1.1-0.3,2.4-0.9,3.8-1.5c0-0.7-0.1-1.4-0.1-2.1C78.5,46.4,77.9,46,77.4,45.6z
	 M79.1,46.2c-0.4-0.3-0.9-0.6-1.3-0.8c0.4-0.3,0.8-0.6,1.3-0.8c0,0.3,0,0.5,0,0.8C79.1,45.6,79.1,45.9,79.1,46.2z M79.6,46.5
	c0-0.4,0-0.8,0-1.1c0-0.4,0-0.8,0-1.1c0.3-0.2,0.6-0.4,1-0.6c0.3-0.2,0.7-0.4,1-0.6c0.3,0.2,0.7,0.4,1,0.6c0.3,0.2,0.7,0.4,1,0.6
	c0,0.4,0,0.8,0,1.1c0,0.4,0,0.8,0,1.1c-0.3,0.2-0.6,0.4-1,0.6c-0.3,0.2-0.7,0.4-1,0.6c-0.3-0.2-0.7-0.4-1-0.6
	C80.3,46.9,79.9,46.7,79.6,46.5z M79.6,47.1c0,0.5,0,1,0.1,1.5c0.4-0.2,0.9-0.4,1.4-0.7c-0.2-0.1-0.5-0.3-0.7-0.4
	C80.1,47.3,79.9,47.2,79.6,47.1z M83.9,48.8c1.4,0.7,2.7,1.2,3.8,1.5c1,0.3,1.8,0.5,2.3,0.5c0.3,0,0.5,0,0.6-0.1
	c0.1,0,0.2-0.1,0.2-0.1c0,0,0-0.1,0-0.2c0-0.1-0.1-0.3-0.3-0.6c-0.3-0.5-0.8-1.1-1.6-1.8c-0.8-0.8-1.9-1.6-3.2-2.5
	c-0.6,0.4-1.1,0.7-1.7,1.1C84,47.5,84,48.2,83.9,48.8z M84.1,44.5c0.4,0.3,0.9,0.6,1.3,0.8c-0.4,0.3-0.8,0.6-1.3,0.8
	c0-0.3,0-0.5,0-0.8C84.1,45.1,84.1,44.8,84.1,44.5z M83.5,43.6c0-0.5,0-1-0.1-1.5c-0.4,0.2-0.9,0.4-1.4,0.7c0.2,0.1,0.5,0.3,0.7,0.4
	C83.1,43.3,83.3,43.5,83.5,43.6z M83.5,48.6c-0.4-0.2-0.9-0.4-1.4-0.7c0.2-0.1,0.5-0.3,0.7-0.4c0.2-0.1,0.5-0.3,0.7-0.4
	C83.5,47.6,83.5,48.1,83.5,48.6z M83,45.6c0,0.7-0.6,1.3-1.3,1.3c-0.7,0-1.3-0.6-1.3-1.3c0-0.7,0.6-1.3,1.3-1.3
	C82.4,44.3,83,44.8,83,45.6z"/>
<rect x="37.7" y="-33" class="st4" width="28" height="28"/>
<path class="st2" d="M46.8,34.1L41.4,42c-0.4,0.5,0.3,1.2,0.9,0.7l5.3-4.6c0.1-0.1,0.3,0,0.3,0.2v14.3c0,0.2-0.3,0.3-0.4,0.1
	l-15.9-19c-0.5-0.6-1.3-1-2.1-1h-0.6c-1.5,0-2.7,1.2-2.7,2.7v20.1c0,1.5,1.2,2.7,2.7,2.7c0.9,0,1.8-0.5,2.3-1.3l5.3-7.9
	c0.4-0.5-0.3-1.2-0.9-0.7l-5.3,4.5c-0.1,0.1-0.3,0-0.3-0.2V38.5c0-0.2,0.3-0.3,0.4-0.1l15.9,19c0.5,0.6,1.3,1,2.1,1h0.6
	c1.5,0,2.7-1.2,2.7-2.7V35.5c0-1.5-1.2-2.7-2.7-2.7C48.1,32.8,47.3,33.3,46.8,34.1z"/>
<g>
	<path class="st5" d="M54,126.8v3.2c-1.6-0.6-3.4-0.6-5,0v-16h2.9c0.6,0,1.1,0.2,1.5,0.6c0.4,0.4,0.6,1,0.6,1.5v1.5L54,126.8z"/>
	<path class="st6" d="M54,120v10c-1.6-0.6-3.4-0.6-5,0v-2.3c0-1.7,0.5-3.3,1.4-4.6C51.3,121.7,52.5,120.6,54,120L54,120z"/>
	<path class="st5" d="M57.1,114c-0.3,0-0.5,0.1-0.8,0.2c-0.3,0.1-0.5,0.3-0.7,0.5c-0.2,0.2-0.3,0.4-0.5,0.7
		c-0.1,0.3-0.2,0.5-0.2,0.8V130c1.5-0.6,2.7-1.6,3.6-2.9c0.9-1.3,1.4-2.9,1.4-4.5V114H57.1z"/>
	<path class="st5" d="M48,117.6V114h-5v9.7l5,6.3v-3.6h0L48,117.6L48,117.6z"/>
	<path class="st5" d="M75.7,130.1c-1.5,0-2.9-0.4-4-1.1c-1.2-0.7-2.1-1.7-2.7-2.9c-0.6-1.2-0.9-2.5-0.9-4c0-1.4,0.3-2.8,0.9-4
		c0.6-1.2,1.5-2.2,2.7-2.9c1.2-0.7,2.5-1.1,4-1.1c1,0,2,0.2,3,0.6c0.9,0.4,1.8,1,2.5,1.7l-1.7,1.9c-0.4-0.5-1-0.8-1.7-1.1
		c-0.7-0.3-1.4-0.4-2.1-0.4c-1,0-1.9,0.2-2.7,0.7c-0.8,0.5-1.4,1.1-1.8,1.9c-0.4,0.8-0.6,1.7-0.6,2.6c0,1,0.2,1.9,0.6,2.7
		c0.4,0.8,1,1.4,1.8,1.9c0.8,0.5,1.7,0.7,2.7,0.7c0.7,0,1.4-0.1,2.1-0.4c0.7-0.3,1.3-0.7,1.7-1.1l1.7,1.9c-0.7,0.7-1.5,1.3-2.5,1.7
		C77.7,129.9,76.7,130.1,75.7,130.1z M87.8,127.6c0.6,0,1.1-0.1,1.6-0.4c0.4-0.3,0.8-0.7,1-1.1c0.2-0.5,0.4-1,0.4-1.6
		c0-0.6-0.1-1.2-0.4-1.6c-0.2-0.5-0.6-0.9-1-1.1c-0.4-0.3-1-0.4-1.6-0.4c-0.6,0-1.1,0.1-1.6,0.4c-0.4,0.3-0.8,0.6-1,1.1
		c-0.2,0.5-0.3,1-0.3,1.6c0,0.6,0.1,1.2,0.3,1.6c0.2,0.5,0.6,0.9,1,1.1C86.7,127.5,87.2,127.6,87.8,127.6z M87.8,118.9
		c1,0,2,0.2,2.8,0.7c0.8,0.5,1.4,1.2,1.8,2c0.4,0.8,0.6,1.8,0.6,2.8s-0.2,1.9-0.6,2.8c-0.4,0.8-1,1.5-1.8,2
		c-0.8,0.5-1.7,0.7-2.8,0.7c-1,0-2-0.2-2.8-0.7c-0.8-0.5-1.4-1.2-1.8-2c-0.4-0.8-0.6-1.8-0.6-2.8s0.2-1.9,0.6-2.8
		c0.4-0.8,1-1.5,1.8-2C85.9,119.1,86.8,118.9,87.8,118.9z M100.2,127.5c0.5,0,1-0.1,1.4-0.4c0.4-0.3,0.8-0.6,1-1.1
		c0.3-0.5,0.4-1,0.4-1.6c0-0.6-0.1-1.1-0.4-1.5c-0.3-0.5-0.6-0.8-1-1.1c-0.4-0.3-0.9-0.4-1.4-0.4c-0.6,0-1.1,0.1-1.5,0.4
		c-0.4,0.3-0.7,0.6-0.9,1.1c-0.2,0.4-0.3,1-0.3,1.5c0,0.6,0.1,1.1,0.3,1.6c0.2,0.4,0.5,0.8,0.9,1.1S99.6,127.5,100.2,127.5z
		 M105.7,129.7h-2.5v-1.5c-0.4,0.6-0.9,1-1.4,1.3c-0.6,0.2-1.2,0.4-1.7,0.4c-1,0-2-0.2-2.7-0.7c-0.8-0.5-1.4-1.1-1.8-2
		c-0.4-0.8-0.6-1.7-0.6-2.7c0-1,0.2-1.9,0.6-2.7c0.4-0.8,1-1.5,1.8-2c0.8-0.5,1.7-0.7,2.7-0.7c0.4,0,0.7,0.1,1.1,0.2
		c0.4,0.1,0.8,0.3,1.1,0.5c0.4,0.2,0.7,0.6,0.9,1V114h2.5V129.7z M115.7,123.5c-0.1-0.5-0.2-0.9-0.4-1.2c-0.2-0.4-0.5-0.6-0.9-0.8
		c-0.4-0.2-0.9-0.3-1.4-0.3c-0.8,0-1.5,0.2-2.1,0.6c-0.5,0.4-0.8,1-1,1.8H115.7L115.7,123.5z M117.6,121.9c0.2,0.6,0.4,1.2,0.4,1.8
		c0.1,0.7,0.1,1.3,0.1,1.9H110c0.2,0.7,0.5,1.2,1,1.6c0.5,0.4,1.2,0.6,2,0.6c0.6,0,1.2-0.1,1.6-0.3c0.4-0.2,0.7-0.5,0.8-0.9l2.2,1
		c-0.3,0.7-0.9,1.3-1.7,1.7c-0.8,0.5-1.8,0.7-2.9,0.7c-1.1,0-2.1-0.2-2.9-0.7c-0.8-0.5-1.4-1.2-1.8-2c-0.4-0.8-0.6-1.8-0.6-2.8
		s0.2-1.9,0.6-2.8c0.4-0.8,1-1.5,1.8-2c0.8-0.5,1.8-0.7,2.9-0.7c1,0,1.9,0.2,2.6,0.6c0.7,0.4,1.2,0.9,1.5,1.3
		C117.3,121.3,117.5,121.6,117.6,121.9z"/>
</g>
</svg>