<svg width="260" height="160" viewBox="0 0 260 160" fill="none" xmlns="http://www.w3.org/2000/svg">
<rect width="260" height="160" rx="8" fill="#131417"/>
<path d="M35.497 38.8903L48.8956 35.0808C50.2123 34.705 51.5238 35.6868 51.5238 37.0469V101.693C51.5238 102.317 50.9647 102.8 50.3411 102.706C45.3398 101.959 40.4185 100.977 35.5821 99.7704C34.6622 99.5403 34.0155 98.7247 34.0155 97.7839L34 40.8564C34 39.9437 34.6081 39.1409 35.4945 38.8903H35.497Z" fill="white"/>
<path d="M96.4763 37.0487V101.694C96.4763 102.317 97.0354 102.8 97.659 102.706C102.66 101.959 107.582 100.978 112.418 99.772C113.338 99.542 113.985 98.7269 113.985 97.7865L114 40.6798C114 39.7573 113.379 38.9498 112.483 38.7071L99.0839 35.0734C97.7723 34.7182 96.4788 35.6969 96.4788 37.0461L96.4763 37.0487Z" fill="white"/>
<path d="M91.1403 40.1063C91.1403 38.6688 89.7047 37.6719 88.3594 38.1768C83.772 39.8976 78.8057 40.8379 73.6177 40.8379C68.4298 40.8379 63.4635 39.8951 58.876 38.1768C57.5307 37.6719 56.0952 38.6688 56.0952 40.1063V103.107C56.0952 103.635 56.4895 104.078 57.0152 104.135C62.4712 104.709 68.0123 105 73.6203 105C79.2283 105 84.7668 104.707 90.2202 104.135C90.7459 104.081 91.1428 103.635 91.1428 103.107V40.1063H91.1403ZM81.1174 54.0481L71.0662 89.0828C70.94 89.5259 70.5354 89.8299 70.0766 89.8299H67.1077C66.4221 89.8299 65.9273 89.173 66.1154 88.5161L76.1666 53.4813C76.2929 53.0383 76.6975 52.7343 77.1563 52.7343H80.1252C80.8108 52.7343 81.3055 53.3912 81.1148 54.0481H81.1174Z" fill="url(#paint0_linear_1504_8490)"/>
<path d="M55.3 119.3H78.5509V127.602H74.7588C73.4281 124.556 70.4343 122.413 66.9417 122.413C62.2183 122.413 58.3932 126.263 58.3932 130.983C58.3932 135.704 62.2183 139.587 66.9417 139.587C70.3679 139.587 73.3617 137.511 74.6918 134.532H78.5504V142.7H55.3V119.3Z" fill="#454B5C"/>
<g clip-path="url(#clip0_1504_8490)">
<path d="M242.835 119.327L237.41 127.378C237.034 127.927 237.756 128.59 238.275 128.129L243.614 123.483C243.758 123.367 243.96 123.454 243.96 123.656V138.171C243.96 138.373 243.7 138.459 243.585 138.315L227.425 118.981C226.906 118.346 226.155 118 225.319 118H224.741C223.241 118 222 119.241 222 120.77V141.201C222 142.73 223.241 143.971 224.77 143.971C225.723 143.971 226.617 143.481 227.137 142.644L232.562 134.593C232.937 134.044 232.215 133.381 231.696 133.842L226.357 138.459C226.213 138.575 226.011 138.488 226.011 138.286V123.8C226.011 123.598 226.271 123.512 226.386 123.656L242.546 142.99C243.065 143.625 243.845 143.971 244.653 143.971H245.23C246.759 143.971 248 142.73 248 141.201V120.77C248 119.241 246.759 118 245.23 118C244.249 118 243.354 118.491 242.835 119.327Z" fill="#454B5C"/>
</g>
<g clip-path="url(#clip1_1504_8490)">
<path d="M193.616 130.772L202.499 139.59C207.167 134.638 207.167 126.906 202.499 121.955" fill="#454B5C"/>
<path d="M192.967 131.355L184.215 140.043L192.967 143.674L201.72 140.043" fill="#454B5C"/>
<path d="M192.786 130.611L201.864 121.598L193.499 118.163L185.2 138.197L192.786 130.611Z" fill="#454B5C"/>
<path d="M180 130.772C179.994 134.052 181.247 137.208 183.501 139.59L192.188 118.647" fill="#454B5C"/>
</g>
<path fill-rule="evenodd" clip-rule="evenodd" d="M159.233 125.484L153.695 125.258L157.456 121.248L155.943 119.758L151.864 123.453L151.643 118H149.503L149.274 123.452L145.2 119.749L143.686 121.239L147.44 125.253L141.9 125.471V127.578L147.438 127.804L143.677 131.813L145.191 133.303L149.206 129.665L149.381 138.497L146.178 138.727V140.689L149.429 140.932L149.49 144H151.63L151.693 140.937L154.979 140.692V138.729L151.743 138.496L151.925 129.669L155.933 133.312L157.447 131.822L153.693 127.808L159.233 127.591V125.484Z" fill="#454B5C"/>
<g clip-path="url(#clip2_1504_8490)">
<path d="M32.0464 126.694H29.7562C29.6241 126.694 29.4935 126.665 29.3732 126.611C29.2528 126.556 29.1456 126.476 29.0585 126.377L28.1296 125.328C28.0609 125.251 27.9768 125.19 27.8827 125.148C27.7887 125.106 27.6868 125.084 27.5838 125.084C27.4807 125.084 27.3789 125.106 27.2848 125.148C27.1908 125.19 27.1067 125.251 27.038 125.328L26.2418 126.227C26.1135 126.373 25.9555 126.491 25.7784 126.571C25.6012 126.652 25.409 126.693 25.2144 126.694H12.6806C12.3193 127.729 12.0906 128.807 12 129.9H23.8318C23.9343 129.9 24.0357 129.879 24.1299 129.838C24.2241 129.798 24.309 129.739 24.3797 129.665L25.4841 128.513C25.5525 128.442 25.6343 128.386 25.7247 128.348C25.8152 128.31 25.9124 128.29 26.0106 128.29H26.0534C26.1567 128.291 26.2587 128.313 26.353 128.355C26.4474 128.397 26.5319 128.458 26.6014 128.534L27.5303 129.583C27.6172 129.683 27.7244 129.763 27.8448 129.817C27.9651 129.872 28.0958 129.9 28.228 129.9H37.8809C37.7924 128.806 37.5637 127.729 37.2003 126.694H32.0635H32.0464Z" fill="#454B5C"/>
<path d="M19.1576 136.643C19.26 136.642 19.3613 136.621 19.4554 136.58C19.5495 136.54 19.6345 136.481 19.7055 136.407L20.8056 135.256C20.8744 135.186 20.9563 135.13 21.0467 135.092C21.137 135.054 21.234 135.034 21.3321 135.033H21.3792C21.4825 135.034 21.5845 135.056 21.6788 135.098C21.7732 135.14 21.8577 135.201 21.9271 135.277L22.8518 136.326C22.9392 136.425 23.0466 136.504 23.1668 136.559C23.287 136.613 23.4175 136.642 23.5495 136.643H36.6355C37.1341 135.618 37.494 134.531 37.7057 133.411H25.1419C25.0109 133.41 24.8814 133.382 24.7619 133.328C24.6424 133.275 24.5356 133.196 24.4485 133.098L23.5196 132.05C23.451 131.972 23.3667 131.909 23.2723 131.867C23.1778 131.824 23.0753 131.801 22.9716 131.801C22.8685 131.801 22.7665 131.823 22.6726 131.866C22.5788 131.909 22.4953 131.971 22.428 132.05L21.6318 132.948C21.5023 133.094 21.3434 133.211 21.1655 133.29C20.9877 133.37 20.795 133.411 20.6001 133.411H12.1758C12.3854 134.534 12.7438 135.623 13.2417 136.651L19.1576 136.643Z" fill="#454B5C"/>
<path d="M28.4422 123.188C28.5453 123.188 28.6474 123.167 28.7423 123.127C28.8372 123.086 28.9229 123.027 28.9944 122.953L30.0945 121.806C30.1623 121.734 30.244 121.677 30.3345 121.638C30.425 121.599 30.5225 121.579 30.621 121.579H30.6681C30.7713 121.578 30.8733 121.6 30.9671 121.643C31.061 121.686 31.1444 121.749 31.2118 121.827L32.1407 122.876C32.2288 122.973 32.3364 123.052 32.4566 123.106C32.5767 123.159 32.7068 123.188 32.8384 123.188H35.3255C34.1155 121.577 32.5473 120.27 30.745 119.369C28.9426 118.469 26.9554 118 24.9406 118C22.9258 118 20.9386 118.469 19.1362 119.369C17.3338 120.27 15.7656 121.577 14.5557 123.188H28.4422Z" fill="#454B5C"/>
<path d="M23.4423 139.853H20.0392C19.9077 139.852 19.7777 139.824 19.6581 139.769C19.5385 139.715 19.432 139.635 19.3457 139.536L18.4211 138.487C18.3521 138.41 18.2676 138.349 18.1732 138.307C18.0788 138.264 17.9766 138.243 17.8732 138.243C17.7698 138.243 17.6676 138.264 17.5732 138.307C17.4788 138.349 17.3943 138.41 17.3253 138.487L16.5248 139.403C16.3967 139.55 16.2387 139.667 16.0615 139.748C15.8844 139.828 15.692 139.87 15.4974 139.87H15.446C16.6609 141.173 18.131 142.212 19.7648 142.923C21.3986 143.633 23.1611 144 24.9427 144C26.7243 144 28.4869 143.633 30.1207 142.923C31.7544 142.212 33.2245 141.173 34.4394 139.87L23.4423 139.853Z" fill="#454B5C"/>
</g>
<path fill-rule="evenodd" clip-rule="evenodd" d="M101.115 139.485C101.89 140.855 103.017 141.995 104.38 142.789C105.744 143.582 107.295 144 108.874 144C110.453 144 112.003 143.582 113.367 142.789C114.73 141.995 115.857 140.855 116.633 139.485C117.428 138.113 117.847 136.556 117.847 134.971C117.847 133.386 117.428 131.829 116.633 130.456L109.808 118.544C109.715 118.379 109.579 118.242 109.415 118.146C109.251 118.05 109.064 118 108.874 118C108.683 118 108.497 118.05 108.332 118.146C108.168 118.242 108.032 118.379 107.939 118.544L101.115 130.456C100.319 131.829 99.8999 133.386 99.8999 134.971C99.8999 136.556 100.319 138.113 101.115 139.485ZM106.951 124.211L108.406 121.671C108.453 121.589 108.521 121.52 108.603 121.472C108.685 121.424 108.778 121.399 108.874 121.399C108.969 121.399 109.062 121.424 109.144 121.472C109.226 121.52 109.294 121.589 109.341 121.671L114.938 131.442C115.441 132.308 115.752 133.271 115.852 134.267C115.952 135.262 115.838 136.268 115.518 137.216C115.448 136.893 115.352 136.576 115.231 136.268C114.458 134.301 112.71 132.784 110.034 131.757C108.195 131.054 107.02 130.02 106.543 128.683C105.929 126.96 106.57 125.081 106.951 124.211ZM104.47 128.542L102.809 131.442C102.187 132.515 101.859 133.732 101.859 134.971C101.859 136.21 102.187 137.427 102.809 138.5C103.312 139.387 104.004 140.153 104.838 140.744C105.671 141.334 106.625 141.735 107.632 141.917C108.638 142.099 109.672 142.058 110.661 141.797C111.65 141.536 112.569 141.062 113.353 140.408C113.786 139.304 113.802 138.082 113.396 136.968C112.829 135.547 111.462 134.413 109.334 133.596C106.928 132.677 105.366 131.241 104.69 129.331C104.599 129.073 104.525 128.809 104.47 128.542Z" fill="#454B5C"/>
<path d="M176.192 83.216C177.573 83.216 178.749 83.0107 179.72 82.6C180.728 82.1893 181.493 81.5733 182.016 80.752C182.576 79.9307 182.856 78.9227 182.856 77.728C182.856 76.608 182.576 75.6373 182.016 74.816C181.456 73.9947 180.672 73.36 179.664 72.912C178.656 72.4267 177.499 72.184 176.192 72.184C174.885 72.184 173.728 72.4267 172.72 72.912C171.749 73.36 170.984 73.9947 170.424 74.816C169.864 75.6373 169.584 76.608 169.584 77.728C169.584 78.9227 169.845 79.9307 170.368 80.752C170.891 81.5733 171.637 82.1893 172.608 82.6C173.616 83.0107 174.811 83.216 176.192 83.216ZM176.192 91.728C173.653 91.728 171.208 91.1493 168.856 89.992C166.541 88.7973 164.656 87.136 163.2 85.008C161.781 82.88 161.072 80.4533 161.072 77.728C161.072 75.152 161.8 72.8 163.256 70.672C164.712 68.5067 166.597 66.808 168.912 65.576C171.264 64.3067 173.691 63.672 176.192 63.672C178.693 63.672 181.12 64.3067 183.472 65.576C185.824 66.808 187.728 68.5067 189.184 70.672C190.64 72.8 191.368 75.152 191.368 77.728C191.368 80.4533 190.64 82.88 189.184 85.008C187.765 87.136 185.88 88.7973 183.528 89.992C181.213 91.1493 178.768 91.728 176.192 91.728ZM162.36 72.072L174.68 49.952H184.424L172.104 72.072H162.36ZM214.205 70.024H225.485V76.552H214.205V87.784H207.725V76.552H196.445V70.024H207.725V58.744H214.205V70.024Z" fill="white"/>
<path d="M167.58 118.38C166.127 118.38 164.84 118.04 163.72 117.36C162.613 116.68 161.753 115.76 161.14 114.6C160.54 113.44 160.24 112.167 160.24 110.78C160.24 109.393 160.54 108.12 161.14 106.96C161.753 105.8 162.613 104.88 163.72 104.2C164.84 103.52 166.127 103.18 167.58 103.18C168.58 103.18 169.52 103.38 170.4 103.78C171.293 104.167 172.08 104.707 172.76 105.4L171.18 107.2C170.753 106.76 170.207 106.413 169.54 106.16C168.887 105.893 168.227 105.76 167.56 105.76C166.587 105.76 165.727 105.98 164.98 106.42C164.233 106.86 163.653 107.467 163.24 108.24C162.84 109 162.64 109.847 162.64 110.78C162.64 111.713 162.84 112.567 163.24 113.34C163.653 114.1 164.233 114.707 164.98 115.16C165.727 115.6 166.587 115.82 167.56 115.82C168.227 115.82 168.887 115.693 169.54 115.44C170.207 115.173 170.753 114.813 171.18 114.36L172.76 116.16C172.08 116.853 171.293 117.4 170.4 117.8C169.52 118.187 168.58 118.38 167.58 118.38ZM182.054 112.72C182.054 111.947 181.867 111.333 181.494 110.88C181.12 110.413 180.54 110.18 179.754 110.18C179.274 110.18 178.827 110.307 178.414 110.56C178.014 110.813 177.694 111.147 177.454 111.56C177.227 111.973 177.114 112.413 177.114 112.88V118.26H174.714V102.92H177.114V109.16C177.434 108.707 177.854 108.367 178.374 108.14C178.894 107.9 179.374 107.78 179.814 107.78C180.76 107.78 181.574 107.987 182.254 108.4C182.947 108.813 183.474 109.373 183.834 110.08C184.194 110.787 184.374 111.56 184.374 112.4V118.26H182.054V112.72ZM191.617 116.08C192.111 116.08 192.571 115.953 192.997 115.7C193.437 115.433 193.784 115.067 194.037 114.6C194.304 114.133 194.437 113.613 194.437 113.04C194.437 112.453 194.304 111.927 194.037 111.46C193.784 110.993 193.437 110.633 192.997 110.38C192.571 110.113 192.111 109.98 191.617 109.98C191.004 109.98 190.484 110.113 190.057 110.38C189.644 110.633 189.331 110.993 189.117 111.46C188.904 111.913 188.797 112.44 188.797 113.04C188.797 113.627 188.904 114.153 189.117 114.62C189.331 115.073 189.644 115.433 190.057 115.7C190.484 115.953 191.004 116.08 191.617 116.08ZM196.957 118.2H194.557V116.7C194.277 117.073 193.964 117.387 193.617 117.64C193.284 117.88 192.931 118.06 192.557 118.18C192.184 118.3 191.804 118.36 191.417 118.36C190.391 118.36 189.491 118.12 188.717 117.64C187.957 117.16 187.377 116.52 186.977 115.72C186.591 114.907 186.397 114.013 186.397 113.04C186.397 112.053 186.591 111.16 186.977 110.36C187.377 109.56 187.957 108.92 188.717 108.44C189.491 107.96 190.391 107.72 191.417 107.72C192.004 107.72 192.571 107.86 193.117 108.14C193.677 108.407 194.157 108.813 194.557 109.36V107.66H196.957V118.2ZM202.009 107.58V118.26H199.669V107.58H202.009ZM200.829 102.48C201.243 102.48 201.563 102.607 201.789 102.86C202.029 103.1 202.149 103.407 202.149 103.78C202.149 104.167 202.029 104.487 201.789 104.74C201.563 104.98 201.243 105.1 200.829 105.1C200.429 105.1 200.109 104.98 199.869 104.74C199.643 104.487 199.529 104.167 199.529 103.78C199.529 103.407 199.643 103.1 199.869 102.86C200.109 102.607 200.429 102.48 200.829 102.48ZM212.022 112.5C212.022 111.753 211.809 111.153 211.382 110.7C210.969 110.233 210.342 110 209.502 110C209.022 110 208.589 110.12 208.202 110.36C207.816 110.587 207.509 110.9 207.282 111.3C207.069 111.7 206.962 112.127 206.962 112.58V118.2H204.582V107.66H206.962V109.22C207.149 108.873 207.396 108.587 207.702 108.36C208.022 108.12 208.356 107.947 208.702 107.84C209.062 107.72 209.409 107.66 209.742 107.66C210.596 107.66 211.376 107.827 212.082 108.16C212.789 108.48 213.349 108.98 213.762 109.66C214.189 110.327 214.402 111.153 214.402 112.14V118.2H212.022V112.5ZM222.568 110.98C222.408 110.74 222.201 110.527 221.948 110.34C221.641 110.14 221.321 110.007 220.988 109.94C220.655 109.873 220.328 109.847 220.008 109.86C219.781 109.887 219.581 109.933 219.408 110C219.235 110.067 219.095 110.173 218.988 110.32C218.935 110.44 218.908 110.553 218.908 110.66C218.908 110.767 218.948 110.873 219.028 110.98C219.081 111.073 219.215 111.18 219.428 111.3C219.708 111.46 219.988 111.587 220.268 111.68L220.988 111.9C221.868 112.14 222.521 112.373 222.948 112.6C223.388 112.813 223.721 113.047 223.948 113.3C224.295 113.687 224.521 114.167 224.628 114.74C224.748 115.313 224.655 115.893 224.348 116.48C224.161 116.8 223.941 117.067 223.688 117.28C223.448 117.48 223.155 117.68 222.808 117.88C222.301 118.133 221.761 118.293 221.188 118.36C220.601 118.413 220.041 118.373 219.508 118.24C218.988 118.107 218.468 117.88 217.948 117.56C217.575 117.333 217.228 117.013 216.908 116.6C216.588 116.187 216.381 115.86 216.288 115.62L218.248 114.46L218.268 114.52C218.388 114.747 218.508 114.94 218.628 115.1C218.748 115.247 218.908 115.387 219.108 115.52C219.481 115.747 219.801 115.893 220.068 115.96C220.348 116.027 220.675 116.053 221.048 116.04C221.301 116.013 221.548 115.94 221.788 115.82C221.908 115.767 222.001 115.713 222.068 115.66C222.148 115.607 222.208 115.54 222.248 115.46C222.328 115.34 222.355 115.22 222.328 115.1C222.315 114.98 222.261 114.873 222.168 114.78C222.048 114.7 221.875 114.62 221.648 114.54C221.235 114.407 220.775 114.26 220.268 114.1L219.508 113.88C219.215 113.787 218.981 113.7 218.808 113.62C218.648 113.54 218.468 113.44 218.268 113.32C217.895 113.107 217.588 112.853 217.348 112.56C217.001 112.173 216.775 111.687 216.668 111.1C216.575 110.513 216.648 109.933 216.888 109.36C217.155 108.787 217.568 108.36 218.128 108.08C218.688 107.787 219.268 107.613 219.868 107.56C220.375 107.507 220.921 107.54 221.508 107.66C222.095 107.78 222.648 108.007 223.168 108.34C223.728 108.727 224.155 109.167 224.448 109.66L222.568 110.98Z" fill="#ECEEF4"/>
<path d="M64.2658 122.656C64.0578 121.44 63.3858 120.352 62.2658 119.392C61.0818 118.384 59.7698 117.936 58.1378 117.936C54.7458 117.936 52.0418 120.768 52.0418 123.904C52.0418 125.696 52.5858 127.2 53.8658 128.448C55.0818 129.648 56.6338 130.224 58.2818 130.224C61.0818 130.224 63.5298 128.416 64.2658 125.568H61.0978C60.4738 126.896 59.4498 127.568 58.2498 127.568C56.3778 127.568 55.0658 125.968 55.0658 124.048C55.0658 122.208 56.3458 120.592 58.2338 120.592C59.4658 120.592 60.5858 121.36 61.0978 122.656H64.2658ZM74.7463 125.52C74.7463 122.832 72.6343 120.832 69.9623 120.832C67.3063 120.832 65.1783 122.8 65.1783 125.552C65.1783 128.272 67.2583 130.272 69.9623 130.272C72.6343 130.272 74.7463 128.304 74.7463 125.52ZM69.9623 127.792C68.7623 127.792 67.8343 126.768 67.8343 125.552C67.8343 124.336 68.7783 123.312 69.9463 123.312C71.1943 123.312 72.0903 124.368 72.0903 125.552C72.0903 126.736 71.2103 127.792 69.9623 127.792ZM85.3706 130V118.16H82.7146V121.872C81.9626 121.12 81.1306 120.816 80.1066 120.816C77.5146 120.816 75.7066 122.88 75.7066 125.536C75.7066 128.224 77.4666 130.288 80.1546 130.288C81.4186 130.288 82.3146 129.856 82.8106 129.04H82.8426V130H85.3706ZM80.5866 127.808C79.3066 127.808 78.3626 126.864 78.3626 125.52C78.3626 124.224 79.3546 123.296 80.6026 123.296C81.9146 123.296 82.8586 124.288 82.8586 125.52C82.8586 126.832 81.8826 127.808 80.5866 127.808ZM95.9664 126.368C96.0144 126.128 96.0304 125.92 96.0304 125.664C96.0304 122.912 93.9984 120.816 91.3424 120.816C88.7344 120.816 86.6864 123.024 86.6864 125.584C86.6864 128.224 88.8304 130.288 91.3904 130.288C93.2624 130.288 94.8784 129.152 95.7264 127.216H93.0064C92.5744 127.776 92.1104 128.048 91.3904 128.048C90.3024 128.048 89.4544 127.376 89.3104 126.368H95.9664ZM89.3424 124.576C89.5504 123.632 90.3824 123.056 91.3424 123.056C92.3664 123.056 93.1664 123.664 93.3744 124.576H89.3424Z" fill="white"/>
<defs>
<linearGradient id="paint0_linear_1504_8490" x1="73.6177" y1="38.0454" x2="73.6177" y2="105.003" gradientUnits="userSpaceOnUse">
<stop offset="0.24" stop-color="#C285FF"/>
<stop offset="0.78" stop-color="#2D6CFF"/>
<stop offset="1" stop-color="#6AB8FF"/>
</linearGradient>
<clipPath id="clip0_1504_8490">
<rect width="26" height="26" fill="white" transform="translate(222 118)"/>
</clipPath>
<clipPath id="clip1_1504_8490">
<rect width="26" height="26" fill="white" transform="translate(180 118)"/>
</clipPath>
<clipPath id="clip2_1504_8490">
<rect width="26" height="26" fill="white" transform="translate(12 118)"/>
</clipPath>
</defs>
</svg>
