<svg width="34" height="34" viewBox="0 0 34 34" fill="none" xmlns="http://www.w3.org/2000/svg">
<path d="M23.9999 11C23.7347 11 23.4803 11.1054 23.2928 11.2929C23.1053 11.4804 22.9999 11.7348 22.9999 12V16C22.9999 16.2652 22.8945 16.5196 22.707 16.7071C22.5195 16.8946 22.2651 17 21.9999 17H12.4099L13.7099 15.71C13.8982 15.5217 14.004 15.2663 14.004 15C14.004 14.7337 13.8982 14.4783 13.7099 14.29C13.5216 14.1017 13.2662 13.9959 12.9999 13.9959C12.7336 13.9959 12.4782 14.1017 12.2899 14.29L9.2899 17.29C9.19886 17.3851 9.12749 17.4972 9.0799 17.62C8.97988 17.8635 8.97988 18.1365 9.0799 18.38C9.12749 18.5028 9.19886 18.6149 9.2899 18.71L12.2899 21.71C12.3829 21.8037 12.4935 21.8781 12.6153 21.9289C12.7372 21.9797 12.8679 22.0058 12.9999 22.0058C13.1319 22.0058 13.2626 21.9797 13.3845 21.9289C13.5063 21.8781 13.6169 21.8037 13.7099 21.71C13.8036 21.617 13.878 21.5064 13.9288 21.3846C13.9796 21.2627 14.0057 21.132 14.0057 21C14.0057 20.868 13.9796 20.7373 13.9288 20.6154C13.878 20.4936 13.8036 20.383 13.7099 20.29L12.4099 19H21.9999C22.7955 19 23.5586 18.6839 24.1212 18.1213C24.6838 17.5587 24.9999 16.7956 24.9999 16V12C24.9999 11.7348 24.8945 11.4804 24.707 11.2929C24.5195 11.1054 24.2651 11 23.9999 11Z" fill="#6E7891"/>
</svg>
