<svg width="24" height="24" viewBox="0 0 24 24" fill="none" xmlns="http://www.w3.org/2000/svg">
<path d="M14.8688 10.0692V20.9753C13.0072 20.3519 10.9931 20.3519 9.13135 20.9753V18.4304C9.13163 16.6204 9.67921 14.8529 10.7023 13.3597C11.7253 11.8666 13.1759 10.7178 14.8637 10.0641L14.8688 10.0692Z" fill="#7AA2FF"/>
<path fill-rule="evenodd" clip-rule="evenodd" d="M14.8653 10.0657L14.8637 10.0641C13.1759 10.7179 11.7253 11.8667 10.7023 13.3598C9.67921 14.8529 9.13163 16.6205 9.13135 18.4305V20.9737C9.12956 20.9743 9.12777 20.9749 9.12598 20.9755V3.47687H12.4687C13.1042 3.47687 13.7138 3.72927 14.1634 4.17857C14.6129 4.62787 14.8657 5.2373 14.866 5.87288V7.51435L14.8653 10.0657ZM14.8634 20.9736C13.8224 20.6257 12.7339 20.4727 11.6511 20.5145C12.734 20.4733 13.8225 20.627 14.8634 20.9755V20.9736Z" fill="white"/>
<path d="M18.4558 3.47687C18.141 3.47637 17.8292 3.538 17.5383 3.65823C17.2474 3.77846 16.9831 3.95494 16.7604 4.17753C16.5379 4.40012 16.3614 4.66446 16.2412 4.95538C16.1209 5.24631 16.0593 5.5581 16.0598 5.87289V21.4769C17.7487 20.824 19.2005 19.6753 20.2243 18.1819C21.2481 16.6884 21.7961 14.92 21.796 13.1093V3.47687H18.4558Z" fill="white"/>
<path d="M7.94028 7.51433V3.47687H2.2041V14.3919L7.94028 21.4756V17.4381H7.9365V7.51433H7.94028Z" fill="white"/>
</svg>
