<svg xmlns="http://www.w3.org/2000/svg" viewBox="0 0 1042.06 263.15"><defs><style>.cls-1{fill:#03040a;}.cls-2{fill:#4f82f6;}.cls-3{fill:#3c48df;}</style></defs><g id="레이어_2" data-name="레이어 2"><g id="svg2"><g id="g12"><path id="path14" class="cls-1" d="M332.42,1.82h19.81l16.4,69.8,16.8-69.8H400.3l16.93,69.93L433.5,1.82h19.66l-26,96.36H409.67L392.75,29.82,376,98.18H358Z"/></g><g id="g16"><path id="path18" class="cls-1" d="M468.23,1.82h54V18.88H487.63V40.76h34V57.81h-34V81.12h34.65V98.18h-54Z"/></g><g id="g20"><path id="path22" class="cls-1" d="M541.93,1.82h19.4v79.3H593V98.18H541.93Z"/></g><g id="g24"><path id="path26" class="cls-1" d="M607.16,1.82h19.4v79.3H658.2V98.18h-51Z"/></g><g id="g36"><path id="path38" class="cls-1" d="M691.41,81.12h13.67c20.83,0,28.9-13.67,28.9-31,0-7.55-2-15.62-6.51-21.61-4-5.21-10.54-9.64-22.26-9.64h-13.8ZM672,1.82h30.6c12,0,29.43,1.18,40.89,16.67,7,8.85,9.9,19.53,9.9,31.38,0,27.21-14.33,48.31-49.35,48.31H672Z"/></g><g id="g40"><path id="path42" class="cls-1" d="M786.33,50c0,17.58,12.63,32.94,31.38,32.94,19.53,0,31-16.92,31-32.81,0-16.14-11.46-33.07-31.12-33.07-19.27,0-31.25,15.88-31.25,32.81Zm-19.4.78C766.93,19.92,790.63,0,817.45,0c29.16,0,50.66,22.66,50.66,50s-21.37,50-50.78,50-50.39-23.31-50.39-49.09Z"/></g><g id="g44"><path id="path46" class="cls-1" d="M947.53,68.62l-.36-66.8h18.62V98.18H948.61l-44.4-66.67.39,66.67H886V1.82h17.31Z"/></g><g id="g48"><path id="path50" class="cls-1" d="M988,1.82h54V18.88h-34.64V40.76h34V57.81h-34V81.12h34.64V98.18H988Z"/></g><g id="g72"><path id="path74" class="cls-1" d="M179.42,32c0-16.18-16.28-32-36.4-32H92.43V232.69a118.91,118.91,0,0,1,87,0"/></g><g id="g76"><path id="path78" class="cls-1" d="M76.5,0H0V145.56L76.5,240"/></g><g id="g80"><path id="path82" class="cls-2" d="M179.42,75.9a118.41,118.41,0,0,0-87,114.26v42.53a118.91,118.91,0,0,1,87,0Z"/></g><g id="g84"><path id="path86" class="cls-3" d="M215.38,30.77a6.52,6.52,0,0,1,.17-1.15,12.67,12.67,0,0,1,1.19-3.32,10.57,10.57,0,0,1,.61-1,9,9,0,0,1,.7-.93c.25-.31.51-.6.78-.88s.58-.54.87-.79.63-.48,1-.7a10.47,10.47,0,0,1,1-.6,9.56,9.56,0,0,1,1.07-.51,11.14,11.14,0,0,1,1.1-.4c.38-.11.76-.21,1.15-.29s.77-.13,1.16-.17a11.61,11.61,0,0,1,1.18,0h1.17c.39,0,.78.1,1.16.17s.77.18,1.15.29a11.14,11.14,0,0,1,1.1.4,9.56,9.56,0,0,1,1.07.51,10.47,10.47,0,0,1,1,.6c.32.22.63.45.94.7a11,11,0,0,1,.88.79,10.89,10.89,0,0,1,.78.88,8.07,8.07,0,0,1,.7.93,10.57,10.57,0,0,1,.61,1c.18.35.35.7.51,1.07a10.24,10.24,0,0,1,.39,1.1,11.38,11.38,0,0,1,.29,1.15c.07.39.13.76.17,1.15s.06.8.06,1.19a7.65,7.65,0,0,1-.06,1.17c-.07.39-.1.78-.17,1.17a11.38,11.38,0,0,1-.29,1.15c-.12.37-.25.74-.39,1.1a10.48,10.48,0,0,1-.51,1.07,10.27,10.27,0,0,1-.61,1,9.29,9.29,0,0,1-.7,1c-.25.3-.51.6-.78.87s-.58.55-.88.8-.62.48-.94.7a10.47,10.47,0,0,1-1,.6c-.35.18-.7.35-1.07.51a11.07,11.07,0,0,1-1.1.39,13.12,13.12,0,0,1-2.31.46h-1.17a11.61,11.61,0,0,1-1.18,0,13.12,13.12,0,0,1-2.31-.46c-.37-.11-.74-.25-1.1-.39s-.73-.33-1.07-.51-.69-.39-1-.6-.63-.46-1-.7-.58-.52-.87-.8a10.75,10.75,0,0,1-.78-.87,9.29,9.29,0,0,1-.7-1,10.27,10.27,0,0,1-.61-1,10.41,10.41,0,0,1-.5-1.07c-.15-.36-.28-.74-.4-1.1a11.38,11.38,0,0,1-.29-1.15c-.07-.38-.13-.78-.17-1.17a11.42,11.42,0,0,1,0-1.17A11.79,11.79,0,0,1,215.38,30.77ZM227.32,0a31.91,31.91,0,0,0-31.95,31.87V240c1.39-.53,2.78-1.11,4.16-1.7,2.73-1.19,5.42-2.47,8-3.84l.38-.21a119.3,119.3,0,0,0,28.17-20.59c1-1,2.08-2.08,3.08-3.13l.24-.26a119.79,119.79,0,0,0,21.9-32.78c.13-.29.23-.57.36-.87,1.08-2.44,2.1-4.92,3-7.45.06-.16.12-.33.17-.5.44-1.3.88-2.5,1.3-3.78.08-.23.14-.47.21-.71a118.52,118.52,0,0,0,4.85-23.65c.2-1.94.34-3.9.45-5.85s.18-4.1.18-6.18V0Z"/></g><path class="cls-1" d="M332.42,141.82H362c12.81,0,28.72,1.94,39.33,15.52,7.24,8.67,10.47,19.66,10.47,32.21,0,27.94-15.13,48-48.76,48H332.42Zm15.27,82.26h16.16c22.51,0,32.86-14.35,32.86-34.27,0-9.19-2.46-18-7.76-24.45-5.05-5.82-12.68-10.09-25-10.09H347.69Z"/><path class="cls-1" d="M434.35,206.62c.64,14.23,13.06,21.47,23.67,21.47,9.44,0,16.42-4.52,20.3-11.9h14a38.7,38.7,0,0,1-14.22,17.47,35.71,35.71,0,0,1-20.05,6c-23,0-37.26-18.5-37.26-37.13,0-20.17,15.79-37.38,37.13-37.38a36.77,36.77,0,0,1,26,10.35c8.28,8.41,11.77,19.4,10.6,31.17Zm46.82-10.47c-.65-9.32-10-19.8-23.28-19.54-13.71,0-22.64,10-23.28,19.54Z"/><path class="cls-1" d="M537.56,237.54H524.11l-26.9-70.37h14.1l19.53,53.55,19.53-53.55h14.1Z"/><path class="cls-1" d="M579.73,206.62c.65,14.23,13.06,21.47,23.67,21.47,9.44,0,16.43-4.52,20.31-11.9h14a38.78,38.78,0,0,1-14.23,17.47,35.71,35.71,0,0,1-20.05,6c-23,0-37.25-18.5-37.25-37.13,0-20.17,15.78-37.38,37.12-37.38a36.77,36.77,0,0,1,26,10.35c8.28,8.41,11.77,19.4,10.61,31.17Zm46.82-10.47c-.64-9.32-10-19.8-23.28-19.54-13.71,0-22.63,10-23.28,19.54Z"/><path class="cls-1" d="M653.07,141.82h13.45v95.72H653.07Z"/><path class="cls-1" d="M680.1,202.22c0-18.75,13.84-37.12,37.51-37.12s37.51,18.37,37.51,37.25-13.84,37.13-37.51,37.13-37.51-18.24-37.51-37.13Zm13.45.26c0,14,10.61,24.45,24.06,24.45s24.06-10.48,24.06-24.58-10.61-24.57-24.06-24.57-24.06,10.47-24.06,24.57Z"/><path class="cls-1" d="M768.83,167.17h12.8v12.29c5.31-8.41,14.36-14.36,26.91-14.36,24.19,0,35.57,20.18,35.57,37.64,0,19.92-14.36,36.87-35.44,36.87-14.62,0-23.28-8-26.39-13.71v37.25H768.83Zm61.7,35.05c0-11.51-8.15-24.57-24.58-24.57a24,24,0,0,0-17.46,7.24,25.07,25.07,0,0,0-6.86,17.59,24.31,24.31,0,0,0,7,17.47,24.66,24.66,0,0,0,17.46,7.11c14.23,0,24.45-11,24.45-24.71Z"/><path class="cls-1" d="M866.48,206.62c.65,14.23,13.07,21.47,23.67,21.47,9.45,0,16.43-4.52,20.31-11.9h14a38.72,38.72,0,0,1-14.23,17.47,35.69,35.69,0,0,1-20.05,6c-23,0-37.25-18.5-37.25-37.13,0-20.17,15.78-37.38,37.13-37.38a36.74,36.74,0,0,1,26,10.35c8.28,8.41,11.78,19.4,10.61,31.17Zm46.83-10.47c-.65-9.32-10-19.8-23.28-19.54-13.72,0-22.64,10-23.29,19.54Z"/><path class="cls-1" d="M939.82,167.17H952.5v10.35c4-8.28,11.38-12.29,21-12.42v13.45h-.9c-12.68,0-19.28,7-19.28,21v38H939.82Z"/></g></g></svg>
