<svg width="404" height="246" viewBox="0 0 404 246" fill="none" xmlns="http://www.w3.org/2000/svg">
<path d="M201.7 243.85C194.57 243.85 188.32 235.32 182.28 227.07C176.94 219.78 171.89 212.88 165.56 210.26C162.487 209.096 159.215 208.549 155.93 208.65C150.923 208.804 145.934 209.315 141 210.18C136.333 210.998 131.615 211.489 126.88 211.65C121.8 211.65 118.41 210.65 116.23 208.45C111.51 203.73 113.04 193.54 114.51 183.69C115.83 174.89 117.19 165.79 114.43 159.14C111.8 152.81 104.91 147.76 97.62 142.42C89.37 136.42 80.84 130.13 80.84 123C80.84 115.87 89.37 109.62 97.62 103.58C104.91 98.2402 111.8 93.1902 114.43 86.8602C117.19 80.2102 115.83 71.1102 114.51 62.3102C113.04 52.4602 111.51 42.3102 116.24 37.5502C118.41 35.3702 121.8 34.3502 126.88 34.3502C131.615 34.5109 136.333 35.0021 141 35.8202C145.931 36.684 150.917 37.1953 155.92 37.3502C159.205 37.4516 162.477 36.9045 165.55 35.7402C171.88 33.1202 176.93 26.2201 182.27 18.9301C188.27 10.6801 194.56 2.15015 201.69 2.15015C208.82 2.15015 215.07 10.6801 221.11 18.9301C226.45 26.2201 231.5 33.1202 237.83 35.7402C240.903 36.9045 244.175 37.4516 247.46 37.3502C252.463 37.1948 257.449 36.6835 262.38 35.8202C267.047 35.0021 271.765 34.5109 276.5 34.3502C281.58 34.3502 284.96 35.3502 287.14 37.5502C291.87 42.2702 290.34 52.4602 288.87 62.3102C287.55 71.1102 286.19 80.2102 288.95 86.8602C291.57 93.1902 298.47 98.2402 305.76 103.58C314.01 109.58 322.54 115.87 322.54 123C322.54 130.13 314.01 136.38 305.76 142.42C298.47 147.76 291.57 152.81 288.95 159.14C286.19 165.79 287.55 174.89 288.87 183.69C290.34 193.54 291.87 203.69 287.14 208.45C284.96 210.63 281.58 211.65 276.5 211.65C271.765 211.489 267.047 210.998 262.38 210.18C257.449 209.317 252.463 208.806 247.46 208.65C244.175 208.549 240.903 209.096 237.83 210.26C231.5 212.88 226.45 219.78 221.11 227.07C215.08 235.32 208.83 243.85 201.7 243.85Z" fill="white"/>
<path d="M201.7 243.85C194.57 243.85 188.32 235.32 182.28 227.07C176.94 219.78 171.89 212.88 165.56 210.26C162.487 209.096 159.215 208.549 155.93 208.65C150.923 208.804 145.934 209.315 141 210.18C136.333 210.998 131.615 211.489 126.88 211.65C121.8 211.65 118.41 210.65 116.23 208.45C111.51 203.73 113.04 193.54 114.51 183.69C115.83 174.89 117.19 165.79 114.43 159.14C111.8 152.81 104.91 147.76 97.62 142.42C89.37 136.42 80.84 130.13 80.84 123C80.84 115.87 89.37 109.62 97.62 103.58C104.91 98.2402 111.8 93.1902 114.43 86.8602C117.19 80.2102 115.83 71.1102 114.51 62.3102C113.04 52.4601 111.51 42.3102 116.24 37.5502C118.41 35.3702 121.8 34.3502 126.88 34.3502C131.615 34.5109 136.333 35.0021 141 35.8202C145.931 36.684 150.917 37.1953 155.92 37.3502C159.205 37.4516 162.477 36.9045 165.55 35.7402C171.88 33.1202 176.93 26.2201 182.27 18.9301C188.27 10.6801 194.56 2.15015 201.69 2.15015C208.82 2.15015 215.07 10.6801 221.11 18.9301C226.45 26.2201 231.5 33.1202 237.83 35.7402C240.903 36.9045 244.175 37.4516 247.46 37.3502C252.463 37.1948 257.449 36.6835 262.38 35.8202C267.047 35.0021 271.765 34.5109 276.5 34.3502C281.58 34.3502 284.96 35.3502 287.14 37.5502C291.87 42.2702 290.34 52.4601 288.87 62.3102C287.55 71.1102 286.19 80.2102 288.95 86.8602C291.57 93.1902 298.47 98.2402 305.76 103.58C314.01 109.58 322.54 115.87 322.54 123C322.54 130.13 314.01 136.38 305.76 142.42C298.47 147.76 291.57 152.81 288.95 159.14C286.19 165.79 287.55 174.89 288.87 183.69C290.34 193.54 291.87 203.69 287.14 208.45C284.96 210.63 281.58 211.65 276.5 211.65C271.765 211.489 267.047 210.998 262.38 210.18C257.449 209.317 252.463 208.806 247.46 208.65C244.175 208.549 240.903 209.096 237.83 210.26C231.5 212.88 226.45 219.78 221.11 227.07C215.08 235.32 208.83 243.85 201.7 243.85Z" stroke="white" stroke-width="0.5" stroke-miterlimit="10"/>
<path d="M67.88 245.4C49.06 245.4 36.77 241.82 29.2 234.15C21.97 226.83 18.6 215.15 18.6 197.5V160.6C18.6 144.6 13.95 137.76 0.289978 133.92V112.06C14 108 18.6 101.09 18.6 85.4001V48.2201C18.6 30.6701 21.97 19.1101 29.2 11.8201C36.78 4.17011 49.07 0.600098 67.88 0.600098H73V19.8701C56.85 20.8701 50.8 28.1201 50.8 46.2801V86.2301C50.8 106.23 43.57 116.3 25.8 121.14L24.69 121.44V124.56L25.8 124.86C43.54 129.7 50.8 139.81 50.8 159.77V199.77C50.8 217.77 57.06 225.23 73 225.92V245.4H67.88Z" fill="white"/>
<path d="M331 245.4V225.87C346.94 225.18 353.2 217.73 353.2 199.72V159.72C353.2 139.72 360.43 129.65 378.2 124.81L379.31 124.51V121.39L378.2 121.09C360.46 116.25 353.2 106.14 353.2 86.1801V46.2801C353.2 28.1201 347.15 20.8301 331 19.8701V0.600098H336.16C354.97 0.600098 367.26 4.17011 374.84 11.8201C382.07 19.1101 385.44 30.6701 385.44 48.2201V85.4001C385.44 101.09 390.09 107.96 403.75 112.06V133.92C390.09 137.76 385.44 144.63 385.44 160.6V197.5C385.44 215.18 382.07 226.83 374.84 234.15C367.27 241.82 354.98 245.4 336.16 245.4H331Z" fill="white"/>
<path d="M219.05 79.6001L207.63 104.1L219.15 128.84L213.15 141.28L201.74 116.74L201.7 116.82L184.35 79.6001H137.53L178 166.39H178.58H224.82H225.4L265.87 79.6001H219.05Z" fill="black"/>
</svg>
