<svg width="260" height="160" viewBox="0 0 260 160" fill="none" xmlns="http://www.w3.org/2000/svg">
<rect width="260" height="160" rx="8" fill="#131417"/>
<path d="M181.3 49.2998H204.551V57.6021H200.759C199.428 54.5559 196.434 52.4133 192.942 52.4133C188.218 52.4133 184.393 56.263 184.393 60.9834C184.393 65.7039 188.218 69.5868 192.942 69.5868C196.368 69.5868 199.362 67.5114 200.692 64.5316H204.55V72.6998H181.3V49.2998Z" fill="#454B5C"/>
<path d="M52.4615 44.7643L52.4425 103.171C52.4425 103.816 51.8534 104.313 51.1965 104.218C45.9303 103.446 40.7456 102.431 35.6504 101.184C34.6813 100.946 34 100.103 34 99.1306V40.8242C34 39.4183 35.3817 38.4036 36.7688 38.7921L50.8844 42.7295C51.8155 42.9885 52.4588 43.8183 52.4588 44.7617L52.4615 44.7643Z" fill="white"/>
<path d="M61.5479 38.3319L57.2876 44.1657C57.1503 44.3521 57.0769 44.5858 57.0769 44.8273V103.522C57.0769 104.06 57.4414 104.512 57.9243 104.57C59.3491 104.735 60.7787 104.877 62.2154 104.998C62.7645 105.042 63.2308 104.559 63.2308 103.947V38.9909C63.2308 38.0011 62.1089 37.56 61.5479 38.3293V38.3319Z" fill="url(#paint0_linear_1504_8533)"/>
<path d="M113.998 33.076C113.998 31.6965 112.7 30.7008 111.394 31.082L70.0918 43.1264C69.2172 43.3805 68.6129 44.1947 68.6155 45.1204L68.6282 103.888C68.6282 104.448 69.0642 104.909 69.6149 104.925C71.2238 104.974 72.8378 105 74.4594 105C87.5725 105 100.303 103.351 112.468 100.242C113.37 100.011 114 99.1788 114 98.2323V33.0734L113.998 33.076ZM99.7218 74.1436C96.2007 74.1436 93.3475 71.242 93.3475 67.6611C93.3475 64.0802 96.2007 61.1787 99.7218 61.1787C103.243 61.1787 106.096 64.0802 106.096 67.6611C106.096 71.242 103.243 74.1436 99.7218 74.1436Z" fill="white"/>
<g clip-path="url(#clip0_1504_8533)">
<g opacity="0.8">
<path d="M154.687 19.6128L147.2 23.2428L154.687 27.9584L162.172 23.2428L154.687 19.6128Z" fill="#454B5C"/>
</g>
<g opacity="0.65">
<path opacity="0.65" d="M147.2 23.2432L154.687 27.9587V10L147.2 23.2432Z" fill="#454B5C"/>
</g>
<g opacity="0.9">
<path d="M154.687 10V27.9587L162.171 23.2432L154.687 10Z" fill="#454B5C"/>
</g>
<g opacity="0.65">
<path opacity="0.65" d="M147.2 24.7559L154.687 36.0005V29.4714L147.2 24.7559Z" fill="#454B5C"/>
</g>
<g opacity="0.8">
<path d="M154.687 29.4714V36.0005L162.177 24.7559L154.687 29.4714Z" fill="#454B5C"/>
</g>
</g>
<path d="M146.224 142.151C146.381 141.995 146.597 141.903 146.826 141.903H167.574C167.953 141.903 168.142 142.361 167.874 142.629L163.776 146.727C163.619 146.884 163.403 146.976 163.174 146.976H142.426C142.047 146.976 141.858 146.518 142.126 146.25L146.224 142.151Z" fill="#454B5C"/>
<path d="M146.224 126.849C146.388 126.692 146.603 126.6 146.826 126.6H167.574C167.953 126.6 168.142 127.058 167.874 127.326L163.776 131.424C163.619 131.581 163.403 131.673 163.174 131.673H142.426C142.047 131.673 141.858 131.215 142.126 130.947L146.224 126.849Z" fill="#454B5C"/>
<path d="M163.776 134.451C163.619 134.294 163.403 134.203 163.174 134.203H142.426C142.047 134.203 141.858 134.66 142.126 134.928L146.224 139.027C146.381 139.184 146.597 139.275 146.826 139.275H167.574C167.953 139.275 168.142 138.818 167.874 138.55L163.776 134.451Z" fill="#454B5C"/>
<path d="M154.805 62.8037C155.65 62.8037 156.334 62.1189 156.334 61.2742C156.334 60.4294 155.65 59.7446 154.805 59.7446C153.96 59.7446 153.275 60.4294 153.275 61.2742C153.275 62.1189 153.96 62.8037 154.805 62.8037Z" fill="#566077"/>
<path d="M161.001 56.0308C161.491 56.0308 161.889 55.6199 161.889 55.113C161.889 54.6062 161.491 54.1953 161.001 54.1953C160.511 54.1953 160.114 54.6062 160.114 55.113C160.114 55.6199 160.511 56.0308 161.001 56.0308Z" fill="#566077"/>
<path d="M146.514 59.438C147.004 59.438 147.402 59.0271 147.402 58.5203C147.402 58.0134 147.004 57.6025 146.514 57.6025C146.024 57.6025 145.627 58.0134 145.627 58.5203C145.627 59.0271 146.024 59.438 146.514 59.438Z" fill="#566077"/>
<path d="M153.037 71.0747C153.527 71.0747 153.924 70.6638 153.924 70.157C153.924 69.6501 153.527 69.2393 153.037 69.2393C152.547 69.2393 152.149 69.6501 152.149 70.157C152.149 70.6638 152.547 71.0747 153.037 71.0747Z" fill="#566077"/>
<path opacity="0.9" fill-rule="evenodd" clip-rule="evenodd" d="M154.848 48.6917C154.73 48.5832 154.669 48.5811 154.659 48.5811C154.649 48.5811 154.588 48.5832 154.47 48.6917C154.349 48.8031 154.204 48.9954 154.048 49.292C153.737 49.8841 153.439 50.779 153.182 51.9337C152.894 53.2323 152.666 54.8195 152.522 56.5962C153.217 56.9326 153.932 57.2983 154.659 57.691C155.386 57.2982 156.101 56.9325 156.797 56.596C156.653 54.8194 156.425 53.2323 156.136 51.9337C155.879 50.779 155.581 49.8841 155.27 49.292C155.114 48.9954 154.969 48.8031 154.848 48.6917ZM154.05 58.0243C153.516 57.7405 152.99 57.4721 152.475 57.2199C152.436 57.7918 152.406 58.3814 152.384 58.9856C152.657 58.8224 152.933 58.6599 153.214 58.4982C153.494 58.3365 153.773 58.1785 154.05 58.0243ZM151.961 56.3292C152.378 51.4571 153.429 48 154.659 48C155.889 48 156.94 51.457 157.358 56.329C161.788 54.2542 165.309 53.4352 165.924 54.5001C166.539 55.5649 164.069 58.2029 160.056 61C164.069 63.7971 166.539 66.4351 165.924 67.4999C165.309 68.5648 161.788 67.7458 157.358 65.671C156.94 70.543 155.889 74 154.659 74C153.429 74 152.378 70.5429 151.961 65.6708C147.53 67.7458 144.009 68.5648 143.394 67.4999C142.778 66.4351 145.249 63.7971 149.262 61C145.249 58.2029 142.778 55.565 143.394 54.5001C144.009 53.4352 147.53 54.2542 151.961 56.3292ZM149.774 60.648C148.306 59.6349 147.045 58.6438 146.064 57.7445C145.192 56.9449 144.565 56.2396 144.208 55.6742C144.028 55.3909 143.934 55.1695 143.898 55.0091C143.863 54.8529 143.892 54.7994 143.897 54.7908C143.902 54.7821 143.934 54.7304 144.087 54.6826C144.244 54.6335 144.483 54.6044 144.818 54.6177C145.487 54.6443 146.412 54.834 147.541 55.1891C148.811 55.5885 150.3 56.1847 151.912 56.9484C151.856 57.7182 151.815 58.5197 151.792 59.3453C151.088 59.7785 150.413 60.2144 149.774 60.648ZM149.774 61.352C148.306 62.3651 147.045 63.3562 146.064 64.2555C145.192 65.0551 144.565 65.7604 144.208 66.3258C144.028 66.6091 143.934 66.8305 143.898 66.9909C143.863 67.1471 143.892 67.2006 143.897 67.2092C143.902 67.2179 143.934 67.2695 144.087 67.3174C144.244 67.3665 144.483 67.3956 144.818 67.3823C145.487 67.3556 146.412 67.166 147.541 66.8108C148.811 66.4115 150.3 65.8153 151.912 65.0516C151.856 64.2817 151.815 63.4803 151.792 62.6546C151.088 62.2215 150.413 61.7856 149.774 61.352ZM151.776 61.9614C151.263 61.641 150.767 61.3198 150.291 61C150.767 60.6802 151.263 60.359 151.776 60.0386C151.771 60.356 151.769 60.6766 151.769 61C151.769 61.3234 151.771 61.644 151.776 61.9614ZM152.365 62.3238C152.355 61.8888 152.35 61.4472 152.35 61C152.35 60.5528 152.355 60.1112 152.365 59.6762C152.736 59.4502 153.117 59.2251 153.504 59.0015C153.892 58.7779 154.277 58.5614 154.659 58.3524C155.041 58.5614 155.426 58.7779 155.814 59.0015C156.201 59.2252 156.582 59.4504 156.954 59.6765C156.964 60.1113 156.969 60.5529 156.969 61C156.969 61.4471 156.964 61.8887 156.954 62.3235C156.582 62.5496 156.201 62.7748 155.814 62.9985C155.426 63.2221 155.041 63.4386 154.659 63.6476C154.277 63.4386 153.892 63.2221 153.504 62.9985C153.117 62.7749 152.736 62.5498 152.365 62.3238ZM152.384 63.0144C152.406 63.6186 152.436 64.2082 152.475 64.7801C152.99 64.5279 153.516 64.2595 154.05 63.9757C153.773 63.8215 153.494 63.6635 153.214 63.5018C152.933 63.3401 152.657 63.1776 152.384 63.0144ZM154.659 64.309C153.932 64.7017 153.217 65.0674 152.522 65.4038C152.666 67.1805 152.894 68.7677 153.182 70.0662C153.439 71.221 153.737 72.1159 154.048 72.708C154.204 73.0046 154.349 73.1969 154.47 73.3083C154.588 73.4168 154.649 73.4189 154.659 73.4189C154.669 73.4189 154.73 73.4168 154.848 73.3083C154.969 73.1969 155.114 73.0046 155.27 72.708C155.581 72.1159 155.879 71.221 156.136 70.0662C156.425 68.7677 156.653 67.1806 156.797 65.4039C156.101 65.0675 155.386 64.7018 154.659 64.309ZM157.407 65.0517C159.018 65.8154 160.507 66.4115 161.777 66.8108C162.906 67.166 163.831 67.3556 164.5 67.3823C164.835 67.3956 165.074 67.3665 165.231 67.3174C165.384 67.2695 165.416 67.2179 165.421 67.2092C165.426 67.2007 165.455 67.1472 165.42 66.9909C165.384 66.8305 165.289 66.6091 165.11 66.3258C164.753 65.7604 164.126 65.0551 163.254 64.2555C162.273 63.3562 161.012 62.3651 159.544 61.352C158.905 61.7855 158.23 62.2214 157.527 62.6544C157.503 63.4802 157.463 64.2818 157.407 65.0517ZM159.544 60.648C161.012 59.6349 162.273 58.6438 163.254 57.7445C164.126 56.9449 164.753 56.2396 165.11 55.6742C165.289 55.3909 165.384 55.1695 165.42 55.0091C165.455 54.8528 165.426 54.7993 165.421 54.7908C165.416 54.7821 165.384 54.7305 165.231 54.6826C165.074 54.6335 164.835 54.6044 164.5 54.6177C163.831 54.6443 162.906 54.834 161.777 55.1891C160.507 55.5885 159.018 56.1846 157.407 56.9483C157.463 57.7182 157.503 58.5198 157.527 59.3456C158.23 59.7786 158.905 60.2145 159.544 60.648ZM157.542 60.0388C158.055 60.3591 158.551 60.6802 159.027 61C158.551 61.3198 158.055 61.6409 157.542 61.9612C157.547 61.6438 157.55 61.3233 157.55 61C157.55 60.6767 157.547 60.3562 157.542 60.0388ZM156.934 58.9858C156.913 58.3815 156.882 57.7918 156.843 57.2197C156.328 57.4719 155.802 57.7404 155.267 58.0243C155.545 58.1785 155.824 58.3365 156.104 58.4982C156.385 58.6599 156.661 58.8225 156.934 58.9858ZM156.843 64.7803C156.328 64.5281 155.802 64.2596 155.267 63.9757C155.545 63.8215 155.824 63.6635 156.104 63.5018C156.385 63.3401 156.661 63.1775 156.934 63.0142C156.913 63.6185 156.882 64.2082 156.843 64.7803Z" fill="#566077"/>
<g clip-path="url(#clip1_1504_8533)">
<path d="M162.046 94.6937H159.756C159.624 94.6936 159.493 94.6653 159.373 94.6106C159.253 94.556 159.146 94.4763 159.058 94.377L158.13 93.3282C158.061 93.2514 157.977 93.1899 157.883 93.1478C157.789 93.1057 157.687 93.084 157.584 93.084C157.481 93.084 157.379 93.1057 157.285 93.1478C157.191 93.1899 157.107 93.2514 157.038 93.3282L156.242 94.2271C156.114 94.3734 155.956 94.4907 155.778 94.5711C155.601 94.6516 155.409 94.6934 155.214 94.6937H142.681C142.319 95.7294 142.091 96.8068 142 97.8999H153.832C153.934 97.8998 154.036 97.8789 154.13 97.8384C154.224 97.7979 154.309 97.7388 154.38 97.6645L155.484 96.513C155.552 96.4425 155.634 96.3864 155.725 96.3482C155.815 96.31 155.912 96.2903 156.011 96.2904H156.053C156.157 96.2909 156.259 96.3128 156.353 96.3548C156.447 96.3968 156.532 96.458 156.601 96.5344L157.53 97.5832C157.617 97.6828 157.724 97.7626 157.845 97.8172C157.965 97.8719 158.096 97.9001 158.228 97.8999H167.881C167.792 96.8065 167.564 95.7289 167.2 94.6937H162.063H162.046Z" fill="#454B5C"/>
<path d="M149.158 104.643C149.26 104.642 149.361 104.621 149.455 104.58C149.549 104.54 149.635 104.481 149.705 104.407L150.806 103.256C150.874 103.186 150.956 103.13 151.047 103.092C151.137 103.054 151.234 103.034 151.332 103.033H151.379C151.482 103.034 151.585 103.056 151.679 103.098C151.773 103.14 151.858 103.201 151.927 103.277L152.852 104.326C152.939 104.425 153.047 104.504 153.167 104.559C153.287 104.613 153.417 104.642 153.55 104.643H166.636C167.134 103.618 167.494 102.531 167.706 101.411H155.142C155.011 101.41 154.881 101.382 154.762 101.328C154.642 101.275 154.536 101.196 154.448 101.098L153.52 100.05C153.451 99.9717 153.367 99.9093 153.272 99.8665C153.178 99.8237 153.075 99.8015 152.972 99.8013C152.868 99.801 152.766 99.823 152.673 99.8659C152.579 99.9087 152.495 99.9714 152.428 100.05L151.632 100.948C151.502 101.094 151.343 101.211 151.166 101.29C150.988 101.37 150.795 101.411 150.6 101.411H142.176C142.385 102.534 142.744 103.623 143.242 104.651L149.158 104.643Z" fill="#454B5C"/>
<path d="M158.442 91.1882C158.545 91.1881 158.647 91.1672 158.742 91.1268C158.837 91.0863 158.923 91.0271 158.994 90.9527L160.094 89.8055C160.162 89.734 160.244 89.677 160.334 89.638C160.425 89.599 160.522 89.5788 160.621 89.5786H160.668C160.771 89.5784 160.873 89.6004 160.967 89.6432C161.061 89.6861 161.144 89.7488 161.212 89.8269L162.141 90.8757C162.229 90.9735 162.336 91.0517 162.457 91.1056C162.577 91.1594 162.707 91.1875 162.838 91.1882H165.325C164.116 89.5771 162.547 88.2697 160.745 87.3692C158.943 86.4688 156.955 86 154.941 86C152.926 86 150.939 86.4688 149.136 87.3692C147.334 88.2697 145.766 89.5771 144.556 91.1882H158.442Z" fill="#454B5C"/>
<path d="M153.442 107.853H150.039C149.908 107.852 149.778 107.824 149.658 107.769C149.539 107.715 149.432 107.635 149.346 107.536L148.421 106.487C148.352 106.41 148.268 106.349 148.173 106.307C148.079 106.264 147.977 106.243 147.873 106.243C147.77 106.243 147.668 106.264 147.573 106.307C147.479 106.349 147.394 106.41 147.325 106.487L146.525 107.403C146.397 107.55 146.239 107.667 146.062 107.748C145.884 107.828 145.692 107.87 145.497 107.87H145.446C146.661 109.173 148.131 110.212 149.765 110.923C151.399 111.633 153.161 112 154.943 112C156.724 112 158.487 111.633 160.121 110.923C161.754 110.212 163.225 109.173 164.439 107.87L153.442 107.853Z" fill="#454B5C"/>
</g>
<g clip-path="url(#clip2_1504_8533)">
<path d="M238.835 11.3274L233.41 19.3785C233.034 19.9267 233.756 20.5905 234.275 20.1287L239.614 15.4828C239.758 15.3674 239.96 15.4539 239.96 15.6559V30.1709C239.96 30.3729 239.7 30.4595 239.585 30.3152L223.425 10.9811C222.906 10.3463 222.155 10 221.319 10H220.741C219.241 10 218 11.2408 218 12.7703V33.2009C218 34.7303 219.241 35.9711 220.77 35.9711C221.723 35.9711 222.617 35.4806 223.137 34.6437L228.562 26.5927C228.937 26.0444 228.215 25.3807 227.696 25.8424L222.357 30.4595C222.213 30.5749 222.011 30.4883 222.011 30.2864V15.8002C222.011 15.5982 222.271 15.5117 222.386 15.6559L238.546 34.99C239.065 35.6249 239.845 35.9711 240.653 35.9711H241.23C242.759 35.9711 244 34.7303 244 33.2009V12.7703C244 11.2408 242.759 10 241.23 10C240.249 10 239.354 10.4906 238.835 11.3274Z" fill="#454B5C"/>
</g>
<g clip-path="url(#clip3_1504_8533)">
<path d="M193.616 22.7722L202.499 31.5898C207.167 26.6382 207.167 18.9061 202.499 13.9546" fill="#454B5C"/>
<path d="M192.967 23.3555L184.215 32.0431L192.967 35.6738L201.72 32.0431" fill="#454B5C"/>
<path d="M192.786 22.611L201.864 13.5984L193.499 10.1626L185.2 30.1975L192.786 22.611Z" fill="#454B5C"/>
<path d="M180 22.7721C179.994 26.0519 181.247 29.2082 183.501 31.5897L192.188 10.6475" fill="#454B5C"/>
</g>
<g clip-path="url(#clip4_1504_8533)">
<path fill-rule="evenodd" clip-rule="evenodd" d="M204.919 99.3544C204.916 99.435 204.806 99.4563 204.775 99.382C204.761 99.35 204.747 99.3178 204.733 99.2857C204.707 99.2269 204.715 99.1585 204.753 99.107C204.761 99.0965 204.777 99.0752 204.797 99.0499C204.849 98.9817 204.924 98.9919 204.924 99.0675C204.924 99.1668 204.922 99.2527 204.919 99.3544ZM204.341 97.7784C204.253 97.9385 204.025 97.9458 203.926 97.7915C203.911 97.7677 203.895 97.7438 203.88 97.7198C203.524 97.1737 203.115 96.6377 202.658 96.1167C202.545 95.9888 202.637 95.788 202.807 95.7879H202.811C203.88 95.7879 204.44 96.0518 204.611 96.374C204.753 96.6435 204.71 97.1148 204.341 97.7784ZM204.103 103.365C204.045 103.511 203.985 103.656 203.922 103.799C203.913 103.819 203.903 103.839 203.893 103.858C203.5 104.615 202.84 105.211 201.959 105.626C201.761 105.719 201.544 105.538 201.603 105.327C201.896 104.279 202.118 103.143 202.261 101.952C202.288 101.73 202.397 101.526 202.567 101.38C202.929 101.066 203.268 100.753 203.579 100.442L203.583 100.438C203.736 100.285 203.997 100.351 204.06 100.558C204.368 101.581 204.385 102.534 204.103 103.365ZM201.706 107.148C201.616 107.244 201.525 107.338 201.432 107.432C201.269 107.594 201.103 107.751 200.933 107.903C200.826 107.998 200.663 107.879 200.724 107.748C200.741 107.711 200.759 107.674 200.776 107.636C200.847 107.479 200.916 107.317 200.983 107.152C200.999 107.114 201.032 107.085 201.073 107.074C201.242 107.031 201.407 106.984 201.568 106.932C201.698 106.89 201.8 107.048 201.706 107.148ZM199.946 106.202C199.59 106.253 199.216 106.287 198.825 106.301C197.869 106.334 196.859 106.252 195.821 106.061C195.695 106.037 195.671 105.866 195.785 105.808C196.012 105.694 196.238 105.577 196.464 105.457C198.052 104.615 199.534 103.695 200.83 102.752C200.928 102.681 201.062 102.765 201.042 102.883C200.862 103.964 200.613 104.982 200.3 105.905C200.247 106.063 200.111 106.178 199.946 106.202ZM199.579 107.642C198.728 109.316 197.68 110.256 196.663 110.237C195.559 110.218 194.458 109.067 193.642 107.082L193.641 107.08C193.589 106.954 193.649 106.809 193.774 106.755C193.782 106.751 193.791 106.747 193.8 106.744C193.853 106.72 193.913 106.716 193.97 106.732C195.495 107.16 196.998 107.384 198.407 107.384C198.56 107.384 198.712 107.381 198.862 107.376C199.039 107.369 199.212 107.36 199.383 107.346C199.541 107.333 199.651 107.501 199.579 107.642ZM194.538 110.826C194.032 110.891 193.519 110.924 193 110.924C190.682 110.924 188.465 110.267 186.562 109.042C186.431 108.957 186.487 108.754 186.642 108.747C186.675 108.745 186.705 108.744 186.731 108.742C187.215 108.711 187.745 108.64 188.32 108.529C189.542 108.294 190.901 107.891 192.324 107.347C192.451 107.299 192.594 107.362 192.646 107.488L192.647 107.491C193.198 108.833 193.877 109.847 194.639 110.493C194.765 110.599 194.702 110.805 194.538 110.826ZM187.643 102.471C188.693 101.615 189.925 100.762 191.275 99.9535C191.304 101.681 191.493 103.339 191.829 104.837C191.328 104.623 190.828 104.388 190.333 104.131C189.375 103.633 188.473 103.075 187.643 102.471ZM184.375 107.099C184.124 106.626 184.448 105.531 186.094 103.866L186.095 103.865C186.267 103.691 186.25 103.406 186.059 103.255C185.993 103.204 185.927 103.151 185.862 103.099C185.698 102.966 185.461 102.978 185.312 103.128C185.28 103.16 185.255 103.185 185.248 103.192C184.425 104.037 183.85 104.818 183.527 105.521C183.436 105.721 183.159 105.742 183.039 105.559C181.762 103.629 181.076 101.367 181.076 98.9999C181.076 98.1536 181.164 97.3207 181.335 96.5116C181.361 96.3892 181.533 96.3814 181.57 96.5011C181.817 97.3179 182.22 98.1627 182.776 99.017C183.525 100.167 184.513 101.273 185.683 102.287C186.083 102.633 186.505 102.968 186.945 103.291C187.837 103.946 188.806 104.55 189.837 105.086C190.295 105.323 190.74 105.55 191.196 105.755C191.45 105.87 191.738 105.878 191.998 105.777C192.213 105.693 192.429 105.605 192.647 105.514C192.884 105.415 193.012 105.157 192.949 104.908C192.942 104.877 192.935 104.852 192.932 104.837C192.573 103.326 192.373 101.625 192.35 99.8434C192.35 99.8222 192.349 99.801 192.349 99.7796C192.348 99.6823 192.348 99.5842 192.347 99.487C192.346 99.456 192.347 99.4035 192.347 99.3724C192.347 99.36 192.347 99.3478 192.347 99.3355C192.348 99.224 192.349 99.1124 192.351 99.0005C192.357 98.6949 192.368 98.3915 192.383 98.0906C192.494 95.9406 192.858 93.9208 193.438 92.2214C193.492 92.0642 193.408 91.8935 193.251 91.8398C193.097 91.7874 192.944 91.7374 192.791 91.6895C192.637 91.6409 192.471 91.7244 192.419 91.8779C191.79 93.7234 191.402 95.9129 191.299 98.2298C191.286 98.5237 191.126 98.7912 190.873 98.9412C189.5 99.7545 188.24 100.617 187.151 101.486C186.925 101.667 186.601 101.66 186.381 101.47C185.29 100.524 184.372 99.496 183.678 98.4299C182.313 96.335 181.989 94.3614 182.765 92.8738C182.767 92.8703 182.769 92.8667 182.771 92.8633C182.87 92.6991 182.973 92.5372 183.08 92.3775C183.971 91.1975 185.631 90.5136 187.831 90.4364C187.97 90.4314 188.111 90.429 188.252 90.429C189.602 90.429 191.05 90.6517 192.524 91.0768C192.556 91.0862 192.589 91.0955 192.621 91.105C192.646 91.1124 192.671 91.1193 192.695 91.1267C193.036 91.2285 193.377 91.3413 193.719 91.4643C193.727 91.4671 193.735 91.47 193.743 91.4728C193.832 91.505 193.921 91.5379 194.01 91.5715C194.038 91.582 194.066 91.5926 194.094 91.6034C194.121 91.6137 194.147 91.6236 194.174 91.634C194.894 91.9125 195.612 92.2369 196.322 92.6058C197.696 93.3197 198.954 94.1566 200.049 95.0747C197.96 95.5533 195.532 96.4764 193.09 97.7211C192.978 97.7786 192.904 97.8918 192.896 98.0181C192.888 98.1694 192.877 98.4736 192.869 98.7154C192.864 98.8671 193.024 98.9677 193.159 98.8971L193.16 98.8962C195.577 97.627 197.989 96.6784 200.061 96.177C200.448 96.0834 200.699 95.7115 200.645 95.3169C200.606 95.0412 200.564 94.7698 200.516 94.5033C200.456 94.1684 200.273 93.869 200.003 93.663C199.032 92.9238 197.963 92.2459 196.818 91.651C196.047 91.2502 195.264 90.899 194.48 90.5995C194.312 90.5354 194.24 90.3371 194.328 90.1803C195.136 88.7347 196.097 87.925 197.033 87.925C197.043 87.925 197.053 87.925 197.062 87.9252C198.167 87.945 199.268 89.0951 200.084 91.0807C200.497 92.0858 200.817 93.2449 201.035 94.5045L201.032 94.5015C201.125 95.0391 201.2 95.5947 201.256 96.1646C201.251 96.1677 201.246 96.1704 201.241 96.1734C201.248 96.1801 201.255 96.1867 201.261 96.1935C201.354 97.1499 201.393 98.1458 201.375 99.162C201.363 99.8048 201.329 100.439 201.274 101.059C199.796 102.253 197.969 103.442 195.961 104.506C195.301 104.856 194.641 105.181 193.987 105.481C193.977 105.486 193.967 105.49 193.957 105.495C193.907 105.518 193.857 105.541 193.807 105.563L193.806 105.563C193.264 105.808 192.728 106.035 192.201 106.242C192.171 106.253 192.142 106.265 192.112 106.277C192.075 106.291 192.038 106.305 192.001 106.32C191.912 106.353 191.824 106.387 191.736 106.42C191.712 106.429 191.688 106.438 191.663 106.447C191.557 106.487 191.451 106.525 191.345 106.563C191.332 106.568 191.318 106.573 191.305 106.577C190.175 106.98 189.098 107.284 188.117 107.473C185.746 107.929 184.629 107.579 184.375 107.099ZM186.078 89.2882C188.085 87.8512 190.483 87.0759 193 87.0759C193.664 87.0759 194.32 87.1302 194.963 87.2363C195.135 87.2647 195.193 87.4844 195.056 87.592C194.433 88.0803 193.854 88.8027 193.342 89.7395C193.217 89.9681 192.952 90.0799 192.701 90.0093C191.005 89.5317 189.336 89.307 187.793 89.3611C187.224 89.3811 186.686 89.4387 186.18 89.532C186.037 89.5582 185.96 89.3723 186.078 89.2882ZM202.446 97.9786C202.442 97.8419 202.618 97.7836 202.697 97.8949C202.794 98.0315 202.888 98.1689 202.978 98.307C203.098 98.4905 203.209 98.673 203.312 98.8544C203.377 98.9674 203.361 99.1093 203.274 99.2054C203.134 99.3583 202.983 99.5164 202.819 99.6803C202.759 99.74 202.698 99.7999 202.636 99.8599C202.559 99.9344 202.43 99.8776 202.434 99.7703C202.441 99.5747 202.447 99.3784 202.45 99.1812C202.458 98.7771 202.456 98.376 202.446 97.9786ZM201.209 90.3517C201.284 90.4228 201.358 90.495 201.432 90.5684C202.581 91.7174 203.466 93.0601 204.058 94.5223C204.117 94.6697 203.992 94.8241 203.836 94.7959C203.493 94.7344 203.108 94.7069 202.681 94.7141C202.385 94.719 202.128 94.5118 202.077 94.2207C201.845 92.9207 201.51 91.7199 201.079 90.6718C201.054 90.6121 201.03 90.553 201.005 90.4946C200.95 90.367 201.109 90.2561 201.209 90.3517ZM205.719 96.2962C205.205 93.8553 203.997 91.6126 202.192 89.8075C199.737 87.3521 196.472 86 193 86C189.528 86 186.263 87.3521 183.808 89.8075C183.21 90.4047 182.679 91.0499 182.216 91.7341C182.078 91.9174 181.955 92.1111 181.845 92.3137C180.642 94.3126 180 96.6069 180 98.9999C180 102.472 181.352 105.737 183.808 108.192C186.263 110.648 189.528 112 193 112C196.472 112 199.737 110.648 202.192 108.192C203.351 107.034 204.264 105.694 204.905 104.238C204.983 104.077 205.052 103.912 205.111 103.743C205.694 102.252 206 100.65 206 98.9999C206 98.092 205.907 97.1986 205.726 96.3298C205.724 96.3186 205.722 96.3074 205.719 96.2962Z" fill="#454B5C"/>
</g>
<path fill-rule="evenodd" clip-rule="evenodd" d="M201.233 131.484L195.695 131.258L199.456 127.248L197.943 125.758L193.864 129.453L193.643 124H191.503L191.274 129.452L187.2 125.749L185.686 127.239L189.44 131.253L183.9 131.471V133.578L189.438 133.804L185.677 137.813L187.191 139.303L191.206 135.665L191.381 144.497L188.178 144.727V146.689L191.429 146.932L191.49 150H193.63L193.693 146.937L196.979 146.692V144.729L193.743 144.496L193.925 135.669L197.933 139.312L199.447 137.822L195.693 133.808L201.233 133.591V131.484Z" fill="#454B5C"/>
<path fill-rule="evenodd" clip-rule="evenodd" d="M223.115 69.4851C223.89 70.8552 225.017 71.9952 226.38 72.7886C227.744 73.5819 229.295 74 230.874 74C232.453 74 234.003 73.5819 235.367 72.7886C236.73 71.9952 237.857 70.8552 238.633 69.4851C239.428 68.1126 239.847 66.5555 239.847 64.9706C239.847 63.3857 239.428 61.8286 238.633 60.4561L231.808 48.5439C231.715 48.3788 231.579 48.2415 231.415 48.1459C231.251 48.0504 231.064 48 230.874 48C230.683 48 230.497 48.0504 230.332 48.1459C230.168 48.2415 230.032 48.3788 229.939 48.5439L223.115 60.4561C222.319 61.8286 221.9 63.3857 221.9 64.9706C221.9 66.5555 222.319 68.1126 223.115 69.4851ZM228.951 54.2111L230.406 51.6712C230.453 51.5887 230.521 51.52 230.603 51.4722C230.685 51.4244 230.778 51.3992 230.874 51.3992C230.969 51.3992 231.062 51.4244 231.144 51.4722C231.226 51.52 231.294 51.5887 231.341 51.6712L236.938 61.442C237.441 62.3083 237.752 63.2713 237.852 64.2668C237.952 65.2623 237.838 66.2676 237.518 67.2158C237.448 66.8926 237.352 66.5755 237.231 66.2677C236.458 64.3012 234.71 62.7837 232.034 61.7572C230.195 61.0539 229.02 60.0196 228.543 58.6827C227.929 56.9601 228.57 55.0812 228.951 54.2111ZM226.47 58.5419L224.809 61.442C224.187 62.5149 223.859 63.732 223.859 64.9709C223.859 66.2098 224.187 67.4269 224.809 68.4998C225.312 69.387 226.004 70.153 226.838 70.7436C227.671 71.3341 228.625 71.7346 229.632 71.9167C230.638 72.0988 231.672 72.058 232.661 71.7972C233.65 71.5363 234.569 71.0619 235.353 70.4076C235.786 69.3044 235.802 68.0819 235.396 66.9682C234.829 65.5474 233.462 64.4132 231.334 63.5963C228.928 62.6767 227.366 61.2411 226.69 59.3306C226.599 59.073 226.525 58.8095 226.47 58.5419Z" fill="#454B5C"/>
<path fill-rule="evenodd" clip-rule="evenodd" d="M231.496 98.4827L220.522 87.5082C220.424 87.4095 220.3 87.342 220.164 87.3141C220.028 87.2862 219.887 87.2993 219.758 87.3516C219.63 87.4039 219.52 87.4931 219.442 87.6079C219.364 87.7228 219.322 87.8581 219.321 87.9969V98.9766C219.32 99.0689 219.338 99.1605 219.373 99.246C219.408 99.3314 219.46 99.4091 219.525 99.4743C219.59 99.5397 219.668 99.5914 219.753 99.6264C219.839 99.6614 219.931 99.6791 220.023 99.6784H230.977C231.073 99.6822 231.169 99.6657 231.259 99.6298C231.348 99.594 231.429 99.5398 231.496 99.4705C231.627 99.339 231.7 99.1616 231.7 98.9766C231.7 98.7916 231.627 98.6142 231.496 98.4827ZM220.721 89.6919L229.314 98.2801H220.721V89.6919Z" fill="#454B5C"/>
<path fill-rule="evenodd" clip-rule="evenodd" d="M230.504 99.4706L241.478 110.445H241.483C241.551 110.514 241.632 110.568 241.721 110.605C241.811 110.642 241.907 110.66 242.003 110.658C242.095 110.658 242.186 110.64 242.271 110.605C242.356 110.569 242.433 110.518 242.498 110.452C242.562 110.387 242.614 110.31 242.648 110.225C242.683 110.14 242.701 110.048 242.7 109.956V98.9767C242.7 98.792 242.626 98.6148 242.496 98.4842C242.365 98.3535 242.188 98.2801 242.003 98.2801H231.024C230.928 98.2772 230.832 98.2936 230.743 98.3285C230.654 98.3633 230.572 98.4158 230.504 98.4829C230.373 98.6143 230.301 98.7917 230.301 98.9767C230.301 99.1617 230.373 99.3392 230.504 99.4706ZM241.282 108.267L232.693 99.6784H241.282V108.267Z" fill="#454B5C"/>
<path fill-rule="evenodd" clip-rule="evenodd" d="M220.522 110.444L231.496 99.4699H231.522C231.622 99.3709 231.689 99.2441 231.716 99.1061C231.742 98.9681 231.726 98.8254 231.67 98.6966C231.614 98.5679 231.52 98.4591 231.401 98.3847C231.282 98.3102 231.143 98.2735 231.002 98.2794H220.002C219.91 98.2787 219.819 98.2962 219.734 98.3309C219.649 98.3656 219.571 98.4168 219.506 98.4815C219.441 98.5463 219.389 98.6234 219.354 98.7082C219.318 98.7931 219.3 98.8841 219.3 98.976V109.956C219.299 110.048 219.317 110.14 219.352 110.225C219.387 110.311 219.439 110.388 219.504 110.454C219.569 110.519 219.647 110.57 219.732 110.606C219.818 110.641 219.91 110.658 220.002 110.658C220.099 110.659 220.194 110.641 220.284 110.605C220.373 110.568 220.454 110.514 220.522 110.444ZM229.315 99.6779L220.721 108.266V99.6779H229.315Z" fill="#454B5C"/>
<path fill-rule="evenodd" clip-rule="evenodd" d="M230.503 98.4883L219.529 109.463C219.463 109.527 219.411 109.604 219.375 109.689C219.339 109.774 219.321 109.865 219.321 109.957C219.321 110.049 219.339 110.14 219.375 110.225C219.411 110.309 219.463 110.386 219.529 110.451C219.592 110.517 219.669 110.57 219.754 110.606C219.839 110.641 219.93 110.659 220.022 110.659H231.023C231.115 110.659 231.206 110.64 231.291 110.605C231.376 110.57 231.453 110.518 231.517 110.453C231.582 110.387 231.633 110.31 231.668 110.225C231.703 110.14 231.72 110.049 231.72 109.957V98.9769C231.72 98.7922 231.646 98.615 231.516 98.4844C231.385 98.3537 231.208 98.2803 231.023 98.2803C230.927 98.2765 230.83 98.293 230.741 98.3289C230.651 98.3647 230.57 98.419 230.503 98.4883ZM221.714 109.26L230.302 100.671V109.26H221.714Z" fill="#454B5C"/>
<path fill-rule="evenodd" clip-rule="evenodd" d="M241.478 87.508L230.504 98.4825H230.483C230.384 98.5822 230.318 98.7092 230.292 98.8472C230.266 98.9852 230.282 99.1278 230.338 99.2566C230.394 99.3853 230.487 99.4943 230.606 99.5695C230.724 99.6446 230.863 99.6825 231.003 99.6782H241.998C242.09 99.6782 242.181 99.66 242.266 99.6247C242.351 99.5893 242.428 99.5376 242.493 99.4723C242.557 99.4071 242.609 99.3297 242.643 99.2446C242.678 99.1595 242.696 99.0683 242.695 98.9764V87.9967C242.695 87.9052 242.677 87.8146 242.642 87.7301C242.607 87.6456 242.555 87.5688 242.491 87.5041C242.426 87.4394 242.349 87.3881 242.265 87.3531C242.18 87.3181 242.09 87.3001 241.998 87.3001C241.902 87.2975 241.806 87.3146 241.717 87.3504C241.627 87.3861 241.546 87.4398 241.478 87.508ZM232.694 98.2797L241.282 89.6915V98.2797H232.694Z" fill="#454B5C"/>
<path fill-rule="evenodd" clip-rule="evenodd" d="M231.501 99.4705L242.476 88.496H242.481C242.611 88.3637 242.685 88.1853 242.685 87.9995C242.685 87.8137 242.611 87.6353 242.481 87.503C242.413 87.4355 242.332 87.3826 242.242 87.3478C242.153 87.3129 242.057 87.2967 241.961 87.3003H230.981C230.89 87.2996 230.798 87.3171 230.713 87.3518C230.628 87.3865 230.551 87.4377 230.485 87.5025C230.42 87.5672 230.368 87.6443 230.333 87.7291C230.298 87.814 230.28 87.905 230.28 87.9969V98.9766C230.279 99.069 230.297 99.1605 230.332 99.246C230.367 99.3314 230.418 99.4091 230.484 99.4744C230.549 99.5397 230.627 99.5914 230.712 99.6264C230.797 99.6615 230.889 99.6791 230.981 99.6784C231.077 99.6799 231.173 99.6622 231.262 99.6264C231.351 99.5908 231.433 99.5378 231.501 99.4705ZM240.294 88.6989L231.701 97.2871V88.6989H240.294Z" fill="#454B5C"/>
<path d="M170.208 91.392H161.864V59.36L155.424 61.6L152.68 53.536L161.864 50.176H170.208V91.392ZM194.547 91.392H186.203V59.36L179.763 61.6L177.019 53.536L186.203 50.176H194.547V91.392ZM220.317 70.024H231.597V76.552H220.317V87.784H213.837V76.552H202.557V70.024H213.837V58.744H220.317V70.024Z" fill="white"/>
<path d="M159.58 118.38C158.127 118.38 156.84 118.04 155.72 117.36C154.613 116.68 153.753 115.76 153.14 114.6C152.54 113.44 152.24 112.167 152.24 110.78C152.24 109.393 152.54 108.12 153.14 106.96C153.753 105.8 154.613 104.88 155.72 104.2C156.84 103.52 158.127 103.18 159.58 103.18C160.58 103.18 161.52 103.38 162.4 103.78C163.293 104.167 164.08 104.707 164.76 105.4L163.18 107.2C162.753 106.76 162.207 106.413 161.54 106.16C160.887 105.893 160.227 105.76 159.56 105.76C158.587 105.76 157.727 105.98 156.98 106.42C156.233 106.86 155.653 107.467 155.24 108.24C154.84 109 154.64 109.847 154.64 110.78C154.64 111.713 154.84 112.567 155.24 113.34C155.653 114.1 156.233 114.707 156.98 115.16C157.727 115.6 158.587 115.82 159.56 115.82C160.227 115.82 160.887 115.693 161.54 115.44C162.207 115.173 162.753 114.813 163.18 114.36L164.76 116.16C164.08 116.853 163.293 117.4 162.4 117.8C161.52 118.187 160.58 118.38 159.58 118.38ZM174.054 112.72C174.054 111.947 173.867 111.333 173.494 110.88C173.12 110.413 172.54 110.18 171.754 110.18C171.274 110.18 170.827 110.307 170.414 110.56C170.014 110.813 169.694 111.147 169.454 111.56C169.227 111.973 169.114 112.413 169.114 112.88V118.26H166.714V102.92H169.114V109.16C169.434 108.707 169.854 108.367 170.374 108.14C170.894 107.9 171.374 107.78 171.814 107.78C172.76 107.78 173.574 107.987 174.254 108.4C174.947 108.813 175.474 109.373 175.834 110.08C176.194 110.787 176.374 111.56 176.374 112.4V118.26H174.054V112.72ZM183.617 116.08C184.111 116.08 184.571 115.953 184.997 115.7C185.437 115.433 185.784 115.067 186.037 114.6C186.304 114.133 186.437 113.613 186.437 113.04C186.437 112.453 186.304 111.927 186.037 111.46C185.784 110.993 185.437 110.633 184.997 110.38C184.571 110.113 184.111 109.98 183.617 109.98C183.004 109.98 182.484 110.113 182.057 110.38C181.644 110.633 181.331 110.993 181.117 111.46C180.904 111.913 180.797 112.44 180.797 113.04C180.797 113.627 180.904 114.153 181.117 114.62C181.331 115.073 181.644 115.433 182.057 115.7C182.484 115.953 183.004 116.08 183.617 116.08ZM188.957 118.2H186.557V116.7C186.277 117.073 185.964 117.387 185.617 117.64C185.284 117.88 184.931 118.06 184.557 118.18C184.184 118.3 183.804 118.36 183.417 118.36C182.391 118.36 181.491 118.12 180.717 117.64C179.957 117.16 179.377 116.52 178.977 115.72C178.591 114.907 178.397 114.013 178.397 113.04C178.397 112.053 178.591 111.16 178.977 110.36C179.377 109.56 179.957 108.92 180.717 108.44C181.491 107.96 182.391 107.72 183.417 107.72C184.004 107.72 184.571 107.86 185.117 108.14C185.677 108.407 186.157 108.813 186.557 109.36V107.66H188.957V118.2ZM194.009 107.58V118.26H191.669V107.58H194.009ZM192.829 102.48C193.243 102.48 193.563 102.607 193.789 102.86C194.029 103.1 194.149 103.407 194.149 103.78C194.149 104.167 194.029 104.487 193.789 104.74C193.563 104.98 193.243 105.1 192.829 105.1C192.429 105.1 192.109 104.98 191.869 104.74C191.643 104.487 191.529 104.167 191.529 103.78C191.529 103.407 191.643 103.1 191.869 102.86C192.109 102.607 192.429 102.48 192.829 102.48ZM204.022 112.5C204.022 111.753 203.809 111.153 203.382 110.7C202.969 110.233 202.342 110 201.502 110C201.022 110 200.589 110.12 200.202 110.36C199.816 110.587 199.509 110.9 199.282 111.3C199.069 111.7 198.962 112.127 198.962 112.58V118.2H196.582V107.66H198.962V109.22C199.149 108.873 199.396 108.587 199.702 108.36C200.022 108.12 200.356 107.947 200.702 107.84C201.062 107.72 201.409 107.66 201.742 107.66C202.596 107.66 203.376 107.827 204.082 108.16C204.789 108.48 205.349 108.98 205.762 109.66C206.189 110.327 206.402 111.153 206.402 112.14V118.2H204.022V112.5ZM214.568 110.98C214.408 110.74 214.201 110.527 213.948 110.34C213.641 110.14 213.321 110.007 212.988 109.94C212.655 109.873 212.328 109.847 212.008 109.86C211.781 109.887 211.581 109.933 211.408 110C211.235 110.067 211.095 110.173 210.988 110.32C210.935 110.44 210.908 110.553 210.908 110.66C210.908 110.767 210.948 110.873 211.028 110.98C211.081 111.073 211.215 111.18 211.428 111.3C211.708 111.46 211.988 111.587 212.268 111.68L212.988 111.9C213.868 112.14 214.521 112.373 214.948 112.6C215.388 112.813 215.721 113.047 215.948 113.3C216.295 113.687 216.521 114.167 216.628 114.74C216.748 115.313 216.655 115.893 216.348 116.48C216.161 116.8 215.941 117.067 215.688 117.28C215.448 117.48 215.155 117.68 214.808 117.88C214.301 118.133 213.761 118.293 213.188 118.36C212.601 118.413 212.041 118.373 211.508 118.24C210.988 118.107 210.468 117.88 209.948 117.56C209.575 117.333 209.228 117.013 208.908 116.6C208.588 116.187 208.381 115.86 208.288 115.62L210.248 114.46L210.268 114.52C210.388 114.747 210.508 114.94 210.628 115.1C210.748 115.247 210.908 115.387 211.108 115.52C211.481 115.747 211.801 115.893 212.068 115.96C212.348 116.027 212.675 116.053 213.048 116.04C213.301 116.013 213.548 115.94 213.788 115.82C213.908 115.767 214.001 115.713 214.068 115.66C214.148 115.607 214.208 115.54 214.248 115.46C214.328 115.34 214.355 115.22 214.328 115.1C214.315 114.98 214.261 114.873 214.168 114.78C214.048 114.7 213.875 114.62 213.648 114.54C213.235 114.407 212.775 114.26 212.268 114.1L211.508 113.88C211.215 113.787 210.981 113.7 210.808 113.62C210.648 113.54 210.468 113.44 210.268 113.32C209.895 113.107 209.588 112.853 209.348 112.56C209.001 112.173 208.775 111.687 208.668 111.1C208.575 110.513 208.648 109.933 208.888 109.36C209.155 108.787 209.568 108.36 210.128 108.08C210.688 107.787 211.268 107.613 211.868 107.56C212.375 107.507 212.921 107.54 213.508 107.66C214.095 107.78 214.648 108.007 215.168 108.34C215.728 108.727 216.155 109.167 216.448 109.66L214.568 110.98Z" fill="#ECEEF4"/>
<path d="M60.5689 130L63.7049 118.16H60.6489L59.0329 125.888H59.0009L57.2889 118.16H54.9689L53.2249 125.856H53.1929L51.6089 118.16H48.5369L51.5929 130H54.3289L56.1049 122.336H56.1369L57.9129 130H60.5689ZM74.1441 130V121.12H71.4881V122.064H71.4561C70.9441 121.248 69.9361 120.816 68.8481 120.816C66.3041 120.816 64.4001 122.928 64.4001 125.552C64.4001 128.24 66.2241 130.304 68.8481 130.304C70.0161 130.304 71.0721 129.824 71.4561 129.04H71.4881V130H74.1441ZM69.2641 127.824C68.0321 127.824 67.0561 126.816 67.0561 125.584C67.0561 124.304 68.0161 123.296 69.2321 123.296C70.4801 123.296 71.4881 124.304 71.4881 125.552C71.4881 126.832 70.5121 127.824 69.2641 127.824ZM78.6097 130V118.16H75.9537V130H78.6097ZM83.0598 130V118.16H80.4038V130H83.0598ZM93.6539 126.368C93.7019 126.128 93.7179 125.92 93.7179 125.664C93.7179 122.912 91.6859 120.816 89.0299 120.816C86.4219 120.816 84.3739 123.024 84.3739 125.584C84.3739 128.224 86.5179 130.288 89.0779 130.288C90.9499 130.288 92.5659 129.152 93.4139 127.216H90.6939C90.2619 127.776 89.7979 128.048 89.0779 128.048C87.9899 128.048 87.1419 127.376 86.9979 126.368H93.6539ZM87.0299 124.576C87.2379 123.632 88.0699 123.056 89.0299 123.056C90.0539 123.056 90.8539 123.664 91.0619 124.576H87.0299ZM98.2537 130V123.136H99.5337V121.12H98.2537V118.16H95.5977V121.12H94.2857V123.136H95.5977V130H98.2537Z" fill="white"/>
<defs>
<linearGradient id="paint0_linear_1504_8533" x1="60.1538" y1="37.9407" x2="60.1538" y2="105.003" gradientUnits="userSpaceOnUse">
<stop offset="0.24" stop-color="#33FFFF"/>
<stop offset="0.78" stop-color="#2D6CFF"/>
<stop offset="1" stop-color="#6AB8FF"/>
</linearGradient>
<clipPath id="clip0_1504_8533">
<rect width="26" height="26" fill="white" transform="translate(142 10)"/>
</clipPath>
<clipPath id="clip1_1504_8533">
<rect width="26" height="26" fill="white" transform="translate(142 86)"/>
</clipPath>
<clipPath id="clip2_1504_8533">
<rect width="26" height="26" fill="white" transform="translate(218 10)"/>
</clipPath>
<clipPath id="clip3_1504_8533">
<rect width="26" height="26" fill="white" transform="translate(180 10)"/>
</clipPath>
<clipPath id="clip4_1504_8533">
<rect width="26" height="26" fill="white" transform="translate(180 86)"/>
</clipPath>
</defs>
</svg>
