<svg width="200" height="200" viewBox="0 0 200 200" fill="none" xmlns="http://www.w3.org/2000/svg">
<g clip-path="url(#clip0_729_7492)">
<path d="M176 0H24C10.7452 0 0 10.7452 0 24V176C0 189.255 10.7452 200 24 200H176C189.255 200 200 189.255 200 176V24C200 10.7452 189.255 0 176 0Z" fill="#ECEEF4"/>
<path d="M86.375 73.8092H26.2187V71.4263L79.1562 67.2323V71.4263H86.375V64.2774C86.375 59.0349 82.0871 55.3557 76.8511 56.0944L28.5288 62.9287C23.2879 63.6722 19 68.5667 19 73.8092V121.468C19 123.996 20.0141 126.421 21.8191 128.208C23.6241 129.996 26.0723 131 28.625 131H86.375C88.9277 131 91.3759 129.996 93.1809 128.208C94.9859 126.421 96 123.996 96 121.468V83.341C96 80.813 94.9859 78.3886 93.1809 76.601C91.3759 74.8135 88.9277 73.8092 86.375 73.8092ZM79.1562 107.199C78.208 107.199 77.269 107.014 76.393 106.654C75.517 106.294 74.7211 105.767 74.0508 105.103C73.3805 104.439 72.8489 103.65 72.4863 102.782C72.1236 101.915 71.9372 100.985 71.9375 100.045C71.9378 99.1064 72.1249 98.1765 72.4881 97.309C72.8513 96.4415 73.3835 95.6533 74.0542 94.9895C74.725 94.3257 75.5212 93.7992 76.3975 93.4401C77.2737 93.081 78.2128 92.8963 79.1611 92.8966C81.0762 92.8973 82.9127 93.6513 84.2665 94.9929C85.6203 96.3344 86.3804 98.1536 86.3798 100.05C86.3792 101.947 85.6178 103.766 84.2631 105.106C82.9084 106.447 81.0714 107.2 79.1562 107.199Z" fill="#8F98AE"/>
<path d="M46 119C55.9411 119 64 110.941 64 101C64 91.0589 55.9411 83 46 83C36.0589 83 28 91.0589 28 101C28 110.941 36.0589 119 46 119Z" fill="black"/>
<path d="M49.3569 108.247V112.352C47.1965 111.629 44.8592 111.629 42.6987 112.352V92.0449H46.5779C47.3154 92.0449 48.0228 92.3378 48.5445 92.8592C49.0662 93.3806 49.3596 94.0879 49.3599 94.8255V96.7304L49.3569 108.247Z" fill="white"/>
<path d="M49.3633 99.6934V112.35C47.2029 111.626 44.8656 111.626 42.7051 112.35V109.397C42.7054 107.296 43.3409 105.245 44.5281 103.512C45.7153 101.779 47.3988 100.446 49.3575 99.6875L49.3633 99.6934Z" fill="#4F82F6"/>
<path d="M53.6723 92.0449C53.3208 92.0443 52.9726 92.1159 52.6477 92.2554C52.3228 92.3949 52.0276 92.5997 51.779 92.858C51.5304 93.1163 51.3334 93.4231 51.1991 93.7607C51.0648 94.0983 50.996 94.4602 50.9966 94.8255V112.934C52.8827 112.176 54.504 110.843 55.6473 109.11C56.7907 107.377 57.4026 105.325 57.4025 103.223V92.0449H53.6723Z" fill="white"/>
<path d="M41.0658 96.7304V92.0449H34.6665V104.712L41.0658 112.932V108.247H41.0616V96.7304H41.0658Z" fill="white"/>
<g opacity="0.8">
<path d="M159.935 45.834L150.72 50.3017L159.935 56.1055L169.147 50.3017L159.935 45.834Z" fill="#8F98AE"/>
</g>
<g opacity="0.65">
<path opacity="0.65" d="M150.72 50.2993L159.935 56.1031V34L150.72 50.2993Z" fill="#8F98AE"/>
</g>
<g opacity="0.9">
<path d="M159.935 34V56.1031L169.147 50.2993L159.935 34Z" fill="#8F98AE"/>
</g>
<g opacity="0.65">
<path opacity="0.65" d="M150.72 52.1621L159.935 66.0016V57.9659L150.72 52.1621Z" fill="#8F98AE"/>
</g>
<g opacity="0.8">
<path d="M159.936 57.9659V66.0016L169.154 52.1621L159.936 57.9659Z" fill="#8F98AE"/>
</g>
<path d="M149.199 160.662C149.392 160.469 149.658 160.356 149.939 160.356H175.475C175.942 160.356 176.175 160.919 175.846 161.249L170.801 166.293C170.608 166.487 170.342 166.599 170.061 166.599H144.525C144.058 166.599 143.825 166.036 144.154 165.706L149.199 160.662Z" fill="#8F98AE"/>
<path d="M149.199 141.827C149.4 141.634 149.666 141.521 149.939 141.521H175.475C175.942 141.521 176.175 142.085 175.846 142.415L170.801 147.459C170.608 147.652 170.342 147.765 170.061 147.765H144.525C144.058 147.765 143.825 147.202 144.154 146.872L149.199 141.827Z" fill="#8F98AE"/>
<path d="M170.801 151.184C170.608 150.991 170.342 150.878 170.061 150.878H144.525C144.058 150.878 143.825 151.442 144.154 151.771L149.199 156.816C149.392 157.009 149.658 157.122 149.939 157.122H175.475C175.942 157.122 176.175 156.558 175.846 156.229L170.801 151.184Z" fill="#8F98AE"/>
<path fill-rule="evenodd" clip-rule="evenodd" d="M160 118C168.837 118 176 110.837 176 102C176 93.1634 168.837 86 160 86C151.163 86 144 93.1634 144 102C144 110.837 151.163 118 160 118ZM160.047 88.4581C159.92 88.3413 159.855 88.3391 159.844 88.3391C159.833 88.3391 159.767 88.3413 159.64 88.4581C159.51 88.5781 159.354 88.785 159.186 89.1042C158.851 89.7414 158.531 90.7045 158.254 91.9472C157.944 93.3447 157.698 95.0528 157.543 96.9649C158.291 97.3269 159.061 97.7205 159.843 98.1431C160.626 97.7204 161.396 97.3268 162.144 96.9647C161.989 95.0527 161.744 93.3446 161.433 91.9472C161.157 90.7045 160.836 89.7414 160.501 89.1042C160.333 88.785 160.177 88.5781 160.047 88.4581ZM159.189 98.5018C158.614 98.1964 158.048 97.9075 157.493 97.6361C157.451 98.2516 157.418 98.8861 157.396 99.5363C157.689 99.3607 157.986 99.1858 158.288 99.0118C158.589 98.8378 158.89 98.6678 159.189 98.5018ZM156.94 96.6775C157.389 91.4342 158.519 87.7137 159.844 87.7137C161.168 87.7137 162.299 91.4341 162.748 96.6773C163.791 96.1886 164.788 95.7646 165.715 95.4124C165.715 95.3979 165.714 95.3834 165.714 95.3688C165.714 94.8233 166.142 94.3811 166.669 94.3811C166.996 94.3811 167.285 94.5511 167.457 94.8103C169.858 94.0715 171.546 93.9797 171.967 94.709C172.629 95.855 169.971 98.694 165.652 101.704C169.971 104.714 172.629 107.553 171.967 108.699C171.305 109.845 167.516 108.964 162.748 106.731C162.299 111.974 161.168 115.695 159.844 115.695C159.094 115.695 158.407 114.503 157.87 112.518C157.453 112.412 157.143 112.023 157.143 111.559C157.143 111.256 157.274 110.986 157.481 110.805C157.252 109.606 157.068 108.231 156.94 106.731C152.171 108.964 148.382 109.845 147.72 108.699C147.058 107.553 149.716 104.714 154.035 101.704C153.143 101.082 152.321 100.467 151.585 99.8734C151.438 99.9687 151.264 100.024 151.078 100.024C150.551 100.024 150.124 99.5817 150.124 99.0362C150.124 98.9098 150.147 98.7889 150.188 98.6778C148.264 96.9175 147.289 95.4548 147.72 94.709C148.382 93.563 152.171 94.4445 156.94 96.6775ZM162.8 97.3438C163.907 96.8191 164.961 96.368 165.934 95.9985C166.109 96.2171 166.373 96.3564 166.669 96.3564C167.182 96.3564 167.6 95.9382 167.623 95.4135C168.784 95.0552 169.738 94.8634 170.434 94.8356C170.794 94.8213 171.052 94.8526 171.221 94.9055C171.386 94.957 171.42 95.0126 171.426 95.0219C171.431 95.0311 171.462 95.0887 171.424 95.2569C171.385 95.4295 171.284 95.6677 171.091 95.9726C170.706 96.5811 170.032 97.3402 169.093 98.2007C168.038 99.1685 166.68 100.235 165.1 101.325C164.413 100.859 163.687 100.39 162.93 99.9237C162.904 99.035 162.861 98.1724 162.8 97.3438ZM159.186 114.304C158.947 113.849 158.715 113.226 158.501 112.454C158.827 112.297 159.053 111.955 159.053 111.559C159.053 111.013 158.625 110.571 158.098 110.571C158.093 110.571 158.088 110.571 158.083 110.571C158.08 110.571 158.076 110.571 158.073 110.571C157.848 109.361 157.667 107.967 157.543 106.443C158.291 106.081 159.061 105.688 159.843 105.265C160.626 105.688 161.396 106.082 162.144 106.444C161.989 108.356 161.744 110.064 161.433 111.461C161.157 112.704 160.836 113.667 160.501 114.304C160.333 114.623 160.177 114.83 160.047 114.95C159.92 115.067 159.855 115.069 159.844 115.069C159.833 115.069 159.767 115.067 159.64 114.95C159.51 114.83 159.354 114.623 159.186 114.304ZM154.586 101.325C153.627 100.663 152.75 100.01 151.973 99.3826C152.012 99.2748 152.033 99.1581 152.033 99.0362C152.033 98.4907 151.606 98.0485 151.078 98.0485C150.897 98.0485 150.728 98.1008 150.583 98.1915C149.65 97.3347 148.979 96.5789 148.596 95.9726C148.403 95.6677 148.302 95.4295 148.263 95.2569C148.225 95.0887 148.256 95.0312 148.261 95.0219C148.267 95.0125 148.301 94.9569 148.466 94.9055C148.635 94.8526 148.892 94.8213 149.253 94.8356C149.973 94.8643 150.968 95.0684 152.183 95.4506C153.549 95.8804 155.152 96.522 156.887 97.344C156.826 98.1724 156.783 99.035 156.758 99.9235C156 100.39 155.274 100.859 154.586 101.325ZM154.586 102.083C153.007 103.173 151.649 104.24 150.593 105.208C149.655 106.068 148.98 106.827 148.596 107.436C148.403 107.741 148.302 107.979 148.263 108.152C148.225 108.32 148.256 108.377 148.261 108.387C148.267 108.396 148.301 108.451 148.466 108.503C148.635 108.556 148.892 108.587 149.253 108.573C149.973 108.544 150.968 108.34 152.183 107.958C153.549 107.528 155.152 106.886 156.887 106.064C156.826 105.236 156.783 104.373 156.758 103.485C156 103.019 155.274 102.55 154.586 102.083ZM156.741 102.739C156.189 102.394 155.655 102.048 155.143 101.704C155.655 101.36 156.189 101.014 156.741 100.67C156.736 101.011 156.733 101.356 156.733 101.704C156.733 102.052 156.736 102.397 156.741 102.739ZM157.374 103.129C157.364 102.661 157.358 102.186 157.358 101.704C157.358 101.223 157.364 100.748 157.374 100.28C157.774 100.036 158.184 99.794 158.6 99.5535C159.018 99.3127 159.432 99.0798 159.843 98.8549C160.254 99.0798 160.669 99.3127 161.086 99.5535C161.503 99.7941 161.913 100.037 162.313 100.28C162.324 100.748 162.329 101.223 162.329 101.704C162.329 102.185 162.324 102.661 162.313 103.129C161.913 103.372 161.503 103.614 161.086 103.855C160.669 104.096 160.254 104.329 159.843 104.554C159.432 104.329 159.018 104.096 158.601 103.855C158.184 103.614 157.774 103.372 157.374 103.129ZM157.396 103.872C157.418 104.522 157.451 105.157 157.493 105.772C158.048 105.501 158.614 105.212 159.189 104.907C158.89 104.741 158.589 104.571 158.288 104.397C157.986 104.223 157.689 104.048 157.396 103.872ZM162.8 106.065C164.535 106.887 166.138 107.528 167.504 107.958C168.719 108.34 169.714 108.544 170.434 108.573C170.794 108.587 171.052 108.556 171.221 108.503C171.386 108.451 171.42 108.396 171.426 108.387C171.431 108.377 171.462 108.32 171.424 108.152C171.385 107.979 171.284 107.741 171.091 107.436C170.706 106.827 170.032 106.068 169.093 105.208C168.038 104.24 166.68 103.173 165.1 102.083C164.413 102.55 163.687 103.019 162.93 103.485C162.904 104.373 162.861 105.236 162.8 106.065ZM162.946 100.67C163.498 101.014 164.032 101.36 164.544 101.704C164.032 102.048 163.498 102.394 162.946 102.739C162.952 102.397 162.954 102.052 162.954 101.704C162.954 101.356 162.952 101.011 162.946 100.67ZM162.292 99.5365C162.269 98.8862 162.236 98.2516 162.194 97.6359C161.639 97.9073 161.073 98.1963 160.498 98.5018C160.797 98.6678 161.097 98.8378 161.399 99.0118C161.701 99.1858 161.998 99.3608 162.292 99.5365ZM162.194 105.773C161.639 105.501 161.073 105.212 160.498 104.907C160.797 104.741 161.097 104.571 161.399 104.397C161.701 104.223 161.998 104.048 162.292 103.872C162.269 104.522 162.236 105.157 162.194 105.773ZM161.646 101.998C161.646 102.907 160.909 103.644 160 103.644C159.091 103.644 158.354 102.907 158.354 101.998C158.354 101.089 159.091 100.352 160 100.352C160.909 100.352 161.646 101.089 161.646 101.998Z" fill="#8F98AE"/>
<path d="M96 100.4H138" stroke="#2EBBD1" stroke-width="1.2"/>
<path d="M141.5 50H134C125.163 50 118 57.1634 118 66V84.5C118 93.3366 110.837 100.5 102 100.5H96.5" stroke="#2EBBD1" stroke-width="1.2"/>
<path d="M139 154H133.5C124.663 154 117.5 146.837 117.5 138V116.5C117.5 107.663 110.337 100.5 101.5 100.5H96" stroke="#2EBBD1" stroke-width="1.2"/>
</g>
<defs>
<clipPath id="clip0_729_7492">
<rect width="200" height="200" fill="white"/>
</clipPath>
</defs>
</svg>