<svg width="991" height="245" viewBox="0 0 991 245" fill="none" xmlns="http://www.w3.org/2000/svg">
<path fill-rule="evenodd" clip-rule="evenodd" d="M259.179 229.167C218.544 239.412 176.017 244.857 132.214 244.857C126.795 244.857 121.408 244.772 116.03 244.609C114.19 244.548 112.735 243.037 112.735 241.189L112.722 182.132C124.671 173.576 132.458 159.578 132.458 143.761C132.458 127.937 124.663 113.933 112.706 105.378L112.692 47.4155C112.692 44.3628 114.702 41.6792 117.624 40.8413L255.593 1.12644C259.944 -0.129424 264.28 3.15378 264.288 7.70261V222.55C264.309 225.652 262.195 228.407 259.179 229.167ZM218.378 96.601C222.841 96.601 226.458 100.218 226.458 104.681V166.681C226.458 171.144 222.841 174.761 218.378 174.761C213.915 174.761 210.298 171.144 210.298 166.681V104.681C210.298 100.218 213.915 96.601 218.378 96.601Z" fill="url(#paint0_linear_2132_142)"/>
<path d="M96.5322 97.9467V28.6909C96.5322 25.4663 92.4951 24.0307 90.4775 26.5444L75.1455 45.5424C74.6514 46.1479 74.3877 46.9096 74.3877 47.6967V97.8686C77.8896 97.0405 81.542 96.601 85.2979 96.601C89.1687 96.601 92.9336 97.0679 96.5322 97.9467Z" fill="url(#paint1_linear_2132_142)"/>
<path d="M85.2979 112.761C102.423 112.761 116.298 126.643 116.298 143.761C116.298 160.891 102.421 174.761 85.2979 174.761C68.1791 174.761 54.2979 160.884 54.2979 143.761C54.2979 126.636 68.1809 112.761 85.2979 112.761Z" fill="url(#paint2_linear_2132_142)"/>
<path d="M58.208 105.152L58.2275 46.6479C58.2178 43.5854 56.2002 40.9018 53.2783 40.0639L8.98926 27.3237C4.6377 26.0678 0.301758 29.351 0.301758 33.8999V222.542C0.301758 225.689 2.43848 228.415 5.47949 229.185C21.4658 233.222 37.7354 236.505 54.2568 239.001C56.3193 239.308 58.167 237.701 58.167 235.615L58.1846 182.353C46.0596 173.818 38.1377 159.714 38.1377 143.761C38.1377 127.796 46.0693 113.685 58.208 105.152Z" fill="url(#paint3_linear_2132_142)"/>
<path d="M74.3877 189.652V238.835C74.3877 240.589 75.7002 242.06 77.4365 242.248C82.5635 242.787 87.708 243.248 92.8779 243.64C94.8545 243.787 96.5322 242.212 96.5322 240.22V189.574C92.9313 190.455 89.1677 190.921 85.2979 190.921C81.542 190.921 77.8896 190.482 74.3877 189.652Z" fill="url(#paint4_linear_2132_142)"/>
<path d="M847.487 238.339H826.962V185.295H816.823V169.715H826.962V146.841H847.487V169.715H857.378V185.295H847.487V238.339Z" fill="white"/>
<path d="M810.951 210.273H759.515C760.627 218.063 767.181 223.256 775.589 223.256C781.153 223.256 784.738 221.154 788.077 216.827H809.097C802.543 231.788 790.055 240.567 775.589 240.567C755.805 240.567 739.237 224.616 739.237 204.215C739.237 184.431 755.063 167.368 775.218 167.368C795.743 167.368 811.446 183.566 811.446 204.833C811.446 206.811 811.322 208.419 810.951 210.273ZM759.762 196.425H790.921C789.313 189.377 783.131 184.679 775.218 184.679C767.799 184.679 761.369 189.13 759.762 196.425Z" fill="white"/>
<path d="M728.091 238.339H707.565V146.841H728.091V238.339Z" fill="white"/>
<path d="M692.712 238.339H672.186V146.841H692.712V238.339Z" fill="white"/>
<path d="M656.609 238.341H636.083V230.922H635.836C632.869 236.981 624.708 240.69 615.682 240.69C595.404 240.69 581.308 224.74 581.308 203.967C581.308 183.689 596.022 167.368 615.682 167.368C624.09 167.368 631.879 170.707 635.836 177.013H636.083V169.717H656.609V238.341ZM618.897 221.525C628.541 221.525 636.083 213.859 636.083 203.967C636.083 194.323 628.294 186.533 618.649 186.533C609.252 186.533 601.833 194.323 601.833 204.215C601.833 213.735 609.376 221.525 618.897 221.525Z" fill="white"/>
<path d="M556.387 238.339H535.862L522.137 179.112H521.89L508.165 238.339H487.021L463.405 146.841H487.145L499.386 206.315H499.633L513.111 146.841H531.039L544.27 206.562H544.517L557.005 146.841H580.622L556.387 238.339Z" fill="white"/>
<path d="M459.966 238.339H436.721L417.308 205.325H417.061V238.339H396.536V146.841H417.061V194.568H417.308L436.35 169.715H460.708L434.866 199.885L459.966 238.339Z" fill="white"/>
<path d="M386.354 238.337H335.289V224.241L364.222 185.292H335.289V169.713H386.354V185.292L359.523 222.757H386.354V238.337Z" fill="white"/>
<path d="M990.482 94.0851H939.664V2.58691H990.482V23.1122H962.044V37.3315H989.617V57.8568H962.044V73.5598H990.482V94.0851Z" fill="white"/>
<path d="M922.997 94.0851H902.72L867.604 38.197L868.222 94.0851H845.842V2.58691H865.997L901.607 60.4533L900.618 2.58691H922.997V94.0851Z" fill="white"/>
<path d="M786.048 95.8167C760.577 95.8167 736.714 77.5171 736.714 50.4386C736.714 22.1236 757.115 0.856445 784.936 0.856445C811.643 0.856445 833.281 21.5054 833.281 47.7183C833.281 74.7969 812.261 95.8167 786.048 95.8167ZM785.307 75.2914C799.773 75.2914 809.912 63.0505 809.912 48.4602C809.912 34.1173 799.65 21.3817 784.936 21.3817C770.345 21.3817 760.083 33.6227 760.083 48.0893C760.083 63.1741 770.345 75.2914 785.307 75.2914Z" fill="white"/>
<path d="M680.433 94.0851H647.667V2.58691H678.826C690.201 2.58691 699.227 4.56525 705.657 8.15099C718.64 15.5698 726.8 29.6654 726.8 48.336C726.8 78.5057 708.995 94.0851 680.433 94.0851ZM671.036 73.5598H681.546C695.023 73.5598 703.431 65.1519 703.431 48.4596C703.431 32.1383 695.147 23.1122 681.669 23.1122H671.036V73.5598Z" fill="white"/>
<path d="M639.715 94.0851H589.267V2.58691H612.636V73.5598H639.715V94.0851Z" fill="white"/>
<path d="M579.462 94.0851H529.014V2.58691H552.383V73.5598H579.462V94.0851Z" fill="white"/>
<path d="M513.889 94.0851H463.07V2.58691H513.889V23.1122H485.45V37.3315H513.023V57.8568H485.45V73.5598H513.889V94.0851Z" fill="white"/>
<path d="M428.394 94.0851H407.869L394.144 34.8586H393.897L380.172 94.0851H359.028L335.412 2.58691H359.152L371.393 62.0607H371.64L385.118 2.58691H403.046L416.276 62.308H416.524L429.012 2.58691H452.628L428.394 94.0851Z" fill="white"/>
<defs>
<linearGradient id="paint0_linear_2132_142" x1="78.4244" y1="36.7405" x2="78.4244" y2="242.488" gradientUnits="userSpaceOnUse">
<stop offset="0.24" stop-color="#FF912C"/>
<stop offset="0.78" stop-color="#2D6CFF"/>
<stop offset="1" stop-color="#6AB8FF"/>
</linearGradient>
<linearGradient id="paint1_linear_2132_142" x1="78.4244" y1="36.7405" x2="78.4244" y2="242.488" gradientUnits="userSpaceOnUse">
<stop offset="0.24" stop-color="#FF912C"/>
<stop offset="0.78" stop-color="#2D6CFF"/>
<stop offset="1" stop-color="#6AB8FF"/>
</linearGradient>
<linearGradient id="paint2_linear_2132_142" x1="78.4244" y1="36.7405" x2="78.4244" y2="242.488" gradientUnits="userSpaceOnUse">
<stop offset="0.24" stop-color="#FF912C"/>
<stop offset="0.78" stop-color="#2D6CFF"/>
<stop offset="1" stop-color="#6AB8FF"/>
</linearGradient>
<linearGradient id="paint3_linear_2132_142" x1="78.4244" y1="36.7405" x2="78.4244" y2="242.488" gradientUnits="userSpaceOnUse">
<stop offset="0.24" stop-color="#FF912C"/>
<stop offset="0.78" stop-color="#2D6CFF"/>
<stop offset="1" stop-color="#6AB8FF"/>
</linearGradient>
<linearGradient id="paint4_linear_2132_142" x1="78.4244" y1="36.7405" x2="78.4244" y2="242.488" gradientUnits="userSpaceOnUse">
<stop offset="0.24" stop-color="#FF912C"/>
<stop offset="0.78" stop-color="#2D6CFF"/>
<stop offset="1" stop-color="#6AB8FF"/>
</linearGradient>
</defs>
</svg>
