<svg width="581" height="200" viewBox="0 0 581 200" fill="none" xmlns="http://www.w3.org/2000/svg">
<path d="M574.326 200L0 200L500.368 126.667L540.625 138.192L540.592 179.722H540.603L574.326 200Z" fill="#55FFDE"/>
<path d="M500.334 0L500.334 126.761L540.701 138.333L540.767 64.0215C540.773 57.1143 542.787 50.3579 546.564 44.5748C550.341 38.7917 555.718 34.2314 562.04 31.4491L581.001 23.1034L500.334 0Z" fill="white"/>
<ellipse cx="531.993" cy="136.334" rx="31.6666" ry="8.33332" fill="black"/>
<path d="M498.952 83.6965C499.701 82.9474 500.589 82.3531 501.567 81.9477C502.546 81.5422 503.594 81.3335 504.653 81.3335C505.712 81.3335 506.761 81.5422 507.739 81.9477C508.717 82.3531 509.606 82.9474 510.354 83.6965L547.463 120.806C541.892 123.268 535.706 123.987 529.718 122.87C523.731 121.753 518.221 118.85 513.912 114.545L490.992 91.6241L498.952 83.6965ZM502.732 91.7405C502.809 91.8024 502.889 91.8606 502.969 91.9188C503.049 91.977 503.136 92.0243 503.223 92.0716L503.493 92.1989C503.583 92.2353 503.678 92.2681 503.773 92.2972C503.867 92.3265 503.963 92.3508 504.06 92.3699C504.157 92.3893 504.255 92.4039 504.355 92.4136C504.552 92.433 504.751 92.433 504.948 92.4136C505.045 92.4136 505.143 92.399 505.243 92.3699C505.34 92.3513 505.436 92.327 505.53 92.2972C505.625 92.2681 505.719 92.2353 505.81 92.1989L506.079 92.0716C506.167 92.0243 506.25 91.9734 506.334 91.9188C506.418 91.8642 506.498 91.8024 506.574 91.7405C506.725 91.6135 506.865 91.4735 506.992 91.3221C507.056 91.2452 507.115 91.165 507.171 91.082C507.225 90.9983 507.276 90.9147 507.324 90.8274C507.371 90.74 507.411 90.6491 507.451 90.5581C507.491 90.4672 507.52 90.3726 507.549 90.278C507.579 90.1837 507.603 90.0877 507.622 89.9906C507.639 89.8911 507.653 89.7929 507.666 89.6959C507.685 89.4987 507.685 89.3001 507.666 89.1029C507.666 89.0034 507.651 88.9052 507.622 88.8082C507.603 88.7111 507.578 88.6152 507.549 88.5208C507.52 88.4262 507.487 88.3316 507.451 88.2406C507.414 88.1497 507.371 88.0587 507.324 87.9714C507.276 87.8841 507.225 87.8004 507.171 87.7167C507.116 87.633 507.054 87.5566 506.992 87.4802C506.93 87.4029 506.863 87.3288 506.792 87.2583C506.723 87.1892 506.651 87.1237 506.574 87.0582C506.497 86.996 506.417 86.9377 506.334 86.8836C506.25 86.829 506.167 86.7781 506.079 86.7308C505.904 86.6375 505.72 86.5608 505.53 86.5016C505.435 86.4725 505.341 86.4506 505.243 86.4288C505.144 86.407 505.046 86.3961 504.948 86.3852C504.85 86.3742 504.751 86.3852 504.653 86.3852C504.555 86.3852 504.453 86.3852 504.355 86.3852C504.257 86.3852 504.158 86.4106 504.06 86.4288C503.962 86.447 503.867 86.4725 503.773 86.5016C503.583 86.5608 503.399 86.6375 503.223 86.7308C503.136 86.7781 503.052 86.829 502.969 86.8836C502.885 86.9382 502.809 86.9964 502.732 87.0582L502.51 87.2583C502.441 87.3274 502.376 87.4038 502.31 87.4802C502.245 87.5566 502.19 87.6367 502.136 87.7167C502.081 87.7968 502.03 87.8841 501.983 87.9714C501.889 88.147 501.813 88.3309 501.754 88.5208C501.725 88.6152 501.702 88.7112 501.684 88.8082C501.663 88.9052 501.648 89.0037 501.641 89.1029C501.621 89.3001 501.621 89.4987 501.641 89.6959C501.648 89.795 501.663 89.8935 501.684 89.9906C501.702 90.0876 501.725 90.1836 501.754 90.278C501.813 90.4678 501.889 90.6517 501.983 90.8274C502.03 90.9147 502.081 90.9983 502.136 91.082C502.19 91.165 502.248 91.2451 502.31 91.3221C502.376 91.3985 502.441 91.4713 502.51 91.5404C502.579 91.6096 502.656 91.6787 502.732 91.7405Z" fill="#3C48DF"/>
<path d="M529.462 102.808L547.467 120.817C541.897 123.282 535.711 124.003 529.723 122.885C523.735 121.768 518.226 118.864 513.92 114.556L513.44 114.075L527.072 100.429L529.462 102.808Z" fill="#3C48DF"/>
<path d="M520.56 94.0922L528.949 98.2707L520.587 115.033L512.202 110.866C517.051 106.565 520.046 100.554 520.56 94.0922Z" fill="#9FBFFF"/>
<path d="M531.571 99.5902L551.483 109.511C547.344 114.041 541.712 116.928 535.618 117.645C532.243 118.061 528.819 117.817 525.537 116.927C523.827 116.461 522.169 115.826 520.585 115.032L528.943 98.2584L531.57 99.5671L531.571 99.5902Z" fill="#9FBFFF"/>
<line y1="-1.5" x2="13.8919" y2="-1.5" transform="matrix(-0.707103 0.707111 -0.707103 -0.707111 529.194 122.081)" stroke="#3C48DF" stroke-width="3"/>
<line x1="526.327" y1="133.404" x2="512.327" y2="133.404" stroke="#3C48DF" stroke-width="3"/>
<path d="M580.995 23L580.995 149.555L540.662 179.666L540.695 138.025L540.765 63.8404C540.771 56.9445 542.786 50.1989 546.565 44.425C550.345 38.6511 555.725 34.0981 562.052 31.3203L580.995 23Z" fill="#0F1D39"/>
</svg>
