<svg width="160" height="160" viewBox="0 0 160 160" fill="none" xmlns="http://www.w3.org/2000/svg">
<rect width="160" height="160" rx="8" fill="#131417"/>
<path d="M83.2 80.3199H49.6" stroke="#3B72F2" stroke-width="1.2"/>
<path d="M46.8 40H52.8C59.8693 40 65.6 45.7307 65.6 52.8V67.6C65.6 74.6693 71.3307 80.4 78.4 80.4H82.8" stroke="#3B72F2" stroke-width="1.2"/>
<path d="M48.8 123.2H53.2C60.2693 123.2 66 117.47 66 110.4V93.2C66 86.1304 71.7307 80.4 78.8 80.4H83.2" stroke="#3B72F2" stroke-width="1.2"/>
<path d="M137.1 58.0474H88.9752V56.1411L131.325 52.7859V56.1411H137.1V50.4219C137.1 46.2279 133.67 43.2846 129.481 43.8755L90.8232 49.343C86.6304 49.9378 83.2 53.8534 83.2 58.0474V96.1744C83.2 98.1968 84.0112 100.137 85.4552 101.566C86.8992 102.997 88.8576 103.8 90.9 103.8H137.1C139.142 103.8 141.101 102.997 142.545 101.566C143.989 100.137 144.8 98.1968 144.8 96.1744V65.6728C144.8 63.6504 143.989 61.7109 142.545 60.2808C141.101 58.8508 139.142 58.0474 137.1 58.0474ZM131.325 84.7592C130.566 84.7592 129.815 84.6112 129.114 84.3232C128.414 84.0352 127.777 83.6136 127.241 83.0824C126.705 82.5512 126.279 81.92 125.989 81.2256C125.699 80.532 125.55 79.788 125.55 79.036C125.55 78.2851 125.7 77.5412 125.99 76.8472C126.281 76.1532 126.706 75.5227 127.243 74.9916C127.78 74.4606 128.417 74.0394 129.118 73.7521C129.819 73.4648 130.57 73.3171 131.329 73.3173C132.861 73.3179 134.33 73.9211 135.413 74.9943C136.496 76.0675 137.104 77.5229 137.104 79.04C137.103 80.5576 136.494 82.0128 135.41 83.0848C134.326 84.1576 132.857 84.76 131.325 84.7592Z" fill="#C4C9D4"/>
<path d="M104.8 95.2C112.753 95.2 119.2 88.7529 119.2 80.8C119.2 72.8471 112.753 66.4 104.8 66.4C96.8471 66.4 90.4 72.8471 90.4 80.8C90.4 88.7529 96.8471 95.2 104.8 95.2Z" fill="black"/>
<path d="M107.486 86.5975V89.8815C105.758 89.3031 103.887 89.3031 102.159 89.8815V73.6359H105.262C105.852 73.6359 106.418 73.8702 106.836 74.2873C107.253 74.7044 107.488 75.2703 107.488 75.8603V77.3843L107.486 86.5975Z" fill="white"/>
<path d="M107.49 79.7547V89.88C105.762 89.3008 103.893 89.3008 102.164 89.88V87.5176C102.164 85.8368 102.673 84.196 103.622 82.8096C104.572 81.4232 105.919 80.3568 107.486 79.75L107.49 79.7547Z" fill="#4F82F6"/>
<path d="M110.938 73.6359C110.657 73.6354 110.378 73.6927 110.118 73.8043C109.858 73.9159 109.622 74.0797 109.423 74.2863C109.224 74.493 109.066 74.7384 108.959 75.0085C108.852 75.2786 108.797 75.5681 108.798 75.8603V90.3471C110.306 89.7407 111.603 88.6743 112.518 87.2879C113.433 85.9015 113.922 84.2599 113.922 82.5783V73.6359H110.938Z" fill="white"/>
<path d="M100.853 77.3843V73.6359H95.7336V83.7695L100.853 90.3455V86.5975H100.85V77.3843H100.853Z" fill="white"/>
<g opacity="0.8">
<path d="M31.9483 36.6672L24.5762 40.2414L31.9483 44.8844L39.3175 40.2414L31.9483 36.6672Z" fill="#C4C9D4"/>
</g>
<g opacity="0.65">
<path opacity="0.65" d="M24.5757 40.2394L31.9479 44.8824V27.2L24.5757 40.2394Z" fill="#C4C9D4"/>
</g>
<g opacity="0.9">
<path d="M31.9481 27.2V44.8824L39.3173 40.2394L31.9481 27.2Z" fill="#C4C9D4"/>
</g>
<g opacity="0.65">
<path opacity="0.65" d="M24.5762 41.7297L31.9483 52.8013V46.3728L24.5762 41.7297Z" fill="#C4C9D4"/>
</g>
<g opacity="0.8">
<path d="M31.9484 46.3728V52.8013L39.3234 41.7297L31.9484 46.3728Z" fill="#C4C9D4"/>
</g>
<path d="M23.3592 128.53C23.5137 128.375 23.7261 128.285 23.9514 128.285H44.3803C44.7537 128.285 44.9403 128.735 44.6764 128.999L40.6408 133.034C40.4863 133.19 40.2739 133.279 40.0486 133.279H19.6197C19.2463 133.279 19.0597 132.829 19.3236 132.565L23.3592 128.53Z" fill="#C4C9D4"/>
<path d="M23.3592 113.462C23.5201 113.307 23.7325 113.217 23.9514 113.217H44.3803C44.7537 113.217 44.9403 113.668 44.6764 113.932L40.6408 117.967C40.4863 118.122 40.2739 118.212 40.0486 118.212H19.6197C19.2463 118.212 19.0597 117.762 19.3236 117.498L23.3592 113.462Z" fill="#C4C9D4"/>
<path d="M40.6408 120.947C40.4863 120.793 40.2739 120.702 40.0486 120.702H19.6197C19.2463 120.702 19.0597 121.154 19.3236 121.417L23.3592 125.453C23.5137 125.607 23.7261 125.698 23.9514 125.698H44.3803C44.7537 125.698 44.9403 125.246 44.6764 124.983L40.6408 120.947Z" fill="#C4C9D4"/>
<path fill-rule="evenodd" clip-rule="evenodd" d="M32 94.4C39.0693 94.4 44.8 88.6696 44.8 81.6C44.8 74.5308 39.0693 68.8 32 68.8C24.9307 68.8 19.2 74.5308 19.2 81.6C19.2 88.6696 24.9307 94.4 32 94.4ZM32.0377 70.7665C31.9361 70.6731 31.8837 70.6713 31.8749 70.6713C31.8661 70.6713 31.8137 70.6731 31.7122 70.7665C31.6079 70.8625 31.4833 71.0281 31.3491 71.2834C31.0811 71.7932 30.8246 72.5636 30.6035 73.5578C30.3549 74.6758 30.1585 76.0423 30.0346 77.572C30.6331 77.8616 31.2487 78.1764 31.8747 78.5145C32.501 78.1764 33.1166 77.8615 33.7152 77.5718C33.5913 76.0422 33.3949 74.6757 33.1463 73.5578C32.9252 72.5636 32.6687 71.7932 32.4007 71.2834C32.2665 71.0281 32.1419 70.8625 32.0377 70.7665ZM31.3509 78.8015C30.8911 78.5572 30.4381 78.326 29.9945 78.1089C29.9609 78.6013 29.9347 79.1089 29.9165 79.6291C30.1511 79.4886 30.3891 79.3487 30.6303 79.2095C30.8716 79.0703 31.1119 78.9343 31.3509 78.8015ZM29.5517 77.342C29.9109 73.1474 30.8156 70.171 31.8749 70.171C32.9342 70.171 33.8389 73.1473 34.1981 77.3419C35.0331 76.9509 35.8305 76.6117 36.5723 76.33C36.5719 76.3184 36.5716 76.3068 36.5716 76.2951C36.5716 75.8587 36.9136 75.5049 37.3354 75.5049C37.597 75.5049 37.8278 75.6409 37.9655 75.8483C39.8861 75.2573 41.2366 75.1838 41.5736 75.7672C42.1033 76.684 39.9765 78.9553 36.5213 81.3633C39.9765 83.7713 42.1033 86.0424 41.5736 86.9592C41.044 87.876 38.0126 87.1713 34.1981 85.3849C33.8389 89.5793 32.9342 92.556 31.8749 92.556C31.2754 92.556 30.7254 91.6024 30.2957 90.0144C29.962 89.9296 29.7145 89.6184 29.7145 89.2472C29.7145 89.0048 29.8194 88.7888 29.9847 88.644C29.8018 87.6848 29.6544 86.5849 29.5517 85.3849C25.7371 87.1713 22.7055 87.876 22.1759 86.9592C21.6462 86.0424 23.773 83.7713 27.2283 81.3633C26.5142 80.8657 25.8569 80.3736 25.2681 79.8988C25.1506 79.975 25.0116 80.0193 24.8627 80.0193C24.4408 80.0193 24.0988 79.6654 24.0988 79.229C24.0988 79.1279 24.1172 79.0312 24.1507 78.9423C22.6115 77.5341 21.8311 76.3639 22.1759 75.7672C22.7055 74.8504 25.7371 75.5556 29.5517 77.342ZM34.2403 77.8751C35.126 77.4553 35.9688 77.0944 36.747 76.7988C36.8871 76.9737 37.0987 77.0852 37.3354 77.0852C37.7457 77.0852 38.0803 76.7506 38.0984 76.3308C39.0273 76.0442 39.7902 75.8908 40.347 75.8685C40.6355 75.8571 40.8413 75.8821 40.9767 75.9245C41.1085 75.9657 41.1361 76.0101 41.1404 76.0176C41.1447 76.0249 41.1694 76.071 41.1392 76.2056C41.1082 76.3436 41.0271 76.5342 40.8729 76.7781C40.5651 77.2649 40.0258 77.8722 39.2747 78.5606C38.4302 79.3348 37.3441 80.188 36.0804 81.06C35.5302 80.6872 34.9496 80.312 34.3436 79.939C34.3235 79.228 34.2887 78.538 34.2403 77.8751ZM31.3491 91.4432C31.1574 91.0792 30.9717 90.5809 30.8005 89.9633C31.0613 89.8377 31.2421 89.564 31.2421 89.2472C31.2421 88.8104 30.9001 88.4568 30.4783 88.4568C30.4743 88.4568 30.4703 88.4568 30.4663 88.4568C30.4637 88.4568 30.4611 88.4568 30.4585 88.4568C30.278 87.4888 30.1333 86.3736 30.0346 85.1544C30.6331 84.8648 31.2487 84.5504 31.8747 84.212C32.501 84.5504 33.1166 84.8656 33.7152 85.1552C33.5913 86.6848 33.3949 88.0512 33.1463 89.1688C32.9252 90.1632 32.6687 90.9336 32.4007 91.4432C32.2665 91.6984 32.1419 91.864 32.0377 91.96C31.9361 92.0536 31.8837 92.0552 31.8749 92.0552C31.8661 92.0552 31.8137 92.0536 31.7122 91.96C31.6079 91.864 31.4833 91.6984 31.3491 91.4432ZM27.6691 81.06C26.9019 80.5304 26.2001 80.008 25.5782 79.5061C25.6094 79.4199 25.6264 79.3265 25.6264 79.229C25.6264 78.7926 25.2845 78.4388 24.8627 78.4388C24.7177 78.4388 24.5822 78.4807 24.4667 78.5532C23.7199 77.8678 23.1832 77.2632 22.8766 76.7781C22.7224 76.5342 22.6413 76.3436 22.6103 76.2056C22.5801 76.071 22.6047 76.025 22.6091 76.0176C22.6134 76.01 22.6411 75.9656 22.7729 75.9245C22.9082 75.8821 23.114 75.8571 23.4025 75.8685C23.9783 75.8915 24.7743 76.0548 25.7463 76.3605C26.8395 76.7044 28.1219 77.2177 29.5095 77.8753C29.4611 78.538 29.4263 79.228 29.4062 79.9388C28.8001 80.312 28.2195 80.6872 27.6691 81.06ZM27.6691 81.6664C26.4054 82.5384 25.3194 83.392 24.4747 84.1664C23.7238 84.8544 23.1843 85.4616 22.8766 85.9488C22.7224 86.1928 22.6413 86.3832 22.6103 86.5216C22.5801 86.656 22.6047 86.7016 22.6091 86.7096C22.6134 86.7168 22.641 86.7608 22.7729 86.8024C22.9082 86.8448 23.114 86.8696 23.4025 86.8584C23.9783 86.8352 24.7743 86.672 25.7463 86.3664C26.8395 86.0224 28.1219 85.5089 29.5095 84.8513C29.4611 84.1889 29.4263 83.4984 29.4062 82.788C28.8001 82.4152 28.2195 82.04 27.6691 81.6664ZM29.3929 82.1912C28.9512 81.9152 28.5243 81.6385 28.1143 81.3633C28.5243 81.0881 28.9512 80.8112 29.3929 80.536C29.3885 80.8088 29.3863 81.0849 29.3863 81.3633C29.3863 81.6417 29.3885 81.9176 29.3929 82.1912ZM29.8994 82.5032C29.8909 82.1288 29.8866 81.7489 29.8866 81.3633C29.8866 80.9785 29.8909 80.5984 29.8994 80.224C30.2196 80.0288 30.5468 79.8352 30.8804 79.6428C31.2142 79.4502 31.5459 79.2639 31.8747 79.084C32.2036 79.2639 32.5353 79.4502 32.8691 79.6428C33.2027 79.8353 33.5301 80.0296 33.8504 80.224C33.8589 80.5984 33.8633 80.9785 33.8633 81.3633C33.8633 81.7481 33.8589 82.1288 33.8504 82.5032C33.5301 82.6976 33.2027 82.8913 32.8691 83.0841C32.5353 83.2769 32.2036 83.4632 31.8747 83.6432C31.5459 83.4632 31.2142 83.2769 30.8804 83.0841C30.5468 82.8913 30.2196 82.6976 29.8994 82.5032ZM29.9165 83.0977C29.9347 83.6177 29.9609 84.1257 29.9945 84.6177C30.4381 84.4009 30.8911 84.1696 31.3509 83.9256C31.1119 83.7928 30.8716 83.6569 30.6303 83.5177C30.3891 83.3785 30.1511 83.2385 29.9165 83.0977ZM34.2403 84.8521C35.6278 85.5097 36.91 86.0224 38.0031 86.3664C38.9752 86.672 39.7712 86.8352 40.347 86.8584C40.6355 86.8696 40.8413 86.8448 40.9767 86.8024C41.1085 86.7608 41.1361 86.7168 41.1404 86.7096C41.1447 86.7016 41.1694 86.656 41.1392 86.5216C41.1082 86.3832 41.0271 86.1928 40.8729 85.9488C40.5651 85.4616 40.0258 84.8544 39.2747 84.1664C38.4302 83.392 37.3441 82.5384 36.0804 81.6664C35.5302 82.04 34.9496 82.4152 34.3436 82.788C34.3235 83.4984 34.2887 84.1889 34.2403 84.8521ZM34.3569 80.536C34.7985 80.8112 35.2252 81.0881 35.6351 81.3633C35.2252 81.6385 34.7985 81.9152 34.3569 82.1912C34.3613 81.9176 34.3636 81.6417 34.3636 81.3633C34.3636 81.0849 34.3613 80.8088 34.3569 80.536ZM33.8333 79.6292C33.8151 79.109 33.7889 78.6013 33.7553 78.1088C33.3116 78.3259 32.8585 78.5571 32.3986 78.8015C32.6376 78.9343 32.8779 79.0703 33.1191 79.2095C33.3604 79.3487 33.5986 79.4887 33.8333 79.6292ZM33.7553 84.6185C33.3116 84.4009 32.8585 84.1696 32.3986 83.9256C32.6376 83.7928 32.8779 83.6569 33.1191 83.5177C33.3604 83.3785 33.5986 83.2385 33.8333 83.0977C33.8151 83.6177 33.7889 84.1257 33.7553 84.6185ZM33.317 81.5984C33.317 82.3256 32.7274 82.9152 32.0001 82.9152C31.2728 82.9152 30.6832 82.3256 30.6832 81.5984C30.6832 80.8712 31.2728 80.2816 32.0001 80.2816C32.7274 80.2816 33.317 80.8712 33.317 81.5984Z" fill="#C4C9D4"/>
</svg>