<svg width="260" height="160" viewBox="0 0 260 160" fill="none" xmlns="http://www.w3.org/2000/svg">
<rect width="260" height="160" rx="8" fill="#131417"/>
<path fill-rule="evenodd" clip-rule="evenodd" d="M232 144C240.837 144 248 136.837 248 128C248 119.163 240.837 112 232 112C223.163 112 216 119.163 216 128C216 136.837 223.163 144 232 144ZM232.047 114.458C231.92 114.341 231.855 114.339 231.844 114.339C231.833 114.339 231.767 114.341 231.64 114.458C231.51 114.578 231.354 114.785 231.186 115.104C230.851 115.741 230.531 116.704 230.254 117.947C229.944 119.345 229.698 121.053 229.543 122.965C230.291 123.327 231.061 123.72 231.843 124.143C232.626 123.72 233.396 123.327 234.144 122.965C233.989 121.053 233.744 119.345 233.433 117.947C233.157 116.704 232.836 115.741 232.501 115.104C232.333 114.785 232.177 114.578 232.047 114.458ZM231.189 124.502C230.614 124.196 230.048 123.908 229.493 123.636C229.451 124.252 229.418 124.886 229.396 125.536C229.689 125.361 229.986 125.186 230.288 125.012C230.589 124.838 230.89 124.668 231.189 124.502ZM228.94 122.677C229.389 117.434 230.519 113.714 231.844 113.714C233.168 113.714 234.299 117.434 234.748 122.677C235.791 122.189 236.788 121.765 237.715 121.412C237.715 121.398 237.714 121.383 237.714 121.369C237.714 120.823 238.142 120.381 238.669 120.381C238.996 120.381 239.285 120.551 239.457 120.81C241.858 120.072 243.546 119.98 243.967 120.709C244.629 121.855 241.971 124.694 237.652 127.704C241.971 130.714 244.629 133.553 243.967 134.699C243.305 135.845 239.516 134.964 234.748 132.731C234.299 137.974 233.168 141.695 231.844 141.695C231.094 141.695 230.407 140.503 229.87 138.518C229.453 138.412 229.143 138.023 229.143 137.559C229.143 137.256 229.274 136.986 229.481 136.805C229.252 135.606 229.068 134.231 228.94 132.731C224.171 134.964 220.382 135.845 219.72 134.699C219.058 133.553 221.716 130.714 226.035 127.704C225.143 127.082 224.321 126.467 223.585 125.873C223.438 125.969 223.264 126.024 223.078 126.024C222.551 126.024 222.124 125.582 222.124 125.036C222.124 124.91 222.147 124.789 222.188 124.678C220.264 122.918 219.289 121.455 219.72 120.709C220.382 119.563 224.171 120.444 228.94 122.677ZM234.8 123.344C235.907 122.819 236.961 122.368 237.934 121.998C238.109 122.217 238.373 122.356 238.669 122.356C239.182 122.356 239.6 121.938 239.623 121.413C240.784 121.055 241.738 120.863 242.434 120.836C242.794 120.821 243.052 120.853 243.221 120.906C243.386 120.957 243.42 121.013 243.426 121.022C243.431 121.031 243.462 121.089 243.424 121.257C243.385 121.429 243.284 121.668 243.091 121.973C242.706 122.581 242.032 123.34 241.093 124.201C240.038 125.168 238.68 126.235 237.1 127.325C236.413 126.859 235.687 126.39 234.93 125.924C234.904 125.035 234.861 124.172 234.8 123.344ZM231.186 140.304C230.947 139.849 230.715 139.226 230.501 138.454C230.827 138.297 231.053 137.955 231.053 137.559C231.053 137.013 230.625 136.571 230.098 136.571C230.093 136.571 230.088 136.571 230.083 136.571C230.08 136.571 230.076 136.571 230.073 136.571C229.848 135.361 229.667 133.967 229.543 132.443C230.291 132.081 231.061 131.688 231.843 131.265C232.626 131.688 233.396 132.082 234.144 132.444C233.989 134.356 233.744 136.064 233.433 137.461C233.157 138.704 232.836 139.667 232.501 140.304C232.333 140.623 232.177 140.83 232.047 140.95C231.92 141.067 231.855 141.069 231.844 141.069C231.833 141.069 231.767 141.067 231.64 140.95C231.51 140.83 231.354 140.623 231.186 140.304ZM226.586 127.325C225.627 126.663 224.75 126.01 223.973 125.383C224.012 125.275 224.033 125.158 224.033 125.036C224.033 124.491 223.606 124.049 223.078 124.049C222.897 124.049 222.728 124.101 222.583 124.191C221.65 123.335 220.979 122.579 220.596 121.973C220.403 121.668 220.302 121.429 220.263 121.257C220.225 121.089 220.256 121.031 220.261 121.022C220.267 121.012 220.301 120.957 220.466 120.906C220.635 120.853 220.892 120.821 221.253 120.836C221.973 120.864 222.968 121.068 224.183 121.451C225.549 121.88 227.152 122.522 228.887 123.344C228.826 124.172 228.783 125.035 228.758 125.924C228 126.39 227.274 126.859 226.586 127.325ZM226.586 128.083C225.007 129.173 223.649 130.24 222.593 131.208C221.655 132.068 220.98 132.827 220.596 133.436C220.403 133.741 220.302 133.979 220.263 134.152C220.225 134.32 220.256 134.377 220.261 134.387C220.267 134.396 220.301 134.451 220.466 134.503C220.635 134.556 220.892 134.587 221.253 134.573C221.973 134.544 222.968 134.34 224.183 133.958C225.549 133.528 227.152 132.886 228.887 132.064C228.826 131.236 228.783 130.373 228.758 129.485C228 129.019 227.274 128.55 226.586 128.083ZM228.741 128.739C228.189 128.394 227.655 128.048 227.143 127.704C227.655 127.36 228.189 127.014 228.741 126.67C228.736 127.011 228.733 127.356 228.733 127.704C228.733 128.052 228.736 128.397 228.741 128.739ZM229.374 129.129C229.364 128.661 229.358 128.186 229.358 127.704C229.358 127.223 229.364 126.748 229.374 126.28C229.774 126.036 230.184 125.794 230.6 125.553C231.018 125.313 231.432 125.08 231.843 124.855C232.254 125.08 232.669 125.313 233.086 125.553C233.503 125.794 233.913 126.037 234.313 126.28C234.324 126.748 234.329 127.223 234.329 127.704C234.329 128.185 234.324 128.661 234.313 129.129C233.913 129.372 233.503 129.614 233.086 129.855C232.669 130.096 232.254 130.329 231.843 130.554C231.432 130.329 231.018 130.096 230.601 129.855C230.184 129.614 229.774 129.372 229.374 129.129ZM229.396 129.872C229.418 130.522 229.451 131.157 229.493 131.772C230.048 131.501 230.614 131.212 231.189 130.907C230.89 130.741 230.589 130.571 230.288 130.397C229.986 130.223 229.689 130.048 229.396 129.872ZM234.8 132.065C236.535 132.887 238.138 133.528 239.504 133.958C240.719 134.34 241.714 134.544 242.434 134.573C242.794 134.587 243.052 134.556 243.221 134.503C243.386 134.451 243.42 134.396 243.426 134.387C243.431 134.377 243.462 134.32 243.424 134.152C243.385 133.979 243.284 133.741 243.091 133.436C242.706 132.827 242.032 132.068 241.093 131.208C240.038 130.24 238.68 129.173 237.1 128.083C236.413 128.55 235.687 129.019 234.93 129.485C234.904 130.373 234.861 131.236 234.8 132.065ZM234.946 126.67C235.498 127.014 236.032 127.36 236.544 127.704C236.032 128.048 235.498 128.394 234.946 128.739C234.952 128.397 234.954 128.052 234.954 127.704C234.954 127.356 234.952 127.011 234.946 126.67ZM234.292 125.536C234.269 124.886 234.236 124.252 234.194 123.636C233.639 123.907 233.073 124.196 232.498 124.502C232.797 124.668 233.097 124.838 233.399 125.012C233.701 125.186 233.998 125.361 234.292 125.536ZM234.194 131.773C233.639 131.501 233.073 131.212 232.498 130.907C232.797 130.741 233.097 130.571 233.399 130.397C233.701 130.223 233.998 130.048 234.292 129.872C234.269 130.522 234.236 131.157 234.194 131.773ZM233.646 127.998C233.646 128.907 232.909 129.644 232 129.644C231.091 129.644 230.354 128.907 230.354 127.998C230.354 127.089 231.091 126.352 232 126.352C232.909 126.352 233.646 127.089 233.646 127.998Z" fill="#343844"/>
<path d="M62.1327 100.725C60.3635 100.84 58.6002 100.98 56.8458 101.14C56.1475 101.206 55.5381 100.722 55.5381 100.097V44.8299C55.5381 44.5881 55.6298 44.3543 55.8014 44.1677L61.1268 38.3291C61.828 37.5592 63.2304 38.0007 63.2304 38.9913V99.6789C63.2304 100.231 62.751 100.685 62.1327 100.725Z" fill="url(#paint0_linear_4424_10150)"/>
<path d="M34 53.1541L34.0149 102.918C34.0149 104.27 35.2269 105.26 36.4837 104.939C40.9385 103.801 45.4704 102.869 50.072 102.155C50.5597 102.079 50.9231 101.642 50.9231 101.126V49.2729C50.9231 47.8872 49.6563 46.887 48.3846 47.2699L35.4435 51.151C34.5898 51.4062 34 52.2242 34 53.1541Z" fill="url(#paint1_linear_4424_10150)"/>
<path d="M112.499 43.2239L70.4937 31.0827C69.1686 30.6984 67.8488 31.7021 67.8462 33.0927V99.4266C67.8462 100.017 68.3285 100.488 68.9146 100.47C70.5326 100.42 72.1585 100.396 73.7869 100.396C86.7548 100.396 99.3596 101.97 111.42 104.939C112.727 105.261 113.987 104.267 113.987 102.911L114 45.2339C114 44.3008 113.388 43.4801 112.499 43.2239ZM101.367 69.0617C101.224 70.4313 100.008 71.4246 98.6491 71.2808L93.3956 70.7241V76.0484C93.3956 77.4259 92.2884 78.542 90.9218 78.542C89.5553 78.542 88.4481 77.4259 88.4481 76.0484V70.1987L82.6785 69.587C81.3198 69.4433 80.3344 68.2174 80.477 66.8478C80.6196 65.4781 81.8358 64.4848 83.1946 64.6286L88.4481 65.1854V59.861C88.4481 58.4835 89.5553 57.3674 90.9218 57.3674C92.2884 57.3674 93.3956 58.4835 93.3956 59.861V65.7107L99.1652 66.3224C100.524 66.4661 101.509 67.692 101.367 69.0617Z" fill="url(#paint2_linear_4424_10150)"/>
<g clip-path="url(#clip0_4424_10150)">
<g opacity="0.8">
<path d="M143.615 27.8311L134.4 32.2988L143.615 38.1026L152.827 32.2988L143.615 27.8311Z" fill="#6E7891"/>
</g>
<g opacity="0.65">
<path opacity="0.65" d="M134.4 32.2993L143.615 38.1031V16L134.4 32.2993Z" fill="#6E7891"/>
</g>
<g opacity="0.9">
<path d="M143.615 16V38.1031L152.826 32.2993L143.615 16Z" fill="#6E7891"/>
</g>
<g opacity="0.65">
<path opacity="0.65" d="M134.4 34.1611L143.615 48.0007V39.9649L134.4 34.1611Z" fill="#6E7891"/>
</g>
<g opacity="0.8">
<path d="M143.615 39.9649V48.0007L152.834 34.1611L143.615 39.9649Z" fill="#6E7891"/>
</g>
</g>
<path d="M177.199 86.3403C177.392 86.1472 177.658 86.0346 177.939 86.0346H203.475C203.942 86.0346 204.175 86.5978 203.846 86.9276L198.801 91.9721C198.608 92.1652 198.342 92.2779 198.061 92.2779H172.525C172.058 92.2779 171.825 91.7147 172.154 91.3848L177.199 86.3403Z" fill="#343844"/>
<path d="M177.199 67.5059C177.4 67.3128 177.666 67.2002 177.939 67.2002H203.475C203.942 67.2002 204.175 67.7634 203.846 68.0932L198.801 73.1377C198.608 73.3308 198.342 73.4435 198.061 73.4435H172.525C172.058 73.4435 171.825 72.8803 172.154 72.5504L177.199 67.5059Z" fill="#343844"/>
<path d="M198.801 76.8628C198.608 76.6697 198.342 76.5571 198.061 76.5571H172.525C172.058 76.5571 171.825 77.1202 172.154 77.4501L177.199 82.4946C177.392 82.6877 177.658 82.8003 177.939 82.8003H203.475C203.942 82.8003 204.175 82.2371 203.846 81.9073L198.801 76.8628Z" fill="#343844"/>
<path d="M184.032 70.056C186.011 71.176 187.616 72.576 188.848 74.256C190.117 75.936 190.752 77.7653 190.752 79.744C190.752 82.0587 190.173 84.1307 189.016 85.96C187.859 87.752 186.16 89.152 183.92 90.16C181.717 91.168 179.048 91.672 175.912 91.672C172.739 91.672 170.032 91.1493 167.792 90.104C165.589 89.0587 163.909 87.584 162.752 85.68C161.632 83.7387 161.072 81.48 161.072 78.904H169.416C169.416 79.8373 169.603 80.6773 169.976 81.424C170.387 82.1707 171.077 82.7867 172.048 83.272C173.019 83.72 174.307 83.944 175.912 83.944C177.555 83.944 178.899 83.72 179.944 83.272C181.027 82.7867 181.811 82.1707 182.296 81.424C182.819 80.64 183.08 79.8 183.08 78.904C183.08 77.448 182.501 76.2347 181.344 75.264C180.187 74.256 178.413 73.752 176.024 73.752H173.224V66.472H176.136C178.077 66.472 179.608 66.0053 180.728 65.072C181.848 64.1387 182.408 63.0747 182.408 61.88C182.408 61.1333 182.184 60.4427 181.736 59.808C181.325 59.136 180.672 58.6133 179.776 58.24C178.88 57.8293 177.723 57.624 176.304 57.624C174.885 57.624 173.765 57.8293 172.944 58.24C172.123 58.6133 171.544 59.1173 171.208 59.752C170.909 60.3867 170.76 61.096 170.76 61.88H162.416C162.416 59.4533 162.957 57.344 164.04 55.552C165.123 53.7227 166.709 52.3227 168.8 51.352C170.891 50.3813 173.392 49.896 176.304 49.896C179.104 49.896 181.549 50.3813 183.64 51.352C185.731 52.2853 187.317 53.592 188.4 55.272C189.52 56.952 190.08 58.8747 190.08 61.04C190.08 62.8693 189.52 64.568 188.4 66.136C187.317 67.6667 185.861 68.9733 184.032 70.056Z" fill="white"/>
<path d="M171.06 110.88H174.24C173.1 113.54 170.28 115.3 167.4 115.3C163.28 115.3 159.68 111.86 159.68 107.54C159.68 103.42 163.12 99.9 167.34 99.9C170.28 99.9 173.1 101.6 174.32 104.42H171.2C170.14 103.2 168.9 102.46 167.24 102.46C164.56 102.46 162.42 104.96 162.42 107.58C162.42 110.24 164.62 112.74 167.34 112.74C168.72 112.74 169.84 112.24 171.06 110.88ZM185.365 115H182.705V109.22C182.705 106.92 181.945 105.96 180.425 105.96C178.905 105.96 178.185 107.04 178.185 109.26V115H175.525V100.2H178.185V104.68C179.005 103.9 179.925 103.52 181.065 103.52C182.405 103.52 185.365 104.46 185.365 108.22V115ZM198.538 115H196.098V113.62C195.218 114.66 193.578 115.36 192.198 115.36C189.078 115.36 186.818 112.74 186.818 109.38C186.818 106.16 189.158 103.52 192.378 103.52C193.938 103.52 195.478 104.44 196.058 105.3H196.098V103.9H198.538V115ZM192.778 112.92C194.718 112.92 196.018 111.32 196.018 109.42C196.018 107.48 194.678 105.96 192.758 105.96C190.898 105.96 189.478 107.52 189.478 109.5C189.478 111.36 190.898 112.92 192.778 112.92ZM203.041 102.64H200.381V100.2H203.041V102.64ZM203.041 115H200.381V103.9H203.041V115ZM214.905 115H212.245V109.42C212.245 107.16 211.505 105.96 210.005 105.96C209.185 105.96 207.705 106.5 207.705 108.94V115H205.045V103.9H207.505V104.86C208.385 104 209.285 103.52 210.565 103.52C212.005 103.52 214.905 104.42 214.905 108.44V115ZM223.918 106.92H221.318C221.178 106.34 220.878 105.96 220.258 105.96C219.698 105.96 219.238 106.36 219.238 106.92C219.238 107.44 219.458 107.68 221.058 108.14C223.658 108.9 224.218 110.06 224.218 111.48C224.218 113.7 222.518 115.36 220.338 115.36C218.258 115.36 216.338 114.16 216.178 111.5H218.898C219.118 112.52 219.598 112.92 220.358 112.92C221.058 112.92 221.558 112.44 221.558 111.8C221.558 111.02 220.978 110.78 219.458 110.28C217.238 109.58 216.578 108.34 216.578 106.96C216.578 105 218.298 103.52 220.298 103.52C222.158 103.52 223.818 104.88 223.918 106.92Z" fill="#ECEEF4"/>
<path d="M169.888 38.112H168.32L166.56 32.256L164.8 38.112H163.216L160.704 29.76H162.432L164.032 35.472L165.696 29.76H167.392L169.088 35.472L170.64 29.76H172.384L169.888 38.112ZM175.736 29.728V38.144H174.088V29.728H175.736ZM174.904 25.776C175.203 25.776 175.432 25.8667 175.592 26.048C175.763 26.2187 175.848 26.4427 175.848 26.72C175.848 26.9867 175.763 27.2107 175.592 27.392C175.432 27.5733 175.203 27.664 174.904 27.664C174.616 27.664 174.387 27.5733 174.216 27.392C174.045 27.2107 173.96 26.9867 173.96 26.72C173.96 26.4427 174.045 26.2187 174.216 26.048C174.387 25.8667 174.616 25.776 174.904 25.776ZM182.937 37.376C182.691 37.5893 182.419 37.7653 182.121 37.904C181.833 38.032 181.518 38.096 181.177 38.096C180.739 38.096 180.329 37.9787 179.945 37.744C179.561 37.5093 179.251 37.2 179.017 36.816C178.793 36.4213 178.681 36 178.681 35.552V26.848H180.393V35.552C180.393 35.8187 180.462 36.0267 180.601 36.176C180.739 36.3147 180.931 36.384 181.177 36.384C181.294 36.384 181.39 36.368 181.465 36.336C181.539 36.304 181.635 36.24 181.753 36.144L181.769 36.128L182.937 37.376ZM177.273 29.712H182.521V31.264H177.273V29.712ZM190.498 33.648C190.498 32.9973 190.338 32.4853 190.018 32.112C189.698 31.728 189.223 31.536 188.594 31.536C188.189 31.536 187.815 31.6427 187.474 31.856C187.143 32.0587 186.877 32.336 186.674 32.688C186.482 33.04 186.386 33.424 186.386 33.84V38.144H184.722V26H186.386V31.072C186.631 30.688 186.962 30.3893 187.378 30.176C187.805 29.952 188.221 29.84 188.626 29.84C189.319 29.84 189.927 30.0053 190.45 30.336C190.983 30.656 191.394 31.0933 191.682 31.648C191.97 32.192 192.114 32.7947 192.114 33.456V38.144H190.498V33.648Z" fill="#6E7891"/>
<path d="M46.4476 130H43.1676L42.5916 128.288H38.4796L37.8556 130H34.6076L39.3596 118.16H41.7436L46.4476 130ZM41.7916 125.888L40.5756 121.856L40.5276 121.84L39.3116 125.888H41.7916ZM56.6686 130H54.1406V129.04H54.1086C53.6126 129.856 52.7166 130.288 51.4526 130.288C48.7646 130.288 47.0046 128.224 47.0046 125.536C47.0046 122.88 48.8126 120.816 51.4046 120.816C52.4286 120.816 53.2606 121.12 54.0126 121.872V118.16H56.6686V130ZM51.8846 127.808C53.1806 127.808 54.1566 126.832 54.1566 125.52C54.1566 124.288 53.2126 123.296 51.9006 123.296C50.6526 123.296 49.6606 124.224 49.6606 125.52C49.6606 126.864 50.6046 127.808 51.8846 127.808ZM67.7125 130H65.1845V129.04H65.1525C64.6565 129.856 63.7605 130.288 62.4965 130.288C59.8085 130.288 58.0485 128.224 58.0485 125.536C58.0485 122.88 59.8565 120.816 62.4485 120.816C63.4725 120.816 64.3045 121.12 65.0565 121.872V118.16H67.7125V130ZM62.9285 127.808C64.2245 127.808 65.2005 126.832 65.2005 125.52C65.2005 124.288 64.2565 123.296 62.9445 123.296C61.6965 123.296 60.7045 124.224 60.7045 125.52C60.7045 126.864 61.6485 127.808 62.9285 127.808ZM78.4684 124.544H75.7804C75.3964 123.712 74.7084 123.296 73.7964 123.296C72.5804 123.296 71.7484 124.304 71.7484 125.552C71.7484 126.848 72.6284 127.808 73.8604 127.808C74.7564 127.808 75.3804 127.392 75.7804 126.624H78.4844C77.9564 128.848 76.0524 130.288 73.7804 130.288C71.1564 130.288 69.0764 128.16 69.0764 125.536C69.0764 122.88 71.1724 120.816 73.7324 120.816C76.0684 120.816 77.9724 122.288 78.4684 124.544ZM88.0419 130H85.3859V125.12C85.3859 123.968 84.9379 123.312 83.9619 123.312C82.9539 123.312 82.4739 123.904 82.4739 125.008V130H79.8179V118.16H82.4739V121.968C82.8579 121.248 83.7219 120.816 84.7779 120.816C86.8099 120.816 88.0419 122.096 88.0419 124.416V130ZM99.1273 130H96.4713V129.04H96.4393C96.0553 129.824 94.9993 130.304 93.8313 130.304C91.2073 130.304 89.3833 128.24 89.3833 125.552C89.3833 122.928 91.2873 120.816 93.8313 120.816C94.9193 120.816 95.9273 121.248 96.4393 122.064H96.4713V121.12H99.1273V130ZM94.2473 127.824C95.4953 127.824 96.4713 126.832 96.4713 125.552C96.4713 124.304 95.4633 123.296 94.2153 123.296C92.9993 123.296 92.0393 124.304 92.0393 125.584C92.0393 126.816 93.0153 127.824 94.2473 127.824ZM103.593 120.176H100.937V118.16H103.593V120.176ZM103.593 130H100.937V121.12H103.593V130ZM113.611 130H110.955V125.072C110.955 123.872 110.539 123.312 109.563 123.312C108.491 123.312 108.043 123.904 108.043 125.104V130H105.387V121.12H107.867V122.064H107.899C108.459 121.152 109.243 120.816 110.315 120.816C111.915 120.816 113.611 121.712 113.611 124.336V130Z" fill="white"/>
<defs>
<linearGradient id="paint0_linear_4424_10150" x1="79.5026" y1="50.1902" x2="47.4395" y2="94.7737" gradientUnits="userSpaceOnUse">
<stop offset="0.24" stop-color="#E90038"/>
<stop offset="0.78" stop-color="#2D6CFF"/>
<stop offset="1" stop-color="#6AB8FF"/>
</linearGradient>
<linearGradient id="paint1_linear_4424_10150" x1="86.7219" y1="58.3943" x2="69.742" y2="115.185" gradientUnits="userSpaceOnUse">
<stop offset="0.24" stop-color="#E90038"/>
<stop offset="0.78" stop-color="#2D6CFF"/>
<stop offset="1" stop-color="#6AB8FF"/>
</linearGradient>
<linearGradient id="paint2_linear_4424_10150" x1="211.633" y1="45.3446" x2="200.735" y2="123.006" gradientUnits="userSpaceOnUse">
<stop offset="0.24" stop-color="#E90038"/>
<stop offset="0.78" stop-color="#2D6CFF"/>
<stop offset="1" stop-color="#6AB8FF"/>
</linearGradient>
<clipPath id="clip0_4424_10150">
<rect width="32" height="32" fill="white" transform="translate(128 16)"/>
</clipPath>
</defs>
</svg>
