<svg width="72" height="43" viewBox="0 0 72 43" fill="none" xmlns="http://www.w3.org/2000/svg">
<path d="M40.0003 10.2821C34.9127 7.61686 29.1252 6.52321 23.3924 7.15114C17.6597 7.77907 12.2546 10.1153 7.88774 13.8256L1.74003 19.056C7.10831 22.2102 11.3004 26.9914 13.6653 32.7055L39.9911 10.3092L39.9875 10.284L40.0003 10.2821Z" fill="#9FBFFF"/>
<path d="M63.2115 5.20077C62.5531 4.45621 61.7557 3.83483 60.8669 3.39433C59.9781 2.95383 58.996 2.68156 58.0049 2.61708C57.0139 2.5526 55.9974 2.67246 55.047 2.97643C54.0966 3.2804 53.2142 3.78114 52.4565 4.41887L14.8235 36.4244C19.911 39.0896 25.6858 40.1851 31.4185 39.5572C37.1513 38.9293 42.5582 36.6057 46.9232 32.8827L70.1652 13.1225L63.2115 5.20077ZM59.0696 12.4281C58.9982 12.477 58.914 12.5278 58.8298 12.5786C58.7456 12.6294 58.6596 12.6675 58.5735 12.7057L58.3135 12.8075C58.2256 12.833 58.1377 12.8585 58.037 12.8858C57.9472 12.8987 57.8575 12.9115 57.7549 12.9262C57.6652 12.9391 57.5754 12.952 57.4692 12.9414C57.286 12.9418 57.0882 12.9314 56.9141 12.9048C56.8207 12.8923 56.7273 12.8799 56.643 12.8404C56.5477 12.8153 56.4652 12.7884 56.381 12.7489C56.2967 12.7093 56.2014 12.6842 56.1299 12.6429L55.888 12.5097C55.8146 12.4557 55.7285 12.4035 55.6552 12.3495C55.5819 12.2955 55.5067 12.2288 55.4443 12.1603C55.3087 12.0378 55.1821 11.8881 55.0831 11.7475C55.0336 11.6771 54.9822 11.5941 54.9308 11.5112C54.8795 11.4282 54.8409 11.3434 54.8024 11.2585C54.7638 11.1737 54.7381 11.0871 54.6995 11.0023C54.6738 10.9156 54.6481 10.8289 54.6205 10.7296C54.6076 10.6411 54.5947 10.5527 54.5799 10.4515C54.567 10.363 54.5523 10.2619 54.565 10.1697C54.5648 9.98906 54.5756 9.79392 54.6029 9.62223C54.6157 9.53006 54.6284 9.43789 54.6686 9.35469C54.6942 9.26069 54.7216 9.17932 54.7618 9.09612C54.802 9.01292 54.8275 8.91892 54.8696 8.84836C54.9098 8.76516 54.9629 8.68012 55.0049 8.60956C55.0598 8.53717 55.1128 8.45213 55.1677 8.37973C55.2226 8.30734 55.2903 8.23311 55.347 8.17335C55.4147 8.09912 55.4843 8.03753 55.5538 7.97594C55.6234 7.91435 55.6948 7.8654 55.7771 7.80197C55.8485 7.75302 55.9327 7.70223 56.0169 7.65145C56.1011 7.60066 56.1872 7.56252 56.2733 7.52437C56.4454 7.44809 56.6212 7.39708 56.8098 7.34424C56.8995 7.33138 56.9893 7.31852 57.0918 7.30382C57.1816 7.29096 57.2841 7.27626 57.3776 7.28869C57.4673 7.27582 57.5626 7.30089 57.656 7.31331L57.9345 7.33794C58.0279 7.35036 58.1232 7.37543 58.2056 7.40233C58.3009 7.4274 58.3834 7.4543 58.4677 7.49384C58.6472 7.55845 58.8177 7.65019 58.9753 7.74375C59.0486 7.79778 59.1348 7.84996 59.2081 7.90399C59.2814 7.95801 59.3566 8.02468 59.4171 8.08054L59.6169 8.28421C59.6793 8.35271 59.7306 8.43569 59.793 8.50419C59.8425 8.57453 59.8939 8.65752 59.9453 8.7405C59.9966 8.82348 60.0352 8.9083 60.0737 8.99312C60.1508 9.16276 60.2023 9.33607 60.2556 9.52202C60.2685 9.61052 60.2814 9.69901 60.2962 9.80015C60.3091 9.88864 60.3238 9.98977 60.3111 10.0819C60.3113 10.2626 60.3005 10.4577 60.2732 10.6294C60.2604 10.7216 60.2349 10.8156 60.2075 10.897C60.1819 10.991 60.1545 11.0723 60.1271 11.1537C60.0614 11.3309 59.9681 11.4991 59.873 11.6547C59.8181 11.7271 59.7651 11.8122 59.7102 11.8846C59.6553 11.957 59.5876 12.0312 59.5309 12.091C59.4614 12.1525 59.3937 12.2268 59.3223 12.2757C59.2527 12.3373 59.1704 12.4007 59.099 12.4497L59.0696 12.4281Z" fill="#3B72F2"/>
<path d="M57.8436 12.9134C56.2788 13.1377 54.8278 12.0686 54.6027 10.5256C54.3777 8.98256 55.4637 7.54993 57.0285 7.32569C58.5933 7.10145 60.0443 8.17052 60.2694 9.71353C60.4945 11.2565 59.4084 12.6892 57.8436 12.9134Z" fill="white"/>
</svg>
