<svg width="239" height="65" viewBox="0 0 239 65" fill="none" xmlns="http://www.w3.org/2000/svg">
<path d="M86.2379 22.4635H90.3492L94.1925 6.82248L98.0655 22.4635H102.058L108.016 0.417095H103.518L99.7935 16.4157L95.9204 0.417095H92.5241L88.6809 16.3859L84.927 0.417095H80.3986L86.2379 22.4635Z" fill="white"/>
<path d="M110.876 22.4635H123.24V18.5607H115.316V13.2279H123.091V9.32505H115.316V4.31991H123.24V0.417095H110.876V22.4635Z" fill="white"/>
<path d="M127.149 22.4635H138.828V18.5607H131.588V0.417095H127.149V22.4635Z" fill="white"/>
<path d="M141.471 22.4635H153.149V18.5607H145.91V0.417095H141.471V22.4635Z" fill="white"/>
<path d="M155.703 22.4635H163.031C171.046 22.4635 174.323 17.6371 174.323 11.4105C174.323 8.6994 173.667 6.25642 172.059 4.23053C169.437 0.685227 165.445 0.417095 162.704 0.417095H155.703V22.4635ZM160.142 4.31991H163.3C165.981 4.31991 167.471 5.33285 168.394 6.52455C169.437 7.89501 169.884 9.74214 169.884 11.4701C169.884 15.4325 168.037 18.5607 163.27 18.5607H160.142V4.31991Z" fill="white"/>
<path d="M176.838 11.6489C176.838 17.5478 181.605 22.8806 188.368 22.8806C195.101 22.8806 199.987 17.6967 199.987 11.4403C199.987 5.18389 195.071 0 188.397 0C182.26 0 176.838 4.55825 176.838 11.6191V11.6489ZM181.277 11.4105C181.277 7.5375 184.018 3.90281 188.427 3.90281C192.926 3.90281 195.548 7.77584 195.548 11.4701C195.548 15.1048 192.926 18.9778 188.457 18.9778C184.167 18.9778 181.277 15.4623 181.277 11.4403V11.4105Z" fill="white"/>
<path d="M207.423 0.417095H203.46V22.4635H207.72L207.631 7.20978L217.79 22.4635H221.723V0.417095H217.463L217.552 15.7006L207.423 0.417095Z" fill="white"/>
<path d="M226.219 22.4635H238.583V18.5607H230.658V13.2279H238.434V9.32505H230.658V4.31991H238.583V0.417095H226.219V22.4635Z" fill="white"/>
<path d="M82.0669 58.4635H89.1278C96.8738 58.4635 100.36 53.8457 100.36 47.4105C100.36 44.5207 99.6147 41.9883 97.9463 39.9922C95.5033 36.864 91.8389 36.4171 88.8894 36.4171H82.0669V58.4635ZM85.5825 39.5155H89.3363C92.1666 39.5155 93.9243 40.4987 95.0863 41.8393C96.3077 43.3289 96.8738 45.3548 96.8738 47.4701C96.8738 52.0581 94.4904 55.3651 89.3065 55.3651H85.5825V39.5155Z" fill="white"/>
<path d="M119.684 51.3431C119.952 48.632 119.148 46.0997 117.241 44.1631C115.692 42.6437 113.576 41.7797 111.253 41.7797C106.337 41.7797 102.702 45.7421 102.702 50.3898C102.702 54.6799 105.979 58.9402 111.282 58.9402C112.921 58.9402 114.53 58.4933 115.9 57.5698C117.271 56.676 118.403 55.3353 119.177 53.5478H115.96C115.066 55.2459 113.457 56.2887 111.282 56.2887C108.839 56.2887 105.979 54.6203 105.83 51.3431H119.684ZM105.89 48.9299C106.039 46.7253 108.095 44.4313 111.253 44.4313C114.321 44.3717 116.466 46.7849 116.615 48.9299H105.89Z" fill="white"/>
<path d="M136.081 42.2564H132.834L128.335 54.5905L123.836 42.2564H120.589L126.786 58.4635H129.884L136.081 42.2564Z" fill="white"/>
<path d="M153.738 51.3431C154.006 48.632 153.202 46.0997 151.295 44.1631C149.746 42.6437 147.631 41.7797 145.307 41.7797C140.391 41.7797 136.756 45.7421 136.756 50.3898C136.756 54.6799 140.034 58.9402 145.337 58.9402C146.975 58.9402 148.584 58.4933 149.954 57.5698C151.325 56.676 152.457 55.3353 153.232 53.5478H150.014C149.12 55.2459 147.511 56.2887 145.337 56.2887C142.894 56.2887 140.034 54.6203 139.885 51.3431H153.738ZM139.944 48.9299C140.093 46.7253 142.149 44.4313 145.307 44.4313C148.375 44.3717 150.521 46.7849 150.669 48.9299H139.944Z" fill="white"/>
<path d="M157.069 58.4635H160.167V36.4171H157.069V58.4635Z" fill="white"/>
<path d="M163.6 50.36C163.6 54.7097 166.788 58.9104 172.24 58.9104C177.692 58.9104 180.88 54.7097 180.88 50.36C180.88 46.0103 177.692 41.7797 172.24 41.7797C166.788 41.7797 163.6 46.0103 163.6 50.3302V50.36ZM166.699 50.36C166.699 47.1126 169.142 44.6994 172.24 44.6994C175.338 44.6994 177.781 47.1126 177.781 50.36C177.781 53.6074 175.338 56.0205 172.24 56.0205C169.142 56.0205 166.699 53.6074 166.699 50.3898V50.36Z" fill="white"/>
<path d="M184.344 64.3624H187.442V58.4635V55.7822C188.157 57.0931 190.153 58.9402 193.52 58.9402C198.376 58.9402 201.683 55.0374 201.683 50.4494C201.683 46.4274 199.061 41.7797 193.49 41.7797C190.6 41.7797 188.515 43.1502 187.293 45.0867V42.2564H184.344V64.3624ZM198.555 50.36C198.555 53.518 196.201 56.0503 192.924 56.0503C191.345 56.0503 189.915 55.4247 188.902 54.4118C187.889 53.3988 187.293 51.9986 187.293 50.3898C187.293 48.781 187.889 47.3509 188.872 46.338C189.885 45.2953 191.285 44.6696 192.894 44.6696C196.678 44.6696 198.555 47.6787 198.555 50.3302V50.36Z" fill="white"/>
<path d="M221.003 51.3431C221.271 48.632 220.467 46.0997 218.56 44.1631C217.011 42.6437 214.895 41.7797 212.572 41.7797C207.656 41.7797 204.021 45.7421 204.021 50.3898C204.021 54.6799 207.298 58.9402 212.601 58.9402C214.24 58.9402 215.849 58.4933 217.219 57.5698C218.59 56.676 219.722 55.3353 220.496 53.5478H217.279C216.385 55.2459 214.776 56.2887 212.601 56.2887C210.158 56.2887 207.298 54.6203 207.149 51.3431H221.003ZM207.209 48.9299C207.358 46.7253 209.414 44.4313 212.572 44.4313C215.64 44.3717 217.785 46.7849 217.934 48.9299H207.209Z" fill="white"/>
<path d="M224.333 58.4635H227.432V49.7045C227.432 46.487 228.951 44.8782 231.871 44.8782H232.079V41.7797C229.875 41.8095 228.176 42.7331 227.253 44.6398V42.2564H224.333V58.4635Z" fill="white"/>
<path d="M53.0882 0C52.0593 0 51.0406 0.203971 50.0913 0.607749C49.14 1.01153 48.2785 1.60263 47.5496 2.34774C46.8229 3.09494 46.2472 3.97951 45.8532 4.95565C45.4612 5.93179 45.2591 6.97662 45.2611 8.03186V59.1161C45.2611 59.7051 45.8368 60.1089 46.3635 59.8737C51.4101 57.6258 55.7463 53.9627 58.8657 49.2922C62.2096 44.2866 64 38.3589 64 32.2877V0.838777C64 0.376721 63.6346 0 63.1834 0H53.0882Z" fill="white"/>
<path d="M18.7369 0.832533C18.7369 0.372558 18.3714 0 17.9203 0H0.814555C0.363385 0 0 0.372558 0 0.832533V37.5722C0 37.7637 0.0632769 37.9489 0.181684 38.0967L17.2874 59.6322C17.7712 60.2421 18.7389 59.8924 18.7389 59.1077V0.832533H18.7369Z" fill="white"/>
<path d="M41.3693 8.03188V21.367C41.3693 21.7166 41.1549 22.0309 40.8324 22.1495C40.5425 22.2557 40.2526 22.366 39.9627 22.4784C37.1945 23.5732 34.5834 25.0384 32.205 26.8346C28.6467 29.5175 25.6436 32.9329 23.3898 36.8042C23.1775 37.1684 22.6324 37.0165 22.6324 36.5919V0.838792C22.6324 0.374655 22.9979 1.54575e-05 23.449 1.54575e-05H33.5443C34.5711 -0.00206587 35.5898 0.206067 36.5412 0.607764C37.4905 1.01154 38.354 1.60264 39.0808 2.34984C39.8076 3.09496 40.3853 3.9816 40.7773 4.95567C41.1713 5.93181 41.3713 6.97664 41.3693 8.03188Z" fill="white"/>
<path d="M41.3693 57.1228V27.3993C41.3693 26.8019 40.7691 26.394 40.2322 26.6333C38.2213 27.5283 36.3044 28.6543 34.5201 30.0009C29.4613 33.816 25.7396 39.19 23.9063 45.3278C23.055 48.1709 22.6324 51.1098 22.6324 54.0445V57.1228C22.6324 57.6681 23.1367 58.0635 23.6532 57.9261C26.3194 57.2247 29.1162 56.8501 31.9988 56.8501C34.8814 56.8501 37.6803 57.2247 40.3465 57.9282C40.8651 58.0656 41.3693 57.6701 41.3693 57.1248V57.1228Z" fill="url(#paint0_linear_1673_9007)"/>
<defs>
<linearGradient id="paint0_linear_1673_9007" x1="32.0009" y1="29.4993" x2="32.0009" y2="57.1706" gradientUnits="userSpaceOnUse">
<stop offset="0.28" stop-color="#2D6CFF"/>
<stop offset="0.97" stop-color="#6AB8FF"/>
</linearGradient>
</defs>
</svg>