<svg width="155" height="152" viewBox="0 0 155 152" fill="none" xmlns="http://www.w3.org/2000/svg">
<path opacity="0.33" d="M59.3161 149.459C84.976 148.298 105.487 140.943 105.129 133.032C104.772 125.12 83.68 119.648 58.0202 120.809C32.3603 121.969 11.849 129.324 12.2069 137.235C12.5647 145.147 33.6562 150.619 59.3161 149.459Z" fill="#070001"/>
<path d="M53.9153 102.84L51.2886 105.467L78.484 132.664L81.1107 130.037L53.9153 102.84Z" fill="#3B72F2"/>
<path d="M100.001 133.168H64.2405V131.459C64.2405 129.75 65.6274 128.339 67.3609 128.339H96.9057C98.6145 128.339 100.026 129.725 100.026 131.459V133.168H100.001Z" fill="#3B72F2"/>
<path d="M154.484 26.2522L95.9398 84.7995C84.9441 95.7957 70.8527 103.201 55.5727 106.074C40.2679 108.922 24.4925 107.089 10.2526 100.799L105.053 6.01819C106.96 4.11119 109.239 2.57569 111.74 1.56027C114.241 0.520091 116.916 0 119.615 0C122.315 0 124.989 0.544857 127.49 1.56027C129.992 2.60045 132.27 4.11119 134.177 6.01819L154.509 26.277L154.484 26.2522Z" fill="#3B72F2"/>
<path d="M62.3583 48.7399L97.178 83.586L95.9398 84.8243C84.9441 95.8205 70.8775 103.25 55.5727 106.098C40.2679 108.947 24.4925 107.114 10.2526 100.823L56.2414 54.8324L62.3583 48.7647V48.7399Z" fill="#3B72F2"/>
<path fill-rule="evenodd" clip-rule="evenodd" d="M100.323 75.4131C87.9407 64.4169 80.2883 49.0619 78.9757 32.5676L57.5837 43.227L57.5787 43.217L50.8674 46.5605V46.61L-6.10352e-05 71.9458C10.5746 83.5117 24.9631 90.892 40.5156 92.7247C49.1338 93.7896 57.8759 93.1705 66.2713 90.892C70.6547 89.7032 74.8895 88.0934 78.9262 86.0626L78.9213 86.0527L100.323 75.4131Z" fill="#9FBFFF"/>
<path d="M118.649 15.5284C122.24 15.355 125.311 17.7574 125.782 21.0017L126.426 20.4321C126.252 16.9401 122.389 14.2653 118.6 14.4635C114.811 14.6616 111.22 17.6583 111.393 21.1751L112.087 21.6704C112.235 18.4013 115.058 15.7018 118.649 15.5284V15.5284Z" fill="white" stroke="white" stroke-width="0.5" stroke-linejoin="round"/>
</svg>
