<svg width="160" height="160" viewBox="0 0 160 160" fill="none" xmlns="http://www.w3.org/2000/svg">
<rect width="160" height="160" rx="8" fill="#131417"/>
<path d="M68.5319 58.0474H20.1061V56.1411L62.7208 52.7859V56.1411H68.5319V50.4219C68.5319 46.2279 65.0801 43.2846 60.8651 43.8755L21.9657 49.343C17.7468 49.9378 14.295 53.8534 14.295 58.0474V96.1744C14.295 98.1968 15.1114 100.137 16.5644 101.566C18.0174 102.997 19.9882 103.8 22.0431 103.8H68.5319C70.5868 103.8 72.5576 102.997 74.0106 101.566C75.4637 100.137 76.28 98.1968 76.28 96.1744V65.6728C76.28 63.6504 75.4637 61.7109 74.0106 60.2808C72.5576 58.8508 70.5868 58.0474 68.5319 58.0474ZM62.7208 84.7592C61.9575 84.7592 61.2016 84.6112 60.4964 84.3232C59.7912 84.0352 59.1505 83.6136 58.6109 83.0824C58.0713 82.5512 57.6434 81.92 57.3515 81.2256C57.0595 80.532 56.9095 79.788 56.9097 79.036C56.9099 78.2851 57.0606 77.5412 57.3529 76.8472C57.6453 76.1532 58.0737 75.5227 58.6136 74.9916C59.1536 74.4606 59.7946 74.0394 60.5 73.7521C61.2053 73.4648 61.9613 73.3171 62.7247 73.3173C64.2664 73.3179 65.7447 73.9211 66.8345 74.9943C67.9244 76.0675 68.5362 77.5229 68.5358 79.04C68.5353 80.5576 67.9223 82.0128 66.8318 83.0848C65.7413 84.1576 64.2625 84.76 62.7208 84.7592Z" fill="#C4C9D4"/>
<path d="M36.03 95.2C44.0326 95.2 50.52 88.7529 50.52 80.8C50.52 72.8471 44.0326 66.4 36.03 66.4C28.0274 66.4 21.54 72.8471 21.54 80.8C21.54 88.7529 28.0274 95.2 36.03 95.2Z" fill="black"/>
<path d="M38.7323 86.5975V89.8815C36.9932 89.3031 35.1116 89.3031 33.3724 89.8815V73.6359H36.4952C37.0889 73.6359 37.6583 73.8702 38.0783 74.2873C38.4983 74.7044 38.7345 75.2703 38.7347 75.8603V77.3843L38.7323 86.5975Z" fill="white"/>
<path d="M38.7374 79.7547V89.88C36.9983 89.3008 35.1168 89.3008 33.3776 89.88V87.5176C33.3778 85.8368 33.8894 84.196 34.8451 82.8096C35.8008 81.4232 37.156 80.3568 38.7328 79.75L38.7374 79.7547Z" fill="#4F82F6"/>
<path d="M42.2062 73.6359C41.9232 73.6354 41.6429 73.6927 41.3814 73.8043C41.1198 73.9159 40.8822 74.0797 40.6821 74.2863C40.482 74.493 40.3234 74.7384 40.2153 75.0085C40.1071 75.2786 40.0518 75.5681 40.0522 75.8603V90.3471C41.5706 89.7407 42.8757 88.6743 43.7961 87.2879C44.7165 85.9015 45.2091 84.2599 45.209 82.5783V73.6359H42.2062Z" fill="white"/>
<path d="M32.058 77.3843V73.6359H26.9065V83.7695L32.058 90.3455V86.5975H32.0546V77.3843H32.058Z" fill="white"/>
<g opacity="0.8">
<path d="M127.748 36.6672L120.33 40.2414L127.748 44.8844L135.163 40.2414L127.748 36.6672Z" fill="#C4C9D4"/>
</g>
<g opacity="0.65">
<path opacity="0.65" d="M120.33 40.2394L127.748 44.8824V27.2L120.33 40.2394Z" fill="#C4C9D4"/>
</g>
<g opacity="0.9">
<path d="M127.748 27.2V44.8824L135.163 40.2394L127.748 27.2Z" fill="#C4C9D4"/>
</g>
<g opacity="0.65">
<path opacity="0.65" d="M120.33 41.7297L127.748 52.8013V46.3728L120.33 41.7297Z" fill="#C4C9D4"/>
</g>
<g opacity="0.8">
<path d="M127.748 46.3728V52.8013L135.169 41.7297L127.748 46.3728Z" fill="#C4C9D4"/>
</g>
<path d="M119.105 128.53C119.261 128.375 119.475 128.285 119.701 128.285H140.257C140.633 128.285 140.821 128.735 140.556 128.999L136.495 133.034C136.339 133.19 136.125 133.279 135.899 133.279H115.343C114.967 133.279 114.779 132.829 115.044 132.565L119.105 128.53Z" fill="#C4C9D4"/>
<path d="M119.105 113.462C119.267 113.307 119.481 113.217 119.701 113.217H140.257C140.633 113.217 140.821 113.668 140.556 113.932L136.495 117.967C136.339 118.122 136.125 118.212 135.899 118.212H115.343C114.967 118.212 114.779 117.762 115.044 117.498L119.105 113.462Z" fill="#C4C9D4"/>
<path d="M136.495 120.947C136.339 120.793 136.125 120.702 135.899 120.702H115.343C114.967 120.702 114.779 121.154 115.044 121.417L119.105 125.453C119.261 125.607 119.475 125.698 119.701 125.698H140.257C140.633 125.698 140.821 125.246 140.556 124.983L136.495 120.947Z" fill="#C4C9D4"/>
<path fill-rule="evenodd" clip-rule="evenodd" d="M127.8 94.4C134.914 94.4 140.68 88.6696 140.68 81.6C140.68 74.5308 134.914 68.8 127.8 68.8C120.686 68.8 114.92 74.5308 114.92 81.6C114.92 88.6696 120.686 94.4 127.8 94.4ZM127.838 70.7665C127.736 70.6731 127.683 70.6713 127.674 70.6713C127.666 70.6713 127.612 70.6731 127.51 70.7665C127.406 70.8625 127.28 71.0281 127.145 71.2834C126.875 71.7932 126.617 72.5636 126.394 73.5578C126.145 74.6758 125.947 76.0423 125.822 77.572C126.424 77.8616 127.044 78.1764 127.674 78.5145C128.304 78.1764 128.924 77.8615 129.526 77.5718C129.401 76.0422 129.204 74.6757 128.954 73.5578C128.731 72.5636 128.473 71.7932 128.203 71.2834C128.068 71.0281 127.942 70.8625 127.838 70.7665ZM127.147 78.8015C126.684 78.5572 126.229 78.326 125.782 78.1089C125.748 78.6013 125.721 79.1089 125.704 79.6291C125.94 79.4886 126.179 79.3487 126.422 79.2095C126.664 79.0703 126.906 78.9343 127.147 78.8015ZM125.337 77.342C125.698 73.1474 126.608 70.171 127.674 70.171C128.74 70.171 129.651 73.1473 130.012 77.3419C130.852 76.9509 131.654 76.6117 132.401 76.33C132.401 76.3184 132.4 76.3068 132.4 76.2951C132.4 75.8587 132.744 75.5049 133.169 75.5049C133.432 75.5049 133.664 75.6409 133.803 75.8483C135.736 75.2573 137.095 75.1838 137.433 75.7672C137.966 76.684 135.827 78.9553 132.35 81.3633C135.827 83.7713 137.966 86.0424 137.433 86.9592C136.901 87.876 133.85 87.1713 130.012 85.3849C129.651 89.5793 128.74 92.556 127.674 92.556C127.071 92.556 126.518 91.6024 126.085 90.0144C125.75 89.9296 125.5 89.6184 125.5 89.2472C125.5 89.0048 125.606 88.7888 125.772 88.644C125.588 87.6848 125.44 86.5849 125.337 85.3849C121.498 87.1713 118.447 87.876 117.915 86.9592C117.382 86.0424 119.521 83.7713 122.998 81.3633C122.28 80.8657 121.618 80.3736 121.026 79.8988C120.908 79.975 120.768 80.0193 120.618 80.0193C120.194 80.0193 119.85 79.6654 119.85 79.229C119.85 79.1279 119.868 79.0312 119.901 78.9423C118.353 77.5341 117.568 76.3639 117.915 75.7672C118.447 74.8504 121.498 75.5556 125.337 77.342ZM130.054 77.8751C130.945 77.4553 131.794 77.0944 132.577 76.7988C132.718 76.9737 132.93 77.0852 133.169 77.0852C133.581 77.0852 133.918 76.7506 133.936 76.3308C134.871 76.0442 135.639 75.8908 136.199 75.8685C136.489 75.8571 136.697 75.8821 136.833 75.9245C136.966 75.9657 136.993 76.0101 136.998 76.0176C137.002 76.0249 137.027 76.071 136.996 76.2056C136.965 76.3436 136.884 76.5342 136.728 76.7781C136.418 77.2649 135.876 77.8722 135.12 78.5606C134.271 79.3348 133.177 80.188 131.905 81.06C131.352 80.6872 130.768 80.312 130.159 79.939C130.138 79.228 130.103 78.538 130.054 77.8751ZM127.145 91.4432C126.952 91.0792 126.766 90.5809 126.593 89.9633C126.856 89.8377 127.038 89.564 127.038 89.2472C127.038 88.8104 126.693 88.4568 126.269 88.4568C126.265 88.4568 126.261 88.4568 126.257 88.4568C126.254 88.4568 126.251 88.4568 126.249 88.4568C126.068 87.4888 125.922 86.3736 125.822 85.1544C126.424 84.8648 127.044 84.5504 127.674 84.212C128.304 84.5504 128.924 84.8656 129.526 85.1552C129.401 86.6848 129.204 88.0512 128.954 89.1688C128.731 90.1632 128.473 90.9336 128.203 91.4432C128.068 91.6984 127.942 91.864 127.838 91.96C127.736 92.0536 127.683 92.0552 127.674 92.0552C127.666 92.0552 127.612 92.0536 127.51 91.96C127.406 91.864 127.28 91.6984 127.145 91.4432ZM123.442 81.06C122.67 80.5304 121.964 80.008 121.338 79.5061C121.37 79.4199 121.387 79.3265 121.387 79.229C121.387 78.7926 121.043 78.4388 120.618 78.4388C120.472 78.4388 120.336 78.4807 120.219 78.5532C119.468 77.8678 118.928 77.2632 118.62 76.7781C118.464 76.5342 118.383 76.3436 118.352 76.2056C118.321 76.071 118.346 76.025 118.35 76.0176C118.355 76.01 118.382 75.9656 118.515 75.9245C118.651 75.8821 118.858 75.8571 119.149 75.8685C119.728 75.8915 120.529 76.0548 121.507 76.3605C122.607 76.7044 123.897 77.2177 125.294 77.8753C125.245 78.538 125.21 79.228 125.19 79.9388C124.58 80.312 123.996 80.6872 123.442 81.06ZM123.442 81.6664C122.171 82.5384 121.077 83.392 120.227 84.1664C119.472 84.8544 118.929 85.4616 118.62 85.9488C118.464 86.1928 118.383 86.3832 118.352 86.5216C118.321 86.656 118.346 86.7016 118.35 86.7096C118.355 86.7168 118.382 86.7608 118.515 86.8024C118.651 86.8448 118.858 86.8696 119.149 86.8584C119.728 86.8352 120.529 86.672 121.507 86.3664C122.607 86.0224 123.897 85.5089 125.294 84.8513C125.245 84.1889 125.21 83.4984 125.19 82.788C124.58 82.4152 123.996 82.04 123.442 81.6664ZM125.176 82.1912C124.732 81.9152 124.302 81.6385 123.89 81.3633C124.302 81.0881 124.732 80.8112 125.176 80.536C125.172 80.8088 125.17 81.0849 125.17 81.3633C125.17 81.6417 125.172 81.9176 125.176 82.1912ZM125.686 82.5032C125.678 82.1288 125.673 81.7489 125.673 81.3633C125.673 80.9785 125.678 80.5984 125.686 80.224C126.008 80.0288 126.338 79.8352 126.673 79.6428C127.009 79.4502 127.343 79.2639 127.674 79.084C128.004 79.2639 128.339 79.4502 128.674 79.6428C129.01 79.8353 129.34 80.0296 129.662 80.224C129.671 80.5984 129.675 80.9785 129.675 81.3633C129.675 81.7481 129.671 82.1288 129.662 82.5032C129.34 82.6976 129.01 82.8913 128.674 83.0841C128.339 83.2769 128.004 83.4632 127.674 83.6432C127.343 83.4632 127.009 83.2769 126.674 83.0841C126.338 82.8913 126.008 82.6976 125.686 82.5032ZM125.704 83.0977C125.721 83.6177 125.748 84.1257 125.782 84.6177C126.229 84.4009 126.684 84.1696 127.147 83.9256C126.906 83.7928 126.664 83.6569 126.422 83.5177C126.179 83.3785 125.94 83.2385 125.704 83.0977ZM130.054 84.8521C131.451 85.5097 132.741 86.0224 133.841 86.3664C134.819 86.672 135.62 86.8352 136.199 86.8584C136.489 86.8696 136.697 86.8448 136.833 86.8024C136.966 86.7608 136.993 86.7168 136.998 86.7096C137.002 86.7016 137.027 86.656 136.996 86.5216C136.965 86.3832 136.884 86.1928 136.728 85.9488C136.418 85.4616 135.876 84.8544 135.12 84.1664C134.271 83.392 133.177 82.5384 131.905 81.6664C131.352 82.04 130.768 82.4152 130.159 82.788C130.138 83.4984 130.103 84.1889 130.054 84.8521ZM130.172 80.536C130.616 80.8112 131.046 81.0881 131.458 81.3633C131.046 81.6385 130.616 81.9152 130.172 82.1912C130.176 81.9176 130.178 81.6417 130.178 81.3633C130.178 81.0849 130.176 80.8088 130.172 80.536ZM129.645 79.6292C129.627 79.109 129.6 78.6013 129.566 78.1088C129.119 78.3259 128.664 78.5571 128.201 78.8015C128.442 78.9343 128.683 79.0703 128.926 79.2095C129.169 79.3487 129.408 79.4887 129.645 79.6292ZM129.566 84.6185C129.119 84.4009 128.664 84.1696 128.201 83.9256C128.442 83.7928 128.683 83.6569 128.926 83.5177C129.169 83.3785 129.408 83.2385 129.645 83.0977C129.627 83.6177 129.6 84.1257 129.566 84.6185ZM129.125 81.5984C129.125 82.3256 128.532 82.9152 127.8 82.9152C127.068 82.9152 126.475 82.3256 126.475 81.5984C126.475 80.8712 127.068 80.2816 127.8 80.2816C128.532 80.2816 129.125 80.8712 129.125 81.5984Z" fill="#C4C9D4"/>
<path d="M76.28 80.3199H110.09" stroke="#2EBBD1" stroke-width="1.2"/>
<path d="M112.907 40H106.87C99.7562 40 93.99 45.7307 93.99 52.8V67.6C93.99 74.6693 88.2238 80.4 81.11 80.4H76.6825" stroke="#2EBBD1" stroke-width="1.2"/>
<path d="M110.895 123.2H106.468C99.3537 123.2 93.5875 117.47 93.5875 110.4V93.2C93.5875 86.1304 87.8213 80.4 80.7075 80.4H76.28" stroke="#2EBBD1" stroke-width="1.2"/>
</svg>